<?xml version="1.0" encoding="utf-8" standalone="no"?>
<!DOCTYPE svg PUBLIC "-//W3C//DTD SVG 1.1//EN"
  "http://www.w3.org/Graphics/SVG/1.1/DTD/svg11.dtd">
<svg xmlns:xlink="http://www.w3.org/1999/xlink" width="404.923125pt" height="325.986375pt" viewBox="0 0 404.923125 325.986375" xmlns="http://www.w3.org/2000/svg" version="1.1">
 <metadata>
  <rdf:RDF xmlns:dc="http://purl.org/dc/elements/1.1/" xmlns:cc="http://creativecommons.org/ns#" xmlns:rdf="http://www.w3.org/1999/02/22-rdf-syntax-ns#">
   <cc:Work>
    <dc:type rdf:resource="http://purl.org/dc/dcmitype/StillImage"/>
    <dc:date>2023-10-22T17:16:13.296464</dc:date>
    <dc:format>image/svg+xml</dc:format>
    <dc:creator>
     <cc:Agent>
      <dc:title>Matplotlib v3.7.2, https://matplotlib.org/</dc:title>
     </cc:Agent>
    </dc:creator>
   </cc:Work>
  </rdf:RDF>
 </metadata>
 <defs>
  <style type="text/css">*{stroke-linejoin: round; stroke-linecap: butt}</style>
 </defs>
 <g id="figure_1">
  <g id="patch_1">
   <path d="M 0 325.986375 
L 404.923125 325.986375 
L 404.923125 0 
L 0 0 
z
" style="fill: #ffffff"/>
  </g>
  <g id="axes_1">
   <g id="patch_2">
    <path d="M 40.603125 288.430125 
L 397.723125 288.430125 
L 397.723125 22.318125 
L 40.603125 22.318125 
z
" style="fill: #ffffff"/>
   </g>
   <g id="patch_3">
    <path d="M 47.745525 288.430125 
L 50.342761 288.430125 
L 50.342761 237.330033 
L 47.745525 237.330033 
z
" clip-path="url(#p28b8797bcc)" style="fill: #e8d4cd"/>
   </g>
   <g id="patch_4">
    <path d="M 119.169525 288.430125 
L 121.766761 288.430125 
L 121.766761 261.402898 
L 119.169525 261.402898 
z
" clip-path="url(#p28b8797bcc)" style="fill: #e8d4cd"/>
   </g>
   <g id="patch_5">
    <path d="M 190.593525 288.430125 
L 193.190761 288.430125 
L 193.190761 244.224619 
L 190.593525 244.224619 
z
" clip-path="url(#p28b8797bcc)" style="fill: #e8d4cd"/>
   </g>
   <g id="patch_6">
    <path d="M 262.017525 288.430125 
L 264.614761 288.430125 
L 264.614761 268.114803 
L 262.017525 268.114803 
z
" clip-path="url(#p28b8797bcc)" style="fill: #e8d4cd"/>
   </g>
   <g id="patch_7">
    <path d="M 333.441525 288.430125 
L 336.038761 288.430125 
L 336.038761 275.573389 
L 333.441525 275.573389 
z
" clip-path="url(#p28b8797bcc)" style="fill: #e8d4cd"/>
   </g>
   <g id="patch_8">
    <path d="M 50.342761 288.430125 
L 52.939998 288.430125 
L 52.939998 268.599661 
L 50.342761 268.599661 
z
" clip-path="url(#p28b8797bcc)" style="fill: #e4cbc6"/>
   </g>
   <g id="patch_9">
    <path d="M 121.766761 288.430125 
L 124.363998 288.430125 
L 124.363998 252.316059 
L 121.766761 252.316059 
z
" clip-path="url(#p28b8797bcc)" style="fill: #e4cbc6"/>
   </g>
   <g id="patch_10">
    <path d="M 193.190761 288.430125 
L 195.787998 288.430125 
L 195.787998 276.394295 
L 193.190761 276.394295 
z
" clip-path="url(#p28b8797bcc)" style="fill: #e4cbc6"/>
   </g>
   <g id="patch_11">
    <path d="M 264.614761 288.430125 
L 267.211998 288.430125 
L 267.211998 252.229494 
L 264.614761 252.229494 
z
" clip-path="url(#p28b8797bcc)" style="fill: #e4cbc6"/>
   </g>
   <g id="patch_12">
    <path d="M 336.038761 288.430125 
L 338.635998 288.430125 
L 338.635998 262.850588 
L 336.038761 262.850588 
z
" clip-path="url(#p28b8797bcc)" style="fill: #e4cbc6"/>
   </g>
   <g id="patch_13">
    <path d="M 52.939998 288.430125 
L 55.537234 288.430125 
L 55.537234 264.755566 
L 52.939998 264.755566 
z
" clip-path="url(#p28b8797bcc)" style="fill: #dfc1be"/>
   </g>
   <g id="patch_14">
    <path d="M 124.363998 288.430125 
L 126.961234 288.430125 
L 126.961234 261.339515 
L 124.363998 261.339515 
z
" clip-path="url(#p28b8797bcc)" style="fill: #dfc1be"/>
   </g>
   <g id="patch_15">
    <path d="M 195.787998 288.430125 
L 198.385234 288.430125 
L 198.385234 264.315154 
L 195.787998 264.315154 
z
" clip-path="url(#p28b8797bcc)" style="fill: #dfc1be"/>
   </g>
   <g id="patch_16">
    <path d="M 267.211998 288.430125 
L 269.809234 288.430125 
L 269.809234 247.998822 
L 267.211998 247.998822 
z
" clip-path="url(#p28b8797bcc)" style="fill: #dfc1be"/>
   </g>
   <g id="patch_17">
    <path d="M 338.635998 288.430125 
L 341.233234 288.430125 
L 341.233234 233.798023 
L 338.635998 233.798023 
z
" clip-path="url(#p28b8797bcc)" style="fill: #dfc1be"/>
   </g>
   <g id="patch_18">
    <path d="M 55.537234 288.430125 
L 58.13447 288.430125 
L 58.13447 262.196804 
L 55.537234 262.196804 
z
" clip-path="url(#p28b8797bcc)" style="fill: #dbb8b8"/>
   </g>
   <g id="patch_19">
    <path d="M 126.961234 288.430125 
L 129.55847 288.430125 
L 129.55847 262.515811 
L 126.961234 262.515811 
z
" clip-path="url(#p28b8797bcc)" style="fill: #dbb8b8"/>
   </g>
   <g id="patch_20">
    <path d="M 198.385234 288.430125 
L 200.98247 288.430125 
L 200.98247 247.149086 
L 198.385234 247.149086 
z
" clip-path="url(#p28b8797bcc)" style="fill: #dbb8b8"/>
   </g>
   <g id="patch_21">
    <path d="M 269.809234 288.430125 
L 272.40647 288.430125 
L 272.40647 242.937745 
L 269.809234 242.937745 
z
" clip-path="url(#p28b8797bcc)" style="fill: #dbb8b8"/>
   </g>
   <g id="patch_22">
    <path d="M 341.233234 288.430125 
L 343.83047 288.430125 
L 343.83047 255.323037 
L 341.233234 255.323037 
z
" clip-path="url(#p28b8797bcc)" style="fill: #dbb8b8"/>
   </g>
   <g id="patch_23">
    <path d="M 58.13447 288.430125 
L 60.731707 288.430125 
L 60.731707 250.984271 
L 58.13447 250.984271 
z
" clip-path="url(#p28b8797bcc)" style="fill: #d5adb1"/>
   </g>
   <g id="patch_24">
    <path d="M 129.55847 288.430125 
L 132.155707 288.430125 
L 132.155707 273.450601 
L 129.55847 273.450601 
z
" clip-path="url(#p28b8797bcc)" style="fill: #d5adb1"/>
   </g>
   <g id="patch_25">
    <path d="M 200.98247 288.430125 
L 203.579707 288.430125 
L 203.579707 224.963606 
L 200.98247 224.963606 
z
" clip-path="url(#p28b8797bcc)" style="fill: #d5adb1"/>
   </g>
   <g id="patch_26">
    <path d="M 272.40647 288.430125 
L 275.003707 288.430125 
L 275.003707 245.454184 
L 272.40647 245.454184 
z
" clip-path="url(#p28b8797bcc)" style="fill: #d5adb1"/>
   </g>
   <g id="patch_27">
    <path d="M 343.83047 288.430125 
L 346.427707 288.430125 
L 346.427707 270.429869 
L 343.83047 270.429869 
z
" clip-path="url(#p28b8797bcc)" style="fill: #d5adb1"/>
   </g>
   <g id="patch_28">
    <path d="M 60.731707 288.430125 
L 63.328943 288.430125 
L 63.328943 234.293899 
L 60.731707 234.293899 
z
" clip-path="url(#p28b8797bcc)" style="fill: #cfa4ac"/>
   </g>
   <g id="patch_29">
    <path d="M 132.155707 288.430125 
L 134.752943 288.430125 
L 134.752943 244.887131 
L 132.155707 244.887131 
z
" clip-path="url(#p28b8797bcc)" style="fill: #cfa4ac"/>
   </g>
   <g id="patch_30">
    <path d="M 203.579707 288.430125 
L 206.176943 288.430125 
L 206.176943 245.586577 
L 203.579707 245.586577 
z
" clip-path="url(#p28b8797bcc)" style="fill: #cfa4ac"/>
   </g>
   <g id="patch_31">
    <path d="M 275.003707 288.430125 
L 277.600943 288.430125 
L 277.600943 238.610619 
L 275.003707 238.610619 
z
" clip-path="url(#p28b8797bcc)" style="fill: #cfa4ac"/>
   </g>
   <g id="patch_32">
    <path d="M 346.427707 288.430125 
L 349.024943 288.430125 
L 349.024943 206.102485 
L 346.427707 206.102485 
z
" clip-path="url(#p28b8797bcc)" style="fill: #cfa4ac"/>
   </g>
   <g id="patch_33">
    <path d="M 63.328943 288.430125 
L 65.92618 288.430125 
L 65.92618 255.652419 
L 63.328943 255.652419 
z
" clip-path="url(#p28b8797bcc)" style="fill: #c899a7"/>
   </g>
   <g id="patch_34">
    <path d="M 134.752943 288.430125 
L 137.35018 288.430125 
L 137.35018 248.521957 
L 134.752943 248.521957 
z
" clip-path="url(#p28b8797bcc)" style="fill: #c899a7"/>
   </g>
   <g id="patch_35">
    <path d="M 206.176943 288.430125 
L 208.77418 288.430125 
L 208.77418 215.614417 
L 206.176943 215.614417 
z
" clip-path="url(#p28b8797bcc)" style="fill: #c899a7"/>
   </g>
   <g id="patch_36">
    <path d="M 277.600943 288.430125 
L 280.19818 288.430125 
L 280.19818 256.12848 
L 277.600943 256.12848 
z
" clip-path="url(#p28b8797bcc)" style="fill: #c899a7"/>
   </g>
   <g id="patch_37">
    <path d="M 349.024943 288.430125 
L 351.62218 288.430125 
L 351.62218 267.602801 
L 349.024943 267.602801 
z
" clip-path="url(#p28b8797bcc)" style="fill: #c899a7"/>
   </g>
   <g id="patch_38">
    <path d="M 65.92618 288.430125 
L 68.523416 288.430125 
L 68.523416 229.588012 
L 65.92618 229.588012 
z
" clip-path="url(#p28b8797bcc)" style="fill: #c08fa2"/>
   </g>
   <g id="patch_39">
    <path d="M 137.35018 288.430125 
L 139.947416 288.430125 
L 139.947416 227.509842 
L 137.35018 227.509842 
z
" clip-path="url(#p28b8797bcc)" style="fill: #c08fa2"/>
   </g>
   <g id="patch_40">
    <path d="M 208.77418 288.430125 
L 211.371416 288.430125 
L 211.371416 232.396315 
L 208.77418 232.396315 
z
" clip-path="url(#p28b8797bcc)" style="fill: #c08fa2"/>
   </g>
   <g id="patch_41">
    <path d="M 280.19818 288.430125 
L 282.795416 288.430125 
L 282.795416 256.775973 
L 280.19818 256.775973 
z
" clip-path="url(#p28b8797bcc)" style="fill: #c08fa2"/>
   </g>
   <g id="patch_42">
    <path d="M 351.62218 288.430125 
L 354.219416 288.430125 
L 354.219416 253.007945 
L 351.62218 253.007945 
z
" clip-path="url(#p28b8797bcc)" style="fill: #c08fa2"/>
   </g>
   <g id="patch_43">
    <path d="M 68.523416 288.430125 
L 71.120652 288.430125 
L 71.120652 252.26254 
L 68.523416 252.26254 
z
" clip-path="url(#p28b8797bcc)" style="fill: #b8869d"/>
   </g>
   <g id="patch_44">
    <path d="M 139.947416 288.430125 
L 142.544652 288.430125 
L 142.544652 256.456582 
L 139.947416 256.456582 
z
" clip-path="url(#p28b8797bcc)" style="fill: #b8869d"/>
   </g>
   <g id="patch_45">
    <path d="M 211.371416 288.430125 
L 213.968652 288.430125 
L 213.968652 240.219475 
L 211.371416 240.219475 
z
" clip-path="url(#p28b8797bcc)" style="fill: #b8869d"/>
   </g>
   <g id="patch_46">
    <path d="M 282.795416 288.430125 
L 285.392652 288.430125 
L 285.392652 244.110149 
L 282.795416 244.110149 
z
" clip-path="url(#p28b8797bcc)" style="fill: #b8869d"/>
   </g>
   <g id="patch_47">
    <path d="M 354.219416 288.430125 
L 356.816652 288.430125 
L 356.816652 237.047256 
L 354.219416 237.047256 
z
" clip-path="url(#p28b8797bcc)" style="fill: #b8869d"/>
   </g>
   <g id="patch_48">
    <path d="M 71.120652 288.430125 
L 73.717889 288.430125 
L 73.717889 230.728731 
L 71.120652 230.728731 
z
" clip-path="url(#p28b8797bcc)" style="fill: #af7d99"/>
   </g>
   <g id="patch_49">
    <path d="M 142.544652 288.430125 
L 145.141889 288.430125 
L 145.141889 185.124233 
L 142.544652 185.124233 
z
" clip-path="url(#p28b8797bcc)" style="fill: #af7d99"/>
   </g>
   <g id="patch_50">
    <path d="M 213.968652 288.430125 
L 216.565889 288.430125 
L 216.565889 246.61301 
L 213.968652 246.61301 
z
" clip-path="url(#p28b8797bcc)" style="fill: #af7d99"/>
   </g>
   <g id="patch_51">
    <path d="M 285.392652 288.430125 
L 287.989889 288.430125 
L 287.989889 239.143659 
L 285.392652 239.143659 
z
" clip-path="url(#p28b8797bcc)" style="fill: #af7d99"/>
   </g>
   <g id="patch_52">
    <path d="M 356.816652 288.430125 
L 359.413889 288.430125 
L 359.413889 177.339629 
L 356.816652 177.339629 
z
" clip-path="url(#p28b8797bcc)" style="fill: #af7d99"/>
   </g>
   <g id="patch_53">
    <path d="M 73.717889 288.430125 
L 76.315125 288.430125 
L 76.315125 239.382737 
L 73.717889 239.382737 
z
" clip-path="url(#p28b8797bcc)" style="fill: #a57494"/>
   </g>
   <g id="patch_54">
    <path d="M 145.141889 288.430125 
L 147.739125 288.430125 
L 147.739125 234.643045 
L 145.141889 234.643045 
z
" clip-path="url(#p28b8797bcc)" style="fill: #a57494"/>
   </g>
   <g id="patch_55">
    <path d="M 216.565889 288.430125 
L 219.163125 288.430125 
L 219.163125 210.406211 
L 216.565889 210.406211 
z
" clip-path="url(#p28b8797bcc)" style="fill: #a57494"/>
   </g>
   <g id="patch_56">
    <path d="M 287.989889 288.430125 
L 290.587125 288.430125 
L 290.587125 240.821614 
L 287.989889 240.821614 
z
" clip-path="url(#p28b8797bcc)" style="fill: #a57494"/>
   </g>
   <g id="patch_57">
    <path d="M 359.413889 288.430125 
L 362.011125 288.430125 
L 362.011125 252.127896 
L 359.413889 252.127896 
z
" clip-path="url(#p28b8797bcc)" style="fill: #a57494"/>
   </g>
   <g id="patch_58">
    <path d="M 76.315125 288.430125 
L 78.912361 288.430125 
L 78.912361 241.161223 
L 76.315125 241.161223 
z
" clip-path="url(#p28b8797bcc)" style="fill: #9a6b8e"/>
   </g>
   <g id="patch_59">
    <path d="M 147.739125 288.430125 
L 150.336361 288.430125 
L 150.336361 252.666463 
L 147.739125 252.666463 
z
" clip-path="url(#p28b8797bcc)" style="fill: #9a6b8e"/>
   </g>
   <g id="patch_60">
    <path d="M 219.163125 288.430125 
L 221.760361 288.430125 
L 221.760361 247.958331 
L 219.163125 247.958331 
z
" clip-path="url(#p28b8797bcc)" style="fill: #9a6b8e"/>
   </g>
   <g id="patch_61">
    <path d="M 290.587125 288.430125 
L 293.184361 288.430125 
L 293.184361 245.857077 
L 290.587125 245.857077 
z
" clip-path="url(#p28b8797bcc)" style="fill: #9a6b8e"/>
   </g>
   <g id="patch_62">
    <path d="M 362.011125 288.430125 
L 364.608361 288.430125 
L 364.608361 260.044084 
L 362.011125 260.044084 
z
" clip-path="url(#p28b8797bcc)" style="fill: #9a6b8e"/>
   </g>
   <g id="patch_63">
    <path d="M 78.912361 288.430125 
L 81.509598 288.430125 
L 81.509598 241.939665 
L 78.912361 241.939665 
z
" clip-path="url(#p28b8797bcc)" style="fill: #8e6288"/>
   </g>
   <g id="patch_64">
    <path d="M 150.336361 288.430125 
L 152.933598 288.430125 
L 152.933598 250.82033 
L 150.336361 250.82033 
z
" clip-path="url(#p28b8797bcc)" style="fill: #8e6288"/>
   </g>
   <g id="patch_65">
    <path d="M 221.760361 288.430125 
L 224.357598 288.430125 
L 224.357598 239.047873 
L 221.760361 239.047873 
z
" clip-path="url(#p28b8797bcc)" style="fill: #8e6288"/>
   </g>
   <g id="patch_66">
    <path d="M 293.184361 288.430125 
L 295.781598 288.430125 
L 295.781598 207.96851 
L 293.184361 207.96851 
z
" clip-path="url(#p28b8797bcc)" style="fill: #8e6288"/>
   </g>
   <g id="patch_67">
    <path d="M 364.608361 288.430125 
L 367.205598 288.430125 
L 367.205598 229.099168 
L 364.608361 229.099168 
z
" clip-path="url(#p28b8797bcc)" style="fill: #8e6288"/>
   </g>
   <g id="patch_68">
    <path d="M 81.509598 288.430125 
L 84.106834 288.430125 
L 84.106834 244.543606 
L 81.509598 244.543606 
z
" clip-path="url(#p28b8797bcc)" style="fill: #835b82"/>
   </g>
   <g id="patch_69">
    <path d="M 152.933598 288.430125 
L 155.530834 288.430125 
L 155.530834 252.855715 
L 152.933598 252.855715 
z
" clip-path="url(#p28b8797bcc)" style="fill: #835b82"/>
   </g>
   <g id="patch_70">
    <path d="M 224.357598 288.430125 
L 226.954834 288.430125 
L 226.954834 214.067972 
L 224.357598 214.067972 
z
" clip-path="url(#p28b8797bcc)" style="fill: #835b82"/>
   </g>
   <g id="patch_71">
    <path d="M 295.781598 288.430125 
L 298.378834 288.430125 
L 298.378834 250.862457 
L 295.781598 250.862457 
z
" clip-path="url(#p28b8797bcc)" style="fill: #835b82"/>
   </g>
   <g id="patch_72">
    <path d="M 367.205598 288.430125 
L 369.802834 288.430125 
L 369.802834 223.442014 
L 367.205598 223.442014 
z
" clip-path="url(#p28b8797bcc)" style="fill: #835b82"/>
   </g>
   <g id="patch_73">
    <path d="M 84.106834 288.430125 
L 86.70407 288.430125 
L 86.70407 252.615987 
L 84.106834 252.615987 
z
" clip-path="url(#p28b8797bcc)" style="fill: #79547d"/>
   </g>
   <g id="patch_74">
    <path d="M 155.530834 288.430125 
L 158.12807 288.430125 
L 158.12807 241.242898 
L 155.530834 241.242898 
z
" clip-path="url(#p28b8797bcc)" style="fill: #79547d"/>
   </g>
   <g id="patch_75">
    <path d="M 226.954834 288.430125 
L 229.55207 288.430125 
L 229.55207 238.831353 
L 226.954834 238.831353 
z
" clip-path="url(#p28b8797bcc)" style="fill: #79547d"/>
   </g>
   <g id="patch_76">
    <path d="M 298.378834 288.430125 
L 300.97607 288.430125 
L 300.97607 247.77 
L 298.378834 247.77 
z
" clip-path="url(#p28b8797bcc)" style="fill: #79547d"/>
   </g>
   <g id="patch_77">
    <path d="M 369.802834 288.430125 
L 372.40007 288.430125 
L 372.40007 261.439015 
L 369.802834 261.439015 
z
" clip-path="url(#p28b8797bcc)" style="fill: #79547d"/>
   </g>
   <g id="patch_78">
    <path d="M 86.70407 288.430125 
L 89.301307 288.430125 
L 89.301307 240.650867 
L 86.70407 240.650867 
z
" clip-path="url(#p28b8797bcc)" style="fill: #6d4d76"/>
   </g>
   <g id="patch_79">
    <path d="M 158.12807 288.430125 
L 160.725307 288.430125 
L 160.725307 238.759557 
L 158.12807 238.759557 
z
" clip-path="url(#p28b8797bcc)" style="fill: #6d4d76"/>
   </g>
   <g id="patch_80">
    <path d="M 229.55207 288.430125 
L 232.149307 288.430125 
L 232.149307 246.763828 
L 229.55207 246.763828 
z
" clip-path="url(#p28b8797bcc)" style="fill: #6d4d76"/>
   </g>
   <g id="patch_81">
    <path d="M 300.97607 288.430125 
L 303.573307 288.430125 
L 303.573307 244.832138 
L 300.97607 244.832138 
z
" clip-path="url(#p28b8797bcc)" style="fill: #6d4d76"/>
   </g>
   <g id="patch_82">
    <path d="M 372.40007 288.430125 
L 374.997307 288.430125 
L 374.997307 239.671962 
L 372.40007 239.671962 
z
" clip-path="url(#p28b8797bcc)" style="fill: #6d4d76"/>
   </g>
   <g id="patch_83">
    <path d="M 89.301307 288.430125 
L 91.898543 288.430125 
L 91.898543 232.050642 
L 89.301307 232.050642 
z
" clip-path="url(#p28b8797bcc)" style="fill: #60466e"/>
   </g>
   <g id="patch_84">
    <path d="M 160.725307 288.430125 
L 163.322543 288.430125 
L 163.322543 219.821878 
L 160.725307 219.821878 
z
" clip-path="url(#p28b8797bcc)" style="fill: #60466e"/>
   </g>
   <g id="patch_85">
    <path d="M 232.149307 288.430125 
L 234.746543 288.430125 
L 234.746543 214.076973 
L 232.149307 214.076973 
z
" clip-path="url(#p28b8797bcc)" style="fill: #60466e"/>
   </g>
   <g id="patch_86">
    <path d="M 303.573307 288.430125 
L 306.170543 288.430125 
L 306.170543 238.849487 
L 303.573307 238.849487 
z
" clip-path="url(#p28b8797bcc)" style="fill: #60466e"/>
   </g>
   <g id="patch_87">
    <path d="M 374.997307 288.430125 
L 377.594543 288.430125 
L 377.594543 229.982886 
L 374.997307 229.982886 
z
" clip-path="url(#p28b8797bcc)" style="fill: #60466e"/>
   </g>
   <g id="patch_88">
    <path d="M 91.898543 288.430125 
L 94.49578 288.430125 
L 94.49578 194.553409 
L 91.898543 194.553409 
z
" clip-path="url(#p28b8797bcc)" style="fill: #554066"/>
   </g>
   <g id="patch_89">
    <path d="M 163.322543 288.430125 
L 165.91978 288.430125 
L 165.91978 196.924822 
L 163.322543 196.924822 
z
" clip-path="url(#p28b8797bcc)" style="fill: #554066"/>
   </g>
   <g id="patch_90">
    <path d="M 234.746543 288.430125 
L 237.34378 288.430125 
L 237.34378 169.590757 
L 234.746543 169.590757 
z
" clip-path="url(#p28b8797bcc)" style="fill: #554066"/>
   </g>
   <g id="patch_91">
    <path d="M 306.170543 288.430125 
L 308.76778 288.430125 
L 308.76778 195.500118 
L 306.170543 195.500118 
z
" clip-path="url(#p28b8797bcc)" style="fill: #554066"/>
   </g>
   <g id="patch_92">
    <path d="M 377.594543 288.430125 
L 380.19178 288.430125 
L 380.19178 153.251839 
L 377.594543 153.251839 
z
" clip-path="url(#p28b8797bcc)" style="fill: #554066"/>
   </g>
   <g id="patch_93">
    <path d="M 94.49578 288.430125 
L 97.093016 288.430125 
L 97.093016 168.30436 
L 94.49578 168.30436 
z
" clip-path="url(#p28b8797bcc)" style="fill: #493a5c"/>
   </g>
   <g id="patch_94">
    <path d="M 165.91978 288.430125 
L 168.517016 288.430125 
L 168.517016 173.473081 
L 165.91978 173.473081 
z
" clip-path="url(#p28b8797bcc)" style="fill: #493a5c"/>
   </g>
   <g id="patch_95">
    <path d="M 237.34378 288.430125 
L 239.941016 288.430125 
L 239.941016 149.845005 
L 237.34378 149.845005 
z
" clip-path="url(#p28b8797bcc)" style="fill: #493a5c"/>
   </g>
   <g id="patch_96">
    <path d="M 308.76778 288.430125 
L 311.365016 288.430125 
L 311.365016 175.394719 
L 308.76778 175.394719 
z
" clip-path="url(#p28b8797bcc)" style="fill: #493a5c"/>
   </g>
   <g id="patch_97">
    <path d="M 380.19178 288.430125 
L 382.789016 288.430125 
L 382.789016 137.436188 
L 380.19178 137.436188 
z
" clip-path="url(#p28b8797bcc)" style="fill: #493a5c"/>
   </g>
   <g id="patch_98">
    <path d="M 97.093016 288.430125 
L 99.690252 288.430125 
L 99.690252 136.496226 
L 97.093016 136.496226 
z
" clip-path="url(#p28b8797bcc)" style="fill: #3e3353"/>
   </g>
   <g id="patch_99">
    <path d="M 168.517016 288.430125 
L 171.114252 288.430125 
L 171.114252 159.317646 
L 168.517016 159.317646 
z
" clip-path="url(#p28b8797bcc)" style="fill: #3e3353"/>
   </g>
   <g id="patch_100">
    <path d="M 239.941016 288.430125 
L 242.538252 288.430125 
L 242.538252 136.78313 
L 239.941016 136.78313 
z
" clip-path="url(#p28b8797bcc)" style="fill: #3e3353"/>
   </g>
   <g id="patch_101">
    <path d="M 311.365016 288.430125 
L 313.962252 288.430125 
L 313.962252 166.910251 
L 311.365016 166.910251 
z
" clip-path="url(#p28b8797bcc)" style="fill: #3e3353"/>
   </g>
   <g id="patch_102">
    <path d="M 382.789016 288.430125 
L 385.386252 288.430125 
L 385.386252 126.014584 
L 382.789016 126.014584 
z
" clip-path="url(#p28b8797bcc)" style="fill: #3e3353"/>
   </g>
   <g id="patch_103">
    <path d="M 99.690252 288.430125 
L 102.287489 288.430125 
L 102.287489 133.198434 
L 99.690252 133.198434 
z
" clip-path="url(#p28b8797bcc)" style="fill: #322c47"/>
   </g>
   <g id="patch_104">
    <path d="M 171.114252 288.430125 
L 173.711489 288.430125 
L 173.711489 156.769908 
L 171.114252 156.769908 
z
" clip-path="url(#p28b8797bcc)" style="fill: #322c47"/>
   </g>
   <g id="patch_105">
    <path d="M 242.538252 288.430125 
L 245.135489 288.430125 
L 245.135489 110.211939 
L 242.538252 110.211939 
z
" clip-path="url(#p28b8797bcc)" style="fill: #322c47"/>
   </g>
   <g id="patch_106">
    <path d="M 313.962252 288.430125 
L 316.559489 288.430125 
L 316.559489 151.256151 
L 313.962252 151.256151 
z
" clip-path="url(#p28b8797bcc)" style="fill: #322c47"/>
   </g>
   <g id="patch_107">
    <path d="M 385.386252 288.430125 
L 387.983489 288.430125 
L 387.983489 110.982086 
L 385.386252 110.982086 
z
" clip-path="url(#p28b8797bcc)" style="fill: #322c47"/>
   </g>
   <g id="patch_108">
    <path d="M 102.287489 288.430125 
L 104.884725 288.430125 
L 104.884725 69.606434 
L 102.287489 69.606434 
z
" clip-path="url(#p28b8797bcc)" style="fill: #28253c"/>
   </g>
   <g id="patch_109">
    <path d="M 173.711489 288.430125 
L 176.308725 288.430125 
L 176.308725 104.791448 
L 173.711489 104.791448 
z
" clip-path="url(#p28b8797bcc)" style="fill: #28253c"/>
   </g>
   <g id="patch_110">
    <path d="M 245.135489 288.430125 
L 247.732725 288.430125 
L 247.732725 34.990125 
L 245.135489 34.990125 
z
" clip-path="url(#p28b8797bcc)" style="fill: #28253c"/>
   </g>
   <g id="patch_111">
    <path d="M 316.559489 288.430125 
L 319.156725 288.430125 
L 319.156725 99.467694 
L 316.559489 99.467694 
z
" clip-path="url(#p28b8797bcc)" style="fill: #28253c"/>
   </g>
   <g id="patch_112">
    <path d="M 387.983489 288.430125 
L 390.580725 288.430125 
L 390.580725 63.415756 
L 387.983489 63.415756 
z
" clip-path="url(#p28b8797bcc)" style="fill: #28253c"/>
   </g>
   <g id="patch_113">
    <path d="M 76.315125 288.430125 
L 76.315125 288.430125 
L 76.315125 288.430125 
L 76.315125 288.430125 
z
" clip-path="url(#p28b8797bcc)" style="fill: #e4cbc6"/>
   </g>
   <g id="patch_114">
    <path d="M 76.315125 288.430125 
L 76.315125 288.430125 
L 76.315125 288.430125 
L 76.315125 288.430125 
z
" clip-path="url(#p28b8797bcc)" style="fill: #cfa4ac"/>
   </g>
   <g id="patch_115">
    <path d="M 76.315125 288.430125 
L 76.315125 288.430125 
L 76.315125 288.430125 
L 76.315125 288.430125 
z
" clip-path="url(#p28b8797bcc)" style="fill: #af7d99"/>
   </g>
   <g id="patch_116">
    <path d="M 76.315125 288.430125 
L 76.315125 288.430125 
L 76.315125 288.430125 
L 76.315125 288.430125 
z
" clip-path="url(#p28b8797bcc)" style="fill: #835b82"/>
   </g>
   <g id="patch_117">
    <path d="M 76.315125 288.430125 
L 76.315125 288.430125 
L 76.315125 288.430125 
L 76.315125 288.430125 
z
" clip-path="url(#p28b8797bcc)" style="fill: #554066"/>
   </g>
   <g id="patch_118">
    <path d="M 76.315125 288.430125 
L 76.315125 288.430125 
L 76.315125 288.430125 
L 76.315125 288.430125 
z
" clip-path="url(#p28b8797bcc)" style="fill: #28253c"/>
   </g>
   <g id="matplotlib.axis_1">
    <g id="xtick_1">
     <g id="line2d_1">
      <defs>
       <path id="mbeb0a8e27b" d="M 0 0 
L 0 3.5 
" style="stroke: #000000; stroke-width: 0.8"/>
      </defs>
      <g>
       <use xlink:href="#mbeb0a8e27b" x="76.315125" y="288.430125" style="stroke: #000000; stroke-width: 0.8"/>
      </g>
     </g>
     <g id="text_1">
      <!-- 1 -->
      <g transform="translate(73.133875 303.028562) scale(0.1 -0.1)">
       <defs>
        <path id="DejaVuSans-31" d="M 794 531 
L 1825 531 
L 1825 4091 
L 703 3866 
L 703 4441 
L 1819 4666 
L 2450 4666 
L 2450 531 
L 3481 531 
L 3481 0 
L 794 0 
L 794 531 
z
" transform="scale(0.015625)"/>
       </defs>
       <use xlink:href="#DejaVuSans-31"/>
      </g>
     </g>
    </g>
    <g id="xtick_2">
     <g id="line2d_2">
      <g>
       <use xlink:href="#mbeb0a8e27b" x="147.739125" y="288.430125" style="stroke: #000000; stroke-width: 0.8"/>
      </g>
     </g>
     <g id="text_2">
      <!-- 2 -->
      <g transform="translate(144.557875 303.028562) scale(0.1 -0.1)">
       <defs>
        <path id="DejaVuSans-32" d="M 1228 531 
L 3431 531 
L 3431 0 
L 469 0 
L 469 531 
Q 828 903 1448 1529 
Q 2069 2156 2228 2338 
Q 2531 2678 2651 2914 
Q 2772 3150 2772 3378 
Q 2772 3750 2511 3984 
Q 2250 4219 1831 4219 
Q 1534 4219 1204 4116 
Q 875 4013 500 3803 
L 500 4441 
Q 881 4594 1212 4672 
Q 1544 4750 1819 4750 
Q 2544 4750 2975 4387 
Q 3406 4025 3406 3419 
Q 3406 3131 3298 2873 
Q 3191 2616 2906 2266 
Q 2828 2175 2409 1742 
Q 1991 1309 1228 531 
z
" transform="scale(0.015625)"/>
       </defs>
       <use xlink:href="#DejaVuSans-32"/>
      </g>
     </g>
    </g>
    <g id="xtick_3">
     <g id="line2d_3">
      <g>
       <use xlink:href="#mbeb0a8e27b" x="219.163125" y="288.430125" style="stroke: #000000; stroke-width: 0.8"/>
      </g>
     </g>
     <g id="text_3">
      <!-- 3 -->
      <g transform="translate(215.981875 303.028562) scale(0.1 -0.1)">
       <defs>
        <path id="DejaVuSans-33" d="M 2597 2516 
Q 3050 2419 3304 2112 
Q 3559 1806 3559 1356 
Q 3559 666 3084 287 
Q 2609 -91 1734 -91 
Q 1441 -91 1130 -33 
Q 819 25 488 141 
L 488 750 
Q 750 597 1062 519 
Q 1375 441 1716 441 
Q 2309 441 2620 675 
Q 2931 909 2931 1356 
Q 2931 1769 2642 2001 
Q 2353 2234 1838 2234 
L 1294 2234 
L 1294 2753 
L 1863 2753 
Q 2328 2753 2575 2939 
Q 2822 3125 2822 3475 
Q 2822 3834 2567 4026 
Q 2313 4219 1838 4219 
Q 1578 4219 1281 4162 
Q 984 4106 628 3988 
L 628 4550 
Q 988 4650 1302 4700 
Q 1616 4750 1894 4750 
Q 2613 4750 3031 4423 
Q 3450 4097 3450 3541 
Q 3450 3153 3228 2886 
Q 3006 2619 2597 2516 
z
" transform="scale(0.015625)"/>
       </defs>
       <use xlink:href="#DejaVuSans-33"/>
      </g>
     </g>
    </g>
    <g id="xtick_4">
     <g id="line2d_4">
      <g>
       <use xlink:href="#mbeb0a8e27b" x="290.587125" y="288.430125" style="stroke: #000000; stroke-width: 0.8"/>
      </g>
     </g>
     <g id="text_4">
      <!-- 4 -->
      <g transform="translate(287.405875 303.028562) scale(0.1 -0.1)">
       <defs>
        <path id="DejaVuSans-34" d="M 2419 4116 
L 825 1625 
L 2419 1625 
L 2419 4116 
z
M 2253 4666 
L 3047 4666 
L 3047 1625 
L 3713 1625 
L 3713 1100 
L 3047 1100 
L 3047 0 
L 2419 0 
L 2419 1100 
L 313 1100 
L 313 1709 
L 2253 4666 
z
" transform="scale(0.015625)"/>
       </defs>
       <use xlink:href="#DejaVuSans-34"/>
      </g>
     </g>
    </g>
    <g id="xtick_5">
     <g id="line2d_5">
      <g>
       <use xlink:href="#mbeb0a8e27b" x="362.011125" y="288.430125" style="stroke: #000000; stroke-width: 0.8"/>
      </g>
     </g>
     <g id="text_5">
      <!-- 5 -->
      <g transform="translate(358.829875 303.028562) scale(0.1 -0.1)">
       <defs>
        <path id="DejaVuSans-35" d="M 691 4666 
L 3169 4666 
L 3169 4134 
L 1269 4134 
L 1269 2991 
Q 1406 3038 1543 3061 
Q 1681 3084 1819 3084 
Q 2600 3084 3056 2656 
Q 3513 2228 3513 1497 
Q 3513 744 3044 326 
Q 2575 -91 1722 -91 
Q 1428 -91 1123 -41 
Q 819 9 494 109 
L 494 744 
Q 775 591 1075 516 
Q 1375 441 1709 441 
Q 2250 441 2565 725 
Q 2881 1009 2881 1497 
Q 2881 1984 2565 2268 
Q 2250 2553 1709 2553 
Q 1456 2553 1204 2497 
Q 953 2441 691 2322 
L 691 4666 
z
" transform="scale(0.015625)"/>
       </defs>
       <use xlink:href="#DejaVuSans-35"/>
      </g>
     </g>
    </g>
    <g id="text_6">
     <!-- socioec quintile -->
     <g transform="translate(180.170938 316.706687) scale(0.1 -0.1)">
      <defs>
       <path id="DejaVuSans-73" d="M 2834 3397 
L 2834 2853 
Q 2591 2978 2328 3040 
Q 2066 3103 1784 3103 
Q 1356 3103 1142 2972 
Q 928 2841 928 2578 
Q 928 2378 1081 2264 
Q 1234 2150 1697 2047 
L 1894 2003 
Q 2506 1872 2764 1633 
Q 3022 1394 3022 966 
Q 3022 478 2636 193 
Q 2250 -91 1575 -91 
Q 1294 -91 989 -36 
Q 684 19 347 128 
L 347 722 
Q 666 556 975 473 
Q 1284 391 1588 391 
Q 1994 391 2212 530 
Q 2431 669 2431 922 
Q 2431 1156 2273 1281 
Q 2116 1406 1581 1522 
L 1381 1569 
Q 847 1681 609 1914 
Q 372 2147 372 2553 
Q 372 3047 722 3315 
Q 1072 3584 1716 3584 
Q 2034 3584 2315 3537 
Q 2597 3491 2834 3397 
z
" transform="scale(0.015625)"/>
       <path id="DejaVuSans-6f" d="M 1959 3097 
Q 1497 3097 1228 2736 
Q 959 2375 959 1747 
Q 959 1119 1226 758 
Q 1494 397 1959 397 
Q 2419 397 2687 759 
Q 2956 1122 2956 1747 
Q 2956 2369 2687 2733 
Q 2419 3097 1959 3097 
z
M 1959 3584 
Q 2709 3584 3137 3096 
Q 3566 2609 3566 1747 
Q 3566 888 3137 398 
Q 2709 -91 1959 -91 
Q 1206 -91 779 398 
Q 353 888 353 1747 
Q 353 2609 779 3096 
Q 1206 3584 1959 3584 
z
" transform="scale(0.015625)"/>
       <path id="DejaVuSans-63" d="M 3122 3366 
L 3122 2828 
Q 2878 2963 2633 3030 
Q 2388 3097 2138 3097 
Q 1578 3097 1268 2742 
Q 959 2388 959 1747 
Q 959 1106 1268 751 
Q 1578 397 2138 397 
Q 2388 397 2633 464 
Q 2878 531 3122 666 
L 3122 134 
Q 2881 22 2623 -34 
Q 2366 -91 2075 -91 
Q 1284 -91 818 406 
Q 353 903 353 1747 
Q 353 2603 823 3093 
Q 1294 3584 2113 3584 
Q 2378 3584 2631 3529 
Q 2884 3475 3122 3366 
z
" transform="scale(0.015625)"/>
       <path id="DejaVuSans-69" d="M 603 3500 
L 1178 3500 
L 1178 0 
L 603 0 
L 603 3500 
z
M 603 4863 
L 1178 4863 
L 1178 4134 
L 603 4134 
L 603 4863 
z
" transform="scale(0.015625)"/>
       <path id="DejaVuSans-65" d="M 3597 1894 
L 3597 1613 
L 953 1613 
Q 991 1019 1311 708 
Q 1631 397 2203 397 
Q 2534 397 2845 478 
Q 3156 559 3463 722 
L 3463 178 
Q 3153 47 2828 -22 
Q 2503 -91 2169 -91 
Q 1331 -91 842 396 
Q 353 884 353 1716 
Q 353 2575 817 3079 
Q 1281 3584 2069 3584 
Q 2775 3584 3186 3129 
Q 3597 2675 3597 1894 
z
M 3022 2063 
Q 3016 2534 2758 2815 
Q 2500 3097 2075 3097 
Q 1594 3097 1305 2825 
Q 1016 2553 972 2059 
L 3022 2063 
z
" transform="scale(0.015625)"/>
       <path id="DejaVuSans-20" transform="scale(0.015625)"/>
       <path id="DejaVuSans-71" d="M 947 1747 
Q 947 1113 1208 752 
Q 1469 391 1925 391 
Q 2381 391 2643 752 
Q 2906 1113 2906 1747 
Q 2906 2381 2643 2742 
Q 2381 3103 1925 3103 
Q 1469 3103 1208 2742 
Q 947 2381 947 1747 
z
M 2906 525 
Q 2725 213 2448 61 
Q 2172 -91 1784 -91 
Q 1150 -91 751 415 
Q 353 922 353 1747 
Q 353 2572 751 3078 
Q 1150 3584 1784 3584 
Q 2172 3584 2448 3432 
Q 2725 3281 2906 2969 
L 2906 3500 
L 3481 3500 
L 3481 -1331 
L 2906 -1331 
L 2906 525 
z
" transform="scale(0.015625)"/>
       <path id="DejaVuSans-75" d="M 544 1381 
L 544 3500 
L 1119 3500 
L 1119 1403 
Q 1119 906 1312 657 
Q 1506 409 1894 409 
Q 2359 409 2629 706 
Q 2900 1003 2900 1516 
L 2900 3500 
L 3475 3500 
L 3475 0 
L 2900 0 
L 2900 538 
Q 2691 219 2414 64 
Q 2138 -91 1772 -91 
Q 1169 -91 856 284 
Q 544 659 544 1381 
z
M 1991 3584 
L 1991 3584 
z
" transform="scale(0.015625)"/>
       <path id="DejaVuSans-6e" d="M 3513 2113 
L 3513 0 
L 2938 0 
L 2938 2094 
Q 2938 2591 2744 2837 
Q 2550 3084 2163 3084 
Q 1697 3084 1428 2787 
Q 1159 2491 1159 1978 
L 1159 0 
L 581 0 
L 581 3500 
L 1159 3500 
L 1159 2956 
Q 1366 3272 1645 3428 
Q 1925 3584 2291 3584 
Q 2894 3584 3203 3211 
Q 3513 2838 3513 2113 
z
" transform="scale(0.015625)"/>
       <path id="DejaVuSans-74" d="M 1172 4494 
L 1172 3500 
L 2356 3500 
L 2356 3053 
L 1172 3053 
L 1172 1153 
Q 1172 725 1289 603 
Q 1406 481 1766 481 
L 2356 481 
L 2356 0 
L 1766 0 
Q 1100 0 847 248 
Q 594 497 594 1153 
L 594 3053 
L 172 3053 
L 172 3500 
L 594 3500 
L 594 4494 
L 1172 4494 
z
" transform="scale(0.015625)"/>
       <path id="DejaVuSans-6c" d="M 603 4863 
L 1178 4863 
L 1178 0 
L 603 0 
L 603 4863 
z
" transform="scale(0.015625)"/>
      </defs>
      <use xlink:href="#DejaVuSans-73"/>
      <use xlink:href="#DejaVuSans-6f" x="52.099609"/>
      <use xlink:href="#DejaVuSans-63" x="113.28125"/>
      <use xlink:href="#DejaVuSans-69" x="168.261719"/>
      <use xlink:href="#DejaVuSans-6f" x="196.044922"/>
      <use xlink:href="#DejaVuSans-65" x="257.226562"/>
      <use xlink:href="#DejaVuSans-63" x="318.75"/>
      <use xlink:href="#DejaVuSans-20" x="373.730469"/>
      <use xlink:href="#DejaVuSans-71" x="405.517578"/>
      <use xlink:href="#DejaVuSans-75" x="468.994141"/>
      <use xlink:href="#DejaVuSans-69" x="532.373047"/>
      <use xlink:href="#DejaVuSans-6e" x="560.15625"/>
      <use xlink:href="#DejaVuSans-74" x="623.535156"/>
      <use xlink:href="#DejaVuSans-69" x="662.744141"/>
      <use xlink:href="#DejaVuSans-6c" x="690.527344"/>
      <use xlink:href="#DejaVuSans-65" x="718.310547"/>
     </g>
    </g>
   </g>
   <g id="matplotlib.axis_2">
    <g id="ytick_1">
     <g id="line2d_6">
      <defs>
       <path id="me60cd75b4f" d="M 0 0 
L -3.5 0 
" style="stroke: #000000; stroke-width: 0.8"/>
      </defs>
      <g>
       <use xlink:href="#me60cd75b4f" x="40.603125" y="288.430125" style="stroke: #000000; stroke-width: 0.8"/>
      </g>
     </g>
     <g id="text_7">
      <!-- 0 -->
      <g transform="translate(27.240625 292.229344) scale(0.1 -0.1)">
       <defs>
        <path id="DejaVuSans-30" d="M 2034 4250 
Q 1547 4250 1301 3770 
Q 1056 3291 1056 2328 
Q 1056 1369 1301 889 
Q 1547 409 2034 409 
Q 2525 409 2770 889 
Q 3016 1369 3016 2328 
Q 3016 3291 2770 3770 
Q 2525 4250 2034 4250 
z
M 2034 4750 
Q 2819 4750 3233 4129 
Q 3647 3509 3647 2328 
Q 3647 1150 3233 529 
Q 2819 -91 2034 -91 
Q 1250 -91 836 529 
Q 422 1150 422 2328 
Q 422 3509 836 4129 
Q 1250 4750 2034 4750 
z
" transform="scale(0.015625)"/>
       </defs>
       <use xlink:href="#DejaVuSans-30"/>
      </g>
     </g>
    </g>
    <g id="ytick_2">
     <g id="line2d_7">
      <g>
       <use xlink:href="#me60cd75b4f" x="40.603125" y="232.497921" style="stroke: #000000; stroke-width: 0.8"/>
      </g>
     </g>
     <g id="text_8">
      <!-- 5 -->
      <g transform="translate(27.240625 236.29714) scale(0.1 -0.1)">
       <use xlink:href="#DejaVuSans-35"/>
      </g>
     </g>
    </g>
    <g id="ytick_3">
     <g id="line2d_8">
      <g>
       <use xlink:href="#me60cd75b4f" x="40.603125" y="176.565718" style="stroke: #000000; stroke-width: 0.8"/>
      </g>
     </g>
     <g id="text_9">
      <!-- 10 -->
      <g transform="translate(20.878125 180.364936) scale(0.1 -0.1)">
       <use xlink:href="#DejaVuSans-31"/>
       <use xlink:href="#DejaVuSans-30" x="63.623047"/>
      </g>
     </g>
    </g>
    <g id="ytick_4">
     <g id="line2d_9">
      <g>
       <use xlink:href="#me60cd75b4f" x="40.603125" y="120.633514" style="stroke: #000000; stroke-width: 0.8"/>
      </g>
     </g>
     <g id="text_10">
      <!-- 15 -->
      <g transform="translate(20.878125 124.432733) scale(0.1 -0.1)">
       <use xlink:href="#DejaVuSans-31"/>
       <use xlink:href="#DejaVuSans-35" x="63.623047"/>
      </g>
     </g>
    </g>
    <g id="ytick_5">
     <g id="line2d_10">
      <g>
       <use xlink:href="#me60cd75b4f" x="40.603125" y="64.70131" style="stroke: #000000; stroke-width: 0.8"/>
      </g>
     </g>
     <g id="text_11">
      <!-- 20 -->
      <g transform="translate(20.878125 68.500529) scale(0.1 -0.1)">
       <use xlink:href="#DejaVuSans-32"/>
       <use xlink:href="#DejaVuSans-30" x="63.623047"/>
      </g>
     </g>
    </g>
    <g id="text_12">
     <!-- Crude Rate -->
     <g transform="translate(14.798438 183.392094) rotate(-90) scale(0.1 -0.1)">
      <defs>
       <path id="DejaVuSans-43" d="M 4122 4306 
L 4122 3641 
Q 3803 3938 3442 4084 
Q 3081 4231 2675 4231 
Q 1875 4231 1450 3742 
Q 1025 3253 1025 2328 
Q 1025 1406 1450 917 
Q 1875 428 2675 428 
Q 3081 428 3442 575 
Q 3803 722 4122 1019 
L 4122 359 
Q 3791 134 3420 21 
Q 3050 -91 2638 -91 
Q 1578 -91 968 557 
Q 359 1206 359 2328 
Q 359 3453 968 4101 
Q 1578 4750 2638 4750 
Q 3056 4750 3426 4639 
Q 3797 4528 4122 4306 
z
" transform="scale(0.015625)"/>
       <path id="DejaVuSans-72" d="M 2631 2963 
Q 2534 3019 2420 3045 
Q 2306 3072 2169 3072 
Q 1681 3072 1420 2755 
Q 1159 2438 1159 1844 
L 1159 0 
L 581 0 
L 581 3500 
L 1159 3500 
L 1159 2956 
Q 1341 3275 1631 3429 
Q 1922 3584 2338 3584 
Q 2397 3584 2469 3576 
Q 2541 3569 2628 3553 
L 2631 2963 
z
" transform="scale(0.015625)"/>
       <path id="DejaVuSans-64" d="M 2906 2969 
L 2906 4863 
L 3481 4863 
L 3481 0 
L 2906 0 
L 2906 525 
Q 2725 213 2448 61 
Q 2172 -91 1784 -91 
Q 1150 -91 751 415 
Q 353 922 353 1747 
Q 353 2572 751 3078 
Q 1150 3584 1784 3584 
Q 2172 3584 2448 3432 
Q 2725 3281 2906 2969 
z
M 947 1747 
Q 947 1113 1208 752 
Q 1469 391 1925 391 
Q 2381 391 2643 752 
Q 2906 1113 2906 1747 
Q 2906 2381 2643 2742 
Q 2381 3103 1925 3103 
Q 1469 3103 1208 2742 
Q 947 2381 947 1747 
z
" transform="scale(0.015625)"/>
       <path id="DejaVuSans-52" d="M 2841 2188 
Q 3044 2119 3236 1894 
Q 3428 1669 3622 1275 
L 4263 0 
L 3584 0 
L 2988 1197 
Q 2756 1666 2539 1819 
Q 2322 1972 1947 1972 
L 1259 1972 
L 1259 0 
L 628 0 
L 628 4666 
L 2053 4666 
Q 2853 4666 3247 4331 
Q 3641 3997 3641 3322 
Q 3641 2881 3436 2590 
Q 3231 2300 2841 2188 
z
M 1259 4147 
L 1259 2491 
L 2053 2491 
Q 2509 2491 2742 2702 
Q 2975 2913 2975 3322 
Q 2975 3731 2742 3939 
Q 2509 4147 2053 4147 
L 1259 4147 
z
" transform="scale(0.015625)"/>
       <path id="DejaVuSans-61" d="M 2194 1759 
Q 1497 1759 1228 1600 
Q 959 1441 959 1056 
Q 959 750 1161 570 
Q 1363 391 1709 391 
Q 2188 391 2477 730 
Q 2766 1069 2766 1631 
L 2766 1759 
L 2194 1759 
z
M 3341 1997 
L 3341 0 
L 2766 0 
L 2766 531 
Q 2569 213 2275 61 
Q 1981 -91 1556 -91 
Q 1019 -91 701 211 
Q 384 513 384 1019 
Q 384 1609 779 1909 
Q 1175 2209 1959 2209 
L 2766 2209 
L 2766 2266 
Q 2766 2663 2505 2880 
Q 2244 3097 1772 3097 
Q 1472 3097 1187 3025 
Q 903 2953 641 2809 
L 641 3341 
Q 956 3463 1253 3523 
Q 1550 3584 1831 3584 
Q 2591 3584 2966 3190 
Q 3341 2797 3341 1997 
z
" transform="scale(0.015625)"/>
      </defs>
      <use xlink:href="#DejaVuSans-43"/>
      <use xlink:href="#DejaVuSans-72" x="69.824219"/>
      <use xlink:href="#DejaVuSans-75" x="110.9375"/>
      <use xlink:href="#DejaVuSans-64" x="174.316406"/>
      <use xlink:href="#DejaVuSans-65" x="237.792969"/>
      <use xlink:href="#DejaVuSans-20" x="299.316406"/>
      <use xlink:href="#DejaVuSans-52" x="331.103516"/>
      <use xlink:href="#DejaVuSans-61" x="398.335938"/>
      <use xlink:href="#DejaVuSans-74" x="459.615234"/>
      <use xlink:href="#DejaVuSans-65" x="498.824219"/>
     </g>
    </g>
   </g>
   <g id="patch_119">
    <path d="M 40.603125 288.430125 
L 40.603125 22.318125 
" style="fill: none; stroke: #000000; stroke-width: 0.8; stroke-linejoin: miter; stroke-linecap: square"/>
   </g>
   <g id="patch_120">
    <path d="M 397.723125 288.430125 
L 397.723125 22.318125 
" style="fill: none; stroke: #000000; stroke-width: 0.8; stroke-linejoin: miter; stroke-linecap: square"/>
   </g>
   <g id="patch_121">
    <path d="M 40.603125 288.430125 
L 397.723125 288.430125 
" style="fill: none; stroke: #000000; stroke-width: 0.8; stroke-linejoin: miter; stroke-linecap: square"/>
   </g>
   <g id="patch_122">
    <path d="M 40.603125 22.318125 
L 397.723125 22.318125 
" style="fill: none; stroke: #000000; stroke-width: 0.8; stroke-linejoin: miter; stroke-linecap: square"/>
   </g>
   <g id="text_13">
    <!-- Crude Rate by Socioeconomic Quintile - Fentanyl -->
    <g transform="translate(72.380625 16.318125) scale(0.12 -0.12)">
     <defs>
      <path id="DejaVuSans-62" d="M 3116 1747 
Q 3116 2381 2855 2742 
Q 2594 3103 2138 3103 
Q 1681 3103 1420 2742 
Q 1159 2381 1159 1747 
Q 1159 1113 1420 752 
Q 1681 391 2138 391 
Q 2594 391 2855 752 
Q 3116 1113 3116 1747 
z
M 1159 2969 
Q 1341 3281 1617 3432 
Q 1894 3584 2278 3584 
Q 2916 3584 3314 3078 
Q 3713 2572 3713 1747 
Q 3713 922 3314 415 
Q 2916 -91 2278 -91 
Q 1894 -91 1617 61 
Q 1341 213 1159 525 
L 1159 0 
L 581 0 
L 581 4863 
L 1159 4863 
L 1159 2969 
z
" transform="scale(0.015625)"/>
      <path id="DejaVuSans-79" d="M 2059 -325 
Q 1816 -950 1584 -1140 
Q 1353 -1331 966 -1331 
L 506 -1331 
L 506 -850 
L 844 -850 
Q 1081 -850 1212 -737 
Q 1344 -625 1503 -206 
L 1606 56 
L 191 3500 
L 800 3500 
L 1894 763 
L 2988 3500 
L 3597 3500 
L 2059 -325 
z
" transform="scale(0.015625)"/>
      <path id="DejaVuSans-53" d="M 3425 4513 
L 3425 3897 
Q 3066 4069 2747 4153 
Q 2428 4238 2131 4238 
Q 1616 4238 1336 4038 
Q 1056 3838 1056 3469 
Q 1056 3159 1242 3001 
Q 1428 2844 1947 2747 
L 2328 2669 
Q 3034 2534 3370 2195 
Q 3706 1856 3706 1288 
Q 3706 609 3251 259 
Q 2797 -91 1919 -91 
Q 1588 -91 1214 -16 
Q 841 59 441 206 
L 441 856 
Q 825 641 1194 531 
Q 1563 422 1919 422 
Q 2459 422 2753 634 
Q 3047 847 3047 1241 
Q 3047 1584 2836 1778 
Q 2625 1972 2144 2069 
L 1759 2144 
Q 1053 2284 737 2584 
Q 422 2884 422 3419 
Q 422 4038 858 4394 
Q 1294 4750 2059 4750 
Q 2388 4750 2728 4690 
Q 3069 4631 3425 4513 
z
" transform="scale(0.015625)"/>
      <path id="DejaVuSans-6d" d="M 3328 2828 
Q 3544 3216 3844 3400 
Q 4144 3584 4550 3584 
Q 5097 3584 5394 3201 
Q 5691 2819 5691 2113 
L 5691 0 
L 5113 0 
L 5113 2094 
Q 5113 2597 4934 2840 
Q 4756 3084 4391 3084 
Q 3944 3084 3684 2787 
Q 3425 2491 3425 1978 
L 3425 0 
L 2847 0 
L 2847 2094 
Q 2847 2600 2669 2842 
Q 2491 3084 2119 3084 
Q 1678 3084 1418 2786 
Q 1159 2488 1159 1978 
L 1159 0 
L 581 0 
L 581 3500 
L 1159 3500 
L 1159 2956 
Q 1356 3278 1631 3431 
Q 1906 3584 2284 3584 
Q 2666 3584 2933 3390 
Q 3200 3197 3328 2828 
z
" transform="scale(0.015625)"/>
      <path id="DejaVuSans-51" d="M 2522 4238 
Q 1834 4238 1429 3725 
Q 1025 3213 1025 2328 
Q 1025 1447 1429 934 
Q 1834 422 2522 422 
Q 3209 422 3611 934 
Q 4013 1447 4013 2328 
Q 4013 3213 3611 3725 
Q 3209 4238 2522 4238 
z
M 3406 84 
L 4238 -825 
L 3475 -825 
L 2784 -78 
Q 2681 -84 2626 -87 
Q 2572 -91 2522 -91 
Q 1538 -91 948 567 
Q 359 1225 359 2328 
Q 359 3434 948 4092 
Q 1538 4750 2522 4750 
Q 3503 4750 4090 4092 
Q 4678 3434 4678 2328 
Q 4678 1516 4351 937 
Q 4025 359 3406 84 
z
" transform="scale(0.015625)"/>
      <path id="DejaVuSans-2d" d="M 313 2009 
L 1997 2009 
L 1997 1497 
L 313 1497 
L 313 2009 
z
" transform="scale(0.015625)"/>
      <path id="DejaVuSans-46" d="M 628 4666 
L 3309 4666 
L 3309 4134 
L 1259 4134 
L 1259 2759 
L 3109 2759 
L 3109 2228 
L 1259 2228 
L 1259 0 
L 628 0 
L 628 4666 
z
" transform="scale(0.015625)"/>
     </defs>
     <use xlink:href="#DejaVuSans-43"/>
     <use xlink:href="#DejaVuSans-72" x="69.824219"/>
     <use xlink:href="#DejaVuSans-75" x="110.9375"/>
     <use xlink:href="#DejaVuSans-64" x="174.316406"/>
     <use xlink:href="#DejaVuSans-65" x="237.792969"/>
     <use xlink:href="#DejaVuSans-20" x="299.316406"/>
     <use xlink:href="#DejaVuSans-52" x="331.103516"/>
     <use xlink:href="#DejaVuSans-61" x="398.335938"/>
     <use xlink:href="#DejaVuSans-74" x="459.615234"/>
     <use xlink:href="#DejaVuSans-65" x="498.824219"/>
     <use xlink:href="#DejaVuSans-20" x="560.347656"/>
     <use xlink:href="#DejaVuSans-62" x="592.134766"/>
     <use xlink:href="#DejaVuSans-79" x="655.611328"/>
     <use xlink:href="#DejaVuSans-20" x="714.791016"/>
     <use xlink:href="#DejaVuSans-53" x="746.578125"/>
     <use xlink:href="#DejaVuSans-6f" x="810.054688"/>
     <use xlink:href="#DejaVuSans-63" x="871.236328"/>
     <use xlink:href="#DejaVuSans-69" x="926.216797"/>
     <use xlink:href="#DejaVuSans-6f" x="954"/>
     <use xlink:href="#DejaVuSans-65" x="1015.181641"/>
     <use xlink:href="#DejaVuSans-63" x="1076.705078"/>
     <use xlink:href="#DejaVuSans-6f" x="1131.685547"/>
     <use xlink:href="#DejaVuSans-6e" x="1192.867188"/>
     <use xlink:href="#DejaVuSans-6f" x="1256.246094"/>
     <use xlink:href="#DejaVuSans-6d" x="1317.427734"/>
     <use xlink:href="#DejaVuSans-69" x="1414.839844"/>
     <use xlink:href="#DejaVuSans-63" x="1442.623047"/>
     <use xlink:href="#DejaVuSans-20" x="1497.603516"/>
     <use xlink:href="#DejaVuSans-51" x="1529.390625"/>
     <use xlink:href="#DejaVuSans-75" x="1608.101562"/>
     <use xlink:href="#DejaVuSans-69" x="1671.480469"/>
     <use xlink:href="#DejaVuSans-6e" x="1699.263672"/>
     <use xlink:href="#DejaVuSans-74" x="1762.642578"/>
     <use xlink:href="#DejaVuSans-69" x="1801.851562"/>
     <use xlink:href="#DejaVuSans-6c" x="1829.634766"/>
     <use xlink:href="#DejaVuSans-65" x="1857.417969"/>
     <use xlink:href="#DejaVuSans-20" x="1918.941406"/>
     <use xlink:href="#DejaVuSans-2d" x="1950.728516"/>
     <use xlink:href="#DejaVuSans-20" x="1986.8125"/>
     <use xlink:href="#DejaVuSans-46" x="2018.599609"/>
     <use xlink:href="#DejaVuSans-65" x="2070.619141"/>
     <use xlink:href="#DejaVuSans-6e" x="2132.142578"/>
     <use xlink:href="#DejaVuSans-74" x="2195.521484"/>
     <use xlink:href="#DejaVuSans-61" x="2234.730469"/>
     <use xlink:href="#DejaVuSans-6e" x="2296.009766"/>
     <use xlink:href="#DejaVuSans-79" x="2359.388672"/>
     <use xlink:href="#DejaVuSans-6c" x="2418.568359"/>
    </g>
   </g>
   <g id="legend_1">
    <g id="patch_123">
     <path d="M 47.603125 133.065 
L 105.053125 133.065 
Q 107.053125 133.065 107.053125 131.065 
L 107.053125 29.318125 
Q 107.053125 27.318125 105.053125 27.318125 
L 47.603125 27.318125 
Q 45.603125 27.318125 45.603125 29.318125 
L 45.603125 131.065 
Q 45.603125 133.065 47.603125 133.065 
z
" style="fill: #ffffff; opacity: 0.8; stroke: #cccccc; stroke-linejoin: miter"/>
    </g>
    <g id="text_14">
     <!-- Year -->
     <g transform="translate(65.740625 38.916562) scale(0.1 -0.1)">
      <defs>
       <path id="DejaVuSans-59" d="M -13 4666 
L 666 4666 
L 1959 2747 
L 3244 4666 
L 3922 4666 
L 2272 2222 
L 2272 0 
L 1638 0 
L 1638 2222 
L -13 4666 
z
" transform="scale(0.015625)"/>
      </defs>
      <use xlink:href="#DejaVuSans-59"/>
      <use xlink:href="#DejaVuSans-65" x="47.833984"/>
      <use xlink:href="#DejaVuSans-61" x="109.357422"/>
      <use xlink:href="#DejaVuSans-72" x="170.636719"/>
     </g>
    </g>
    <g id="patch_124">
     <path d="M 49.603125 53.594688 
L 69.603125 53.594688 
L 69.603125 46.594688 
L 49.603125 46.594688 
z
" style="fill: #e4cbc6"/>
    </g>
    <g id="text_15">
     <!-- 2000 -->
     <g transform="translate(77.603125 53.594688) scale(0.1 -0.1)">
      <use xlink:href="#DejaVuSans-32"/>
      <use xlink:href="#DejaVuSans-30" x="63.623047"/>
      <use xlink:href="#DejaVuSans-30" x="127.246094"/>
      <use xlink:href="#DejaVuSans-30" x="190.869141"/>
     </g>
    </g>
    <g id="patch_125">
     <path d="M 49.603125 68.272813 
L 69.603125 68.272813 
L 69.603125 61.272813 
L 49.603125 61.272813 
z
" style="fill: #cfa4ac"/>
    </g>
    <g id="text_16">
     <!-- 2004 -->
     <g transform="translate(77.603125 68.272813) scale(0.1 -0.1)">
      <use xlink:href="#DejaVuSans-32"/>
      <use xlink:href="#DejaVuSans-30" x="63.623047"/>
      <use xlink:href="#DejaVuSans-30" x="127.246094"/>
      <use xlink:href="#DejaVuSans-34" x="190.869141"/>
     </g>
    </g>
    <g id="patch_126">
     <path d="M 49.603125 82.950938 
L 69.603125 82.950938 
L 69.603125 75.950938 
L 49.603125 75.950938 
z
" style="fill: #af7d99"/>
    </g>
    <g id="text_17">
     <!-- 2008 -->
     <g transform="translate(77.603125 82.950938) scale(0.1 -0.1)">
      <defs>
       <path id="DejaVuSans-38" d="M 2034 2216 
Q 1584 2216 1326 1975 
Q 1069 1734 1069 1313 
Q 1069 891 1326 650 
Q 1584 409 2034 409 
Q 2484 409 2743 651 
Q 3003 894 3003 1313 
Q 3003 1734 2745 1975 
Q 2488 2216 2034 2216 
z
M 1403 2484 
Q 997 2584 770 2862 
Q 544 3141 544 3541 
Q 544 4100 942 4425 
Q 1341 4750 2034 4750 
Q 2731 4750 3128 4425 
Q 3525 4100 3525 3541 
Q 3525 3141 3298 2862 
Q 3072 2584 2669 2484 
Q 3125 2378 3379 2068 
Q 3634 1759 3634 1313 
Q 3634 634 3220 271 
Q 2806 -91 2034 -91 
Q 1263 -91 848 271 
Q 434 634 434 1313 
Q 434 1759 690 2068 
Q 947 2378 1403 2484 
z
M 1172 3481 
Q 1172 3119 1398 2916 
Q 1625 2713 2034 2713 
Q 2441 2713 2670 2916 
Q 2900 3119 2900 3481 
Q 2900 3844 2670 4047 
Q 2441 4250 2034 4250 
Q 1625 4250 1398 4047 
Q 1172 3844 1172 3481 
z
" transform="scale(0.015625)"/>
      </defs>
      <use xlink:href="#DejaVuSans-32"/>
      <use xlink:href="#DejaVuSans-30" x="63.623047"/>
      <use xlink:href="#DejaVuSans-30" x="127.246094"/>
      <use xlink:href="#DejaVuSans-38" x="190.869141"/>
     </g>
    </g>
    <g id="patch_127">
     <path d="M 49.603125 97.629063 
L 69.603125 97.629063 
L 69.603125 90.629063 
L 49.603125 90.629063 
z
" style="fill: #835b82"/>
    </g>
    <g id="text_18">
     <!-- 2012 -->
     <g transform="translate(77.603125 97.629063) scale(0.1 -0.1)">
      <use xlink:href="#DejaVuSans-32"/>
      <use xlink:href="#DejaVuSans-30" x="63.623047"/>
      <use xlink:href="#DejaVuSans-31" x="127.246094"/>
      <use xlink:href="#DejaVuSans-32" x="190.869141"/>
     </g>
    </g>
    <g id="patch_128">
     <path d="M 49.603125 112.307188 
L 69.603125 112.307188 
L 69.603125 105.307188 
L 49.603125 105.307188 
z
" style="fill: #554066"/>
    </g>
    <g id="text_19">
     <!-- 2016 -->
     <g transform="translate(77.603125 112.307188) scale(0.1 -0.1)">
      <defs>
       <path id="DejaVuSans-36" d="M 2113 2584 
Q 1688 2584 1439 2293 
Q 1191 2003 1191 1497 
Q 1191 994 1439 701 
Q 1688 409 2113 409 
Q 2538 409 2786 701 
Q 3034 994 3034 1497 
Q 3034 2003 2786 2293 
Q 2538 2584 2113 2584 
z
M 3366 4563 
L 3366 3988 
Q 3128 4100 2886 4159 
Q 2644 4219 2406 4219 
Q 1781 4219 1451 3797 
Q 1122 3375 1075 2522 
Q 1259 2794 1537 2939 
Q 1816 3084 2150 3084 
Q 2853 3084 3261 2657 
Q 3669 2231 3669 1497 
Q 3669 778 3244 343 
Q 2819 -91 2113 -91 
Q 1303 -91 875 529 
Q 447 1150 447 2328 
Q 447 3434 972 4092 
Q 1497 4750 2381 4750 
Q 2619 4750 2861 4703 
Q 3103 4656 3366 4563 
z
" transform="scale(0.015625)"/>
      </defs>
      <use xlink:href="#DejaVuSans-32"/>
      <use xlink:href="#DejaVuSans-30" x="63.623047"/>
      <use xlink:href="#DejaVuSans-31" x="127.246094"/>
      <use xlink:href="#DejaVuSans-36" x="190.869141"/>
     </g>
    </g>
    <g id="patch_129">
     <path d="M 49.603125 126.985313 
L 69.603125 126.985313 
L 69.603125 119.985313 
L 49.603125 119.985313 
z
" style="fill: #28253c"/>
    </g>
    <g id="text_20">
     <!-- 2020 -->
     <g transform="translate(77.603125 126.985313) scale(0.1 -0.1)">
      <use xlink:href="#DejaVuSans-32"/>
      <use xlink:href="#DejaVuSans-30" x="63.623047"/>
      <use xlink:href="#DejaVuSans-32" x="127.246094"/>
      <use xlink:href="#DejaVuSans-30" x="190.869141"/>
     </g>
    </g>
   </g>
  </g>
 </g>
 <defs>
  <clipPath id="p28b8797bcc">
   <rect x="40.603125" y="22.318125" width="357.12" height="266.112"/>
  </clipPath>
 </defs>
</svg>
