<?xml version="1.0" encoding="utf-8" standalone="no"?>
<!DOCTYPE svg PUBLIC "-//W3C//DTD SVG 1.1//EN"
  "http://www.w3.org/Graphics/SVG/1.1/DTD/svg11.dtd">
<svg xmlns:xlink="http://www.w3.org/1999/xlink" width="404.923125pt" height="343.976819pt" viewBox="0 0 404.923125 343.976819" xmlns="http://www.w3.org/2000/svg" version="1.1">
 <metadata>
  <rdf:RDF xmlns:dc="http://purl.org/dc/elements/1.1/" xmlns:cc="http://creativecommons.org/ns#" xmlns:rdf="http://www.w3.org/1999/02/22-rdf-syntax-ns#">
   <cc:Work>
    <dc:type rdf:resource="http://purl.org/dc/dcmitype/StillImage"/>
    <dc:date>2023-10-22T17:16:07.781447</dc:date>
    <dc:format>image/svg+xml</dc:format>
    <dc:creator>
     <cc:Agent>
      <dc:title>Matplotlib v3.7.2, https://matplotlib.org/</dc:title>
     </cc:Agent>
    </dc:creator>
   </cc:Work>
  </rdf:RDF>
 </metadata>
 <defs>
  <style type="text/css">*{stroke-linejoin: round; stroke-linecap: butt}</style>
 </defs>
 <g id="figure_1">
  <g id="patch_1">
   <path d="M 0 343.976819 
L 404.923125 343.976819 
L 404.923125 0 
L 0 0 
z
" style="fill: #ffffff"/>
  </g>
  <g id="axes_1">
   <g id="patch_2">
    <path d="M 40.603125 288.430125 
L 397.723125 288.430125 
L 397.723125 22.318125 
L 40.603125 22.318125 
z
" style="fill: #ffffff"/>
   </g>
   <g id="patch_3">
    <path d="M 44.571125 288.430125 
L 46.014034 288.430125 
L 46.014034 254.510254 
L 44.571125 254.510254 
z
" clip-path="url(#ped708cfa55)" style="fill: #e8d4cd"/>
   </g>
   <g id="patch_4">
    <path d="M 84.251125 288.430125 
L 85.694034 288.430125 
L 85.694034 285.764614 
L 84.251125 285.764614 
z
" clip-path="url(#ped708cfa55)" style="fill: #e8d4cd"/>
   </g>
   <g id="patch_5">
    <path d="M 123.931125 288.430125 
L 125.374034 288.430125 
L 125.374034 276.810321 
L 123.931125 276.810321 
z
" clip-path="url(#ped708cfa55)" style="fill: #e8d4cd"/>
   </g>
   <g id="patch_6">
    <path d="M 163.611125 288.430125 
L 165.054034 288.430125 
L 165.054034 260.835547 
L 163.611125 260.835547 
z
" clip-path="url(#ped708cfa55)" style="fill: #e8d4cd"/>
   </g>
   <g id="patch_7">
    <path d="M 203.291125 288.430125 
L 204.734034 288.430125 
L 204.734034 246.425768 
L 203.291125 246.425768 
z
" clip-path="url(#ped708cfa55)" style="fill: #e8d4cd"/>
   </g>
   <g id="patch_8">
    <path d="M 242.971125 288.430125 
L 244.414034 288.430125 
L 244.414034 254.11484 
L 242.971125 254.11484 
z
" clip-path="url(#ped708cfa55)" style="fill: #e8d4cd"/>
   </g>
   <g id="patch_9">
    <path d="M 282.651125 288.430125 
L 284.094034 288.430125 
L 284.094034 281.738671 
L 282.651125 281.738671 
z
" clip-path="url(#ped708cfa55)" style="fill: #e8d4cd"/>
   </g>
   <g id="patch_10">
    <path d="M 322.331125 288.430125 
L 323.774034 288.430125 
L 323.774034 270.259054 
L 322.331125 270.259054 
z
" clip-path="url(#ped708cfa55)" style="fill: #e8d4cd"/>
   </g>
   <g id="patch_11">
    <path d="M 362.011125 288.430125 
L 363.454034 288.430125 
L 363.454034 247.790372 
L 362.011125 247.790372 
z
" clip-path="url(#ped708cfa55)" style="fill: #e8d4cd"/>
   </g>
   <g id="patch_12">
    <path d="M 46.014034 288.430125 
L 47.456943 288.430125 
L 47.456943 281.354871 
L 46.014034 281.354871 
z
" clip-path="url(#ped708cfa55)" style="fill: #e4cbc6"/>
   </g>
   <g id="patch_13">
    <path d="M 85.694034 288.430125 
L 87.136943 288.430125 
L 87.136943 262.908721 
L 85.694034 262.908721 
z
" clip-path="url(#ped708cfa55)" style="fill: #e4cbc6"/>
   </g>
   <g id="patch_14">
    <path d="M 125.374034 288.430125 
L 126.816943 288.430125 
L 126.816943 265.472868 
L 125.374034 265.472868 
z
" clip-path="url(#ped708cfa55)" style="fill: #e4cbc6"/>
   </g>
   <g id="patch_15">
    <path d="M 165.054034 288.430125 
L 166.496943 288.430125 
L 166.496943 275.70826 
L 165.054034 275.70826 
z
" clip-path="url(#ped708cfa55)" style="fill: #e4cbc6"/>
   </g>
   <g id="patch_16">
    <path d="M 204.734034 288.430125 
L 206.176943 288.430125 
L 206.176943 238.840005 
L 204.734034 238.840005 
z
" clip-path="url(#ped708cfa55)" style="fill: #e4cbc6"/>
   </g>
   <g id="patch_17">
    <path d="M 244.414034 288.430125 
L 245.856943 288.430125 
L 245.856943 276.965097 
L 244.414034 276.965097 
z
" clip-path="url(#ped708cfa55)" style="fill: #e4cbc6"/>
   </g>
   <g id="patch_18">
    <path d="M 284.094034 288.430125 
L 285.536943 288.430125 
L 285.536943 278.91115 
L 284.094034 278.91115 
z
" clip-path="url(#ped708cfa55)" style="fill: #e4cbc6"/>
   </g>
   <g id="patch_19">
    <path d="M 323.774034 288.430125 
L 325.216943 288.430125 
L 325.216943 282.691712 
L 323.774034 282.691712 
z
" clip-path="url(#ped708cfa55)" style="fill: #e4cbc6"/>
   </g>
   <g id="patch_20">
    <path d="M 363.454034 288.430125 
L 364.896943 288.430125 
L 364.896943 278.609999 
L 363.454034 278.609999 
z
" clip-path="url(#ped708cfa55)" style="fill: #e4cbc6"/>
   </g>
   <g id="patch_21">
    <path d="M 87.136943 288.430125 
L 88.579852 288.430125 
L 88.579852 284.479353 
L 87.136943 284.479353 
z
" clip-path="url(#ped708cfa55)" style="fill: #dfc1be"/>
   </g>
   <g id="patch_22">
    <path d="M 126.816943 288.430125 
L 128.259852 288.430125 
L 128.259852 274.599178 
L 126.816943 274.599178 
z
" clip-path="url(#ped708cfa55)" style="fill: #dfc1be"/>
   </g>
   <g id="patch_23">
    <path d="M 166.496943 288.430125 
L 167.939852 288.430125 
L 167.939852 257.278254 
L 166.496943 257.278254 
z
" clip-path="url(#ped708cfa55)" style="fill: #dfc1be"/>
   </g>
   <g id="patch_24">
    <path d="M 206.176943 288.430125 
L 207.619852 288.430125 
L 207.619852 258.033393 
L 206.176943 258.033393 
z
" clip-path="url(#ped708cfa55)" style="fill: #dfc1be"/>
   </g>
   <g id="patch_25">
    <path d="M 245.856943 288.430125 
L 247.299852 288.430125 
L 247.299852 276.952549 
L 245.856943 276.952549 
z
" clip-path="url(#ped708cfa55)" style="fill: #dfc1be"/>
   </g>
   <g id="patch_26">
    <path d="M 285.536943 288.430125 
L 286.979852 288.430125 
L 286.979852 219.179065 
L 285.536943 219.179065 
z
" clip-path="url(#ped708cfa55)" style="fill: #dfc1be"/>
   </g>
   <g id="patch_27">
    <path d="M 325.216943 288.430125 
L 326.659852 288.430125 
L 326.659852 274.99799 
L 325.216943 274.99799 
z
" clip-path="url(#ped708cfa55)" style="fill: #dfc1be"/>
   </g>
   <g id="patch_28">
    <path d="M 364.896943 288.430125 
L 366.339852 288.430125 
L 366.339852 277.972264 
L 364.896943 277.972264 
z
" clip-path="url(#ped708cfa55)" style="fill: #dfc1be"/>
   </g>
   <g id="patch_29">
    <path d="M 48.899852 288.430125 
L 50.342761 288.430125 
L 50.342761 256.28458 
L 48.899852 256.28458 
z
" clip-path="url(#ped708cfa55)" style="fill: #dbb8b8"/>
   </g>
   <g id="patch_30">
    <path d="M 88.579852 288.430125 
L 90.022761 288.430125 
L 90.022761 268.533771 
L 88.579852 268.533771 
z
" clip-path="url(#ped708cfa55)" style="fill: #dbb8b8"/>
   </g>
   <g id="patch_31">
    <path d="M 128.259852 288.430125 
L 129.702761 288.430125 
L 129.702761 269.311911 
L 128.259852 269.311911 
z
" clip-path="url(#ped708cfa55)" style="fill: #dbb8b8"/>
   </g>
   <g id="patch_32">
    <path d="M 167.939852 288.430125 
L 169.382761 288.430125 
L 169.382761 236.421642 
L 167.939852 236.421642 
z
" clip-path="url(#ped708cfa55)" style="fill: #dbb8b8"/>
   </g>
   <g id="patch_33">
    <path d="M 207.619852 288.430125 
L 209.062761 288.430125 
L 209.062761 260.316317 
L 207.619852 260.316317 
z
" clip-path="url(#ped708cfa55)" style="fill: #dbb8b8"/>
   </g>
   <g id="patch_34">
    <path d="M 247.299852 288.430125 
L 248.742761 288.430125 
L 248.742761 254.447904 
L 247.299852 254.447904 
z
" clip-path="url(#ped708cfa55)" style="fill: #dbb8b8"/>
   </g>
   <g id="patch_35">
    <path d="M 286.979852 288.430125 
L 288.422761 288.430125 
L 288.422761 278.474979 
L 286.979852 278.474979 
z
" clip-path="url(#ped708cfa55)" style="fill: #dbb8b8"/>
   </g>
   <g id="patch_36">
    <path d="M 326.659852 288.430125 
L 328.102761 288.430125 
L 328.102761 278.998075 
L 326.659852 278.998075 
z
" clip-path="url(#ped708cfa55)" style="fill: #dbb8b8"/>
   </g>
   <g id="patch_37">
    <path d="M 366.339852 288.430125 
L 367.782761 288.430125 
L 367.782761 279.788708 
L 366.339852 279.788708 
z
" clip-path="url(#ped708cfa55)" style="fill: #dbb8b8"/>
   </g>
   <g id="patch_38">
    <path d="M 50.342761 288.430125 
L 51.78567 288.430125 
L 51.78567 280.242322 
L 50.342761 280.242322 
z
" clip-path="url(#ped708cfa55)" style="fill: #d5adb1"/>
   </g>
   <g id="patch_39">
    <path d="M 90.022761 288.430125 
L 91.46567 288.430125 
L 91.46567 283.388862 
L 90.022761 283.388862 
z
" clip-path="url(#ped708cfa55)" style="fill: #d5adb1"/>
   </g>
   <g id="patch_40">
    <path d="M 129.702761 288.430125 
L 131.14567 288.430125 
L 131.14567 260.566477 
L 129.702761 260.566477 
z
" clip-path="url(#ped708cfa55)" style="fill: #d5adb1"/>
   </g>
   <g id="patch_41">
    <path d="M 169.382761 288.430125 
L 170.82567 288.430125 
L 170.82567 253.226568 
L 169.382761 253.226568 
z
" clip-path="url(#ped708cfa55)" style="fill: #d5adb1"/>
   </g>
   <g id="patch_42">
    <path d="M 209.062761 288.430125 
L 210.50567 288.430125 
L 210.50567 252.029479 
L 209.062761 252.029479 
z
" clip-path="url(#ped708cfa55)" style="fill: #d5adb1"/>
   </g>
   <g id="patch_43">
    <path d="M 248.742761 288.430125 
L 250.18567 288.430125 
L 250.18567 243.876761 
L 248.742761 243.876761 
z
" clip-path="url(#ped708cfa55)" style="fill: #d5adb1"/>
   </g>
   <g id="patch_44">
    <path d="M 288.422761 288.430125 
L 289.86567 288.430125 
L 289.86567 279.518476 
L 288.422761 279.518476 
z
" clip-path="url(#ped708cfa55)" style="fill: #d5adb1"/>
   </g>
   <g id="patch_45">
    <path d="M 328.102761 288.430125 
L 329.54567 288.430125 
L 329.54567 273.454241 
L 328.102761 273.454241 
z
" clip-path="url(#ped708cfa55)" style="fill: #d5adb1"/>
   </g>
   <g id="patch_46">
    <path d="M 367.782761 288.430125 
L 369.22567 288.430125 
L 369.22567 279.01706 
L 367.782761 279.01706 
z
" clip-path="url(#ped708cfa55)" style="fill: #d5adb1"/>
   </g>
   <g id="patch_47">
    <path d="M 91.46567 288.430125 
L 92.90858 288.430125 
L 92.90858 282.330603 
L 91.46567 282.330603 
z
" clip-path="url(#ped708cfa55)" style="fill: #cfa4ac"/>
   </g>
   <g id="patch_48">
    <path d="M 131.14567 288.430125 
L 132.58858 288.430125 
L 132.58858 260.202876 
L 131.14567 260.202876 
z
" clip-path="url(#ped708cfa55)" style="fill: #cfa4ac"/>
   </g>
   <g id="patch_49">
    <path d="M 170.82567 288.430125 
L 172.26858 288.430125 
L 172.26858 262.586907 
L 170.82567 262.586907 
z
" clip-path="url(#ped708cfa55)" style="fill: #cfa4ac"/>
   </g>
   <g id="patch_50">
    <path d="M 210.50567 288.430125 
L 211.94858 288.430125 
L 211.94858 241.688832 
L 210.50567 241.688832 
z
" clip-path="url(#ped708cfa55)" style="fill: #cfa4ac"/>
   </g>
   <g id="patch_51">
    <path d="M 250.18567 288.430125 
L 251.62858 288.430125 
L 251.62858 240.327852 
L 250.18567 240.327852 
z
" clip-path="url(#ped708cfa55)" style="fill: #cfa4ac"/>
   </g>
   <g id="patch_52">
    <path d="M 289.86567 288.430125 
L 291.30858 288.430125 
L 291.30858 209.420188 
L 289.86567 209.420188 
z
" clip-path="url(#ped708cfa55)" style="fill: #cfa4ac"/>
   </g>
   <g id="patch_53">
    <path d="M 329.54567 288.430125 
L 330.98858 288.430125 
L 330.98858 282.469872 
L 329.54567 282.469872 
z
" clip-path="url(#ped708cfa55)" style="fill: #cfa4ac"/>
   </g>
   <g id="patch_54">
    <path d="M 369.22567 288.430125 
L 370.66858 288.430125 
L 370.66858 192.195273 
L 369.22567 192.195273 
z
" clip-path="url(#ped708cfa55)" style="fill: #cfa4ac"/>
   </g>
   <g id="patch_55">
    <path d="M 53.22858 288.430125 
L 54.671489 288.430125 
L 54.671489 281.459759 
L 53.22858 281.459759 
z
" clip-path="url(#ped708cfa55)" style="fill: #c899a7"/>
   </g>
   <g id="patch_56">
    <path d="M 92.90858 288.430125 
L 94.351489 288.430125 
L 94.351489 257.371483 
L 92.90858 257.371483 
z
" clip-path="url(#ped708cfa55)" style="fill: #c899a7"/>
   </g>
   <g id="patch_57">
    <path d="M 132.58858 288.430125 
L 134.031489 288.430125 
L 134.031489 269.050147 
L 132.58858 269.050147 
z
" clip-path="url(#ped708cfa55)" style="fill: #c899a7"/>
   </g>
   <g id="patch_58">
    <path d="M 172.26858 288.430125 
L 173.711489 288.430125 
L 173.711489 247.071164 
L 172.26858 247.071164 
z
" clip-path="url(#ped708cfa55)" style="fill: #c899a7"/>
   </g>
   <g id="patch_59">
    <path d="M 211.94858 288.430125 
L 213.391489 288.430125 
L 213.391489 252.923377 
L 211.94858 252.923377 
z
" clip-path="url(#ped708cfa55)" style="fill: #c899a7"/>
   </g>
   <g id="patch_60">
    <path d="M 251.62858 288.430125 
L 253.071489 288.430125 
L 253.071489 256.872245 
L 251.62858 256.872245 
z
" clip-path="url(#ped708cfa55)" style="fill: #c899a7"/>
   </g>
   <g id="patch_61">
    <path d="M 291.30858 288.430125 
L 292.751489 288.430125 
L 292.751489 239.436494 
L 291.30858 239.436494 
z
" clip-path="url(#ped708cfa55)" style="fill: #c899a7"/>
   </g>
   <g id="patch_62">
    <path d="M 330.98858 288.430125 
L 332.431489 288.430125 
L 332.431489 275.66649 
L 330.98858 275.66649 
z
" clip-path="url(#ped708cfa55)" style="fill: #c899a7"/>
   </g>
   <g id="patch_63">
    <path d="M 370.66858 288.430125 
L 372.111489 288.430125 
L 372.111489 279.399742 
L 370.66858 279.399742 
z
" clip-path="url(#ped708cfa55)" style="fill: #c899a7"/>
   </g>
   <g id="patch_64">
    <path d="M 54.671489 288.430125 
L 56.114398 288.430125 
L 56.114398 257.599851 
L 54.671489 257.599851 
z
" clip-path="url(#ped708cfa55)" style="fill: #c08fa2"/>
   </g>
   <g id="patch_65">
    <path d="M 94.351489 288.430125 
L 95.794398 288.430125 
L 95.794398 284.845698 
L 94.351489 284.845698 
z
" clip-path="url(#ped708cfa55)" style="fill: #c08fa2"/>
   </g>
   <g id="patch_66">
    <path d="M 134.031489 288.430125 
L 135.474398 288.430125 
L 135.474398 262.867172 
L 134.031489 262.867172 
z
" clip-path="url(#ped708cfa55)" style="fill: #c08fa2"/>
   </g>
   <g id="patch_67">
    <path d="M 173.711489 288.430125 
L 175.154398 288.430125 
L 175.154398 253.800896 
L 173.711489 253.800896 
z
" clip-path="url(#ped708cfa55)" style="fill: #c08fa2"/>
   </g>
   <g id="patch_68">
    <path d="M 213.391489 288.430125 
L 214.834398 288.430125 
L 214.834398 244.971544 
L 213.391489 244.971544 
z
" clip-path="url(#ped708cfa55)" style="fill: #c08fa2"/>
   </g>
   <g id="patch_69">
    <path d="M 253.071489 288.430125 
L 254.514398 288.430125 
L 254.514398 223.491114 
L 253.071489 223.491114 
z
" clip-path="url(#ped708cfa55)" style="fill: #c08fa2"/>
   </g>
   <g id="patch_70">
    <path d="M 292.751489 288.430125 
L 294.194398 288.430125 
L 294.194398 268.208845 
L 292.751489 268.208845 
z
" clip-path="url(#ped708cfa55)" style="fill: #c08fa2"/>
   </g>
   <g id="patch_71">
    <path d="M 332.431489 288.430125 
L 333.874398 288.430125 
L 333.874398 282.164145 
L 332.431489 282.164145 
z
" clip-path="url(#ped708cfa55)" style="fill: #c08fa2"/>
   </g>
   <g id="patch_72">
    <path d="M 372.111489 288.430125 
L 373.554398 288.430125 
L 373.554398 188.096378 
L 372.111489 188.096378 
z
" clip-path="url(#ped708cfa55)" style="fill: #c08fa2"/>
   </g>
   <g id="patch_73">
    <path d="M 56.114398 288.430125 
L 57.557307 288.430125 
L 57.557307 282.702852 
L 56.114398 282.702852 
z
" clip-path="url(#ped708cfa55)" style="fill: #b8869d"/>
   </g>
   <g id="patch_74">
    <path d="M 95.794398 288.430125 
L 97.237307 288.430125 
L 97.237307 285.263039 
L 95.794398 285.263039 
z
" clip-path="url(#ped708cfa55)" style="fill: #b8869d"/>
   </g>
   <g id="patch_75">
    <path d="M 135.474398 288.430125 
L 136.917307 288.430125 
L 136.917307 262.676335 
L 135.474398 262.676335 
z
" clip-path="url(#ped708cfa55)" style="fill: #b8869d"/>
   </g>
   <g id="patch_76">
    <path d="M 175.154398 288.430125 
L 176.597307 288.430125 
L 176.597307 254.551713 
L 175.154398 254.551713 
z
" clip-path="url(#ped708cfa55)" style="fill: #b8869d"/>
   </g>
   <g id="patch_77">
    <path d="M 214.834398 288.430125 
L 216.277307 288.430125 
L 216.277307 243.517207 
L 214.834398 243.517207 
z
" clip-path="url(#ped708cfa55)" style="fill: #b8869d"/>
   </g>
   <g id="patch_78">
    <path d="M 254.514398 288.430125 
L 255.957307 288.430125 
L 255.957307 247.813259 
L 254.514398 247.813259 
z
" clip-path="url(#ped708cfa55)" style="fill: #b8869d"/>
   </g>
   <g id="patch_79">
    <path d="M 294.194398 288.430125 
L 295.637307 288.430125 
L 295.637307 247.509835 
L 294.194398 247.509835 
z
" clip-path="url(#ped708cfa55)" style="fill: #b8869d"/>
   </g>
   <g id="patch_80">
    <path d="M 333.874398 288.430125 
L 335.317307 288.430125 
L 335.317307 276.489439 
L 333.874398 276.489439 
z
" clip-path="url(#ped708cfa55)" style="fill: #b8869d"/>
   </g>
   <g id="patch_81">
    <path d="M 373.554398 288.430125 
L 374.997307 288.430125 
L 374.997307 267.082618 
L 373.554398 267.082618 
z
" clip-path="url(#ped708cfa55)" style="fill: #b8869d"/>
   </g>
   <g id="patch_82">
    <path d="M 57.557307 288.430125 
L 59.000216 288.430125 
L 59.000216 280.347746 
L 57.557307 280.347746 
z
" clip-path="url(#ped708cfa55)" style="fill: #af7d99"/>
   </g>
   <g id="patch_83">
    <path d="M 97.237307 288.430125 
L 98.680216 288.430125 
L 98.680216 257.109584 
L 97.237307 257.109584 
z
" clip-path="url(#ped708cfa55)" style="fill: #af7d99"/>
   </g>
   <g id="patch_84">
    <path d="M 136.917307 288.430125 
L 138.360216 288.430125 
L 138.360216 251.524554 
L 136.917307 251.524554 
z
" clip-path="url(#ped708cfa55)" style="fill: #af7d99"/>
   </g>
   <g id="patch_85">
    <path d="M 176.597307 288.430125 
L 178.040216 288.430125 
L 178.040216 228.510667 
L 176.597307 228.510667 
z
" clip-path="url(#ped708cfa55)" style="fill: #af7d99"/>
   </g>
   <g id="patch_86">
    <path d="M 216.277307 288.430125 
L 217.720216 288.430125 
L 217.720216 245.379192 
L 216.277307 245.379192 
z
" clip-path="url(#ped708cfa55)" style="fill: #af7d99"/>
   </g>
   <g id="patch_87">
    <path d="M 255.957307 288.430125 
L 257.400216 288.430125 
L 257.400216 243.216629 
L 255.957307 243.216629 
z
" clip-path="url(#ped708cfa55)" style="fill: #af7d99"/>
   </g>
   <g id="patch_88">
    <path d="M 295.637307 288.430125 
L 297.080216 288.430125 
L 297.080216 259.378284 
L 295.637307 259.378284 
z
" clip-path="url(#ped708cfa55)" style="fill: #af7d99"/>
   </g>
   <g id="patch_89">
    <path d="M 335.317307 288.430125 
L 336.760216 288.430125 
L 336.760216 98.328113 
L 335.317307 98.328113 
z
" clip-path="url(#ped708cfa55)" style="fill: #af7d99"/>
   </g>
   <g id="patch_90">
    <path d="M 374.997307 288.430125 
L 376.440216 288.430125 
L 376.440216 279.901668 
L 374.997307 279.901668 
z
" clip-path="url(#ped708cfa55)" style="fill: #af7d99"/>
   </g>
   <g id="patch_91">
    <path d="M 59.000216 288.430125 
L 60.443125 288.430125 
L 60.443125 264.796979 
L 59.000216 264.796979 
z
" clip-path="url(#ped708cfa55)" style="fill: #a57494"/>
   </g>
   <g id="patch_92">
    <path d="M 98.680216 288.430125 
L 100.123125 288.430125 
L 100.123125 263.651967 
L 98.680216 263.651967 
z
" clip-path="url(#ped708cfa55)" style="fill: #a57494"/>
   </g>
   <g id="patch_93">
    <path d="M 138.360216 288.430125 
L 139.803125 288.430125 
L 139.803125 245.725987 
L 138.360216 245.725987 
z
" clip-path="url(#ped708cfa55)" style="fill: #a57494"/>
   </g>
   <g id="patch_94">
    <path d="M 178.040216 288.430125 
L 179.483125 288.430125 
L 179.483125 240.378268 
L 178.040216 240.378268 
z
" clip-path="url(#ped708cfa55)" style="fill: #a57494"/>
   </g>
   <g id="patch_95">
    <path d="M 217.720216 288.430125 
L 219.163125 288.430125 
L 219.163125 239.999146 
L 217.720216 239.999146 
z
" clip-path="url(#ped708cfa55)" style="fill: #a57494"/>
   </g>
   <g id="patch_96">
    <path d="M 257.400216 288.430125 
L 258.843125 288.430125 
L 258.843125 241.721394 
L 257.400216 241.721394 
z
" clip-path="url(#ped708cfa55)" style="fill: #a57494"/>
   </g>
   <g id="patch_97">
    <path d="M 297.080216 288.430125 
L 298.523125 288.430125 
L 298.523125 258.0806 
L 297.080216 258.0806 
z
" clip-path="url(#ped708cfa55)" style="fill: #a57494"/>
   </g>
   <g id="patch_98">
    <path d="M 336.760216 288.430125 
L 338.203125 288.430125 
L 338.203125 277.640286 
L 336.760216 277.640286 
z
" clip-path="url(#ped708cfa55)" style="fill: #a57494"/>
   </g>
   <g id="patch_99">
    <path d="M 376.440216 288.430125 
L 377.883125 288.430125 
L 377.883125 216.445206 
L 376.440216 216.445206 
z
" clip-path="url(#ped708cfa55)" style="fill: #a57494"/>
   </g>
   <g id="patch_100">
    <path d="M 60.443125 288.430125 
L 61.886034 288.430125 
L 61.886034 285.334866 
L 60.443125 285.334866 
z
" clip-path="url(#ped708cfa55)" style="fill: #9a6b8e"/>
   </g>
   <g id="patch_101">
    <path d="M 100.123125 288.430125 
L 101.566034 288.430125 
L 101.566034 272.338872 
L 100.123125 272.338872 
z
" clip-path="url(#ped708cfa55)" style="fill: #9a6b8e"/>
   </g>
   <g id="patch_102">
    <path d="M 139.803125 288.430125 
L 141.246034 288.430125 
L 141.246034 254.172599 
L 139.803125 254.172599 
z
" clip-path="url(#ped708cfa55)" style="fill: #9a6b8e"/>
   </g>
   <g id="patch_103">
    <path d="M 179.483125 288.430125 
L 180.926034 288.430125 
L 180.926034 255.537593 
L 179.483125 255.537593 
z
" clip-path="url(#ped708cfa55)" style="fill: #9a6b8e"/>
   </g>
   <g id="patch_104">
    <path d="M 219.163125 288.430125 
L 220.606034 288.430125 
L 220.606034 256.242571 
L 219.163125 256.242571 
z
" clip-path="url(#ped708cfa55)" style="fill: #9a6b8e"/>
   </g>
   <g id="patch_105">
    <path d="M 258.843125 288.430125 
L 260.286034 288.430125 
L 260.286034 248.172686 
L 258.843125 248.172686 
z
" clip-path="url(#ped708cfa55)" style="fill: #9a6b8e"/>
   </g>
   <g id="patch_106">
    <path d="M 298.523125 288.430125 
L 299.966034 288.430125 
L 299.966034 257.578445 
L 298.523125 257.578445 
z
" clip-path="url(#ped708cfa55)" style="fill: #9a6b8e"/>
   </g>
   <g id="patch_107">
    <path d="M 338.203125 288.430125 
L 339.646034 288.430125 
L 339.646034 274.479569 
L 338.203125 274.479569 
z
" clip-path="url(#ped708cfa55)" style="fill: #9a6b8e"/>
   </g>
   <g id="patch_108">
    <path d="M 377.883125 288.430125 
L 379.326034 288.430125 
L 379.326034 270.605267 
L 377.883125 270.605267 
z
" clip-path="url(#ped708cfa55)" style="fill: #9a6b8e"/>
   </g>
   <g id="patch_109">
    <path d="M 61.886034 288.430125 
L 63.328943 288.430125 
L 63.328943 269.725446 
L 61.886034 269.725446 
z
" clip-path="url(#ped708cfa55)" style="fill: #8e6288"/>
   </g>
   <g id="patch_110">
    <path d="M 101.566034 288.430125 
L 103.008943 288.430125 
L 103.008943 263.275725 
L 101.566034 263.275725 
z
" clip-path="url(#ped708cfa55)" style="fill: #8e6288"/>
   </g>
   <g id="patch_111">
    <path d="M 141.246034 288.430125 
L 142.688943 288.430125 
L 142.688943 262.177084 
L 141.246034 262.177084 
z
" clip-path="url(#ped708cfa55)" style="fill: #8e6288"/>
   </g>
   <g id="patch_112">
    <path d="M 180.926034 288.430125 
L 182.368943 288.430125 
L 182.368943 235.612373 
L 180.926034 235.612373 
z
" clip-path="url(#ped708cfa55)" style="fill: #8e6288"/>
   </g>
   <g id="patch_113">
    <path d="M 220.606034 288.430125 
L 222.048943 288.430125 
L 222.048943 245.704305 
L 220.606034 245.704305 
z
" clip-path="url(#ped708cfa55)" style="fill: #8e6288"/>
   </g>
   <g id="patch_114">
    <path d="M 260.286034 288.430125 
L 261.728943 288.430125 
L 261.728943 246.23027 
L 260.286034 246.23027 
z
" clip-path="url(#ped708cfa55)" style="fill: #8e6288"/>
   </g>
   <g id="patch_115">
    <path d="M 299.966034 288.430125 
L 301.408943 288.430125 
L 301.408943 260.805089 
L 299.966034 260.805089 
z
" clip-path="url(#ped708cfa55)" style="fill: #8e6288"/>
   </g>
   <g id="patch_116">
    <path d="M 339.646034 288.430125 
L 341.088943 288.430125 
L 341.088943 278.711113 
L 339.646034 278.711113 
z
" clip-path="url(#ped708cfa55)" style="fill: #8e6288"/>
   </g>
   <g id="patch_117">
    <path d="M 379.326034 288.430125 
L 380.768943 288.430125 
L 380.768943 61.942585 
L 379.326034 61.942585 
z
" clip-path="url(#ped708cfa55)" style="fill: #8e6288"/>
   </g>
   <g id="patch_118">
    <path d="M 63.328943 288.430125 
L 64.771852 288.430125 
L 64.771852 280.476007 
L 63.328943 280.476007 
z
" clip-path="url(#ped708cfa55)" style="fill: #835b82"/>
   </g>
   <g id="patch_119">
    <path d="M 103.008943 288.430125 
L 104.451852 288.430125 
L 104.451852 284.744172 
L 103.008943 284.744172 
z
" clip-path="url(#ped708cfa55)" style="fill: #835b82"/>
   </g>
   <g id="patch_120">
    <path d="M 142.688943 288.430125 
L 144.131852 288.430125 
L 144.131852 259.794048 
L 142.688943 259.794048 
z
" clip-path="url(#ped708cfa55)" style="fill: #835b82"/>
   </g>
   <g id="patch_121">
    <path d="M 182.368943 288.430125 
L 183.811852 288.430125 
L 183.811852 246.812877 
L 182.368943 246.812877 
z
" clip-path="url(#ped708cfa55)" style="fill: #835b82"/>
   </g>
   <g id="patch_122">
    <path d="M 222.048943 288.430125 
L 223.491852 288.430125 
L 223.491852 247.48808 
L 222.048943 247.48808 
z
" clip-path="url(#ped708cfa55)" style="fill: #835b82"/>
   </g>
   <g id="patch_123">
    <path d="M 261.728943 288.430125 
L 263.171852 288.430125 
L 263.171852 248.692549 
L 261.728943 248.692549 
z
" clip-path="url(#ped708cfa55)" style="fill: #835b82"/>
   </g>
   <g id="patch_124">
    <path d="M 301.408943 288.430125 
L 302.851852 288.430125 
L 302.851852 186.554601 
L 301.408943 186.554601 
z
" clip-path="url(#ped708cfa55)" style="fill: #835b82"/>
   </g>
   <g id="patch_125">
    <path d="M 341.088943 288.430125 
L 342.531852 288.430125 
L 342.531852 277.568327 
L 341.088943 277.568327 
z
" clip-path="url(#ped708cfa55)" style="fill: #835b82"/>
   </g>
   <g id="patch_126">
    <path d="M 380.768943 288.430125 
L 382.211852 288.430125 
L 382.211852 280.185842 
L 380.768943 280.185842 
z
" clip-path="url(#ped708cfa55)" style="fill: #835b82"/>
   </g>
   <g id="patch_127">
    <path d="M 64.771852 288.430125 
L 66.214761 288.430125 
L 66.214761 279.419772 
L 64.771852 279.419772 
z
" clip-path="url(#ped708cfa55)" style="fill: #79547d"/>
   </g>
   <g id="patch_128">
    <path d="M 104.451852 288.430125 
L 105.894761 288.430125 
L 105.894761 280.029098 
L 104.451852 280.029098 
z
" clip-path="url(#ped708cfa55)" style="fill: #79547d"/>
   </g>
   <g id="patch_129">
    <path d="M 144.131852 288.430125 
L 145.574761 288.430125 
L 145.574761 263.462815 
L 144.131852 263.462815 
z
" clip-path="url(#ped708cfa55)" style="fill: #79547d"/>
   </g>
   <g id="patch_130">
    <path d="M 183.811852 288.430125 
L 185.254761 288.430125 
L 185.254761 254.236204 
L 183.811852 254.236204 
z
" clip-path="url(#ped708cfa55)" style="fill: #79547d"/>
   </g>
   <g id="patch_131">
    <path d="M 223.491852 288.430125 
L 224.934761 288.430125 
L 224.934761 256.832624 
L 223.491852 256.832624 
z
" clip-path="url(#ped708cfa55)" style="fill: #79547d"/>
   </g>
   <g id="patch_132">
    <path d="M 263.171852 288.430125 
L 264.614761 288.430125 
L 264.614761 241.968486 
L 263.171852 241.968486 
z
" clip-path="url(#ped708cfa55)" style="fill: #79547d"/>
   </g>
   <g id="patch_133">
    <path d="M 302.851852 288.430125 
L 304.294761 288.430125 
L 304.294761 256.915545 
L 302.851852 256.915545 
z
" clip-path="url(#ped708cfa55)" style="fill: #79547d"/>
   </g>
   <g id="patch_134">
    <path d="M 342.531852 288.430125 
L 343.974761 288.430125 
L 343.974761 278.077592 
L 342.531852 278.077592 
z
" clip-path="url(#ped708cfa55)" style="fill: #79547d"/>
   </g>
   <g id="patch_135">
    <path d="M 382.211852 288.430125 
L 383.654761 288.430125 
L 383.654761 272.099432 
L 382.211852 272.099432 
z
" clip-path="url(#ped708cfa55)" style="fill: #79547d"/>
   </g>
   <g id="patch_136">
    <path d="M 66.214761 288.430125 
L 67.65767 288.430125 
L 67.65767 270.645582 
L 66.214761 270.645582 
z
" clip-path="url(#ped708cfa55)" style="fill: #6d4d76"/>
   </g>
   <g id="patch_137">
    <path d="M 105.894761 288.430125 
L 107.33767 288.430125 
L 107.33767 271.184829 
L 105.894761 271.184829 
z
" clip-path="url(#ped708cfa55)" style="fill: #6d4d76"/>
   </g>
   <g id="patch_138">
    <path d="M 145.574761 288.430125 
L 147.01767 288.430125 
L 147.01767 255.164375 
L 145.574761 255.164375 
z
" clip-path="url(#ped708cfa55)" style="fill: #6d4d76"/>
   </g>
   <g id="patch_139">
    <path d="M 185.254761 288.430125 
L 186.69767 288.430125 
L 186.69767 238.661075 
L 185.254761 238.661075 
z
" clip-path="url(#ped708cfa55)" style="fill: #6d4d76"/>
   </g>
   <g id="patch_140">
    <path d="M 224.934761 288.430125 
L 226.37767 288.430125 
L 226.37767 244.43997 
L 224.934761 244.43997 
z
" clip-path="url(#ped708cfa55)" style="fill: #6d4d76"/>
   </g>
   <g id="patch_141">
    <path d="M 264.614761 288.430125 
L 266.05767 288.430125 
L 266.05767 243.162867 
L 264.614761 243.162867 
z
" clip-path="url(#ped708cfa55)" style="fill: #6d4d76"/>
   </g>
   <g id="patch_142">
    <path d="M 304.294761 288.430125 
L 305.73767 288.430125 
L 305.73767 270.020719 
L 304.294761 270.020719 
z
" clip-path="url(#ped708cfa55)" style="fill: #6d4d76"/>
   </g>
   <g id="patch_143">
    <path d="M 343.974761 288.430125 
L 345.41767 288.430125 
L 345.41767 277.557575 
L 343.974761 277.557575 
z
" clip-path="url(#ped708cfa55)" style="fill: #6d4d76"/>
   </g>
   <g id="patch_144">
    <path d="M 383.654761 288.430125 
L 385.09767 288.430125 
L 385.09767 280.920843 
L 383.654761 280.920843 
z
" clip-path="url(#ped708cfa55)" style="fill: #6d4d76"/>
   </g>
   <g id="patch_145">
    <path d="M 67.65767 288.430125 
L 69.10058 288.430125 
L 69.10058 272.583631 
L 67.65767 272.583631 
z
" clip-path="url(#ped708cfa55)" style="fill: #60466e"/>
   </g>
   <g id="patch_146">
    <path d="M 107.33767 288.430125 
L 108.78058 288.430125 
L 108.78058 277.914805 
L 107.33767 277.914805 
z
" clip-path="url(#ped708cfa55)" style="fill: #60466e"/>
   </g>
   <g id="patch_147">
    <path d="M 147.01767 288.430125 
L 148.46058 288.430125 
L 148.46058 241.221408 
L 147.01767 241.221408 
z
" clip-path="url(#ped708cfa55)" style="fill: #60466e"/>
   </g>
   <g id="patch_148">
    <path d="M 186.69767 288.430125 
L 188.14058 288.430125 
L 188.14058 220.066477 
L 186.69767 220.066477 
z
" clip-path="url(#ped708cfa55)" style="fill: #60466e"/>
   </g>
   <g id="patch_149">
    <path d="M 226.37767 288.430125 
L 227.82058 288.430125 
L 227.82058 225.759895 
L 226.37767 225.759895 
z
" clip-path="url(#ped708cfa55)" style="fill: #60466e"/>
   </g>
   <g id="patch_150">
    <path d="M 266.05767 288.430125 
L 267.50058 288.430125 
L 267.50058 235.636397 
L 266.05767 235.636397 
z
" clip-path="url(#ped708cfa55)" style="fill: #60466e"/>
   </g>
   <g id="patch_151">
    <path d="M 305.73767 288.430125 
L 307.18058 288.430125 
L 307.18058 239.266541 
L 305.73767 239.266541 
z
" clip-path="url(#ped708cfa55)" style="fill: #60466e"/>
   </g>
   <g id="patch_152">
    <path d="M 345.41767 288.430125 
L 346.86058 288.430125 
L 346.86058 272.614454 
L 345.41767 272.614454 
z
" clip-path="url(#ped708cfa55)" style="fill: #60466e"/>
   </g>
   <g id="patch_153">
    <path d="M 385.09767 288.430125 
L 386.54058 288.430125 
L 386.54058 267.691676 
L 385.09767 267.691676 
z
" clip-path="url(#ped708cfa55)" style="fill: #60466e"/>
   </g>
   <g id="patch_154">
    <path d="M 69.10058 288.430125 
L 70.543489 288.430125 
L 70.543489 273.016995 
L 69.10058 273.016995 
z
" clip-path="url(#ped708cfa55)" style="fill: #554066"/>
   </g>
   <g id="patch_155">
    <path d="M 108.78058 288.430125 
L 110.223489 288.430125 
L 110.223489 268.440828 
L 108.78058 268.440828 
z
" clip-path="url(#ped708cfa55)" style="fill: #554066"/>
   </g>
   <g id="patch_156">
    <path d="M 148.46058 288.430125 
L 149.903489 288.430125 
L 149.903489 206.325703 
L 148.46058 206.325703 
z
" clip-path="url(#ped708cfa55)" style="fill: #554066"/>
   </g>
   <g id="patch_157">
    <path d="M 188.14058 288.430125 
L 189.583489 288.430125 
L 189.583489 181.869407 
L 188.14058 181.869407 
z
" clip-path="url(#ped708cfa55)" style="fill: #554066"/>
   </g>
   <g id="patch_158">
    <path d="M 227.82058 288.430125 
L 229.263489 288.430125 
L 229.263489 187.010822 
L 227.82058 187.010822 
z
" clip-path="url(#ped708cfa55)" style="fill: #554066"/>
   </g>
   <g id="patch_159">
    <path d="M 267.50058 288.430125 
L 268.943489 288.430125 
L 268.943489 177.815156 
L 267.50058 177.815156 
z
" clip-path="url(#ped708cfa55)" style="fill: #554066"/>
   </g>
   <g id="patch_160">
    <path d="M 307.18058 288.430125 
L 308.623489 288.430125 
L 308.623489 192.599863 
L 307.18058 192.599863 
z
" clip-path="url(#ped708cfa55)" style="fill: #554066"/>
   </g>
   <g id="patch_161">
    <path d="M 346.86058 288.430125 
L 348.303489 288.430125 
L 348.303489 265.621051 
L 346.86058 265.621051 
z
" clip-path="url(#ped708cfa55)" style="fill: #554066"/>
   </g>
   <g id="patch_162">
    <path d="M 386.54058 288.430125 
L 387.983489 288.430125 
L 387.983489 266.632796 
L 386.54058 266.632796 
z
" clip-path="url(#ped708cfa55)" style="fill: #554066"/>
   </g>
   <g id="patch_163">
    <path d="M 70.543489 288.430125 
L 71.986398 288.430125 
L 71.986398 270.129134 
L 70.543489 270.129134 
z
" clip-path="url(#ped708cfa55)" style="fill: #493a5c"/>
   </g>
   <g id="patch_164">
    <path d="M 110.223489 288.430125 
L 111.666398 288.430125 
L 111.666398 255.213607 
L 110.223489 255.213607 
z
" clip-path="url(#ped708cfa55)" style="fill: #493a5c"/>
   </g>
   <g id="patch_165">
    <path d="M 149.903489 288.430125 
L 151.346398 288.430125 
L 151.346398 190.930684 
L 149.903489 190.930684 
z
" clip-path="url(#ped708cfa55)" style="fill: #493a5c"/>
   </g>
   <g id="patch_166">
    <path d="M 189.583489 288.430125 
L 191.026398 288.430125 
L 191.026398 159.976619 
L 189.583489 159.976619 
z
" clip-path="url(#ped708cfa55)" style="fill: #493a5c"/>
   </g>
   <g id="patch_167">
    <path d="M 229.263489 288.430125 
L 230.706398 288.430125 
L 230.706398 159.606978 
L 229.263489 159.606978 
z
" clip-path="url(#ped708cfa55)" style="fill: #493a5c"/>
   </g>
   <g id="patch_168">
    <path d="M 268.943489 288.430125 
L 270.386398 288.430125 
L 270.386398 153.512523 
L 268.943489 153.512523 
z
" clip-path="url(#ped708cfa55)" style="fill: #493a5c"/>
   </g>
   <g id="patch_169">
    <path d="M 308.623489 288.430125 
L 310.066398 288.430125 
L 310.066398 190.403804 
L 308.623489 190.403804 
z
" clip-path="url(#ped708cfa55)" style="fill: #493a5c"/>
   </g>
   <g id="patch_170">
    <path d="M 348.303489 288.430125 
L 349.746398 288.430125 
L 349.746398 259.476431 
L 348.303489 259.476431 
z
" clip-path="url(#ped708cfa55)" style="fill: #493a5c"/>
   </g>
   <g id="patch_171">
    <path d="M 387.983489 288.430125 
L 389.426398 288.430125 
L 389.426398 265.664474 
L 387.983489 265.664474 
z
" clip-path="url(#ped708cfa55)" style="fill: #493a5c"/>
   </g>
   <g id="patch_172">
    <path d="M 71.986398 288.430125 
L 73.429307 288.430125 
L 73.429307 269.3245 
L 71.986398 269.3245 
z
" clip-path="url(#ped708cfa55)" style="fill: #3e3353"/>
   </g>
   <g id="patch_173">
    <path d="M 111.666398 288.430125 
L 113.109307 288.430125 
L 113.109307 257.030341 
L 111.666398 257.030341 
z
" clip-path="url(#ped708cfa55)" style="fill: #3e3353"/>
   </g>
   <g id="patch_174">
    <path d="M 151.346398 288.430125 
L 152.789307 288.430125 
L 152.789307 182.446203 
L 151.346398 182.446203 
z
" clip-path="url(#ped708cfa55)" style="fill: #3e3353"/>
   </g>
   <g id="patch_175">
    <path d="M 191.026398 288.430125 
L 192.469307 288.430125 
L 192.469307 148.350768 
L 191.026398 148.350768 
z
" clip-path="url(#ped708cfa55)" style="fill: #3e3353"/>
   </g>
   <g id="patch_176">
    <path d="M 230.706398 288.430125 
L 232.149307 288.430125 
L 232.149307 147.017229 
L 230.706398 147.017229 
z
" clip-path="url(#ped708cfa55)" style="fill: #3e3353"/>
   </g>
   <g id="patch_177">
    <path d="M 270.386398 288.430125 
L 271.829307 288.430125 
L 271.829307 135.004142 
L 270.386398 135.004142 
z
" clip-path="url(#ped708cfa55)" style="fill: #3e3353"/>
   </g>
   <g id="patch_178">
    <path d="M 310.066398 288.430125 
L 311.509307 288.430125 
L 311.509307 168.782317 
L 310.066398 168.782317 
z
" clip-path="url(#ped708cfa55)" style="fill: #3e3353"/>
   </g>
   <g id="patch_179">
    <path d="M 349.746398 288.430125 
L 351.189307 288.430125 
L 351.189307 258.991864 
L 349.746398 258.991864 
z
" clip-path="url(#ped708cfa55)" style="fill: #3e3353"/>
   </g>
   <g id="patch_180">
    <path d="M 389.426398 288.430125 
L 390.869307 288.430125 
L 390.869307 257.019539 
L 389.426398 257.019539 
z
" clip-path="url(#ped708cfa55)" style="fill: #3e3353"/>
   </g>
   <g id="patch_181">
    <path d="M 73.429307 288.430125 
L 74.872216 288.430125 
L 74.872216 269.152109 
L 73.429307 269.152109 
z
" clip-path="url(#ped708cfa55)" style="fill: #322c47"/>
   </g>
   <g id="patch_182">
    <path d="M 113.109307 288.430125 
L 114.552216 288.430125 
L 114.552216 256.152046 
L 113.109307 256.152046 
z
" clip-path="url(#ped708cfa55)" style="fill: #322c47"/>
   </g>
   <g id="patch_183">
    <path d="M 152.789307 288.430125 
L 154.232216 288.430125 
L 154.232216 171.429154 
L 152.789307 171.429154 
z
" clip-path="url(#ped708cfa55)" style="fill: #322c47"/>
   </g>
   <g id="patch_184">
    <path d="M 192.469307 288.430125 
L 193.912216 288.430125 
L 193.912216 132.738556 
L 192.469307 132.738556 
z
" clip-path="url(#ped708cfa55)" style="fill: #322c47"/>
   </g>
   <g id="patch_185">
    <path d="M 232.149307 288.430125 
L 233.592216 288.430125 
L 233.592216 137.071139 
L 232.149307 137.071139 
z
" clip-path="url(#ped708cfa55)" style="fill: #322c47"/>
   </g>
   <g id="patch_186">
    <path d="M 271.829307 288.430125 
L 273.272216 288.430125 
L 273.272216 118.051844 
L 271.829307 118.051844 
z
" clip-path="url(#ped708cfa55)" style="fill: #322c47"/>
   </g>
   <g id="patch_187">
    <path d="M 311.509307 288.430125 
L 312.952216 288.430125 
L 312.952216 141.308623 
L 311.509307 141.308623 
z
" clip-path="url(#ped708cfa55)" style="fill: #322c47"/>
   </g>
   <g id="patch_188">
    <path d="M 351.189307 288.430125 
L 352.632216 288.430125 
L 352.632216 233.841037 
L 351.189307 233.841037 
z
" clip-path="url(#ped708cfa55)" style="fill: #322c47"/>
   </g>
   <g id="patch_189">
    <path d="M 390.869307 288.430125 
L 392.312216 288.430125 
L 392.312216 260.080609 
L 390.869307 260.080609 
z
" clip-path="url(#ped708cfa55)" style="fill: #322c47"/>
   </g>
   <g id="patch_190">
    <path d="M 74.872216 288.430125 
L 76.315125 288.430125 
L 76.315125 263.282439 
L 74.872216 263.282439 
z
" clip-path="url(#ped708cfa55)" style="fill: #28253c"/>
   </g>
   <g id="patch_191">
    <path d="M 114.552216 288.430125 
L 115.995125 288.430125 
L 115.995125 239.760896 
L 114.552216 239.760896 
z
" clip-path="url(#ped708cfa55)" style="fill: #28253c"/>
   </g>
   <g id="patch_192">
    <path d="M 154.232216 288.430125 
L 155.675125 288.430125 
L 155.675125 109.987787 
L 154.232216 109.987787 
z
" clip-path="url(#ped708cfa55)" style="fill: #28253c"/>
   </g>
   <g id="patch_193">
    <path d="M 193.912216 288.430125 
L 195.355125 288.430125 
L 195.355125 34.990125 
L 193.912216 34.990125 
z
" clip-path="url(#ped708cfa55)" style="fill: #28253c"/>
   </g>
   <g id="patch_194">
    <path d="M 233.592216 288.430125 
L 235.035125 288.430125 
L 235.035125 66.934015 
L 233.592216 66.934015 
z
" clip-path="url(#ped708cfa55)" style="fill: #28253c"/>
   </g>
   <g id="patch_195">
    <path d="M 273.272216 288.430125 
L 274.715125 288.430125 
L 274.715125 61.934234 
L 273.272216 61.934234 
z
" clip-path="url(#ped708cfa55)" style="fill: #28253c"/>
   </g>
   <g id="patch_196">
    <path d="M 312.952216 288.430125 
L 314.395125 288.430125 
L 314.395125 108.230491 
L 312.952216 108.230491 
z
" clip-path="url(#ped708cfa55)" style="fill: #28253c"/>
   </g>
   <g id="patch_197">
    <path d="M 352.632216 288.430125 
L 354.075125 288.430125 
L 354.075125 210.108857 
L 352.632216 210.108857 
z
" clip-path="url(#ped708cfa55)" style="fill: #28253c"/>
   </g>
   <g id="patch_198">
    <path d="M 392.312216 288.430125 
L 393.755125 288.430125 
L 393.755125 261.019144 
L 392.312216 261.019144 
z
" clip-path="url(#ped708cfa55)" style="fill: #28253c"/>
   </g>
   <g id="patch_199">
    <path d="M 60.443125 288.430125 
L 60.443125 288.430125 
L 60.443125 288.430125 
L 60.443125 288.430125 
z
" clip-path="url(#ped708cfa55)" style="fill: #e4cbc6"/>
   </g>
   <g id="patch_200">
    <path d="M 60.443125 288.430125 
L 60.443125 288.430125 
L 60.443125 288.430125 
L 60.443125 288.430125 
z
" clip-path="url(#ped708cfa55)" style="fill: #cfa4ac"/>
   </g>
   <g id="patch_201">
    <path d="M 60.443125 288.430125 
L 60.443125 288.430125 
L 60.443125 288.430125 
L 60.443125 288.430125 
z
" clip-path="url(#ped708cfa55)" style="fill: #af7d99"/>
   </g>
   <g id="patch_202">
    <path d="M 60.443125 288.430125 
L 60.443125 288.430125 
L 60.443125 288.430125 
L 60.443125 288.430125 
z
" clip-path="url(#ped708cfa55)" style="fill: #835b82"/>
   </g>
   <g id="patch_203">
    <path d="M 60.443125 288.430125 
L 60.443125 288.430125 
L 60.443125 288.430125 
L 60.443125 288.430125 
z
" clip-path="url(#ped708cfa55)" style="fill: #554066"/>
   </g>
   <g id="patch_204">
    <path d="M 60.443125 288.430125 
L 60.443125 288.430125 
L 60.443125 288.430125 
L 60.443125 288.430125 
z
" clip-path="url(#ped708cfa55)" style="fill: #28253c"/>
   </g>
   <g id="matplotlib.axis_1">
    <g id="xtick_1">
     <g id="line2d_1">
      <defs>
       <path id="mea0821e385" d="M 0 0 
L 0 3.5 
" style="stroke: #000000; stroke-width: 0.8"/>
      </defs>
      <g>
       <use xlink:href="#mea0821e385" x="60.443125" y="288.430125" style="stroke: #000000; stroke-width: 0.8"/>
      </g>
     </g>
     <g id="text_1">
      <!-- 1-9 -->
      <g transform="translate(56.619777 312.352074) rotate(-45) scale(0.1 -0.1)">
       <defs>
        <path id="DejaVuSans-31" d="M 794 531 
L 1825 531 
L 1825 4091 
L 703 3866 
L 703 4441 
L 1819 4666 
L 2450 4666 
L 2450 531 
L 3481 531 
L 3481 0 
L 794 0 
L 794 531 
z
" transform="scale(0.015625)"/>
        <path id="DejaVuSans-2d" d="M 313 2009 
L 1997 2009 
L 1997 1497 
L 313 1497 
L 313 2009 
z
" transform="scale(0.015625)"/>
        <path id="DejaVuSans-39" d="M 703 97 
L 703 672 
Q 941 559 1184 500 
Q 1428 441 1663 441 
Q 2288 441 2617 861 
Q 2947 1281 2994 2138 
Q 2813 1869 2534 1725 
Q 2256 1581 1919 1581 
Q 1219 1581 811 2004 
Q 403 2428 403 3163 
Q 403 3881 828 4315 
Q 1253 4750 1959 4750 
Q 2769 4750 3195 4129 
Q 3622 3509 3622 2328 
Q 3622 1225 3098 567 
Q 2575 -91 1691 -91 
Q 1453 -91 1209 -44 
Q 966 3 703 97 
z
M 1959 2075 
Q 2384 2075 2632 2365 
Q 2881 2656 2881 3163 
Q 2881 3666 2632 3958 
Q 2384 4250 1959 4250 
Q 1534 4250 1286 3958 
Q 1038 3666 1038 3163 
Q 1038 2656 1286 2365 
Q 1534 2075 1959 2075 
z
" transform="scale(0.015625)"/>
       </defs>
       <use xlink:href="#DejaVuSans-31"/>
       <use xlink:href="#DejaVuSans-2d" x="63.623047"/>
       <use xlink:href="#DejaVuSans-39" x="99.707031"/>
      </g>
     </g>
    </g>
    <g id="xtick_2">
     <g id="line2d_2">
      <g>
       <use xlink:href="#mea0821e385" x="100.123125" y="288.430125" style="stroke: #000000; stroke-width: 0.8"/>
      </g>
     </g>
     <g id="text_2">
      <!-- 10-19 -->
      <g transform="translate(91.80081 321.350008) rotate(-45) scale(0.1 -0.1)">
       <defs>
        <path id="DejaVuSans-30" d="M 2034 4250 
Q 1547 4250 1301 3770 
Q 1056 3291 1056 2328 
Q 1056 1369 1301 889 
Q 1547 409 2034 409 
Q 2525 409 2770 889 
Q 3016 1369 3016 2328 
Q 3016 3291 2770 3770 
Q 2525 4250 2034 4250 
z
M 2034 4750 
Q 2819 4750 3233 4129 
Q 3647 3509 3647 2328 
Q 3647 1150 3233 529 
Q 2819 -91 2034 -91 
Q 1250 -91 836 529 
Q 422 1150 422 2328 
Q 422 3509 836 4129 
Q 1250 4750 2034 4750 
z
" transform="scale(0.015625)"/>
       </defs>
       <use xlink:href="#DejaVuSans-31"/>
       <use xlink:href="#DejaVuSans-30" x="63.623047"/>
       <use xlink:href="#DejaVuSans-2d" x="127.246094"/>
       <use xlink:href="#DejaVuSans-31" x="163.330078"/>
       <use xlink:href="#DejaVuSans-39" x="226.953125"/>
      </g>
     </g>
    </g>
    <g id="xtick_3">
     <g id="line2d_3">
      <g>
       <use xlink:href="#mea0821e385" x="139.803125" y="288.430125" style="stroke: #000000; stroke-width: 0.8"/>
      </g>
     </g>
     <g id="text_3">
      <!-- 20-29 -->
      <g transform="translate(131.48081 321.350008) rotate(-45) scale(0.1 -0.1)">
       <defs>
        <path id="DejaVuSans-32" d="M 1228 531 
L 3431 531 
L 3431 0 
L 469 0 
L 469 531 
Q 828 903 1448 1529 
Q 2069 2156 2228 2338 
Q 2531 2678 2651 2914 
Q 2772 3150 2772 3378 
Q 2772 3750 2511 3984 
Q 2250 4219 1831 4219 
Q 1534 4219 1204 4116 
Q 875 4013 500 3803 
L 500 4441 
Q 881 4594 1212 4672 
Q 1544 4750 1819 4750 
Q 2544 4750 2975 4387 
Q 3406 4025 3406 3419 
Q 3406 3131 3298 2873 
Q 3191 2616 2906 2266 
Q 2828 2175 2409 1742 
Q 1991 1309 1228 531 
z
" transform="scale(0.015625)"/>
       </defs>
       <use xlink:href="#DejaVuSans-32"/>
       <use xlink:href="#DejaVuSans-30" x="63.623047"/>
       <use xlink:href="#DejaVuSans-2d" x="127.246094"/>
       <use xlink:href="#DejaVuSans-32" x="163.330078"/>
       <use xlink:href="#DejaVuSans-39" x="226.953125"/>
      </g>
     </g>
    </g>
    <g id="xtick_4">
     <g id="line2d_4">
      <g>
       <use xlink:href="#mea0821e385" x="179.483125" y="288.430125" style="stroke: #000000; stroke-width: 0.8"/>
      </g>
     </g>
     <g id="text_4">
      <!-- 30-39 -->
      <g transform="translate(171.16081 321.350008) rotate(-45) scale(0.1 -0.1)">
       <defs>
        <path id="DejaVuSans-33" d="M 2597 2516 
Q 3050 2419 3304 2112 
Q 3559 1806 3559 1356 
Q 3559 666 3084 287 
Q 2609 -91 1734 -91 
Q 1441 -91 1130 -33 
Q 819 25 488 141 
L 488 750 
Q 750 597 1062 519 
Q 1375 441 1716 441 
Q 2309 441 2620 675 
Q 2931 909 2931 1356 
Q 2931 1769 2642 2001 
Q 2353 2234 1838 2234 
L 1294 2234 
L 1294 2753 
L 1863 2753 
Q 2328 2753 2575 2939 
Q 2822 3125 2822 3475 
Q 2822 3834 2567 4026 
Q 2313 4219 1838 4219 
Q 1578 4219 1281 4162 
Q 984 4106 628 3988 
L 628 4550 
Q 988 4650 1302 4700 
Q 1616 4750 1894 4750 
Q 2613 4750 3031 4423 
Q 3450 4097 3450 3541 
Q 3450 3153 3228 2886 
Q 3006 2619 2597 2516 
z
" transform="scale(0.015625)"/>
       </defs>
       <use xlink:href="#DejaVuSans-33"/>
       <use xlink:href="#DejaVuSans-30" x="63.623047"/>
       <use xlink:href="#DejaVuSans-2d" x="127.246094"/>
       <use xlink:href="#DejaVuSans-33" x="163.330078"/>
       <use xlink:href="#DejaVuSans-39" x="226.953125"/>
      </g>
     </g>
    </g>
    <g id="xtick_5">
     <g id="line2d_5">
      <g>
       <use xlink:href="#mea0821e385" x="219.163125" y="288.430125" style="stroke: #000000; stroke-width: 0.8"/>
      </g>
     </g>
     <g id="text_5">
      <!-- 40-49 -->
      <g transform="translate(210.84081 321.350008) rotate(-45) scale(0.1 -0.1)">
       <defs>
        <path id="DejaVuSans-34" d="M 2419 4116 
L 825 1625 
L 2419 1625 
L 2419 4116 
z
M 2253 4666 
L 3047 4666 
L 3047 1625 
L 3713 1625 
L 3713 1100 
L 3047 1100 
L 3047 0 
L 2419 0 
L 2419 1100 
L 313 1100 
L 313 1709 
L 2253 4666 
z
" transform="scale(0.015625)"/>
       </defs>
       <use xlink:href="#DejaVuSans-34"/>
       <use xlink:href="#DejaVuSans-30" x="63.623047"/>
       <use xlink:href="#DejaVuSans-2d" x="127.246094"/>
       <use xlink:href="#DejaVuSans-34" x="163.330078"/>
       <use xlink:href="#DejaVuSans-39" x="226.953125"/>
      </g>
     </g>
    </g>
    <g id="xtick_6">
     <g id="line2d_6">
      <g>
       <use xlink:href="#mea0821e385" x="258.843125" y="288.430125" style="stroke: #000000; stroke-width: 0.8"/>
      </g>
     </g>
     <g id="text_6">
      <!-- 50-59 -->
      <g transform="translate(250.52081 321.350008) rotate(-45) scale(0.1 -0.1)">
       <defs>
        <path id="DejaVuSans-35" d="M 691 4666 
L 3169 4666 
L 3169 4134 
L 1269 4134 
L 1269 2991 
Q 1406 3038 1543 3061 
Q 1681 3084 1819 3084 
Q 2600 3084 3056 2656 
Q 3513 2228 3513 1497 
Q 3513 744 3044 326 
Q 2575 -91 1722 -91 
Q 1428 -91 1123 -41 
Q 819 9 494 109 
L 494 744 
Q 775 591 1075 516 
Q 1375 441 1709 441 
Q 2250 441 2565 725 
Q 2881 1009 2881 1497 
Q 2881 1984 2565 2268 
Q 2250 2553 1709 2553 
Q 1456 2553 1204 2497 
Q 953 2441 691 2322 
L 691 4666 
z
" transform="scale(0.015625)"/>
       </defs>
       <use xlink:href="#DejaVuSans-35"/>
       <use xlink:href="#DejaVuSans-30" x="63.623047"/>
       <use xlink:href="#DejaVuSans-2d" x="127.246094"/>
       <use xlink:href="#DejaVuSans-35" x="163.330078"/>
       <use xlink:href="#DejaVuSans-39" x="226.953125"/>
      </g>
     </g>
    </g>
    <g id="xtick_7">
     <g id="line2d_7">
      <g>
       <use xlink:href="#mea0821e385" x="298.523125" y="288.430125" style="stroke: #000000; stroke-width: 0.8"/>
      </g>
     </g>
     <g id="text_7">
      <!-- 60-69 -->
      <g transform="translate(290.20081 321.350008) rotate(-45) scale(0.1 -0.1)">
       <defs>
        <path id="DejaVuSans-36" d="M 2113 2584 
Q 1688 2584 1439 2293 
Q 1191 2003 1191 1497 
Q 1191 994 1439 701 
Q 1688 409 2113 409 
Q 2538 409 2786 701 
Q 3034 994 3034 1497 
Q 3034 2003 2786 2293 
Q 2538 2584 2113 2584 
z
M 3366 4563 
L 3366 3988 
Q 3128 4100 2886 4159 
Q 2644 4219 2406 4219 
Q 1781 4219 1451 3797 
Q 1122 3375 1075 2522 
Q 1259 2794 1537 2939 
Q 1816 3084 2150 3084 
Q 2853 3084 3261 2657 
Q 3669 2231 3669 1497 
Q 3669 778 3244 343 
Q 2819 -91 2113 -91 
Q 1303 -91 875 529 
Q 447 1150 447 2328 
Q 447 3434 972 4092 
Q 1497 4750 2381 4750 
Q 2619 4750 2861 4703 
Q 3103 4656 3366 4563 
z
" transform="scale(0.015625)"/>
       </defs>
       <use xlink:href="#DejaVuSans-36"/>
       <use xlink:href="#DejaVuSans-30" x="63.623047"/>
       <use xlink:href="#DejaVuSans-2d" x="127.246094"/>
       <use xlink:href="#DejaVuSans-36" x="163.330078"/>
       <use xlink:href="#DejaVuSans-39" x="226.953125"/>
      </g>
     </g>
    </g>
    <g id="xtick_8">
     <g id="line2d_8">
      <g>
       <use xlink:href="#mea0821e385" x="338.203125" y="288.430125" style="stroke: #000000; stroke-width: 0.8"/>
      </g>
     </g>
     <g id="text_8">
      <!-- 70-79 -->
      <g transform="translate(329.88081 321.350008) rotate(-45) scale(0.1 -0.1)">
       <defs>
        <path id="DejaVuSans-37" d="M 525 4666 
L 3525 4666 
L 3525 4397 
L 1831 0 
L 1172 0 
L 2766 4134 
L 525 4134 
L 525 4666 
z
" transform="scale(0.015625)"/>
       </defs>
       <use xlink:href="#DejaVuSans-37"/>
       <use xlink:href="#DejaVuSans-30" x="63.623047"/>
       <use xlink:href="#DejaVuSans-2d" x="127.246094"/>
       <use xlink:href="#DejaVuSans-37" x="163.330078"/>
       <use xlink:href="#DejaVuSans-39" x="226.953125"/>
      </g>
     </g>
    </g>
    <g id="xtick_9">
     <g id="line2d_9">
      <g>
       <use xlink:href="#mea0821e385" x="377.883125" y="288.430125" style="stroke: #000000; stroke-width: 0.8"/>
      </g>
     </g>
     <g id="text_9">
      <!-- 80-89 -->
      <g transform="translate(369.56081 321.350008) rotate(-45) scale(0.1 -0.1)">
       <defs>
        <path id="DejaVuSans-38" d="M 2034 2216 
Q 1584 2216 1326 1975 
Q 1069 1734 1069 1313 
Q 1069 891 1326 650 
Q 1584 409 2034 409 
Q 2484 409 2743 651 
Q 3003 894 3003 1313 
Q 3003 1734 2745 1975 
Q 2488 2216 2034 2216 
z
M 1403 2484 
Q 997 2584 770 2862 
Q 544 3141 544 3541 
Q 544 4100 942 4425 
Q 1341 4750 2034 4750 
Q 2731 4750 3128 4425 
Q 3525 4100 3525 3541 
Q 3525 3141 3298 2862 
Q 3072 2584 2669 2484 
Q 3125 2378 3379 2068 
Q 3634 1759 3634 1313 
Q 3634 634 3220 271 
Q 2806 -91 2034 -91 
Q 1263 -91 848 271 
Q 434 634 434 1313 
Q 434 1759 690 2068 
Q 947 2378 1403 2484 
z
M 1172 3481 
Q 1172 3119 1398 2916 
Q 1625 2713 2034 2713 
Q 2441 2713 2670 2916 
Q 2900 3119 2900 3481 
Q 2900 3844 2670 4047 
Q 2441 4250 2034 4250 
Q 1625 4250 1398 4047 
Q 1172 3844 1172 3481 
z
" transform="scale(0.015625)"/>
       </defs>
       <use xlink:href="#DejaVuSans-38"/>
       <use xlink:href="#DejaVuSans-30" x="63.623047"/>
       <use xlink:href="#DejaVuSans-2d" x="127.246094"/>
       <use xlink:href="#DejaVuSans-38" x="163.330078"/>
       <use xlink:href="#DejaVuSans-39" x="226.953125"/>
      </g>
     </g>
    </g>
    <g id="text_10">
     <!-- decade_age_group -->
     <g transform="translate(172.013906 334.419007) scale(0.1 -0.1)">
      <defs>
       <path id="DejaVuSans-64" d="M 2906 2969 
L 2906 4863 
L 3481 4863 
L 3481 0 
L 2906 0 
L 2906 525 
Q 2725 213 2448 61 
Q 2172 -91 1784 -91 
Q 1150 -91 751 415 
Q 353 922 353 1747 
Q 353 2572 751 3078 
Q 1150 3584 1784 3584 
Q 2172 3584 2448 3432 
Q 2725 3281 2906 2969 
z
M 947 1747 
Q 947 1113 1208 752 
Q 1469 391 1925 391 
Q 2381 391 2643 752 
Q 2906 1113 2906 1747 
Q 2906 2381 2643 2742 
Q 2381 3103 1925 3103 
Q 1469 3103 1208 2742 
Q 947 2381 947 1747 
z
" transform="scale(0.015625)"/>
       <path id="DejaVuSans-65" d="M 3597 1894 
L 3597 1613 
L 953 1613 
Q 991 1019 1311 708 
Q 1631 397 2203 397 
Q 2534 397 2845 478 
Q 3156 559 3463 722 
L 3463 178 
Q 3153 47 2828 -22 
Q 2503 -91 2169 -91 
Q 1331 -91 842 396 
Q 353 884 353 1716 
Q 353 2575 817 3079 
Q 1281 3584 2069 3584 
Q 2775 3584 3186 3129 
Q 3597 2675 3597 1894 
z
M 3022 2063 
Q 3016 2534 2758 2815 
Q 2500 3097 2075 3097 
Q 1594 3097 1305 2825 
Q 1016 2553 972 2059 
L 3022 2063 
z
" transform="scale(0.015625)"/>
       <path id="DejaVuSans-63" d="M 3122 3366 
L 3122 2828 
Q 2878 2963 2633 3030 
Q 2388 3097 2138 3097 
Q 1578 3097 1268 2742 
Q 959 2388 959 1747 
Q 959 1106 1268 751 
Q 1578 397 2138 397 
Q 2388 397 2633 464 
Q 2878 531 3122 666 
L 3122 134 
Q 2881 22 2623 -34 
Q 2366 -91 2075 -91 
Q 1284 -91 818 406 
Q 353 903 353 1747 
Q 353 2603 823 3093 
Q 1294 3584 2113 3584 
Q 2378 3584 2631 3529 
Q 2884 3475 3122 3366 
z
" transform="scale(0.015625)"/>
       <path id="DejaVuSans-61" d="M 2194 1759 
Q 1497 1759 1228 1600 
Q 959 1441 959 1056 
Q 959 750 1161 570 
Q 1363 391 1709 391 
Q 2188 391 2477 730 
Q 2766 1069 2766 1631 
L 2766 1759 
L 2194 1759 
z
M 3341 1997 
L 3341 0 
L 2766 0 
L 2766 531 
Q 2569 213 2275 61 
Q 1981 -91 1556 -91 
Q 1019 -91 701 211 
Q 384 513 384 1019 
Q 384 1609 779 1909 
Q 1175 2209 1959 2209 
L 2766 2209 
L 2766 2266 
Q 2766 2663 2505 2880 
Q 2244 3097 1772 3097 
Q 1472 3097 1187 3025 
Q 903 2953 641 2809 
L 641 3341 
Q 956 3463 1253 3523 
Q 1550 3584 1831 3584 
Q 2591 3584 2966 3190 
Q 3341 2797 3341 1997 
z
" transform="scale(0.015625)"/>
       <path id="DejaVuSans-5f" d="M 3263 -1063 
L 3263 -1509 
L -63 -1509 
L -63 -1063 
L 3263 -1063 
z
" transform="scale(0.015625)"/>
       <path id="DejaVuSans-67" d="M 2906 1791 
Q 2906 2416 2648 2759 
Q 2391 3103 1925 3103 
Q 1463 3103 1205 2759 
Q 947 2416 947 1791 
Q 947 1169 1205 825 
Q 1463 481 1925 481 
Q 2391 481 2648 825 
Q 2906 1169 2906 1791 
z
M 3481 434 
Q 3481 -459 3084 -895 
Q 2688 -1331 1869 -1331 
Q 1566 -1331 1297 -1286 
Q 1028 -1241 775 -1147 
L 775 -588 
Q 1028 -725 1275 -790 
Q 1522 -856 1778 -856 
Q 2344 -856 2625 -561 
Q 2906 -266 2906 331 
L 2906 616 
Q 2728 306 2450 153 
Q 2172 0 1784 0 
Q 1141 0 747 490 
Q 353 981 353 1791 
Q 353 2603 747 3093 
Q 1141 3584 1784 3584 
Q 2172 3584 2450 3431 
Q 2728 3278 2906 2969 
L 2906 3500 
L 3481 3500 
L 3481 434 
z
" transform="scale(0.015625)"/>
       <path id="DejaVuSans-72" d="M 2631 2963 
Q 2534 3019 2420 3045 
Q 2306 3072 2169 3072 
Q 1681 3072 1420 2755 
Q 1159 2438 1159 1844 
L 1159 0 
L 581 0 
L 581 3500 
L 1159 3500 
L 1159 2956 
Q 1341 3275 1631 3429 
Q 1922 3584 2338 3584 
Q 2397 3584 2469 3576 
Q 2541 3569 2628 3553 
L 2631 2963 
z
" transform="scale(0.015625)"/>
       <path id="DejaVuSans-6f" d="M 1959 3097 
Q 1497 3097 1228 2736 
Q 959 2375 959 1747 
Q 959 1119 1226 758 
Q 1494 397 1959 397 
Q 2419 397 2687 759 
Q 2956 1122 2956 1747 
Q 2956 2369 2687 2733 
Q 2419 3097 1959 3097 
z
M 1959 3584 
Q 2709 3584 3137 3096 
Q 3566 2609 3566 1747 
Q 3566 888 3137 398 
Q 2709 -91 1959 -91 
Q 1206 -91 779 398 
Q 353 888 353 1747 
Q 353 2609 779 3096 
Q 1206 3584 1959 3584 
z
" transform="scale(0.015625)"/>
       <path id="DejaVuSans-75" d="M 544 1381 
L 544 3500 
L 1119 3500 
L 1119 1403 
Q 1119 906 1312 657 
Q 1506 409 1894 409 
Q 2359 409 2629 706 
Q 2900 1003 2900 1516 
L 2900 3500 
L 3475 3500 
L 3475 0 
L 2900 0 
L 2900 538 
Q 2691 219 2414 64 
Q 2138 -91 1772 -91 
Q 1169 -91 856 284 
Q 544 659 544 1381 
z
M 1991 3584 
L 1991 3584 
z
" transform="scale(0.015625)"/>
       <path id="DejaVuSans-70" d="M 1159 525 
L 1159 -1331 
L 581 -1331 
L 581 3500 
L 1159 3500 
L 1159 2969 
Q 1341 3281 1617 3432 
Q 1894 3584 2278 3584 
Q 2916 3584 3314 3078 
Q 3713 2572 3713 1747 
Q 3713 922 3314 415 
Q 2916 -91 2278 -91 
Q 1894 -91 1617 61 
Q 1341 213 1159 525 
z
M 3116 1747 
Q 3116 2381 2855 2742 
Q 2594 3103 2138 3103 
Q 1681 3103 1420 2742 
Q 1159 2381 1159 1747 
Q 1159 1113 1420 752 
Q 1681 391 2138 391 
Q 2594 391 2855 752 
Q 3116 1113 3116 1747 
z
" transform="scale(0.015625)"/>
      </defs>
      <use xlink:href="#DejaVuSans-64"/>
      <use xlink:href="#DejaVuSans-65" x="63.476562"/>
      <use xlink:href="#DejaVuSans-63" x="125"/>
      <use xlink:href="#DejaVuSans-61" x="179.980469"/>
      <use xlink:href="#DejaVuSans-64" x="241.259766"/>
      <use xlink:href="#DejaVuSans-65" x="304.736328"/>
      <use xlink:href="#DejaVuSans-5f" x="366.259766"/>
      <use xlink:href="#DejaVuSans-61" x="416.259766"/>
      <use xlink:href="#DejaVuSans-67" x="477.539062"/>
      <use xlink:href="#DejaVuSans-65" x="541.015625"/>
      <use xlink:href="#DejaVuSans-5f" x="602.539062"/>
      <use xlink:href="#DejaVuSans-67" x="652.539062"/>
      <use xlink:href="#DejaVuSans-72" x="716.015625"/>
      <use xlink:href="#DejaVuSans-6f" x="754.878906"/>
      <use xlink:href="#DejaVuSans-75" x="816.060547"/>
      <use xlink:href="#DejaVuSans-70" x="879.439453"/>
     </g>
    </g>
   </g>
   <g id="matplotlib.axis_2">
    <g id="ytick_1">
     <g id="line2d_10">
      <defs>
       <path id="mefd49231b7" d="M 0 0 
L -3.5 0 
" style="stroke: #000000; stroke-width: 0.8"/>
      </defs>
      <g>
       <use xlink:href="#mefd49231b7" x="40.603125" y="288.430125" style="stroke: #000000; stroke-width: 0.8"/>
      </g>
     </g>
     <g id="text_11">
      <!-- 0 -->
      <g transform="translate(27.240625 292.229344) scale(0.1 -0.1)">
       <use xlink:href="#DejaVuSans-30"/>
      </g>
     </g>
    </g>
    <g id="ytick_2">
     <g id="line2d_11">
      <g>
       <use xlink:href="#mefd49231b7" x="40.603125" y="245.23509" style="stroke: #000000; stroke-width: 0.8"/>
      </g>
     </g>
     <g id="text_12">
      <!-- 5 -->
      <g transform="translate(27.240625 249.034309) scale(0.1 -0.1)">
       <use xlink:href="#DejaVuSans-35"/>
      </g>
     </g>
    </g>
    <g id="ytick_3">
     <g id="line2d_12">
      <g>
       <use xlink:href="#mefd49231b7" x="40.603125" y="202.040056" style="stroke: #000000; stroke-width: 0.8"/>
      </g>
     </g>
     <g id="text_13">
      <!-- 10 -->
      <g transform="translate(20.878125 205.839275) scale(0.1 -0.1)">
       <use xlink:href="#DejaVuSans-31"/>
       <use xlink:href="#DejaVuSans-30" x="63.623047"/>
      </g>
     </g>
    </g>
    <g id="ytick_4">
     <g id="line2d_13">
      <g>
       <use xlink:href="#mefd49231b7" x="40.603125" y="158.845021" style="stroke: #000000; stroke-width: 0.8"/>
      </g>
     </g>
     <g id="text_14">
      <!-- 15 -->
      <g transform="translate(20.878125 162.64424) scale(0.1 -0.1)">
       <use xlink:href="#DejaVuSans-31"/>
       <use xlink:href="#DejaVuSans-35" x="63.623047"/>
      </g>
     </g>
    </g>
    <g id="ytick_5">
     <g id="line2d_14">
      <g>
       <use xlink:href="#mefd49231b7" x="40.603125" y="115.649987" style="stroke: #000000; stroke-width: 0.8"/>
      </g>
     </g>
     <g id="text_15">
      <!-- 20 -->
      <g transform="translate(20.878125 119.449205) scale(0.1 -0.1)">
       <use xlink:href="#DejaVuSans-32"/>
       <use xlink:href="#DejaVuSans-30" x="63.623047"/>
      </g>
     </g>
    </g>
    <g id="ytick_6">
     <g id="line2d_15">
      <g>
       <use xlink:href="#mefd49231b7" x="40.603125" y="72.454952" style="stroke: #000000; stroke-width: 0.8"/>
      </g>
     </g>
     <g id="text_16">
      <!-- 25 -->
      <g transform="translate(20.878125 76.254171) scale(0.1 -0.1)">
       <use xlink:href="#DejaVuSans-32"/>
       <use xlink:href="#DejaVuSans-35" x="63.623047"/>
      </g>
     </g>
    </g>
    <g id="ytick_7">
     <g id="line2d_16">
      <g>
       <use xlink:href="#mefd49231b7" x="40.603125" y="29.259918" style="stroke: #000000; stroke-width: 0.8"/>
      </g>
     </g>
     <g id="text_17">
      <!-- 30 -->
      <g transform="translate(20.878125 33.059136) scale(0.1 -0.1)">
       <use xlink:href="#DejaVuSans-33"/>
       <use xlink:href="#DejaVuSans-30" x="63.623047"/>
      </g>
     </g>
    </g>
    <g id="text_18">
     <!-- Crude Rate -->
     <g transform="translate(14.798438 183.392094) rotate(-90) scale(0.1 -0.1)">
      <defs>
       <path id="DejaVuSans-43" d="M 4122 4306 
L 4122 3641 
Q 3803 3938 3442 4084 
Q 3081 4231 2675 4231 
Q 1875 4231 1450 3742 
Q 1025 3253 1025 2328 
Q 1025 1406 1450 917 
Q 1875 428 2675 428 
Q 3081 428 3442 575 
Q 3803 722 4122 1019 
L 4122 359 
Q 3791 134 3420 21 
Q 3050 -91 2638 -91 
Q 1578 -91 968 557 
Q 359 1206 359 2328 
Q 359 3453 968 4101 
Q 1578 4750 2638 4750 
Q 3056 4750 3426 4639 
Q 3797 4528 4122 4306 
z
" transform="scale(0.015625)"/>
       <path id="DejaVuSans-20" transform="scale(0.015625)"/>
       <path id="DejaVuSans-52" d="M 2841 2188 
Q 3044 2119 3236 1894 
Q 3428 1669 3622 1275 
L 4263 0 
L 3584 0 
L 2988 1197 
Q 2756 1666 2539 1819 
Q 2322 1972 1947 1972 
L 1259 1972 
L 1259 0 
L 628 0 
L 628 4666 
L 2053 4666 
Q 2853 4666 3247 4331 
Q 3641 3997 3641 3322 
Q 3641 2881 3436 2590 
Q 3231 2300 2841 2188 
z
M 1259 4147 
L 1259 2491 
L 2053 2491 
Q 2509 2491 2742 2702 
Q 2975 2913 2975 3322 
Q 2975 3731 2742 3939 
Q 2509 4147 2053 4147 
L 1259 4147 
z
" transform="scale(0.015625)"/>
       <path id="DejaVuSans-74" d="M 1172 4494 
L 1172 3500 
L 2356 3500 
L 2356 3053 
L 1172 3053 
L 1172 1153 
Q 1172 725 1289 603 
Q 1406 481 1766 481 
L 2356 481 
L 2356 0 
L 1766 0 
Q 1100 0 847 248 
Q 594 497 594 1153 
L 594 3053 
L 172 3053 
L 172 3500 
L 594 3500 
L 594 4494 
L 1172 4494 
z
" transform="scale(0.015625)"/>
      </defs>
      <use xlink:href="#DejaVuSans-43"/>
      <use xlink:href="#DejaVuSans-72" x="69.824219"/>
      <use xlink:href="#DejaVuSans-75" x="110.9375"/>
      <use xlink:href="#DejaVuSans-64" x="174.316406"/>
      <use xlink:href="#DejaVuSans-65" x="237.792969"/>
      <use xlink:href="#DejaVuSans-20" x="299.316406"/>
      <use xlink:href="#DejaVuSans-52" x="331.103516"/>
      <use xlink:href="#DejaVuSans-61" x="398.335938"/>
      <use xlink:href="#DejaVuSans-74" x="459.615234"/>
      <use xlink:href="#DejaVuSans-65" x="498.824219"/>
     </g>
    </g>
   </g>
   <g id="patch_205">
    <path d="M 40.603125 288.430125 
L 40.603125 22.318125 
" style="fill: none; stroke: #000000; stroke-width: 0.8; stroke-linejoin: miter; stroke-linecap: square"/>
   </g>
   <g id="patch_206">
    <path d="M 397.723125 288.430125 
L 397.723125 22.318125 
" style="fill: none; stroke: #000000; stroke-width: 0.8; stroke-linejoin: miter; stroke-linecap: square"/>
   </g>
   <g id="patch_207">
    <path d="M 40.603125 288.430125 
L 397.723125 288.430125 
" style="fill: none; stroke: #000000; stroke-width: 0.8; stroke-linejoin: miter; stroke-linecap: square"/>
   </g>
   <g id="patch_208">
    <path d="M 40.603125 22.318125 
L 397.723125 22.318125 
" style="fill: none; stroke: #000000; stroke-width: 0.8; stroke-linejoin: miter; stroke-linecap: square"/>
   </g>
   <g id="text_19">
    <!-- Crude Rate by Age Group - Fentanyl -->
    <g transform="translate(110.948438 16.318125) scale(0.12 -0.12)">
     <defs>
      <path id="DejaVuSans-62" d="M 3116 1747 
Q 3116 2381 2855 2742 
Q 2594 3103 2138 3103 
Q 1681 3103 1420 2742 
Q 1159 2381 1159 1747 
Q 1159 1113 1420 752 
Q 1681 391 2138 391 
Q 2594 391 2855 752 
Q 3116 1113 3116 1747 
z
M 1159 2969 
Q 1341 3281 1617 3432 
Q 1894 3584 2278 3584 
Q 2916 3584 3314 3078 
Q 3713 2572 3713 1747 
Q 3713 922 3314 415 
Q 2916 -91 2278 -91 
Q 1894 -91 1617 61 
Q 1341 213 1159 525 
L 1159 0 
L 581 0 
L 581 4863 
L 1159 4863 
L 1159 2969 
z
" transform="scale(0.015625)"/>
      <path id="DejaVuSans-79" d="M 2059 -325 
Q 1816 -950 1584 -1140 
Q 1353 -1331 966 -1331 
L 506 -1331 
L 506 -850 
L 844 -850 
Q 1081 -850 1212 -737 
Q 1344 -625 1503 -206 
L 1606 56 
L 191 3500 
L 800 3500 
L 1894 763 
L 2988 3500 
L 3597 3500 
L 2059 -325 
z
" transform="scale(0.015625)"/>
      <path id="DejaVuSans-41" d="M 2188 4044 
L 1331 1722 
L 3047 1722 
L 2188 4044 
z
M 1831 4666 
L 2547 4666 
L 4325 0 
L 3669 0 
L 3244 1197 
L 1141 1197 
L 716 0 
L 50 0 
L 1831 4666 
z
" transform="scale(0.015625)"/>
      <path id="DejaVuSans-47" d="M 3809 666 
L 3809 1919 
L 2778 1919 
L 2778 2438 
L 4434 2438 
L 4434 434 
Q 4069 175 3628 42 
Q 3188 -91 2688 -91 
Q 1594 -91 976 548 
Q 359 1188 359 2328 
Q 359 3472 976 4111 
Q 1594 4750 2688 4750 
Q 3144 4750 3555 4637 
Q 3966 4525 4313 4306 
L 4313 3634 
Q 3963 3931 3569 4081 
Q 3175 4231 2741 4231 
Q 1884 4231 1454 3753 
Q 1025 3275 1025 2328 
Q 1025 1384 1454 906 
Q 1884 428 2741 428 
Q 3075 428 3337 486 
Q 3600 544 3809 666 
z
" transform="scale(0.015625)"/>
      <path id="DejaVuSans-46" d="M 628 4666 
L 3309 4666 
L 3309 4134 
L 1259 4134 
L 1259 2759 
L 3109 2759 
L 3109 2228 
L 1259 2228 
L 1259 0 
L 628 0 
L 628 4666 
z
" transform="scale(0.015625)"/>
      <path id="DejaVuSans-6e" d="M 3513 2113 
L 3513 0 
L 2938 0 
L 2938 2094 
Q 2938 2591 2744 2837 
Q 2550 3084 2163 3084 
Q 1697 3084 1428 2787 
Q 1159 2491 1159 1978 
L 1159 0 
L 581 0 
L 581 3500 
L 1159 3500 
L 1159 2956 
Q 1366 3272 1645 3428 
Q 1925 3584 2291 3584 
Q 2894 3584 3203 3211 
Q 3513 2838 3513 2113 
z
" transform="scale(0.015625)"/>
      <path id="DejaVuSans-6c" d="M 603 4863 
L 1178 4863 
L 1178 0 
L 603 0 
L 603 4863 
z
" transform="scale(0.015625)"/>
     </defs>
     <use xlink:href="#DejaVuSans-43"/>
     <use xlink:href="#DejaVuSans-72" x="69.824219"/>
     <use xlink:href="#DejaVuSans-75" x="110.9375"/>
     <use xlink:href="#DejaVuSans-64" x="174.316406"/>
     <use xlink:href="#DejaVuSans-65" x="237.792969"/>
     <use xlink:href="#DejaVuSans-20" x="299.316406"/>
     <use xlink:href="#DejaVuSans-52" x="331.103516"/>
     <use xlink:href="#DejaVuSans-61" x="398.335938"/>
     <use xlink:href="#DejaVuSans-74" x="459.615234"/>
     <use xlink:href="#DejaVuSans-65" x="498.824219"/>
     <use xlink:href="#DejaVuSans-20" x="560.347656"/>
     <use xlink:href="#DejaVuSans-62" x="592.134766"/>
     <use xlink:href="#DejaVuSans-79" x="655.611328"/>
     <use xlink:href="#DejaVuSans-20" x="714.791016"/>
     <use xlink:href="#DejaVuSans-41" x="746.578125"/>
     <use xlink:href="#DejaVuSans-67" x="814.986328"/>
     <use xlink:href="#DejaVuSans-65" x="878.462891"/>
     <use xlink:href="#DejaVuSans-20" x="939.986328"/>
     <use xlink:href="#DejaVuSans-47" x="971.773438"/>
     <use xlink:href="#DejaVuSans-72" x="1049.263672"/>
     <use xlink:href="#DejaVuSans-6f" x="1088.126953"/>
     <use xlink:href="#DejaVuSans-75" x="1149.308594"/>
     <use xlink:href="#DejaVuSans-70" x="1212.6875"/>
     <use xlink:href="#DejaVuSans-20" x="1276.164062"/>
     <use xlink:href="#DejaVuSans-2d" x="1307.951172"/>
     <use xlink:href="#DejaVuSans-20" x="1344.035156"/>
     <use xlink:href="#DejaVuSans-46" x="1375.822266"/>
     <use xlink:href="#DejaVuSans-65" x="1427.841797"/>
     <use xlink:href="#DejaVuSans-6e" x="1489.365234"/>
     <use xlink:href="#DejaVuSans-74" x="1552.744141"/>
     <use xlink:href="#DejaVuSans-61" x="1591.953125"/>
     <use xlink:href="#DejaVuSans-6e" x="1653.232422"/>
     <use xlink:href="#DejaVuSans-79" x="1716.611328"/>
     <use xlink:href="#DejaVuSans-6c" x="1775.791016"/>
    </g>
   </g>
   <g id="legend_1">
    <g id="patch_209">
     <path d="M 47.603125 133.065 
L 105.053125 133.065 
Q 107.053125 133.065 107.053125 131.065 
L 107.053125 29.318125 
Q 107.053125 27.318125 105.053125 27.318125 
L 47.603125 27.318125 
Q 45.603125 27.318125 45.603125 29.318125 
L 45.603125 131.065 
Q 45.603125 133.065 47.603125 133.065 
z
" style="fill: #ffffff; opacity: 0.8; stroke: #cccccc; stroke-linejoin: miter"/>
    </g>
    <g id="text_20">
     <!-- Year -->
     <g transform="translate(65.740625 38.916562) scale(0.1 -0.1)">
      <defs>
       <path id="DejaVuSans-59" d="M -13 4666 
L 666 4666 
L 1959 2747 
L 3244 4666 
L 3922 4666 
L 2272 2222 
L 2272 0 
L 1638 0 
L 1638 2222 
L -13 4666 
z
" transform="scale(0.015625)"/>
      </defs>
      <use xlink:href="#DejaVuSans-59"/>
      <use xlink:href="#DejaVuSans-65" x="47.833984"/>
      <use xlink:href="#DejaVuSans-61" x="109.357422"/>
      <use xlink:href="#DejaVuSans-72" x="170.636719"/>
     </g>
    </g>
    <g id="patch_210">
     <path d="M 49.603125 53.594687 
L 69.603125 53.594687 
L 69.603125 46.594687 
L 49.603125 46.594687 
z
" style="fill: #e4cbc6"/>
    </g>
    <g id="text_21">
     <!-- 2000 -->
     <g transform="translate(77.603125 53.594687) scale(0.1 -0.1)">
      <use xlink:href="#DejaVuSans-32"/>
      <use xlink:href="#DejaVuSans-30" x="63.623047"/>
      <use xlink:href="#DejaVuSans-30" x="127.246094"/>
      <use xlink:href="#DejaVuSans-30" x="190.869141"/>
     </g>
    </g>
    <g id="patch_211">
     <path d="M 49.603125 68.272812 
L 69.603125 68.272812 
L 69.603125 61.272812 
L 49.603125 61.272812 
z
" style="fill: #cfa4ac"/>
    </g>
    <g id="text_22">
     <!-- 2004 -->
     <g transform="translate(77.603125 68.272812) scale(0.1 -0.1)">
      <use xlink:href="#DejaVuSans-32"/>
      <use xlink:href="#DejaVuSans-30" x="63.623047"/>
      <use xlink:href="#DejaVuSans-30" x="127.246094"/>
      <use xlink:href="#DejaVuSans-34" x="190.869141"/>
     </g>
    </g>
    <g id="patch_212">
     <path d="M 49.603125 82.950937 
L 69.603125 82.950937 
L 69.603125 75.950937 
L 49.603125 75.950937 
z
" style="fill: #af7d99"/>
    </g>
    <g id="text_23">
     <!-- 2008 -->
     <g transform="translate(77.603125 82.950937) scale(0.1 -0.1)">
      <use xlink:href="#DejaVuSans-32"/>
      <use xlink:href="#DejaVuSans-30" x="63.623047"/>
      <use xlink:href="#DejaVuSans-30" x="127.246094"/>
      <use xlink:href="#DejaVuSans-38" x="190.869141"/>
     </g>
    </g>
    <g id="patch_213">
     <path d="M 49.603125 97.629062 
L 69.603125 97.629062 
L 69.603125 90.629062 
L 49.603125 90.629062 
z
" style="fill: #835b82"/>
    </g>
    <g id="text_24">
     <!-- 2012 -->
     <g transform="translate(77.603125 97.629062) scale(0.1 -0.1)">
      <use xlink:href="#DejaVuSans-32"/>
      <use xlink:href="#DejaVuSans-30" x="63.623047"/>
      <use xlink:href="#DejaVuSans-31" x="127.246094"/>
      <use xlink:href="#DejaVuSans-32" x="190.869141"/>
     </g>
    </g>
    <g id="patch_214">
     <path d="M 49.603125 112.307187 
L 69.603125 112.307187 
L 69.603125 105.307187 
L 49.603125 105.307187 
z
" style="fill: #554066"/>
    </g>
    <g id="text_25">
     <!-- 2016 -->
     <g transform="translate(77.603125 112.307187) scale(0.1 -0.1)">
      <use xlink:href="#DejaVuSans-32"/>
      <use xlink:href="#DejaVuSans-30" x="63.623047"/>
      <use xlink:href="#DejaVuSans-31" x="127.246094"/>
      <use xlink:href="#DejaVuSans-36" x="190.869141"/>
     </g>
    </g>
    <g id="patch_215">
     <path d="M 49.603125 126.985312 
L 69.603125 126.985312 
L 69.603125 119.985312 
L 49.603125 119.985312 
z
" style="fill: #28253c"/>
    </g>
    <g id="text_26">
     <!-- 2020 -->
     <g transform="translate(77.603125 126.985312) scale(0.1 -0.1)">
      <use xlink:href="#DejaVuSans-32"/>
      <use xlink:href="#DejaVuSans-30" x="63.623047"/>
      <use xlink:href="#DejaVuSans-32" x="127.246094"/>
      <use xlink:href="#DejaVuSans-30" x="190.869141"/>
     </g>
    </g>
   </g>
  </g>
 </g>
 <defs>
  <clipPath id="ped708cfa55">
   <rect x="40.603125" y="22.318125" width="357.12" height="266.112"/>
  </clipPath>
 </defs>
</svg>
