<?xml version="1.0" encoding="utf-8" standalone="no"?>
<!DOCTYPE svg PUBLIC "-//W3C//DTD SVG 1.1//EN"
  "http://www.w3.org/Graphics/SVG/1.1/DTD/svg11.dtd">
<svg xmlns:xlink="http://www.w3.org/1999/xlink" width="404.923125pt" height="440.877263pt" viewBox="0 0 404.923125 440.877263" xmlns="http://www.w3.org/2000/svg" version="1.1">
 <metadata>
  <rdf:RDF xmlns:dc="http://purl.org/dc/elements/1.1/" xmlns:cc="http://creativecommons.org/ns#" xmlns:rdf="http://www.w3.org/1999/02/22-rdf-syntax-ns#">
   <cc:Work>
    <dc:type rdf:resource="http://purl.org/dc/dcmitype/StillImage"/>
    <dc:date>2023-10-22T07:55:10.721877</dc:date>
    <dc:format>image/svg+xml</dc:format>
    <dc:creator>
     <cc:Agent>
      <dc:title>Matplotlib v3.8.0, https://matplotlib.org/</dc:title>
     </cc:Agent>
    </dc:creator>
   </cc:Work>
  </rdf:RDF>
 </metadata>
 <defs>
  <style type="text/css">*{stroke-linejoin: round; stroke-linecap: butt}</style>
 </defs>
 <g id="figure_1">
  <g id="patch_1">
   <path d="M 0 440.877263 
L 404.923125 440.877263 
L 404.923125 0 
L 0 0 
z
" style="fill: #ffffff"/>
  </g>
  <g id="axes_1">
   <g id="patch_2">
    <path d="M 40.603125 288.430125 
L 397.723125 288.430125 
L 397.723125 22.318125 
L 40.603125 22.318125 
z
" style="fill: #ffffff"/>
   </g>
   <g id="patch_3">
    <path d="M 49.531125 288.430125 
L 52.77767 288.430125 
L 52.77767 130.767284 
L 49.531125 130.767284 
z
" clip-path="url(#p43353fdb0e)" style="fill: #e9d4d0"/>
   </g>
   <g id="patch_4">
    <path d="M 138.811125 288.430125 
L 142.05767 288.430125 
L 142.05767 193.466043 
L 138.811125 193.466043 
z
" clip-path="url(#p43353fdb0e)" style="fill: #e9d4d0"/>
   </g>
   <g id="patch_5">
    <path d="M 228.091125 288.430125 
L 231.33767 288.430125 
L 231.33767 265.739147 
L 228.091125 265.739147 
z
" clip-path="url(#p43353fdb0e)" style="fill: #e9d4d0"/>
   </g>
   <g id="patch_6">
    <path d="M 317.371125 288.430125 
L 320.61767 288.430125 
L 320.61767 284.361205 
L 317.371125 284.361205 
z
" clip-path="url(#p43353fdb0e)" style="fill: #e9d4d0"/>
   </g>
   <g id="patch_7">
    <path d="M 52.77767 288.430125 
L 56.024216 288.430125 
L 56.024216 114.551682 
L 52.77767 114.551682 
z
" clip-path="url(#p43353fdb0e)" style="fill: #e5cbc8"/>
   </g>
   <g id="patch_8">
    <path d="M 142.05767 288.430125 
L 145.304216 288.430125 
L 145.304216 264.828447 
L 142.05767 264.828447 
z
" clip-path="url(#p43353fdb0e)" style="fill: #e5cbc8"/>
   </g>
   <g id="patch_9">
    <path d="M 231.33767 288.430125 
L 234.584216 288.430125 
L 234.584216 270.556081 
L 231.33767 270.556081 
z
" clip-path="url(#p43353fdb0e)" style="fill: #e5cbc8"/>
   </g>
   <g id="patch_10">
    <path d="M 320.61767 288.430125 
L 323.864216 288.430125 
L 323.864216 284.444953 
L 320.61767 284.444953 
z
" clip-path="url(#p43353fdb0e)" style="fill: #e5cbc8"/>
   </g>
   <g id="patch_11">
    <path d="M 56.024216 288.430125 
L 59.270761 288.430125 
L 59.270761 34.990125 
L 56.024216 34.990125 
z
" clip-path="url(#p43353fdb0e)" style="fill: #e0c1c0"/>
   </g>
   <g id="patch_12">
    <path d="M 145.304216 288.430125 
L 148.550761 288.430125 
L 148.550761 238.762251 
L 145.304216 238.762251 
z
" clip-path="url(#p43353fdb0e)" style="fill: #e0c1c0"/>
   </g>
   <g id="patch_13">
    <path d="M 234.584216 288.430125 
L 237.830761 288.430125 
L 237.830761 270.592748 
L 234.584216 270.592748 
z
" clip-path="url(#p43353fdb0e)" style="fill: #e0c1c0"/>
   </g>
   <g id="patch_14">
    <path d="M 323.864216 288.430125 
L 327.110761 288.430125 
L 327.110761 284.059039 
L 323.864216 284.059039 
z
" clip-path="url(#p43353fdb0e)" style="fill: #e0c1c0"/>
   </g>
   <g id="patch_15">
    <path d="M 59.270761 288.430125 
L 62.517307 288.430125 
L 62.517307 119.924645 
L 59.270761 119.924645 
z
" clip-path="url(#p43353fdb0e)" style="fill: #dbb7b9"/>
   </g>
   <g id="patch_16">
    <path d="M 148.550761 288.430125 
L 151.797307 288.430125 
L 151.797307 242.116991 
L 148.550761 242.116991 
z
" clip-path="url(#p43353fdb0e)" style="fill: #dbb7b9"/>
   </g>
   <g id="patch_17">
    <path d="M 237.830761 288.430125 
L 241.077307 288.430125 
L 241.077307 271.605874 
L 237.830761 271.605874 
z
" clip-path="url(#p43353fdb0e)" style="fill: #dbb7b9"/>
   </g>
   <g id="patch_18">
    <path d="M 327.110761 288.430125 
L 330.357307 288.430125 
L 330.357307 283.004146 
L 327.110761 283.004146 
z
" clip-path="url(#p43353fdb0e)" style="fill: #dbb7b9"/>
   </g>
   <g id="patch_19">
    <path d="M 62.517307 288.430125 
L 65.763852 288.430125 
L 65.763852 129.249015 
L 62.517307 129.249015 
z
" clip-path="url(#p43353fdb0e)" style="fill: #d5adb2"/>
   </g>
   <g id="patch_20">
    <path d="M 151.797307 288.430125 
L 155.043852 288.430125 
L 155.043852 271.612805 
L 151.797307 271.612805 
z
" clip-path="url(#p43353fdb0e)" style="fill: #d5adb2"/>
   </g>
   <g id="patch_21">
    <path d="M 241.077307 288.430125 
L 244.323852 288.430125 
L 244.323852 270.06271 
L 241.077307 270.06271 
z
" clip-path="url(#p43353fdb0e)" style="fill: #d5adb2"/>
   </g>
   <g id="patch_22">
    <path d="M 330.357307 288.430125 
L 333.603852 288.430125 
L 333.603852 282.533004 
L 330.357307 282.533004 
z
" clip-path="url(#p43353fdb0e)" style="fill: #d5adb2"/>
   </g>
   <g id="patch_23">
    <path d="M 65.763852 288.430125 
L 69.010398 288.430125 
L 69.010398 75.396108 
L 65.763852 75.396108 
z
" clip-path="url(#p43353fdb0e)" style="fill: #cfa4ad"/>
   </g>
   <g id="patch_24">
    <path d="M 155.043852 288.430125 
L 158.290398 288.430125 
L 158.290398 204.69277 
L 155.043852 204.69277 
z
" clip-path="url(#p43353fdb0e)" style="fill: #cfa4ad"/>
   </g>
   <g id="patch_25">
    <path d="M 244.323852 288.430125 
L 247.570398 288.430125 
L 247.570398 274.025367 
L 244.323852 274.025367 
z
" clip-path="url(#p43353fdb0e)" style="fill: #cfa4ad"/>
   </g>
   <g id="patch_26">
    <path d="M 333.603852 288.430125 
L 336.850398 288.430125 
L 336.850398 281.345776 
L 333.603852 281.345776 
z
" clip-path="url(#p43353fdb0e)" style="fill: #cfa4ad"/>
   </g>
   <g id="patch_27">
    <path d="M 69.010398 288.430125 
L 72.256943 288.430125 
L 72.256943 128.640349 
L 69.010398 128.640349 
z
" clip-path="url(#p43353fdb0e)" style="fill: #c899a6"/>
   </g>
   <g id="patch_28">
    <path d="M 158.290398 288.430125 
L 161.536943 288.430125 
L 161.536943 234.146137 
L 158.290398 234.146137 
z
" clip-path="url(#p43353fdb0e)" style="fill: #c899a6"/>
   </g>
   <g id="patch_29">
    <path d="M 247.570398 288.430125 
L 250.816943 288.430125 
L 250.816943 273.357146 
L 247.570398 273.357146 
z
" clip-path="url(#p43353fdb0e)" style="fill: #c899a6"/>
   </g>
   <g id="patch_30">
    <path d="M 336.850398 288.430125 
L 340.096943 288.430125 
L 340.096943 281.288181 
L 336.850398 281.288181 
z
" clip-path="url(#p43353fdb0e)" style="fill: #c899a6"/>
   </g>
   <g id="patch_31">
    <path d="M 72.256943 288.430125 
L 75.503489 288.430125 
L 75.503489 100.539133 
L 72.256943 100.539133 
z
" clip-path="url(#p43353fdb0e)" style="fill: #c08fa0"/>
   </g>
   <g id="patch_32">
    <path d="M 161.536943 288.430125 
L 164.783489 288.430125 
L 164.783489 251.725021 
L 161.536943 251.725021 
z
" clip-path="url(#p43353fdb0e)" style="fill: #c08fa0"/>
   </g>
   <g id="patch_33">
    <path d="M 250.816943 288.430125 
L 254.063489 288.430125 
L 254.063489 265.257919 
L 250.816943 265.257919 
z
" clip-path="url(#p43353fdb0e)" style="fill: #c08fa0"/>
   </g>
   <g id="patch_34">
    <path d="M 340.096943 288.430125 
L 343.343489 288.430125 
L 343.343489 278.235875 
L 340.096943 278.235875 
z
" clip-path="url(#p43353fdb0e)" style="fill: #c08fa0"/>
   </g>
   <g id="patch_35">
    <path d="M 75.503489 288.430125 
L 78.750034 288.430125 
L 78.750034 114.380467 
L 75.503489 114.380467 
z
" clip-path="url(#p43353fdb0e)" style="fill: #b8869b"/>
   </g>
   <g id="patch_36">
    <path d="M 164.783489 288.430125 
L 168.030034 288.430125 
L 168.030034 260.543629 
L 164.783489 260.543629 
z
" clip-path="url(#p43353fdb0e)" style="fill: #b8869b"/>
   </g>
   <g id="patch_37">
    <path d="M 254.063489 288.430125 
L 257.310034 288.430125 
L 257.310034 271.741627 
L 254.063489 271.741627 
z
" clip-path="url(#p43353fdb0e)" style="fill: #b8869b"/>
   </g>
   <g id="patch_38">
    <path d="M 343.343489 288.430125 
L 346.590034 288.430125 
L 346.590034 279.744089 
L 343.343489 279.744089 
z
" clip-path="url(#p43353fdb0e)" style="fill: #b8869b"/>
   </g>
   <g id="patch_39">
    <path d="M 78.750034 288.430125 
L 81.99658 288.430125 
L 81.99658 93.729433 
L 78.750034 93.729433 
z
" clip-path="url(#p43353fdb0e)" style="fill: #b07e96"/>
   </g>
   <g id="patch_40">
    <path d="M 168.030034 288.430125 
L 171.27658 288.430125 
L 171.27658 242.351179 
L 168.030034 242.351179 
z
" clip-path="url(#p43353fdb0e)" style="fill: #b07e96"/>
   </g>
   <g id="patch_41">
    <path d="M 257.310034 288.430125 
L 260.55658 288.430125 
L 260.55658 272.000534 
L 257.310034 272.000534 
z
" clip-path="url(#p43353fdb0e)" style="fill: #b07e96"/>
   </g>
   <g id="patch_42">
    <path d="M 346.590034 288.430125 
L 349.83658 288.430125 
L 349.83658 279.031087 
L 346.590034 279.031087 
z
" clip-path="url(#p43353fdb0e)" style="fill: #b07e96"/>
   </g>
   <g id="patch_43">
    <path d="M 81.99658 288.430125 
L 85.243125 288.430125 
L 85.243125 150.818867 
L 81.99658 150.818867 
z
" clip-path="url(#p43353fdb0e)" style="fill: #a67490"/>
   </g>
   <g id="patch_44">
    <path d="M 171.27658 288.430125 
L 174.523125 288.430125 
L 174.523125 240.851055 
L 171.27658 240.851055 
z
" clip-path="url(#p43353fdb0e)" style="fill: #a67490"/>
   </g>
   <g id="patch_45">
    <path d="M 260.55658 288.430125 
L 263.803125 288.430125 
L 263.803125 272.727493 
L 260.55658 272.727493 
z
" clip-path="url(#p43353fdb0e)" style="fill: #a67490"/>
   </g>
   <g id="patch_46">
    <path d="M 349.83658 288.430125 
L 353.083125 288.430125 
L 353.083125 277.325772 
L 349.83658 277.325772 
z
" clip-path="url(#p43353fdb0e)" style="fill: #a67490"/>
   </g>
   <g id="patch_47">
    <path d="M 85.243125 288.430125 
L 88.48967 288.430125 
L 88.48967 169.219673 
L 85.243125 169.219673 
z
" clip-path="url(#p43353fdb0e)" style="fill: #9c6b8a"/>
   </g>
   <g id="patch_48">
    <path d="M 174.523125 288.430125 
L 177.76967 288.430125 
L 177.76967 247.393972 
L 174.523125 247.393972 
z
" clip-path="url(#p43353fdb0e)" style="fill: #9c6b8a"/>
   </g>
   <g id="patch_49">
    <path d="M 263.803125 288.430125 
L 267.04967 288.430125 
L 267.04967 271.978385 
L 263.803125 271.978385 
z
" clip-path="url(#p43353fdb0e)" style="fill: #9c6b8a"/>
   </g>
   <g id="patch_50">
    <path d="M 353.083125 288.430125 
L 356.32967 288.430125 
L 356.32967 277.398855 
L 353.083125 277.398855 
z
" clip-path="url(#p43353fdb0e)" style="fill: #9c6b8a"/>
   </g>
   <g id="patch_51">
    <path d="M 88.48967 288.430125 
L 91.736216 288.430125 
L 91.736216 111.246145 
L 88.48967 111.246145 
z
" clip-path="url(#p43353fdb0e)" style="fill: #916284"/>
   </g>
   <g id="patch_52">
    <path d="M 177.76967 288.430125 
L 181.016216 288.430125 
L 181.016216 237.153428 
L 177.76967 237.153428 
z
" clip-path="url(#p43353fdb0e)" style="fill: #916284"/>
   </g>
   <g id="patch_53">
    <path d="M 267.04967 288.430125 
L 270.296216 288.430125 
L 270.296216 273.017371 
L 267.04967 273.017371 
z
" clip-path="url(#p43353fdb0e)" style="fill: #916284"/>
   </g>
   <g id="patch_54">
    <path d="M 356.32967 288.430125 
L 359.576216 288.430125 
L 359.576216 278.661553 
L 356.32967 278.661553 
z
" clip-path="url(#p43353fdb0e)" style="fill: #916284"/>
   </g>
   <g id="patch_55">
    <path d="M 91.736216 288.430125 
L 94.982761 288.430125 
L 94.982761 121.764754 
L 91.736216 121.764754 
z
" clip-path="url(#p43353fdb0e)" style="fill: #875a7e"/>
   </g>
   <g id="patch_56">
    <path d="M 181.016216 288.430125 
L 184.262761 288.430125 
L 184.262761 243.171067 
L 181.016216 243.171067 
z
" clip-path="url(#p43353fdb0e)" style="fill: #875a7e"/>
   </g>
   <g id="patch_57">
    <path d="M 270.296216 288.430125 
L 273.542761 288.430125 
L 273.542761 273.118338 
L 270.296216 273.118338 
z
" clip-path="url(#p43353fdb0e)" style="fill: #875a7e"/>
   </g>
   <g id="patch_58">
    <path d="M 359.576216 288.430125 
L 362.822761 288.430125 
L 362.822761 278.719701 
L 359.576216 278.719701 
z
" clip-path="url(#p43353fdb0e)" style="fill: #875a7e"/>
   </g>
   <g id="patch_59">
    <path d="M 94.982761 288.430125 
L 98.229307 288.430125 
L 98.229307 154.346929 
L 94.982761 154.346929 
z
" clip-path="url(#p43353fdb0e)" style="fill: #7c5378"/>
   </g>
   <g id="patch_60">
    <path d="M 184.262761 288.430125 
L 187.509307 288.430125 
L 187.509307 260.307581 
L 184.262761 260.307581 
z
" clip-path="url(#p43353fdb0e)" style="fill: #7c5378"/>
   </g>
   <g id="patch_61">
    <path d="M 273.542761 288.430125 
L 276.789307 288.430125 
L 276.789307 272.95941 
L 273.542761 272.95941 
z
" clip-path="url(#p43353fdb0e)" style="fill: #7c5378"/>
   </g>
   <g id="patch_62">
    <path d="M 362.822761 288.430125 
L 366.069307 288.430125 
L 366.069307 277.082457 
L 362.822761 277.082457 
z
" clip-path="url(#p43353fdb0e)" style="fill: #7c5378"/>
   </g>
   <g id="patch_63">
    <path d="M 98.229307 288.430125 
L 101.475852 288.430125 
L 101.475852 164.587407 
L 98.229307 164.587407 
z
" clip-path="url(#p43353fdb0e)" style="fill: #704b70"/>
   </g>
   <g id="patch_64">
    <path d="M 187.509307 288.430125 
L 190.755852 288.430125 
L 190.755852 255.897786 
L 187.509307 255.897786 
z
" clip-path="url(#p43353fdb0e)" style="fill: #704b70"/>
   </g>
   <g id="patch_65">
    <path d="M 276.789307 288.430125 
L 280.035852 288.430125 
L 280.035852 272.917348 
L 276.789307 272.917348 
z
" clip-path="url(#p43353fdb0e)" style="fill: #704b70"/>
   </g>
   <g id="patch_66">
    <path d="M 366.069307 288.430125 
L 369.315852 288.430125 
L 369.315852 269.626017 
L 366.069307 269.626017 
z
" clip-path="url(#p43353fdb0e)" style="fill: #704b70"/>
   </g>
   <g id="patch_67">
    <path d="M 101.475852 288.430125 
L 104.722398 288.430125 
L 104.722398 156.098801 
L 101.475852 156.098801 
z
" clip-path="url(#p43353fdb0e)" style="fill: #654468"/>
   </g>
   <g id="patch_68">
    <path d="M 190.755852 288.430125 
L 194.002398 288.430125 
L 194.002398 262.434408 
L 190.755852 262.434408 
z
" clip-path="url(#p43353fdb0e)" style="fill: #654468"/>
   </g>
   <g id="patch_69">
    <path d="M 280.035852 288.430125 
L 283.282398 288.430125 
L 283.282398 267.628028 
L 280.035852 267.628028 
z
" clip-path="url(#p43353fdb0e)" style="fill: #654468"/>
   </g>
   <g id="patch_70">
    <path d="M 369.315852 288.430125 
L 372.562398 288.430125 
L 372.562398 258.115317 
L 369.315852 258.115317 
z
" clip-path="url(#p43353fdb0e)" style="fill: #654468"/>
   </g>
   <g id="patch_71">
    <path d="M 104.722398 288.430125 
L 107.968943 288.430125 
L 107.968943 146.705797 
L 104.722398 146.705797 
z
" clip-path="url(#p43353fdb0e)" style="fill: #5a3d61"/>
   </g>
   <g id="patch_72">
    <path d="M 194.002398 288.430125 
L 197.248943 288.430125 
L 197.248943 251.362373 
L 194.002398 251.362373 
z
" clip-path="url(#p43353fdb0e)" style="fill: #5a3d61"/>
   </g>
   <g id="patch_73">
    <path d="M 283.282398 288.430125 
L 286.528943 288.430125 
L 286.528943 223.024226 
L 283.282398 223.024226 
z
" clip-path="url(#p43353fdb0e)" style="fill: #5a3d61"/>
   </g>
   <g id="patch_74">
    <path d="M 372.562398 288.430125 
L 375.808943 288.430125 
L 375.808943 229.708982 
L 372.562398 229.708982 
z
" clip-path="url(#p43353fdb0e)" style="fill: #5a3d61"/>
   </g>
   <g id="patch_75">
    <path d="M 107.968943 288.430125 
L 111.215489 288.430125 
L 111.215489 156.99909 
L 107.968943 156.99909 
z
" clip-path="url(#p43353fdb0e)" style="fill: #4e3658"/>
   </g>
   <g id="patch_76">
    <path d="M 197.248943 288.430125 
L 200.495489 288.430125 
L 200.495489 252.390564 
L 197.248943 252.390564 
z
" clip-path="url(#p43353fdb0e)" style="fill: #4e3658"/>
   </g>
   <g id="patch_77">
    <path d="M 286.528943 288.430125 
L 289.775489 288.430125 
L 289.775489 194.171209 
L 286.528943 194.171209 
z
" clip-path="url(#p43353fdb0e)" style="fill: #4e3658"/>
   </g>
   <g id="patch_78">
    <path d="M 375.808943 288.430125 
L 379.055489 288.430125 
L 379.055489 209.404954 
L 375.808943 209.404954 
z
" clip-path="url(#p43353fdb0e)" style="fill: #4e3658"/>
   </g>
   <g id="patch_79">
    <path d="M 111.215489 288.430125 
L 114.462034 288.430125 
L 114.462034 156.196718 
L 111.215489 156.196718 
z
" clip-path="url(#p43353fdb0e)" style="fill: #43304f"/>
   </g>
   <g id="patch_80">
    <path d="M 200.495489 288.430125 
L 203.742034 288.430125 
L 203.742034 253.436905 
L 200.495489 253.436905 
z
" clip-path="url(#p43353fdb0e)" style="fill: #43304f"/>
   </g>
   <g id="patch_81">
    <path d="M 289.775489 288.430125 
L 293.022034 288.430125 
L 293.022034 169.645098 
L 289.775489 169.645098 
z
" clip-path="url(#p43353fdb0e)" style="fill: #43304f"/>
   </g>
   <g id="patch_82">
    <path d="M 379.055489 288.430125 
L 382.302034 288.430125 
L 382.302034 202.549495 
L 379.055489 202.549495 
z
" clip-path="url(#p43353fdb0e)" style="fill: #43304f"/>
   </g>
   <g id="patch_83">
    <path d="M 114.462034 288.430125 
L 117.70858 288.430125 
L 117.70858 146.732774 
L 114.462034 146.732774 
z
" clip-path="url(#p43353fdb0e)" style="fill: #372944"/>
   </g>
   <g id="patch_84">
    <path d="M 203.742034 288.430125 
L 206.98858 288.430125 
L 206.98858 253.572862 
L 203.742034 253.572862 
z
" clip-path="url(#p43353fdb0e)" style="fill: #372944"/>
   </g>
   <g id="patch_85">
    <path d="M 293.022034 288.430125 
L 296.26858 288.430125 
L 296.26858 154.021988 
L 293.022034 154.021988 
z
" clip-path="url(#p43353fdb0e)" style="fill: #372944"/>
   </g>
   <g id="patch_86">
    <path d="M 382.302034 288.430125 
L 385.54858 288.430125 
L 385.54858 196.921814 
L 382.302034 196.921814 
z
" clip-path="url(#p43353fdb0e)" style="fill: #372944"/>
   </g>
   <g id="patch_87">
    <path d="M 117.70858 288.430125 
L 120.955125 288.430125 
L 120.955125 126.934329 
L 117.70858 126.934329 
z
" clip-path="url(#p43353fdb0e)" style="fill: #2d223a"/>
   </g>
   <g id="patch_88">
    <path d="M 206.98858 288.430125 
L 210.235125 288.430125 
L 210.235125 242.684486 
L 206.98858 242.684486 
z
" clip-path="url(#p43353fdb0e)" style="fill: #2d223a"/>
   </g>
   <g id="patch_89">
    <path d="M 296.26858 288.430125 
L 299.515125 288.430125 
L 299.515125 87.574527 
L 296.26858 87.574527 
z
" clip-path="url(#p43353fdb0e)" style="fill: #2d223a"/>
   </g>
   <g id="patch_90">
    <path d="M 385.54858 288.430125 
L 388.795125 288.430125 
L 388.795125 157.368562 
L 385.54858 157.368562 
z
" clip-path="url(#p43353fdb0e)" style="fill: #2d223a"/>
   </g>
   <g id="patch_91">
    <path d="M 85.243125 288.430125 
L 85.243125 288.430125 
L 85.243125 288.430125 
L 85.243125 288.430125 
z
" clip-path="url(#p43353fdb0e)" style="fill: #e5cbc8"/>
   </g>
   <g id="patch_92">
    <path d="M 85.243125 288.430125 
L 85.243125 288.430125 
L 85.243125 288.430125 
L 85.243125 288.430125 
z
" clip-path="url(#p43353fdb0e)" style="fill: #cfa4ad"/>
   </g>
   <g id="patch_93">
    <path d="M 85.243125 288.430125 
L 85.243125 288.430125 
L 85.243125 288.430125 
L 85.243125 288.430125 
z
" clip-path="url(#p43353fdb0e)" style="fill: #b07e96"/>
   </g>
   <g id="patch_94">
    <path d="M 85.243125 288.430125 
L 85.243125 288.430125 
L 85.243125 288.430125 
L 85.243125 288.430125 
z
" clip-path="url(#p43353fdb0e)" style="fill: #875a7e"/>
   </g>
   <g id="patch_95">
    <path d="M 85.243125 288.430125 
L 85.243125 288.430125 
L 85.243125 288.430125 
L 85.243125 288.430125 
z
" clip-path="url(#p43353fdb0e)" style="fill: #5a3d61"/>
   </g>
   <g id="patch_96">
    <path d="M 85.243125 288.430125 
L 85.243125 288.430125 
L 85.243125 288.430125 
L 85.243125 288.430125 
z
" clip-path="url(#p43353fdb0e)" style="fill: #2d223a"/>
   </g>
   <g id="matplotlib.axis_1">
    <g id="xtick_1">
     <g id="line2d_1">
      <defs>
       <path id="m064931cde8" d="M 0 0 
L 0 3.5 
" style="stroke: #000000; stroke-width: 0.8"/>
      </defs>
      <g>
       <use xlink:href="#m064931cde8" x="85.243125" y="288.430125" style="stroke: #000000; stroke-width: 0.8"/>
      </g>
     </g>
     <g id="text_1">
      <!-- American Indian or Alaska Native -->
      <g transform="translate(28.331525 418.528577) rotate(-45) scale(0.1 -0.1)">
       <defs>
        <path id="DejaVuSans-41" d="M 2188 4044 
L 1331 1722 
L 3047 1722 
L 2188 4044 
z
M 1831 4666 
L 2547 4666 
L 4325 0 
L 3669 0 
L 3244 1197 
L 1141 1197 
L 716 0 
L 50 0 
L 1831 4666 
z
" transform="scale(0.015625)"/>
        <path id="DejaVuSans-6d" d="M 3328 2828 
Q 3544 3216 3844 3400 
Q 4144 3584 4550 3584 
Q 5097 3584 5394 3201 
Q 5691 2819 5691 2113 
L 5691 0 
L 5113 0 
L 5113 2094 
Q 5113 2597 4934 2840 
Q 4756 3084 4391 3084 
Q 3944 3084 3684 2787 
Q 3425 2491 3425 1978 
L 3425 0 
L 2847 0 
L 2847 2094 
Q 2847 2600 2669 2842 
Q 2491 3084 2119 3084 
Q 1678 3084 1418 2786 
Q 1159 2488 1159 1978 
L 1159 0 
L 581 0 
L 581 3500 
L 1159 3500 
L 1159 2956 
Q 1356 3278 1631 3431 
Q 1906 3584 2284 3584 
Q 2666 3584 2933 3390 
Q 3200 3197 3328 2828 
z
" transform="scale(0.015625)"/>
        <path id="DejaVuSans-65" d="M 3597 1894 
L 3597 1613 
L 953 1613 
Q 991 1019 1311 708 
Q 1631 397 2203 397 
Q 2534 397 2845 478 
Q 3156 559 3463 722 
L 3463 178 
Q 3153 47 2828 -22 
Q 2503 -91 2169 -91 
Q 1331 -91 842 396 
Q 353 884 353 1716 
Q 353 2575 817 3079 
Q 1281 3584 2069 3584 
Q 2775 3584 3186 3129 
Q 3597 2675 3597 1894 
z
M 3022 2063 
Q 3016 2534 2758 2815 
Q 2500 3097 2075 3097 
Q 1594 3097 1305 2825 
Q 1016 2553 972 2059 
L 3022 2063 
z
" transform="scale(0.015625)"/>
        <path id="DejaVuSans-72" d="M 2631 2963 
Q 2534 3019 2420 3045 
Q 2306 3072 2169 3072 
Q 1681 3072 1420 2755 
Q 1159 2438 1159 1844 
L 1159 0 
L 581 0 
L 581 3500 
L 1159 3500 
L 1159 2956 
Q 1341 3275 1631 3429 
Q 1922 3584 2338 3584 
Q 2397 3584 2469 3576 
Q 2541 3569 2628 3553 
L 2631 2963 
z
" transform="scale(0.015625)"/>
        <path id="DejaVuSans-69" d="M 603 3500 
L 1178 3500 
L 1178 0 
L 603 0 
L 603 3500 
z
M 603 4863 
L 1178 4863 
L 1178 4134 
L 603 4134 
L 603 4863 
z
" transform="scale(0.015625)"/>
        <path id="DejaVuSans-63" d="M 3122 3366 
L 3122 2828 
Q 2878 2963 2633 3030 
Q 2388 3097 2138 3097 
Q 1578 3097 1268 2742 
Q 959 2388 959 1747 
Q 959 1106 1268 751 
Q 1578 397 2138 397 
Q 2388 397 2633 464 
Q 2878 531 3122 666 
L 3122 134 
Q 2881 22 2623 -34 
Q 2366 -91 2075 -91 
Q 1284 -91 818 406 
Q 353 903 353 1747 
Q 353 2603 823 3093 
Q 1294 3584 2113 3584 
Q 2378 3584 2631 3529 
Q 2884 3475 3122 3366 
z
" transform="scale(0.015625)"/>
        <path id="DejaVuSans-61" d="M 2194 1759 
Q 1497 1759 1228 1600 
Q 959 1441 959 1056 
Q 959 750 1161 570 
Q 1363 391 1709 391 
Q 2188 391 2477 730 
Q 2766 1069 2766 1631 
L 2766 1759 
L 2194 1759 
z
M 3341 1997 
L 3341 0 
L 2766 0 
L 2766 531 
Q 2569 213 2275 61 
Q 1981 -91 1556 -91 
Q 1019 -91 701 211 
Q 384 513 384 1019 
Q 384 1609 779 1909 
Q 1175 2209 1959 2209 
L 2766 2209 
L 2766 2266 
Q 2766 2663 2505 2880 
Q 2244 3097 1772 3097 
Q 1472 3097 1187 3025 
Q 903 2953 641 2809 
L 641 3341 
Q 956 3463 1253 3523 
Q 1550 3584 1831 3584 
Q 2591 3584 2966 3190 
Q 3341 2797 3341 1997 
z
" transform="scale(0.015625)"/>
        <path id="DejaVuSans-6e" d="M 3513 2113 
L 3513 0 
L 2938 0 
L 2938 2094 
Q 2938 2591 2744 2837 
Q 2550 3084 2163 3084 
Q 1697 3084 1428 2787 
Q 1159 2491 1159 1978 
L 1159 0 
L 581 0 
L 581 3500 
L 1159 3500 
L 1159 2956 
Q 1366 3272 1645 3428 
Q 1925 3584 2291 3584 
Q 2894 3584 3203 3211 
Q 3513 2838 3513 2113 
z
" transform="scale(0.015625)"/>
        <path id="DejaVuSans-20" transform="scale(0.015625)"/>
        <path id="DejaVuSans-49" d="M 628 4666 
L 1259 4666 
L 1259 0 
L 628 0 
L 628 4666 
z
" transform="scale(0.015625)"/>
        <path id="DejaVuSans-64" d="M 2906 2969 
L 2906 4863 
L 3481 4863 
L 3481 0 
L 2906 0 
L 2906 525 
Q 2725 213 2448 61 
Q 2172 -91 1784 -91 
Q 1150 -91 751 415 
Q 353 922 353 1747 
Q 353 2572 751 3078 
Q 1150 3584 1784 3584 
Q 2172 3584 2448 3432 
Q 2725 3281 2906 2969 
z
M 947 1747 
Q 947 1113 1208 752 
Q 1469 391 1925 391 
Q 2381 391 2643 752 
Q 2906 1113 2906 1747 
Q 2906 2381 2643 2742 
Q 2381 3103 1925 3103 
Q 1469 3103 1208 2742 
Q 947 2381 947 1747 
z
" transform="scale(0.015625)"/>
        <path id="DejaVuSans-6f" d="M 1959 3097 
Q 1497 3097 1228 2736 
Q 959 2375 959 1747 
Q 959 1119 1226 758 
Q 1494 397 1959 397 
Q 2419 397 2687 759 
Q 2956 1122 2956 1747 
Q 2956 2369 2687 2733 
Q 2419 3097 1959 3097 
z
M 1959 3584 
Q 2709 3584 3137 3096 
Q 3566 2609 3566 1747 
Q 3566 888 3137 398 
Q 2709 -91 1959 -91 
Q 1206 -91 779 398 
Q 353 888 353 1747 
Q 353 2609 779 3096 
Q 1206 3584 1959 3584 
z
" transform="scale(0.015625)"/>
        <path id="DejaVuSans-6c" d="M 603 4863 
L 1178 4863 
L 1178 0 
L 603 0 
L 603 4863 
z
" transform="scale(0.015625)"/>
        <path id="DejaVuSans-73" d="M 2834 3397 
L 2834 2853 
Q 2591 2978 2328 3040 
Q 2066 3103 1784 3103 
Q 1356 3103 1142 2972 
Q 928 2841 928 2578 
Q 928 2378 1081 2264 
Q 1234 2150 1697 2047 
L 1894 2003 
Q 2506 1872 2764 1633 
Q 3022 1394 3022 966 
Q 3022 478 2636 193 
Q 2250 -91 1575 -91 
Q 1294 -91 989 -36 
Q 684 19 347 128 
L 347 722 
Q 666 556 975 473 
Q 1284 391 1588 391 
Q 1994 391 2212 530 
Q 2431 669 2431 922 
Q 2431 1156 2273 1281 
Q 2116 1406 1581 1522 
L 1381 1569 
Q 847 1681 609 1914 
Q 372 2147 372 2553 
Q 372 3047 722 3315 
Q 1072 3584 1716 3584 
Q 2034 3584 2315 3537 
Q 2597 3491 2834 3397 
z
" transform="scale(0.015625)"/>
        <path id="DejaVuSans-6b" d="M 581 4863 
L 1159 4863 
L 1159 1991 
L 2875 3500 
L 3609 3500 
L 1753 1863 
L 3688 0 
L 2938 0 
L 1159 1709 
L 1159 0 
L 581 0 
L 581 4863 
z
" transform="scale(0.015625)"/>
        <path id="DejaVuSans-4e" d="M 628 4666 
L 1478 4666 
L 3547 763 
L 3547 4666 
L 4159 4666 
L 4159 0 
L 3309 0 
L 1241 3903 
L 1241 0 
L 628 0 
L 628 4666 
z
" transform="scale(0.015625)"/>
        <path id="DejaVuSans-74" d="M 1172 4494 
L 1172 3500 
L 2356 3500 
L 2356 3053 
L 1172 3053 
L 1172 1153 
Q 1172 725 1289 603 
Q 1406 481 1766 481 
L 2356 481 
L 2356 0 
L 1766 0 
Q 1100 0 847 248 
Q 594 497 594 1153 
L 594 3053 
L 172 3053 
L 172 3500 
L 594 3500 
L 594 4494 
L 1172 4494 
z
" transform="scale(0.015625)"/>
        <path id="DejaVuSans-76" d="M 191 3500 
L 800 3500 
L 1894 563 
L 2988 3500 
L 3597 3500 
L 2284 0 
L 1503 0 
L 191 3500 
z
" transform="scale(0.015625)"/>
       </defs>
       <use xlink:href="#DejaVuSans-41"/>
       <use xlink:href="#DejaVuSans-6d" x="68.408203"/>
       <use xlink:href="#DejaVuSans-65" x="165.820312"/>
       <use xlink:href="#DejaVuSans-72" x="227.34375"/>
       <use xlink:href="#DejaVuSans-69" x="268.457031"/>
       <use xlink:href="#DejaVuSans-63" x="296.240234"/>
       <use xlink:href="#DejaVuSans-61" x="351.220703"/>
       <use xlink:href="#DejaVuSans-6e" x="412.5"/>
       <use xlink:href="#DejaVuSans-20" x="475.878906"/>
       <use xlink:href="#DejaVuSans-49" x="507.666016"/>
       <use xlink:href="#DejaVuSans-6e" x="537.158203"/>
       <use xlink:href="#DejaVuSans-64" x="600.537109"/>
       <use xlink:href="#DejaVuSans-69" x="664.013672"/>
       <use xlink:href="#DejaVuSans-61" x="691.796875"/>
       <use xlink:href="#DejaVuSans-6e" x="753.076172"/>
       <use xlink:href="#DejaVuSans-20" x="816.455078"/>
       <use xlink:href="#DejaVuSans-6f" x="848.242188"/>
       <use xlink:href="#DejaVuSans-72" x="909.423828"/>
       <use xlink:href="#DejaVuSans-20" x="950.537109"/>
       <use xlink:href="#DejaVuSans-41" x="982.324219"/>
       <use xlink:href="#DejaVuSans-6c" x="1050.732422"/>
       <use xlink:href="#DejaVuSans-61" x="1078.515625"/>
       <use xlink:href="#DejaVuSans-73" x="1139.794922"/>
       <use xlink:href="#DejaVuSans-6b" x="1191.894531"/>
       <use xlink:href="#DejaVuSans-61" x="1248.054688"/>
       <use xlink:href="#DejaVuSans-20" x="1309.333984"/>
       <use xlink:href="#DejaVuSans-4e" x="1341.121094"/>
       <use xlink:href="#DejaVuSans-61" x="1415.925781"/>
       <use xlink:href="#DejaVuSans-74" x="1477.205078"/>
       <use xlink:href="#DejaVuSans-69" x="1516.414062"/>
       <use xlink:href="#DejaVuSans-76" x="1544.197266"/>
       <use xlink:href="#DejaVuSans-65" x="1603.376953"/>
      </g>
     </g>
    </g>
    <g id="xtick_2">
     <g id="line2d_2">
      <g>
       <use xlink:href="#m064931cde8" x="174.523125" y="288.430125" style="stroke: #000000; stroke-width: 0.8"/>
      </g>
     </g>
     <g id="text_2">
      <!-- Asian or Pacific Islander -->
      <g transform="translate(134.45282 384.845987) rotate(-45) scale(0.1 -0.1)">
       <defs>
        <path id="DejaVuSans-50" d="M 1259 4147 
L 1259 2394 
L 2053 2394 
Q 2494 2394 2734 2622 
Q 2975 2850 2975 3272 
Q 2975 3691 2734 3919 
Q 2494 4147 2053 4147 
L 1259 4147 
z
M 628 4666 
L 2053 4666 
Q 2838 4666 3239 4311 
Q 3641 3956 3641 3272 
Q 3641 2581 3239 2228 
Q 2838 1875 2053 1875 
L 1259 1875 
L 1259 0 
L 628 0 
L 628 4666 
z
" transform="scale(0.015625)"/>
        <path id="DejaVuSans-66" d="M 2375 4863 
L 2375 4384 
L 1825 4384 
Q 1516 4384 1395 4259 
Q 1275 4134 1275 3809 
L 1275 3500 
L 2222 3500 
L 2222 3053 
L 1275 3053 
L 1275 0 
L 697 0 
L 697 3053 
L 147 3053 
L 147 3500 
L 697 3500 
L 697 3744 
Q 697 4328 969 4595 
Q 1241 4863 1831 4863 
L 2375 4863 
z
" transform="scale(0.015625)"/>
       </defs>
       <use xlink:href="#DejaVuSans-41"/>
       <use xlink:href="#DejaVuSans-73" x="68.408203"/>
       <use xlink:href="#DejaVuSans-69" x="120.507812"/>
       <use xlink:href="#DejaVuSans-61" x="148.291016"/>
       <use xlink:href="#DejaVuSans-6e" x="209.570312"/>
       <use xlink:href="#DejaVuSans-20" x="272.949219"/>
       <use xlink:href="#DejaVuSans-6f" x="304.736328"/>
       <use xlink:href="#DejaVuSans-72" x="365.917969"/>
       <use xlink:href="#DejaVuSans-20" x="407.03125"/>
       <use xlink:href="#DejaVuSans-50" x="438.818359"/>
       <use xlink:href="#DejaVuSans-61" x="494.621094"/>
       <use xlink:href="#DejaVuSans-63" x="555.900391"/>
       <use xlink:href="#DejaVuSans-69" x="610.880859"/>
       <use xlink:href="#DejaVuSans-66" x="638.664062"/>
       <use xlink:href="#DejaVuSans-69" x="673.869141"/>
       <use xlink:href="#DejaVuSans-63" x="701.652344"/>
       <use xlink:href="#DejaVuSans-20" x="756.632812"/>
       <use xlink:href="#DejaVuSans-49" x="788.419922"/>
       <use xlink:href="#DejaVuSans-73" x="817.912109"/>
       <use xlink:href="#DejaVuSans-6c" x="870.011719"/>
       <use xlink:href="#DejaVuSans-61" x="897.794922"/>
       <use xlink:href="#DejaVuSans-6e" x="959.074219"/>
       <use xlink:href="#DejaVuSans-64" x="1022.453125"/>
       <use xlink:href="#DejaVuSans-65" x="1085.929688"/>
       <use xlink:href="#DejaVuSans-72" x="1147.453125"/>
      </g>
     </g>
    </g>
    <g id="xtick_3">
     <g id="line2d_3">
      <g>
       <use xlink:href="#m064931cde8" x="263.803125" y="288.430125" style="stroke: #000000; stroke-width: 0.8"/>
      </g>
     </g>
     <g id="text_3">
      <!-- Black or African American -->
      <g transform="translate(220.054207 392.203212) rotate(-45) scale(0.1 -0.1)">
       <defs>
        <path id="DejaVuSans-42" d="M 1259 2228 
L 1259 519 
L 2272 519 
Q 2781 519 3026 730 
Q 3272 941 3272 1375 
Q 3272 1813 3026 2020 
Q 2781 2228 2272 2228 
L 1259 2228 
z
M 1259 4147 
L 1259 2741 
L 2194 2741 
Q 2656 2741 2882 2914 
Q 3109 3088 3109 3444 
Q 3109 3797 2882 3972 
Q 2656 4147 2194 4147 
L 1259 4147 
z
M 628 4666 
L 2241 4666 
Q 2963 4666 3353 4366 
Q 3744 4066 3744 3513 
Q 3744 3084 3544 2831 
Q 3344 2578 2956 2516 
Q 3422 2416 3680 2098 
Q 3938 1781 3938 1306 
Q 3938 681 3513 340 
Q 3088 0 2303 0 
L 628 0 
L 628 4666 
z
" transform="scale(0.015625)"/>
       </defs>
       <use xlink:href="#DejaVuSans-42"/>
       <use xlink:href="#DejaVuSans-6c" x="68.603516"/>
       <use xlink:href="#DejaVuSans-61" x="96.386719"/>
       <use xlink:href="#DejaVuSans-63" x="157.666016"/>
       <use xlink:href="#DejaVuSans-6b" x="212.646484"/>
       <use xlink:href="#DejaVuSans-20" x="270.556641"/>
       <use xlink:href="#DejaVuSans-6f" x="302.34375"/>
       <use xlink:href="#DejaVuSans-72" x="363.525391"/>
       <use xlink:href="#DejaVuSans-20" x="404.638672"/>
       <use xlink:href="#DejaVuSans-41" x="436.425781"/>
       <use xlink:href="#DejaVuSans-66" x="501.208984"/>
       <use xlink:href="#DejaVuSans-72" x="536.414062"/>
       <use xlink:href="#DejaVuSans-69" x="577.527344"/>
       <use xlink:href="#DejaVuSans-63" x="605.310547"/>
       <use xlink:href="#DejaVuSans-61" x="660.291016"/>
       <use xlink:href="#DejaVuSans-6e" x="721.570312"/>
       <use xlink:href="#DejaVuSans-20" x="784.949219"/>
       <use xlink:href="#DejaVuSans-41" x="816.736328"/>
       <use xlink:href="#DejaVuSans-6d" x="885.144531"/>
       <use xlink:href="#DejaVuSans-65" x="982.556641"/>
       <use xlink:href="#DejaVuSans-72" x="1044.080078"/>
       <use xlink:href="#DejaVuSans-69" x="1085.193359"/>
       <use xlink:href="#DejaVuSans-63" x="1112.976562"/>
       <use xlink:href="#DejaVuSans-61" x="1167.957031"/>
       <use xlink:href="#DejaVuSans-6e" x="1229.236328"/>
      </g>
     </g>
    </g>
    <g id="xtick_4">
     <g id="line2d_4">
      <g>
       <use xlink:href="#m064931cde8" x="353.083125" y="288.430125" style="stroke: #000000; stroke-width: 0.8"/>
      </g>
     </g>
     <g id="text_4">
      <!-- White -->
      <g transform="translate(344.754181 321.363266) rotate(-45) scale(0.1 -0.1)">
       <defs>
        <path id="DejaVuSans-57" d="M 213 4666 
L 850 4666 
L 1831 722 
L 2809 4666 
L 3519 4666 
L 4500 722 
L 5478 4666 
L 6119 4666 
L 4947 0 
L 4153 0 
L 3169 4050 
L 2175 0 
L 1381 0 
L 213 4666 
z
" transform="scale(0.015625)"/>
        <path id="DejaVuSans-68" d="M 3513 2113 
L 3513 0 
L 2938 0 
L 2938 2094 
Q 2938 2591 2744 2837 
Q 2550 3084 2163 3084 
Q 1697 3084 1428 2787 
Q 1159 2491 1159 1978 
L 1159 0 
L 581 0 
L 581 4863 
L 1159 4863 
L 1159 2956 
Q 1366 3272 1645 3428 
Q 1925 3584 2291 3584 
Q 2894 3584 3203 3211 
Q 3513 2838 3513 2113 
z
" transform="scale(0.015625)"/>
       </defs>
       <use xlink:href="#DejaVuSans-57"/>
       <use xlink:href="#DejaVuSans-68" x="98.876953"/>
       <use xlink:href="#DejaVuSans-69" x="162.255859"/>
       <use xlink:href="#DejaVuSans-74" x="190.039062"/>
       <use xlink:href="#DejaVuSans-65" x="229.248047"/>
      </g>
     </g>
    </g>
    <g id="text_5">
     <!-- Race -->
     <g transform="translate(206.911563 431.597575) scale(0.1 -0.1)">
      <defs>
       <path id="DejaVuSans-52" d="M 2841 2188 
Q 3044 2119 3236 1894 
Q 3428 1669 3622 1275 
L 4263 0 
L 3584 0 
L 2988 1197 
Q 2756 1666 2539 1819 
Q 2322 1972 1947 1972 
L 1259 1972 
L 1259 0 
L 628 0 
L 628 4666 
L 2053 4666 
Q 2853 4666 3247 4331 
Q 3641 3997 3641 3322 
Q 3641 2881 3436 2590 
Q 3231 2300 2841 2188 
z
M 1259 4147 
L 1259 2491 
L 2053 2491 
Q 2509 2491 2742 2702 
Q 2975 2913 2975 3322 
Q 2975 3731 2742 3939 
Q 2509 4147 2053 4147 
L 1259 4147 
z
" transform="scale(0.015625)"/>
      </defs>
      <use xlink:href="#DejaVuSans-52"/>
      <use xlink:href="#DejaVuSans-61" x="67.232422"/>
      <use xlink:href="#DejaVuSans-63" x="128.511719"/>
      <use xlink:href="#DejaVuSans-65" x="183.492188"/>
     </g>
    </g>
   </g>
   <g id="matplotlib.axis_2">
    <g id="ytick_1">
     <g id="line2d_5">
      <defs>
       <path id="m5c22ab0d62" d="M 0 0 
L -3.5 0 
" style="stroke: #000000; stroke-width: 0.8"/>
      </defs>
      <g>
       <use xlink:href="#m5c22ab0d62" x="40.603125" y="288.430125" style="stroke: #000000; stroke-width: 0.8"/>
      </g>
     </g>
     <g id="text_6">
      <!-- 0 -->
      <g transform="translate(27.240625 292.229344) scale(0.1 -0.1)">
       <defs>
        <path id="DejaVuSans-30" d="M 2034 4250 
Q 1547 4250 1301 3770 
Q 1056 3291 1056 2328 
Q 1056 1369 1301 889 
Q 1547 409 2034 409 
Q 2525 409 2770 889 
Q 3016 1369 3016 2328 
Q 3016 3291 2770 3770 
Q 2525 4250 2034 4250 
z
M 2034 4750 
Q 2819 4750 3233 4129 
Q 3647 3509 3647 2328 
Q 3647 1150 3233 529 
Q 2819 -91 2034 -91 
Q 1250 -91 836 529 
Q 422 1150 422 2328 
Q 422 3509 836 4129 
Q 1250 4750 2034 4750 
z
" transform="scale(0.015625)"/>
       </defs>
       <use xlink:href="#DejaVuSans-30"/>
      </g>
     </g>
    </g>
    <g id="ytick_2">
     <g id="line2d_6">
      <g>
       <use xlink:href="#m5c22ab0d62" x="40.603125" y="250.585307" style="stroke: #000000; stroke-width: 0.8"/>
      </g>
     </g>
     <g id="text_7">
      <!-- 5 -->
      <g transform="translate(27.240625 254.384525) scale(0.1 -0.1)">
       <defs>
        <path id="DejaVuSans-35" d="M 691 4666 
L 3169 4666 
L 3169 4134 
L 1269 4134 
L 1269 2991 
Q 1406 3038 1543 3061 
Q 1681 3084 1819 3084 
Q 2600 3084 3056 2656 
Q 3513 2228 3513 1497 
Q 3513 744 3044 326 
Q 2575 -91 1722 -91 
Q 1428 -91 1123 -41 
Q 819 9 494 109 
L 494 744 
Q 775 591 1075 516 
Q 1375 441 1709 441 
Q 2250 441 2565 725 
Q 2881 1009 2881 1497 
Q 2881 1984 2565 2268 
Q 2250 2553 1709 2553 
Q 1456 2553 1204 2497 
Q 953 2441 691 2322 
L 691 4666 
z
" transform="scale(0.015625)"/>
       </defs>
       <use xlink:href="#DejaVuSans-35"/>
      </g>
     </g>
    </g>
    <g id="ytick_3">
     <g id="line2d_7">
      <g>
       <use xlink:href="#m5c22ab0d62" x="40.603125" y="212.740488" style="stroke: #000000; stroke-width: 0.8"/>
      </g>
     </g>
     <g id="text_8">
      <!-- 10 -->
      <g transform="translate(20.878125 216.539707) scale(0.1 -0.1)">
       <defs>
        <path id="DejaVuSans-31" d="M 794 531 
L 1825 531 
L 1825 4091 
L 703 3866 
L 703 4441 
L 1819 4666 
L 2450 4666 
L 2450 531 
L 3481 531 
L 3481 0 
L 794 0 
L 794 531 
z
" transform="scale(0.015625)"/>
       </defs>
       <use xlink:href="#DejaVuSans-31"/>
       <use xlink:href="#DejaVuSans-30" x="63.623047"/>
      </g>
     </g>
    </g>
    <g id="ytick_4">
     <g id="line2d_8">
      <g>
       <use xlink:href="#m5c22ab0d62" x="40.603125" y="174.89567" style="stroke: #000000; stroke-width: 0.8"/>
      </g>
     </g>
     <g id="text_9">
      <!-- 15 -->
      <g transform="translate(20.878125 178.694889) scale(0.1 -0.1)">
       <use xlink:href="#DejaVuSans-31"/>
       <use xlink:href="#DejaVuSans-35" x="63.623047"/>
      </g>
     </g>
    </g>
    <g id="ytick_5">
     <g id="line2d_9">
      <g>
       <use xlink:href="#m5c22ab0d62" x="40.603125" y="137.050852" style="stroke: #000000; stroke-width: 0.8"/>
      </g>
     </g>
     <g id="text_10">
      <!-- 20 -->
      <g transform="translate(20.878125 140.85007) scale(0.1 -0.1)">
       <defs>
        <path id="DejaVuSans-32" d="M 1228 531 
L 3431 531 
L 3431 0 
L 469 0 
L 469 531 
Q 828 903 1448 1529 
Q 2069 2156 2228 2338 
Q 2531 2678 2651 2914 
Q 2772 3150 2772 3378 
Q 2772 3750 2511 3984 
Q 2250 4219 1831 4219 
Q 1534 4219 1204 4116 
Q 875 4013 500 3803 
L 500 4441 
Q 881 4594 1212 4672 
Q 1544 4750 1819 4750 
Q 2544 4750 2975 4387 
Q 3406 4025 3406 3419 
Q 3406 3131 3298 2873 
Q 3191 2616 2906 2266 
Q 2828 2175 2409 1742 
Q 1991 1309 1228 531 
z
" transform="scale(0.015625)"/>
       </defs>
       <use xlink:href="#DejaVuSans-32"/>
       <use xlink:href="#DejaVuSans-30" x="63.623047"/>
      </g>
     </g>
    </g>
    <g id="ytick_6">
     <g id="line2d_10">
      <g>
       <use xlink:href="#m5c22ab0d62" x="40.603125" y="99.206033" style="stroke: #000000; stroke-width: 0.8"/>
      </g>
     </g>
     <g id="text_11">
      <!-- 25 -->
      <g transform="translate(20.878125 103.005252) scale(0.1 -0.1)">
       <use xlink:href="#DejaVuSans-32"/>
       <use xlink:href="#DejaVuSans-35" x="63.623047"/>
      </g>
     </g>
    </g>
    <g id="ytick_7">
     <g id="line2d_11">
      <g>
       <use xlink:href="#m5c22ab0d62" x="40.603125" y="61.361215" style="stroke: #000000; stroke-width: 0.8"/>
      </g>
     </g>
     <g id="text_12">
      <!-- 30 -->
      <g transform="translate(20.878125 65.160434) scale(0.1 -0.1)">
       <defs>
        <path id="DejaVuSans-33" d="M 2597 2516 
Q 3050 2419 3304 2112 
Q 3559 1806 3559 1356 
Q 3559 666 3084 287 
Q 2609 -91 1734 -91 
Q 1441 -91 1130 -33 
Q 819 25 488 141 
L 488 750 
Q 750 597 1062 519 
Q 1375 441 1716 441 
Q 2309 441 2620 675 
Q 2931 909 2931 1356 
Q 2931 1769 2642 2001 
Q 2353 2234 1838 2234 
L 1294 2234 
L 1294 2753 
L 1863 2753 
Q 2328 2753 2575 2939 
Q 2822 3125 2822 3475 
Q 2822 3834 2567 4026 
Q 2313 4219 1838 4219 
Q 1578 4219 1281 4162 
Q 984 4106 628 3988 
L 628 4550 
Q 988 4650 1302 4700 
Q 1616 4750 1894 4750 
Q 2613 4750 3031 4423 
Q 3450 4097 3450 3541 
Q 3450 3153 3228 2886 
Q 3006 2619 2597 2516 
z
" transform="scale(0.015625)"/>
       </defs>
       <use xlink:href="#DejaVuSans-33"/>
       <use xlink:href="#DejaVuSans-30" x="63.623047"/>
      </g>
     </g>
    </g>
    <g id="ytick_8">
     <g id="line2d_12">
      <g>
       <use xlink:href="#m5c22ab0d62" x="40.603125" y="23.516397" style="stroke: #000000; stroke-width: 0.8"/>
      </g>
     </g>
     <g id="text_13">
      <!-- 35 -->
      <g transform="translate(20.878125 27.315616) scale(0.1 -0.1)">
       <use xlink:href="#DejaVuSans-33"/>
       <use xlink:href="#DejaVuSans-35" x="63.623047"/>
      </g>
     </g>
    </g>
    <g id="text_14">
     <!-- Crude Rate -->
     <g transform="translate(14.798438 183.392094) rotate(-90) scale(0.1 -0.1)">
      <defs>
       <path id="DejaVuSans-43" d="M 4122 4306 
L 4122 3641 
Q 3803 3938 3442 4084 
Q 3081 4231 2675 4231 
Q 1875 4231 1450 3742 
Q 1025 3253 1025 2328 
Q 1025 1406 1450 917 
Q 1875 428 2675 428 
Q 3081 428 3442 575 
Q 3803 722 4122 1019 
L 4122 359 
Q 3791 134 3420 21 
Q 3050 -91 2638 -91 
Q 1578 -91 968 557 
Q 359 1206 359 2328 
Q 359 3453 968 4101 
Q 1578 4750 2638 4750 
Q 3056 4750 3426 4639 
Q 3797 4528 4122 4306 
z
" transform="scale(0.015625)"/>
       <path id="DejaVuSans-75" d="M 544 1381 
L 544 3500 
L 1119 3500 
L 1119 1403 
Q 1119 906 1312 657 
Q 1506 409 1894 409 
Q 2359 409 2629 706 
Q 2900 1003 2900 1516 
L 2900 3500 
L 3475 3500 
L 3475 0 
L 2900 0 
L 2900 538 
Q 2691 219 2414 64 
Q 2138 -91 1772 -91 
Q 1169 -91 856 284 
Q 544 659 544 1381 
z
M 1991 3584 
L 1991 3584 
z
" transform="scale(0.015625)"/>
      </defs>
      <use xlink:href="#DejaVuSans-43"/>
      <use xlink:href="#DejaVuSans-72" x="69.824219"/>
      <use xlink:href="#DejaVuSans-75" x="110.9375"/>
      <use xlink:href="#DejaVuSans-64" x="174.316406"/>
      <use xlink:href="#DejaVuSans-65" x="237.792969"/>
      <use xlink:href="#DejaVuSans-20" x="299.316406"/>
      <use xlink:href="#DejaVuSans-52" x="331.103516"/>
      <use xlink:href="#DejaVuSans-61" x="398.335938"/>
      <use xlink:href="#DejaVuSans-74" x="459.615234"/>
      <use xlink:href="#DejaVuSans-65" x="498.824219"/>
     </g>
    </g>
   </g>
   <g id="patch_97">
    <path d="M 40.603125 288.430125 
L 40.603125 22.318125 
" style="fill: none; stroke: #000000; stroke-width: 0.8; stroke-linejoin: miter; stroke-linecap: square"/>
   </g>
   <g id="patch_98">
    <path d="M 397.723125 288.430125 
L 397.723125 22.318125 
" style="fill: none; stroke: #000000; stroke-width: 0.8; stroke-linejoin: miter; stroke-linecap: square"/>
   </g>
   <g id="patch_99">
    <path d="M 40.603125 288.430125 
L 397.723125 288.430125 
" style="fill: none; stroke: #000000; stroke-width: 0.8; stroke-linejoin: miter; stroke-linecap: square"/>
   </g>
   <g id="patch_100">
    <path d="M 40.603125 22.318125 
L 397.723125 22.318125 
" style="fill: none; stroke: #000000; stroke-width: 0.8; stroke-linejoin: miter; stroke-linecap: square"/>
   </g>
   <g id="text_15">
    <!-- Crude Rate by Race - Fentanyl -->
    <g transform="translate(128.022188 16.318125) scale(0.12 -0.12)">
     <defs>
      <path id="DejaVuSans-62" d="M 3116 1747 
Q 3116 2381 2855 2742 
Q 2594 3103 2138 3103 
Q 1681 3103 1420 2742 
Q 1159 2381 1159 1747 
Q 1159 1113 1420 752 
Q 1681 391 2138 391 
Q 2594 391 2855 752 
Q 3116 1113 3116 1747 
z
M 1159 2969 
Q 1341 3281 1617 3432 
Q 1894 3584 2278 3584 
Q 2916 3584 3314 3078 
Q 3713 2572 3713 1747 
Q 3713 922 3314 415 
Q 2916 -91 2278 -91 
Q 1894 -91 1617 61 
Q 1341 213 1159 525 
L 1159 0 
L 581 0 
L 581 4863 
L 1159 4863 
L 1159 2969 
z
" transform="scale(0.015625)"/>
      <path id="DejaVuSans-79" d="M 2059 -325 
Q 1816 -950 1584 -1140 
Q 1353 -1331 966 -1331 
L 506 -1331 
L 506 -850 
L 844 -850 
Q 1081 -850 1212 -737 
Q 1344 -625 1503 -206 
L 1606 56 
L 191 3500 
L 800 3500 
L 1894 763 
L 2988 3500 
L 3597 3500 
L 2059 -325 
z
" transform="scale(0.015625)"/>
      <path id="DejaVuSans-2d" d="M 313 2009 
L 1997 2009 
L 1997 1497 
L 313 1497 
L 313 2009 
z
" transform="scale(0.015625)"/>
      <path id="DejaVuSans-46" d="M 628 4666 
L 3309 4666 
L 3309 4134 
L 1259 4134 
L 1259 2759 
L 3109 2759 
L 3109 2228 
L 1259 2228 
L 1259 0 
L 628 0 
L 628 4666 
z
" transform="scale(0.015625)"/>
     </defs>
     <use xlink:href="#DejaVuSans-43"/>
     <use xlink:href="#DejaVuSans-72" x="69.824219"/>
     <use xlink:href="#DejaVuSans-75" x="110.9375"/>
     <use xlink:href="#DejaVuSans-64" x="174.316406"/>
     <use xlink:href="#DejaVuSans-65" x="237.792969"/>
     <use xlink:href="#DejaVuSans-20" x="299.316406"/>
     <use xlink:href="#DejaVuSans-52" x="331.103516"/>
     <use xlink:href="#DejaVuSans-61" x="398.335938"/>
     <use xlink:href="#DejaVuSans-74" x="459.615234"/>
     <use xlink:href="#DejaVuSans-65" x="498.824219"/>
     <use xlink:href="#DejaVuSans-20" x="560.347656"/>
     <use xlink:href="#DejaVuSans-62" x="592.134766"/>
     <use xlink:href="#DejaVuSans-79" x="655.611328"/>
     <use xlink:href="#DejaVuSans-20" x="714.791016"/>
     <use xlink:href="#DejaVuSans-52" x="746.578125"/>
     <use xlink:href="#DejaVuSans-61" x="813.810547"/>
     <use xlink:href="#DejaVuSans-63" x="875.089844"/>
     <use xlink:href="#DejaVuSans-65" x="930.070312"/>
     <use xlink:href="#DejaVuSans-20" x="991.59375"/>
     <use xlink:href="#DejaVuSans-2d" x="1023.380859"/>
     <use xlink:href="#DejaVuSans-20" x="1059.464844"/>
     <use xlink:href="#DejaVuSans-46" x="1091.251953"/>
     <use xlink:href="#DejaVuSans-65" x="1143.271484"/>
     <use xlink:href="#DejaVuSans-6e" x="1204.794922"/>
     <use xlink:href="#DejaVuSans-74" x="1268.173828"/>
     <use xlink:href="#DejaVuSans-61" x="1307.382812"/>
     <use xlink:href="#DejaVuSans-6e" x="1368.662109"/>
     <use xlink:href="#DejaVuSans-79" x="1432.041016"/>
     <use xlink:href="#DejaVuSans-6c" x="1491.220703"/>
    </g>
   </g>
   <g id="legend_1">
    <g id="patch_101">
     <path d="M 333.273125 133.065 
L 390.723125 133.065 
Q 392.723125 133.065 392.723125 131.065 
L 392.723125 29.318125 
Q 392.723125 27.318125 390.723125 27.318125 
L 333.273125 27.318125 
Q 331.273125 27.318125 331.273125 29.318125 
L 331.273125 131.065 
Q 331.273125 133.065 333.273125 133.065 
z
" style="fill: #ffffff; opacity: 0.8; stroke: #cccccc; stroke-linejoin: miter"/>
    </g>
    <g id="text_16">
     <!-- Year -->
     <g transform="translate(351.410625 38.916562) scale(0.1 -0.1)">
      <defs>
       <path id="DejaVuSans-59" d="M -13 4666 
L 666 4666 
L 1959 2747 
L 3244 4666 
L 3922 4666 
L 2272 2222 
L 2272 0 
L 1638 0 
L 1638 2222 
L -13 4666 
z
" transform="scale(0.015625)"/>
      </defs>
      <use xlink:href="#DejaVuSans-59"/>
      <use xlink:href="#DejaVuSans-65" x="47.833984"/>
      <use xlink:href="#DejaVuSans-61" x="109.357422"/>
      <use xlink:href="#DejaVuSans-72" x="170.636719"/>
     </g>
    </g>
    <g id="patch_102">
     <path d="M 335.273125 53.594687 
L 355.273125 53.594687 
L 355.273125 46.594687 
L 335.273125 46.594687 
z
" style="fill: #e5cbc8"/>
    </g>
    <g id="text_17">
     <!-- 2000 -->
     <g transform="translate(363.273125 53.594687) scale(0.1 -0.1)">
      <use xlink:href="#DejaVuSans-32"/>
      <use xlink:href="#DejaVuSans-30" x="63.623047"/>
      <use xlink:href="#DejaVuSans-30" x="127.246094"/>
      <use xlink:href="#DejaVuSans-30" x="190.869141"/>
     </g>
    </g>
    <g id="patch_103">
     <path d="M 335.273125 68.272812 
L 355.273125 68.272812 
L 355.273125 61.272812 
L 335.273125 61.272812 
z
" style="fill: #cfa4ad"/>
    </g>
    <g id="text_18">
     <!-- 2004 -->
     <g transform="translate(363.273125 68.272812) scale(0.1 -0.1)">
      <defs>
       <path id="DejaVuSans-34" d="M 2419 4116 
L 825 1625 
L 2419 1625 
L 2419 4116 
z
M 2253 4666 
L 3047 4666 
L 3047 1625 
L 3713 1625 
L 3713 1100 
L 3047 1100 
L 3047 0 
L 2419 0 
L 2419 1100 
L 313 1100 
L 313 1709 
L 2253 4666 
z
" transform="scale(0.015625)"/>
      </defs>
      <use xlink:href="#DejaVuSans-32"/>
      <use xlink:href="#DejaVuSans-30" x="63.623047"/>
      <use xlink:href="#DejaVuSans-30" x="127.246094"/>
      <use xlink:href="#DejaVuSans-34" x="190.869141"/>
     </g>
    </g>
    <g id="patch_104">
     <path d="M 335.273125 82.950937 
L 355.273125 82.950937 
L 355.273125 75.950937 
L 335.273125 75.950937 
z
" style="fill: #b07e96"/>
    </g>
    <g id="text_19">
     <!-- 2008 -->
     <g transform="translate(363.273125 82.950937) scale(0.1 -0.1)">
      <defs>
       <path id="DejaVuSans-38" d="M 2034 2216 
Q 1584 2216 1326 1975 
Q 1069 1734 1069 1313 
Q 1069 891 1326 650 
Q 1584 409 2034 409 
Q 2484 409 2743 651 
Q 3003 894 3003 1313 
Q 3003 1734 2745 1975 
Q 2488 2216 2034 2216 
z
M 1403 2484 
Q 997 2584 770 2862 
Q 544 3141 544 3541 
Q 544 4100 942 4425 
Q 1341 4750 2034 4750 
Q 2731 4750 3128 4425 
Q 3525 4100 3525 3541 
Q 3525 3141 3298 2862 
Q 3072 2584 2669 2484 
Q 3125 2378 3379 2068 
Q 3634 1759 3634 1313 
Q 3634 634 3220 271 
Q 2806 -91 2034 -91 
Q 1263 -91 848 271 
Q 434 634 434 1313 
Q 434 1759 690 2068 
Q 947 2378 1403 2484 
z
M 1172 3481 
Q 1172 3119 1398 2916 
Q 1625 2713 2034 2713 
Q 2441 2713 2670 2916 
Q 2900 3119 2900 3481 
Q 2900 3844 2670 4047 
Q 2441 4250 2034 4250 
Q 1625 4250 1398 4047 
Q 1172 3844 1172 3481 
z
" transform="scale(0.015625)"/>
      </defs>
      <use xlink:href="#DejaVuSans-32"/>
      <use xlink:href="#DejaVuSans-30" x="63.623047"/>
      <use xlink:href="#DejaVuSans-30" x="127.246094"/>
      <use xlink:href="#DejaVuSans-38" x="190.869141"/>
     </g>
    </g>
    <g id="patch_105">
     <path d="M 335.273125 97.629062 
L 355.273125 97.629062 
L 355.273125 90.629062 
L 335.273125 90.629062 
z
" style="fill: #875a7e"/>
    </g>
    <g id="text_20">
     <!-- 2012 -->
     <g transform="translate(363.273125 97.629062) scale(0.1 -0.1)">
      <use xlink:href="#DejaVuSans-32"/>
      <use xlink:href="#DejaVuSans-30" x="63.623047"/>
      <use xlink:href="#DejaVuSans-31" x="127.246094"/>
      <use xlink:href="#DejaVuSans-32" x="190.869141"/>
     </g>
    </g>
    <g id="patch_106">
     <path d="M 335.273125 112.307187 
L 355.273125 112.307187 
L 355.273125 105.307187 
L 335.273125 105.307187 
z
" style="fill: #5a3d61"/>
    </g>
    <g id="text_21">
     <!-- 2016 -->
     <g transform="translate(363.273125 112.307187) scale(0.1 -0.1)">
      <defs>
       <path id="DejaVuSans-36" d="M 2113 2584 
Q 1688 2584 1439 2293 
Q 1191 2003 1191 1497 
Q 1191 994 1439 701 
Q 1688 409 2113 409 
Q 2538 409 2786 701 
Q 3034 994 3034 1497 
Q 3034 2003 2786 2293 
Q 2538 2584 2113 2584 
z
M 3366 4563 
L 3366 3988 
Q 3128 4100 2886 4159 
Q 2644 4219 2406 4219 
Q 1781 4219 1451 3797 
Q 1122 3375 1075 2522 
Q 1259 2794 1537 2939 
Q 1816 3084 2150 3084 
Q 2853 3084 3261 2657 
Q 3669 2231 3669 1497 
Q 3669 778 3244 343 
Q 2819 -91 2113 -91 
Q 1303 -91 875 529 
Q 447 1150 447 2328 
Q 447 3434 972 4092 
Q 1497 4750 2381 4750 
Q 2619 4750 2861 4703 
Q 3103 4656 3366 4563 
z
" transform="scale(0.015625)"/>
      </defs>
      <use xlink:href="#DejaVuSans-32"/>
      <use xlink:href="#DejaVuSans-30" x="63.623047"/>
      <use xlink:href="#DejaVuSans-31" x="127.246094"/>
      <use xlink:href="#DejaVuSans-36" x="190.869141"/>
     </g>
    </g>
    <g id="patch_107">
     <path d="M 335.273125 126.985312 
L 355.273125 126.985312 
L 355.273125 119.985312 
L 335.273125 119.985312 
z
" style="fill: #2d223a"/>
    </g>
    <g id="text_22">
     <!-- 2020 -->
     <g transform="translate(363.273125 126.985312) scale(0.1 -0.1)">
      <use xlink:href="#DejaVuSans-32"/>
      <use xlink:href="#DejaVuSans-30" x="63.623047"/>
      <use xlink:href="#DejaVuSans-32" x="127.246094"/>
      <use xlink:href="#DejaVuSans-30" x="190.869141"/>
     </g>
    </g>
   </g>
  </g>
 </g>
 <defs>
  <clipPath id="p43353fdb0e">
   <rect x="40.603125" y="22.318125" width="357.12" height="266.112"/>
  </clipPath>
 </defs>
</svg>
