<?xml version="1.0" encoding="utf-8" standalone="no"?>
<!DOCTYPE svg PUBLIC "-//W3C//DTD SVG 1.1//EN"
  "http://www.w3.org/Graphics/SVG/1.1/DTD/svg11.dtd">
<svg xmlns:xlink="http://www.w3.org/1999/xlink" width="414.46375pt" height="341.147585pt" viewBox="0 0 414.46375 341.147585" xmlns="http://www.w3.org/2000/svg" version="1.1">
 <metadata>
  <rdf:RDF xmlns:dc="http://purl.org/dc/elements/1.1/" xmlns:cc="http://creativecommons.org/ns#" xmlns:rdf="http://www.w3.org/1999/02/22-rdf-syntax-ns#">
   <cc:Work>
    <dc:type rdf:resource="http://purl.org/dc/dcmitype/StillImage"/>
    <dc:date>2023-10-22T17:15:37.578148</dc:date>
    <dc:format>image/svg+xml</dc:format>
    <dc:creator>
     <cc:Agent>
      <dc:title>Matplotlib v3.7.2, https://matplotlib.org/</dc:title>
     </cc:Agent>
    </dc:creator>
   </cc:Work>
  </rdf:RDF>
 </metadata>
 <defs>
  <style type="text/css">*{stroke-linejoin: round; stroke-linecap: butt}</style>
 </defs>
 <g id="figure_1">
  <g id="patch_1">
   <path d="M 0 341.147585 
L 414.46375 341.147585 
L 414.46375 0 
L 0 0 
z
" style="fill: #ffffff"/>
  </g>
  <g id="axes_1">
   <g id="patch_2">
    <path d="M 50.14375 288.430125 
L 407.26375 288.430125 
L 407.26375 22.318125 
L 50.14375 22.318125 
z
" style="fill: #ffffff"/>
   </g>
   <g id="PolyCollection_1">
    <path d="M 66.376477 274.853055 
L 66.376477 276.110619 
L 81.836218 275.25997 
L 97.295958 276.136534 
L 112.755698 275.906051 
L 128.215438 273.732631 
L 128.215438 207.360991 
L 128.215438 207.360991 
L 112.755698 275.284237 
L 97.295958 275.618458 
L 81.836218 275.142443 
L 66.376477 274.853055 
z
" clip-path="url(#p8f91c2b05a)" style="fill: #1f77b4; fill-opacity: 0.2; stroke: #1f77b4; stroke-opacity: 0.2"/>
    <path d="M 159.134919 274.479558 
L 159.134919 276.0383 
L 174.594659 276.105409 
L 190.054399 276.245286 
L 190.054399 275.754922 
L 190.054399 275.754922 
L 174.594659 275.8101 
L 159.134919 274.479558 
z
" clip-path="url(#p8f91c2b05a)" style="fill: #1f77b4; fill-opacity: 0.2; stroke: #1f77b4; stroke-opacity: 0.2"/>
    <path d="M 220.97388 258.32493 
L 220.97388 272.631657 
L 236.43362 275.393434 
L 267.353101 276.334125 
L 282.812841 276.18101 
L 282.812841 271.860066 
L 282.812841 271.860066 
L 267.353101 275.626641 
L 236.43362 260.85338 
L 220.97388 258.32493 
z
" clip-path="url(#p8f91c2b05a)" style="fill: #1f77b4; fill-opacity: 0.2; stroke: #1f77b4; stroke-opacity: 0.2"/>
    <path d="M 329.192062 275.217283 
L 329.192062 275.907309 
L 344.651802 275.615841 
L 360.111542 275.898133 
L 375.571282 275.66842 
L 391.031023 275.723442 
L 391.031023 171.868114 
L 391.031023 171.868114 
L 375.571282 262.184949 
L 360.111542 275.749849 
L 344.651802 275.316914 
L 329.192062 275.217283 
z
" clip-path="url(#p8f91c2b05a)" style="fill: #1f77b4; fill-opacity: 0.2; stroke: #1f77b4; stroke-opacity: 0.2"/>
   </g>
   <g id="PolyCollection_2">
    <defs>
     <path id="mef9b013ebf" d="M 66.376477 -129.356725 
L 66.376477 -101.762737 
L 81.836218 -104.666582 
L 97.295958 -89.16508 
L 112.755698 -93.522964 
L 128.215438 -96.241516 
L 143.675179 -101.575 
L 159.134919 -98.558138 
L 174.594659 -92.290182 
L 190.054399 -103.044562 
L 205.51414 -101.024667 
L 220.97388 -108.063071 
L 236.43362 -103.579 
L 251.89336 -118.545151 
L 267.353101 -118.268277 
L 282.812841 -130.711915 
L 298.272581 -140.105108 
L 313.732321 -148.323058 
L 329.192062 -162.503307 
L 344.651802 -166.021163 
L 360.111542 -159.45485 
L 375.571282 -156.331339 
L 391.031023 -157.4328 
L 391.031023 -181.16517 
L 391.031023 -181.16517 
L 375.571282 -176.869193 
L 360.111542 -178.901091 
L 344.651802 -186.673108 
L 329.192062 -184.197005 
L 313.732321 -168.923246 
L 298.272581 -159.631947 
L 282.812841 -149.477531 
L 267.353101 -141.571019 
L 251.89336 -141.344547 
L 236.43362 -123.494598 
L 220.97388 -130.945487 
L 205.51414 -123.523575 
L 190.054399 -126.566625 
L 174.594659 -111.604602 
L 159.134919 -123.163638 
L 143.675179 -128.168912 
L 128.215438 -123.011942 
L 112.755698 -119.585892 
L 97.295958 -107.895234 
L 81.836218 -141.135538 
L 66.376477 -129.356725 
z
" style="stroke: #ff7f0e; stroke-opacity: 0.2"/>
    </defs>
    <g clip-path="url(#p8f91c2b05a)">
     <use xlink:href="#mef9b013ebf" x="0" y="341.147585" style="fill: #ff7f0e; fill-opacity: 0.2; stroke: #ff7f0e; stroke-opacity: 0.2"/>
    </g>
   </g>
   <g id="PolyCollection_3">
    <defs>
     <path id="m962342585e" d="M 66.376477 -142.030705 
L 66.376477 -106.779168 
L 81.836218 -107.466503 
L 97.295958 -104.956165 
L 112.755698 -114.063798 
L 128.215438 -122.374041 
L 143.675179 -122.762437 
L 159.134919 -125.309038 
L 174.594659 -126.666221 
L 190.054399 -126.925241 
L 205.51414 -139.84902 
L 220.97388 -132.897946 
L 236.43362 -132.050103 
L 251.89336 -137.00519 
L 267.353101 -145.494547 
L 282.812841 -135.243863 
L 298.272581 -144.648442 
L 313.732321 -145.300653 
L 329.192062 -147.027415 
L 344.651802 -149.388652 
L 360.111542 -143.022342 
L 375.571282 -137.947623 
L 391.031023 -149.517962 
L 391.031023 -165.93205 
L 391.031023 -165.93205 
L 375.571282 -156.656156 
L 360.111542 -163.47373 
L 344.651802 -170.191688 
L 329.192062 -178.570941 
L 313.732321 -166.21751 
L 298.272581 -168.159228 
L 282.812841 -154.825049 
L 267.353101 -179.715162 
L 251.89336 -157.878142 
L 236.43362 -148.989981 
L 220.97388 -155.123201 
L 205.51414 -171.759822 
L 190.054399 -151.158701 
L 174.594659 -155.179939 
L 159.134919 -161.082495 
L 143.675179 -157.283893 
L 128.215438 -157.612378 
L 112.755698 -137.621628 
L 97.295958 -129.884519 
L 81.836218 -140.75889 
L 66.376477 -142.030705 
z
" style="stroke: #2ca02c; stroke-opacity: 0.2"/>
    </defs>
    <g clip-path="url(#p8f91c2b05a)">
     <use xlink:href="#m962342585e" x="0" y="341.147585" style="fill: #2ca02c; fill-opacity: 0.2; stroke: #2ca02c; stroke-opacity: 0.2"/>
    </g>
   </g>
   <g id="PolyCollection_4">
    <defs>
     <path id="m66995da693" d="M 66.376477 -115.422489 
L 66.376477 -81.728526 
L 81.836218 -85.634499 
L 97.295958 -93.285992 
L 112.755698 -102.103237 
L 128.215438 -112.547332 
L 143.675179 -117.993958 
L 159.134919 -119.478886 
L 174.594659 -121.938551 
L 190.054399 -118.771705 
L 205.51414 -119.813856 
L 220.97388 -115.3652 
L 236.43362 -115.350162 
L 251.89336 -116.171865 
L 267.353101 -110.179338 
L 282.812841 -105.916445 
L 298.272581 -102.11412 
L 313.732321 -105.887742 
L 329.192062 -99.937525 
L 344.651802 -103.390643 
L 360.111542 -98.606958 
L 375.571282 -98.26777 
L 391.031023 -104.470949 
L 391.031023 -123.563302 
L 391.031023 -123.563302 
L 375.571282 -114.763447 
L 360.111542 -115.366448 
L 344.651802 -120.997659 
L 329.192062 -116.141219 
L 313.732321 -130.408264 
L 298.272581 -127.447046 
L 282.812841 -125.938687 
L 267.353101 -127.98231 
L 251.89336 -138.379787 
L 236.43362 -137.405611 
L 220.97388 -134.436545 
L 205.51414 -144.477384 
L 190.054399 -147.445534 
L 174.594659 -153.066701 
L 159.134919 -145.800506 
L 143.675179 -149.195931 
L 128.215438 -149.106731 
L 112.755698 -129.332846 
L 97.295958 -121.429583 
L 81.836218 -111.034605 
L 66.376477 -115.422489 
z
" style="stroke: #d62728; stroke-opacity: 0.2"/>
    </defs>
    <g clip-path="url(#p8f91c2b05a)">
     <use xlink:href="#m66995da693" x="0" y="341.147585" style="fill: #d62728; fill-opacity: 0.2; stroke: #d62728; stroke-opacity: 0.2"/>
    </g>
   </g>
   <g id="PolyCollection_5">
    <defs>
     <path id="m318d7f84f6" d="M 66.376477 -108.951797 
L 66.376477 -84.977734 
L 81.836218 -79.652934 
L 97.295958 -82.383813 
L 112.755698 -86.640515 
L 128.215438 -88.299953 
L 143.675179 -98.472438 
L 159.134919 -93.116523 
L 174.594659 -101.428575 
L 190.054399 -94.492745 
L 205.51414 -112.815984 
L 220.97388 -107.700554 
L 236.43362 -96.221336 
L 251.89336 -102.079753 
L 267.353101 -103.342595 
L 282.812841 -96.630564 
L 298.272581 -104.614407 
L 313.732321 -118.922085 
L 329.192062 -165.038216 
L 344.651802 -185.698872 
L 360.111542 -201.669421 
L 375.571282 -213.733511 
L 391.031023 -269.714049 
L 391.031023 -306.73346 
L 391.031023 -306.73346 
L 375.571282 -242.397294 
L 360.111542 -227.109815 
L 344.651802 -209.270908 
L 329.192062 -186.109616 
L 313.732321 -135.699163 
L 298.272581 -118.000698 
L 282.812841 -111.571023 
L 267.353101 -129.982839 
L 251.89336 -140.538515 
L 236.43362 -111.498245 
L 220.97388 -129.114948 
L 205.51414 -168.679755 
L 190.054399 -121.547782 
L 174.594659 -129.901735 
L 159.134919 -121.232253 
L 143.675179 -149.132902 
L 128.215438 -111.771126 
L 112.755698 -109.797931 
L 97.295958 -120.652293 
L 81.836218 -100.915429 
L 66.376477 -108.951797 
z
" style="stroke: #9467bd; stroke-opacity: 0.2"/>
    </defs>
    <g clip-path="url(#p8f91c2b05a)">
     <use xlink:href="#m318d7f84f6" x="0" y="341.147585" style="fill: #9467bd; fill-opacity: 0.2; stroke: #9467bd; stroke-opacity: 0.2"/>
    </g>
   </g>
   <g id="PolyCollection_6">
    <defs>
     <path id="mdd36dfa218" d="M 66.376477 -164.597608 
L 66.376477 -128.099082 
L 81.836218 -102.673255 
L 97.295958 -110.194739 
L 112.755698 -111.99304 
L 128.215438 -115.527925 
L 143.675179 -106.208867 
L 159.134919 -109.81602 
L 174.594659 -106.112918 
L 190.054399 -103.96302 
L 205.51414 -101.591052 
L 220.97388 -110.011667 
L 236.43362 -92.268165 
L 251.89336 -105.697519 
L 267.353101 -107.364638 
L 282.812841 -99.093012 
L 298.272581 -101.811407 
L 313.732321 -108.931466 
L 329.192062 -101.10641 
L 344.651802 -100.414269 
L 360.111542 -97.282341 
L 375.571282 -94.057215 
L 391.031023 -103.262604 
L 391.031023 -129.948977 
L 391.031023 -129.948977 
L 375.571282 -112.254347 
L 360.111542 -116.937945 
L 344.651802 -120.219003 
L 329.192062 -119.028309 
L 313.732321 -133.582982 
L 298.272581 -123.362961 
L 282.812841 -117.008189 
L 267.353101 -133.404263 
L 251.89336 -127.715531 
L 236.43362 -113.760114 
L 220.97388 -139.000695 
L 205.51414 -126.383487 
L 190.054399 -130.584935 
L 174.594659 -131.301574 
L 159.134919 -143.017139 
L 143.675179 -134.704632 
L 128.215438 -151.849661 
L 112.755698 -142.845472 
L 97.295958 -142.210751 
L 81.836218 -125.85418 
L 66.376477 -164.597608 
z
" style="stroke: #8c564b; stroke-opacity: 0.2"/>
    </defs>
    <g clip-path="url(#p8f91c2b05a)">
     <use xlink:href="#mdd36dfa218" x="0" y="341.147585" style="fill: #8c564b; fill-opacity: 0.2; stroke: #8c564b; stroke-opacity: 0.2"/>
    </g>
   </g>
   <g id="matplotlib.axis_1">
    <g id="xtick_1">
     <g id="line2d_1">
      <defs>
       <path id="m4562f0ff97" d="M 0 0 
L 0 3.5 
" style="stroke: #000000; stroke-width: 0.8"/>
      </defs>
      <g>
       <use xlink:href="#m4562f0ff97" x="81.836218" y="288.430125" style="stroke: #000000; stroke-width: 0.8"/>
      </g>
     </g>
     <g id="text_1">
      <!-- 2000 -->
      <g transform="translate(74.789457 318.798899) rotate(-45) scale(0.1 -0.1)">
       <defs>
        <path id="DejaVuSans-32" d="M 1228 531 
L 3431 531 
L 3431 0 
L 469 0 
L 469 531 
Q 828 903 1448 1529 
Q 2069 2156 2228 2338 
Q 2531 2678 2651 2914 
Q 2772 3150 2772 3378 
Q 2772 3750 2511 3984 
Q 2250 4219 1831 4219 
Q 1534 4219 1204 4116 
Q 875 4013 500 3803 
L 500 4441 
Q 881 4594 1212 4672 
Q 1544 4750 1819 4750 
Q 2544 4750 2975 4387 
Q 3406 4025 3406 3419 
Q 3406 3131 3298 2873 
Q 3191 2616 2906 2266 
Q 2828 2175 2409 1742 
Q 1991 1309 1228 531 
z
" transform="scale(0.015625)"/>
        <path id="DejaVuSans-30" d="M 2034 4250 
Q 1547 4250 1301 3770 
Q 1056 3291 1056 2328 
Q 1056 1369 1301 889 
Q 1547 409 2034 409 
Q 2525 409 2770 889 
Q 3016 1369 3016 2328 
Q 3016 3291 2770 3770 
Q 2525 4250 2034 4250 
z
M 2034 4750 
Q 2819 4750 3233 4129 
Q 3647 3509 3647 2328 
Q 3647 1150 3233 529 
Q 2819 -91 2034 -91 
Q 1250 -91 836 529 
Q 422 1150 422 2328 
Q 422 3509 836 4129 
Q 1250 4750 2034 4750 
z
" transform="scale(0.015625)"/>
       </defs>
       <use xlink:href="#DejaVuSans-32"/>
       <use xlink:href="#DejaVuSans-30" x="63.623047"/>
       <use xlink:href="#DejaVuSans-30" x="127.246094"/>
       <use xlink:href="#DejaVuSans-30" x="190.869141"/>
      </g>
     </g>
    </g>
    <g id="xtick_2">
     <g id="line2d_2">
      <g>
       <use xlink:href="#m4562f0ff97" x="159.134919" y="288.430125" style="stroke: #000000; stroke-width: 0.8"/>
      </g>
     </g>
     <g id="text_2">
      <!-- 2005 -->
      <g transform="translate(152.088158 318.798899) rotate(-45) scale(0.1 -0.1)">
       <defs>
        <path id="DejaVuSans-35" d="M 691 4666 
L 3169 4666 
L 3169 4134 
L 1269 4134 
L 1269 2991 
Q 1406 3038 1543 3061 
Q 1681 3084 1819 3084 
Q 2600 3084 3056 2656 
Q 3513 2228 3513 1497 
Q 3513 744 3044 326 
Q 2575 -91 1722 -91 
Q 1428 -91 1123 -41 
Q 819 9 494 109 
L 494 744 
Q 775 591 1075 516 
Q 1375 441 1709 441 
Q 2250 441 2565 725 
Q 2881 1009 2881 1497 
Q 2881 1984 2565 2268 
Q 2250 2553 1709 2553 
Q 1456 2553 1204 2497 
Q 953 2441 691 2322 
L 691 4666 
z
" transform="scale(0.015625)"/>
       </defs>
       <use xlink:href="#DejaVuSans-32"/>
       <use xlink:href="#DejaVuSans-30" x="63.623047"/>
       <use xlink:href="#DejaVuSans-30" x="127.246094"/>
       <use xlink:href="#DejaVuSans-35" x="190.869141"/>
      </g>
     </g>
    </g>
    <g id="xtick_3">
     <g id="line2d_3">
      <g>
       <use xlink:href="#m4562f0ff97" x="236.43362" y="288.430125" style="stroke: #000000; stroke-width: 0.8"/>
      </g>
     </g>
     <g id="text_3">
      <!-- 2010 -->
      <g transform="translate(229.386859 318.798899) rotate(-45) scale(0.1 -0.1)">
       <defs>
        <path id="DejaVuSans-31" d="M 794 531 
L 1825 531 
L 1825 4091 
L 703 3866 
L 703 4441 
L 1819 4666 
L 2450 4666 
L 2450 531 
L 3481 531 
L 3481 0 
L 794 0 
L 794 531 
z
" transform="scale(0.015625)"/>
       </defs>
       <use xlink:href="#DejaVuSans-32"/>
       <use xlink:href="#DejaVuSans-30" x="63.623047"/>
       <use xlink:href="#DejaVuSans-31" x="127.246094"/>
       <use xlink:href="#DejaVuSans-30" x="190.869141"/>
      </g>
     </g>
    </g>
    <g id="xtick_4">
     <g id="line2d_4">
      <g>
       <use xlink:href="#m4562f0ff97" x="313.732321" y="288.430125" style="stroke: #000000; stroke-width: 0.8"/>
      </g>
     </g>
     <g id="text_4">
      <!-- 2015 -->
      <g transform="translate(306.68556 318.798899) rotate(-45) scale(0.1 -0.1)">
       <use xlink:href="#DejaVuSans-32"/>
       <use xlink:href="#DejaVuSans-30" x="63.623047"/>
       <use xlink:href="#DejaVuSans-31" x="127.246094"/>
       <use xlink:href="#DejaVuSans-35" x="190.869141"/>
      </g>
     </g>
    </g>
    <g id="xtick_5">
     <g id="line2d_5">
      <g>
       <use xlink:href="#m4562f0ff97" x="391.031023" y="288.430125" style="stroke: #000000; stroke-width: 0.8"/>
      </g>
     </g>
     <g id="text_5">
      <!-- 2020 -->
      <g transform="translate(383.984262 318.798899) rotate(-45) scale(0.1 -0.1)">
       <use xlink:href="#DejaVuSans-32"/>
       <use xlink:href="#DejaVuSans-30" x="63.623047"/>
       <use xlink:href="#DejaVuSans-32" x="127.246094"/>
       <use xlink:href="#DejaVuSans-30" x="190.869141"/>
      </g>
     </g>
    </g>
    <g id="text_6">
     <!-- Year -->
     <g transform="translate(218.11625 331.867898) scale(0.1 -0.1)">
      <defs>
       <path id="DejaVuSans-59" d="M -13 4666 
L 666 4666 
L 1959 2747 
L 3244 4666 
L 3922 4666 
L 2272 2222 
L 2272 0 
L 1638 0 
L 1638 2222 
L -13 4666 
z
" transform="scale(0.015625)"/>
       <path id="DejaVuSans-65" d="M 3597 1894 
L 3597 1613 
L 953 1613 
Q 991 1019 1311 708 
Q 1631 397 2203 397 
Q 2534 397 2845 478 
Q 3156 559 3463 722 
L 3463 178 
Q 3153 47 2828 -22 
Q 2503 -91 2169 -91 
Q 1331 -91 842 396 
Q 353 884 353 1716 
Q 353 2575 817 3079 
Q 1281 3584 2069 3584 
Q 2775 3584 3186 3129 
Q 3597 2675 3597 1894 
z
M 3022 2063 
Q 3016 2534 2758 2815 
Q 2500 3097 2075 3097 
Q 1594 3097 1305 2825 
Q 1016 2553 972 2059 
L 3022 2063 
z
" transform="scale(0.015625)"/>
       <path id="DejaVuSans-61" d="M 2194 1759 
Q 1497 1759 1228 1600 
Q 959 1441 959 1056 
Q 959 750 1161 570 
Q 1363 391 1709 391 
Q 2188 391 2477 730 
Q 2766 1069 2766 1631 
L 2766 1759 
L 2194 1759 
z
M 3341 1997 
L 3341 0 
L 2766 0 
L 2766 531 
Q 2569 213 2275 61 
Q 1981 -91 1556 -91 
Q 1019 -91 701 211 
Q 384 513 384 1019 
Q 384 1609 779 1909 
Q 1175 2209 1959 2209 
L 2766 2209 
L 2766 2266 
Q 2766 2663 2505 2880 
Q 2244 3097 1772 3097 
Q 1472 3097 1187 3025 
Q 903 2953 641 2809 
L 641 3341 
Q 956 3463 1253 3523 
Q 1550 3584 1831 3584 
Q 2591 3584 2966 3190 
Q 3341 2797 3341 1997 
z
" transform="scale(0.015625)"/>
       <path id="DejaVuSans-72" d="M 2631 2963 
Q 2534 3019 2420 3045 
Q 2306 3072 2169 3072 
Q 1681 3072 1420 2755 
Q 1159 2438 1159 1844 
L 1159 0 
L 581 0 
L 581 3500 
L 1159 3500 
L 1159 2956 
Q 1341 3275 1631 3429 
Q 1922 3584 2338 3584 
Q 2397 3584 2469 3576 
Q 2541 3569 2628 3553 
L 2631 2963 
z
" transform="scale(0.015625)"/>
      </defs>
      <use xlink:href="#DejaVuSans-59"/>
      <use xlink:href="#DejaVuSans-65" x="47.833984"/>
      <use xlink:href="#DejaVuSans-61" x="109.357422"/>
      <use xlink:href="#DejaVuSans-72" x="170.636719"/>
     </g>
    </g>
   </g>
   <g id="matplotlib.axis_2">
    <g id="ytick_1">
     <g id="line2d_6">
      <defs>
       <path id="ma93258ce25" d="M 0 0 
L -3.5 0 
" style="stroke: #000000; stroke-width: 0.8"/>
      </defs>
      <g>
       <use xlink:href="#ma93258ce25" x="50.14375" y="279.33616" style="stroke: #000000; stroke-width: 0.8"/>
      </g>
     </g>
     <g id="text_7">
      <!-- 0.0 -->
      <g transform="translate(27.240625 283.135379) scale(0.1 -0.1)">
       <defs>
        <path id="DejaVuSans-2e" d="M 684 794 
L 1344 794 
L 1344 0 
L 684 0 
L 684 794 
z
" transform="scale(0.015625)"/>
       </defs>
       <use xlink:href="#DejaVuSans-30"/>
       <use xlink:href="#DejaVuSans-2e" x="63.623047"/>
       <use xlink:href="#DejaVuSans-30" x="95.410156"/>
      </g>
     </g>
    </g>
    <g id="ytick_2">
     <g id="line2d_7">
      <g>
       <use xlink:href="#ma93258ce25" x="50.14375" y="249.654016" style="stroke: #000000; stroke-width: 0.8"/>
      </g>
     </g>
     <g id="text_8">
      <!-- 2.5 -->
      <g transform="translate(27.240625 253.453235) scale(0.1 -0.1)">
       <use xlink:href="#DejaVuSans-32"/>
       <use xlink:href="#DejaVuSans-2e" x="63.623047"/>
       <use xlink:href="#DejaVuSans-35" x="95.410156"/>
      </g>
     </g>
    </g>
    <g id="ytick_3">
     <g id="line2d_8">
      <g>
       <use xlink:href="#ma93258ce25" x="50.14375" y="219.971871" style="stroke: #000000; stroke-width: 0.8"/>
      </g>
     </g>
     <g id="text_9">
      <!-- 5.0 -->
      <g transform="translate(27.240625 223.77109) scale(0.1 -0.1)">
       <use xlink:href="#DejaVuSans-35"/>
       <use xlink:href="#DejaVuSans-2e" x="63.623047"/>
       <use xlink:href="#DejaVuSans-30" x="95.410156"/>
      </g>
     </g>
    </g>
    <g id="ytick_4">
     <g id="line2d_9">
      <g>
       <use xlink:href="#ma93258ce25" x="50.14375" y="190.289727" style="stroke: #000000; stroke-width: 0.8"/>
      </g>
     </g>
     <g id="text_10">
      <!-- 7.5 -->
      <g transform="translate(27.240625 194.088946) scale(0.1 -0.1)">
       <defs>
        <path id="DejaVuSans-37" d="M 525 4666 
L 3525 4666 
L 3525 4397 
L 1831 0 
L 1172 0 
L 2766 4134 
L 525 4134 
L 525 4666 
z
" transform="scale(0.015625)"/>
       </defs>
       <use xlink:href="#DejaVuSans-37"/>
       <use xlink:href="#DejaVuSans-2e" x="63.623047"/>
       <use xlink:href="#DejaVuSans-35" x="95.410156"/>
      </g>
     </g>
    </g>
    <g id="ytick_5">
     <g id="line2d_10">
      <g>
       <use xlink:href="#ma93258ce25" x="50.14375" y="160.607582" style="stroke: #000000; stroke-width: 0.8"/>
      </g>
     </g>
     <g id="text_11">
      <!-- 10.0 -->
      <g transform="translate(20.878125 164.406801) scale(0.1 -0.1)">
       <use xlink:href="#DejaVuSans-31"/>
       <use xlink:href="#DejaVuSans-30" x="63.623047"/>
       <use xlink:href="#DejaVuSans-2e" x="127.246094"/>
       <use xlink:href="#DejaVuSans-30" x="159.033203"/>
      </g>
     </g>
    </g>
    <g id="ytick_6">
     <g id="line2d_11">
      <g>
       <use xlink:href="#ma93258ce25" x="50.14375" y="130.925438" style="stroke: #000000; stroke-width: 0.8"/>
      </g>
     </g>
     <g id="text_12">
      <!-- 12.5 -->
      <g transform="translate(20.878125 134.724657) scale(0.1 -0.1)">
       <use xlink:href="#DejaVuSans-31"/>
       <use xlink:href="#DejaVuSans-32" x="63.623047"/>
       <use xlink:href="#DejaVuSans-2e" x="127.246094"/>
       <use xlink:href="#DejaVuSans-35" x="159.033203"/>
      </g>
     </g>
    </g>
    <g id="ytick_7">
     <g id="line2d_12">
      <g>
       <use xlink:href="#ma93258ce25" x="50.14375" y="101.243293" style="stroke: #000000; stroke-width: 0.8"/>
      </g>
     </g>
     <g id="text_13">
      <!-- 15.0 -->
      <g transform="translate(20.878125 105.042512) scale(0.1 -0.1)">
       <use xlink:href="#DejaVuSans-31"/>
       <use xlink:href="#DejaVuSans-35" x="63.623047"/>
       <use xlink:href="#DejaVuSans-2e" x="127.246094"/>
       <use xlink:href="#DejaVuSans-30" x="159.033203"/>
      </g>
     </g>
    </g>
    <g id="ytick_8">
     <g id="line2d_13">
      <g>
       <use xlink:href="#ma93258ce25" x="50.14375" y="71.561149" style="stroke: #000000; stroke-width: 0.8"/>
      </g>
     </g>
     <g id="text_14">
      <!-- 17.5 -->
      <g transform="translate(20.878125 75.360368) scale(0.1 -0.1)">
       <use xlink:href="#DejaVuSans-31"/>
       <use xlink:href="#DejaVuSans-37" x="63.623047"/>
       <use xlink:href="#DejaVuSans-2e" x="127.246094"/>
       <use xlink:href="#DejaVuSans-35" x="159.033203"/>
      </g>
     </g>
    </g>
    <g id="ytick_9">
     <g id="line2d_14">
      <g>
       <use xlink:href="#ma93258ce25" x="50.14375" y="41.879004" style="stroke: #000000; stroke-width: 0.8"/>
      </g>
     </g>
     <g id="text_15">
      <!-- 20.0 -->
      <g transform="translate(20.878125 45.678223) scale(0.1 -0.1)">
       <use xlink:href="#DejaVuSans-32"/>
       <use xlink:href="#DejaVuSans-30" x="63.623047"/>
       <use xlink:href="#DejaVuSans-2e" x="127.246094"/>
       <use xlink:href="#DejaVuSans-30" x="159.033203"/>
      </g>
     </g>
    </g>
    <g id="text_16">
     <!-- Crude Rate -->
     <g transform="translate(14.798438 183.392094) rotate(-90) scale(0.1 -0.1)">
      <defs>
       <path id="DejaVuSans-43" d="M 4122 4306 
L 4122 3641 
Q 3803 3938 3442 4084 
Q 3081 4231 2675 4231 
Q 1875 4231 1450 3742 
Q 1025 3253 1025 2328 
Q 1025 1406 1450 917 
Q 1875 428 2675 428 
Q 3081 428 3442 575 
Q 3803 722 4122 1019 
L 4122 359 
Q 3791 134 3420 21 
Q 3050 -91 2638 -91 
Q 1578 -91 968 557 
Q 359 1206 359 2328 
Q 359 3453 968 4101 
Q 1578 4750 2638 4750 
Q 3056 4750 3426 4639 
Q 3797 4528 4122 4306 
z
" transform="scale(0.015625)"/>
       <path id="DejaVuSans-75" d="M 544 1381 
L 544 3500 
L 1119 3500 
L 1119 1403 
Q 1119 906 1312 657 
Q 1506 409 1894 409 
Q 2359 409 2629 706 
Q 2900 1003 2900 1516 
L 2900 3500 
L 3475 3500 
L 3475 0 
L 2900 0 
L 2900 538 
Q 2691 219 2414 64 
Q 2138 -91 1772 -91 
Q 1169 -91 856 284 
Q 544 659 544 1381 
z
M 1991 3584 
L 1991 3584 
z
" transform="scale(0.015625)"/>
       <path id="DejaVuSans-64" d="M 2906 2969 
L 2906 4863 
L 3481 4863 
L 3481 0 
L 2906 0 
L 2906 525 
Q 2725 213 2448 61 
Q 2172 -91 1784 -91 
Q 1150 -91 751 415 
Q 353 922 353 1747 
Q 353 2572 751 3078 
Q 1150 3584 1784 3584 
Q 2172 3584 2448 3432 
Q 2725 3281 2906 2969 
z
M 947 1747 
Q 947 1113 1208 752 
Q 1469 391 1925 391 
Q 2381 391 2643 752 
Q 2906 1113 2906 1747 
Q 2906 2381 2643 2742 
Q 2381 3103 1925 3103 
Q 1469 3103 1208 2742 
Q 947 2381 947 1747 
z
" transform="scale(0.015625)"/>
       <path id="DejaVuSans-20" transform="scale(0.015625)"/>
       <path id="DejaVuSans-52" d="M 2841 2188 
Q 3044 2119 3236 1894 
Q 3428 1669 3622 1275 
L 4263 0 
L 3584 0 
L 2988 1197 
Q 2756 1666 2539 1819 
Q 2322 1972 1947 1972 
L 1259 1972 
L 1259 0 
L 628 0 
L 628 4666 
L 2053 4666 
Q 2853 4666 3247 4331 
Q 3641 3997 3641 3322 
Q 3641 2881 3436 2590 
Q 3231 2300 2841 2188 
z
M 1259 4147 
L 1259 2491 
L 2053 2491 
Q 2509 2491 2742 2702 
Q 2975 2913 2975 3322 
Q 2975 3731 2742 3939 
Q 2509 4147 2053 4147 
L 1259 4147 
z
" transform="scale(0.015625)"/>
       <path id="DejaVuSans-74" d="M 1172 4494 
L 1172 3500 
L 2356 3500 
L 2356 3053 
L 1172 3053 
L 1172 1153 
Q 1172 725 1289 603 
Q 1406 481 1766 481 
L 2356 481 
L 2356 0 
L 1766 0 
Q 1100 0 847 248 
Q 594 497 594 1153 
L 594 3053 
L 172 3053 
L 172 3500 
L 594 3500 
L 594 4494 
L 1172 4494 
z
" transform="scale(0.015625)"/>
      </defs>
      <use xlink:href="#DejaVuSans-43"/>
      <use xlink:href="#DejaVuSans-72" x="69.824219"/>
      <use xlink:href="#DejaVuSans-75" x="110.9375"/>
      <use xlink:href="#DejaVuSans-64" x="174.316406"/>
      <use xlink:href="#DejaVuSans-65" x="237.792969"/>
      <use xlink:href="#DejaVuSans-20" x="299.316406"/>
      <use xlink:href="#DejaVuSans-52" x="331.103516"/>
      <use xlink:href="#DejaVuSans-61" x="398.335938"/>
      <use xlink:href="#DejaVuSans-74" x="459.615234"/>
      <use xlink:href="#DejaVuSans-65" x="498.824219"/>
     </g>
    </g>
   </g>
   <g id="line2d_15">
    <path d="M 66.376477 275.674659 
L 81.836218 275.201207 
L 97.295958 275.865899 
L 112.755698 275.595144 
L 128.215438 249.228935 
L 143.675179 275.959777 
L 159.134919 275.258929 
L 174.594659 275.943559 
L 190.054399 275.975786 
L 205.51414 274.759753 
L 220.97388 265.478294 
L 236.43362 268.123407 
L 267.353101 275.980383 
L 282.812841 274.496284 
L 313.732321 275.511901 
L 329.192062 275.564776 
L 344.651802 275.461677 
L 360.111542 275.811886 
L 375.571282 270.951838 
L 391.031023 241.02373 
" clip-path="url(#p8f91c2b05a)" style="fill: none; stroke: #1f77b4; stroke-width: 1.5; stroke-linecap: square"/>
   </g>
   <g id="line2d_16">
    <path d="M 66.376477 227.05446 
L 81.836218 220.425705 
L 97.295958 243.562969 
L 112.755698 235.766864 
L 128.215438 232.180635 
L 143.675179 227.489792 
L 159.134919 231.303697 
L 174.594659 239.398224 
L 190.054399 226.335803 
L 205.51414 229.384777 
L 220.97388 221.60156 
L 236.43362 227.972816 
L 251.89336 211.839848 
L 267.353101 211.817133 
L 282.812841 201.102683 
L 298.272581 191.563186 
L 313.732321 182.775898 
L 329.192062 167.748308 
L 344.651802 165.045304 
L 360.111542 171.999561 
L 375.571282 174.791793 
L 391.031023 172.867292 
" clip-path="url(#p8f91c2b05a)" style="fill: none; stroke: #ff7f0e; stroke-width: 1.5; stroke-linecap: square"/>
   </g>
   <g id="line2d_17">
    <path d="M 66.376477 217.445388 
L 81.836218 219.180352 
L 97.295958 224.739597 
L 112.755698 215.56408 
L 128.215438 202.774744 
L 143.675179 202.055272 
L 159.134919 199.961813 
L 174.594659 201.511453 
L 190.054399 202.689286 
L 205.51414 186.374971 
L 220.97388 198.061039 
L 236.43362 201.100879 
L 251.89336 193.820154 
L 267.353101 180.515576 
L 282.812841 196.226896 
L 298.272581 185.726386 
L 313.732321 185.704833 
L 329.192062 180.425691 
L 344.651802 181.883252 
L 360.111542 188.187782 
L 375.571282 194.143923 
L 391.031023 183.250876 
" clip-path="url(#p8f91c2b05a)" style="fill: none; stroke: #2ca02c; stroke-width: 1.5; stroke-linecap: square"/>
   </g>
   <g id="line2d_18">
    <path d="M 66.376477 245.089003 
L 81.836218 243.212727 
L 97.295958 235.177495 
L 112.755698 226.348818 
L 128.215438 212.278971 
L 143.675179 209.413208 
L 159.134919 209.385184 
L 174.594659 205.293925 
L 190.054399 208.957532 
L 205.51414 210.320936 
L 220.97388 216.326499 
L 236.43362 214.781947 
L 251.89336 214.387926 
L 267.353101 222.40674 
L 282.812841 225.983266 
L 298.272581 227.759841 
L 313.732321 223.452089 
L 329.192062 233.381042 
L 344.651802 228.993884 
L 360.111542 234.332291 
L 375.571282 234.994869 
L 391.031023 227.305598 
" clip-path="url(#p8f91c2b05a)" style="fill: none; stroke: #d62728; stroke-width: 1.5; stroke-linecap: square"/>
   </g>
   <g id="line2d_19">
    <path d="M 66.376477 245.50736 
L 81.836218 251.418822 
L 97.295958 243.588161 
L 112.755698 243.645036 
L 128.215438 241.846061 
L 143.675179 221.565545 
L 159.134919 235.94061 
L 174.594659 226.914387 
L 190.054399 234.3052 
L 205.51414 203.858695 
L 220.97388 222.919447 
L 236.43362 237.512121 
L 251.89336 223.14139 
L 267.353101 224.939427 
L 282.812841 237.425347 
L 298.272581 230.146481 
L 313.732321 214.077914 
L 329.192062 165.823628 
L 344.651802 143.867494 
L 360.111542 127.070396 
L 375.571282 113.514966 
L 391.031023 53.014767 
" clip-path="url(#p8f91c2b05a)" style="fill: none; stroke: #9467bd; stroke-width: 1.5; stroke-linecap: square"/>
   </g>
   <g id="line2d_20">
    <path d="M 66.376477 196.435649 
L 81.836218 227.68279 
L 97.295958 216.010864 
L 112.755698 214.229881 
L 128.215438 210.046043 
L 143.675179 221.718655 
L 159.134919 216.290329 
L 174.594659 222.690562 
L 190.054399 224.606356 
L 205.51414 228.288271 
L 220.97388 217.654848 
L 236.43362 238.763305 
L 251.89336 224.458294 
L 267.353101 221.118873 
L 282.812841 233.76596 
L 298.272581 228.994772 
L 313.732321 221.320693 
L 329.192062 231.610863 
L 344.651802 231.188473 
L 360.111542 234.688909 
L 375.571282 238.07443 
L 391.031023 225.641932 
" clip-path="url(#p8f91c2b05a)" style="fill: none; stroke: #8c564b; stroke-width: 1.5; stroke-linecap: square"/>
   </g>
   <g id="line2d_21"/>
   <g id="line2d_22"/>
   <g id="line2d_23"/>
   <g id="line2d_24"/>
   <g id="line2d_25"/>
   <g id="line2d_26"/>
   <g id="patch_3">
    <path d="M 50.14375 288.430125 
L 50.14375 22.318125 
" style="fill: none; stroke: #000000; stroke-width: 0.8; stroke-linejoin: miter; stroke-linecap: square"/>
   </g>
   <g id="patch_4">
    <path d="M 407.26375 288.430125 
L 407.26375 22.318125 
" style="fill: none; stroke: #000000; stroke-width: 0.8; stroke-linejoin: miter; stroke-linecap: square"/>
   </g>
   <g id="patch_5">
    <path d="M 50.14375 288.430125 
L 407.26375 288.430125 
" style="fill: none; stroke: #000000; stroke-width: 0.8; stroke-linejoin: miter; stroke-linecap: square"/>
   </g>
   <g id="patch_6">
    <path d="M 50.14375 22.318125 
L 407.26375 22.318125 
" style="fill: none; stroke: #000000; stroke-width: 0.8; stroke-linejoin: miter; stroke-linecap: square"/>
   </g>
   <g id="text_17">
    <!-- Multiple COD Over Time -->
    <g transform="translate(156.504063 16.318125) scale(0.12 -0.12)">
     <defs>
      <path id="DejaVuSans-4d" d="M 628 4666 
L 1569 4666 
L 2759 1491 
L 3956 4666 
L 4897 4666 
L 4897 0 
L 4281 0 
L 4281 4097 
L 3078 897 
L 2444 897 
L 1241 4097 
L 1241 0 
L 628 0 
L 628 4666 
z
" transform="scale(0.015625)"/>
      <path id="DejaVuSans-6c" d="M 603 4863 
L 1178 4863 
L 1178 0 
L 603 0 
L 603 4863 
z
" transform="scale(0.015625)"/>
      <path id="DejaVuSans-69" d="M 603 3500 
L 1178 3500 
L 1178 0 
L 603 0 
L 603 3500 
z
M 603 4863 
L 1178 4863 
L 1178 4134 
L 603 4134 
L 603 4863 
z
" transform="scale(0.015625)"/>
      <path id="DejaVuSans-70" d="M 1159 525 
L 1159 -1331 
L 581 -1331 
L 581 3500 
L 1159 3500 
L 1159 2969 
Q 1341 3281 1617 3432 
Q 1894 3584 2278 3584 
Q 2916 3584 3314 3078 
Q 3713 2572 3713 1747 
Q 3713 922 3314 415 
Q 2916 -91 2278 -91 
Q 1894 -91 1617 61 
Q 1341 213 1159 525 
z
M 3116 1747 
Q 3116 2381 2855 2742 
Q 2594 3103 2138 3103 
Q 1681 3103 1420 2742 
Q 1159 2381 1159 1747 
Q 1159 1113 1420 752 
Q 1681 391 2138 391 
Q 2594 391 2855 752 
Q 3116 1113 3116 1747 
z
" transform="scale(0.015625)"/>
      <path id="DejaVuSans-4f" d="M 2522 4238 
Q 1834 4238 1429 3725 
Q 1025 3213 1025 2328 
Q 1025 1447 1429 934 
Q 1834 422 2522 422 
Q 3209 422 3611 934 
Q 4013 1447 4013 2328 
Q 4013 3213 3611 3725 
Q 3209 4238 2522 4238 
z
M 2522 4750 
Q 3503 4750 4090 4092 
Q 4678 3434 4678 2328 
Q 4678 1225 4090 567 
Q 3503 -91 2522 -91 
Q 1538 -91 948 565 
Q 359 1222 359 2328 
Q 359 3434 948 4092 
Q 1538 4750 2522 4750 
z
" transform="scale(0.015625)"/>
      <path id="DejaVuSans-44" d="M 1259 4147 
L 1259 519 
L 2022 519 
Q 2988 519 3436 956 
Q 3884 1394 3884 2338 
Q 3884 3275 3436 3711 
Q 2988 4147 2022 4147 
L 1259 4147 
z
M 628 4666 
L 1925 4666 
Q 3281 4666 3915 4102 
Q 4550 3538 4550 2338 
Q 4550 1131 3912 565 
Q 3275 0 1925 0 
L 628 0 
L 628 4666 
z
" transform="scale(0.015625)"/>
      <path id="DejaVuSans-76" d="M 191 3500 
L 800 3500 
L 1894 563 
L 2988 3500 
L 3597 3500 
L 2284 0 
L 1503 0 
L 191 3500 
z
" transform="scale(0.015625)"/>
      <path id="DejaVuSans-54" d="M -19 4666 
L 3928 4666 
L 3928 4134 
L 2272 4134 
L 2272 0 
L 1638 0 
L 1638 4134 
L -19 4134 
L -19 4666 
z
" transform="scale(0.015625)"/>
      <path id="DejaVuSans-6d" d="M 3328 2828 
Q 3544 3216 3844 3400 
Q 4144 3584 4550 3584 
Q 5097 3584 5394 3201 
Q 5691 2819 5691 2113 
L 5691 0 
L 5113 0 
L 5113 2094 
Q 5113 2597 4934 2840 
Q 4756 3084 4391 3084 
Q 3944 3084 3684 2787 
Q 3425 2491 3425 1978 
L 3425 0 
L 2847 0 
L 2847 2094 
Q 2847 2600 2669 2842 
Q 2491 3084 2119 3084 
Q 1678 3084 1418 2786 
Q 1159 2488 1159 1978 
L 1159 0 
L 581 0 
L 581 3500 
L 1159 3500 
L 1159 2956 
Q 1356 3278 1631 3431 
Q 1906 3584 2284 3584 
Q 2666 3584 2933 3390 
Q 3200 3197 3328 2828 
z
" transform="scale(0.015625)"/>
     </defs>
     <use xlink:href="#DejaVuSans-4d"/>
     <use xlink:href="#DejaVuSans-75" x="86.279297"/>
     <use xlink:href="#DejaVuSans-6c" x="149.658203"/>
     <use xlink:href="#DejaVuSans-74" x="177.441406"/>
     <use xlink:href="#DejaVuSans-69" x="216.650391"/>
     <use xlink:href="#DejaVuSans-70" x="244.433594"/>
     <use xlink:href="#DejaVuSans-6c" x="307.910156"/>
     <use xlink:href="#DejaVuSans-65" x="335.693359"/>
     <use xlink:href="#DejaVuSans-20" x="397.216797"/>
     <use xlink:href="#DejaVuSans-43" x="429.003906"/>
     <use xlink:href="#DejaVuSans-4f" x="498.828125"/>
     <use xlink:href="#DejaVuSans-44" x="577.539062"/>
     <use xlink:href="#DejaVuSans-20" x="654.541016"/>
     <use xlink:href="#DejaVuSans-4f" x="686.328125"/>
     <use xlink:href="#DejaVuSans-76" x="765.039062"/>
     <use xlink:href="#DejaVuSans-65" x="824.21875"/>
     <use xlink:href="#DejaVuSans-72" x="885.742188"/>
     <use xlink:href="#DejaVuSans-20" x="926.855469"/>
     <use xlink:href="#DejaVuSans-54" x="958.642578"/>
     <use xlink:href="#DejaVuSans-69" x="1016.601562"/>
     <use xlink:href="#DejaVuSans-6d" x="1044.384766"/>
     <use xlink:href="#DejaVuSans-65" x="1141.796875"/>
    </g>
   </g>
   <g id="legend_1">
    <g id="patch_7">
     <path d="M 57.14375 133.065 
L 248.723438 133.065 
Q 250.723438 133.065 250.723438 131.065 
L 250.723438 29.318125 
Q 250.723438 27.318125 248.723438 27.318125 
L 57.14375 27.318125 
Q 55.14375 27.318125 55.14375 29.318125 
L 55.14375 131.065 
Q 55.14375 133.065 57.14375 133.065 
z
" style="fill: #ffffff; opacity: 0.8; stroke: #cccccc; stroke-linejoin: miter"/>
    </g>
    <g id="text_18">
     <!-- Multiple Cause of death -->
     <g transform="translate(93.636719 38.916562) scale(0.1 -0.1)">
      <defs>
       <path id="DejaVuSans-73" d="M 2834 3397 
L 2834 2853 
Q 2591 2978 2328 3040 
Q 2066 3103 1784 3103 
Q 1356 3103 1142 2972 
Q 928 2841 928 2578 
Q 928 2378 1081 2264 
Q 1234 2150 1697 2047 
L 1894 2003 
Q 2506 1872 2764 1633 
Q 3022 1394 3022 966 
Q 3022 478 2636 193 
Q 2250 -91 1575 -91 
Q 1294 -91 989 -36 
Q 684 19 347 128 
L 347 722 
Q 666 556 975 473 
Q 1284 391 1588 391 
Q 1994 391 2212 530 
Q 2431 669 2431 922 
Q 2431 1156 2273 1281 
Q 2116 1406 1581 1522 
L 1381 1569 
Q 847 1681 609 1914 
Q 372 2147 372 2553 
Q 372 3047 722 3315 
Q 1072 3584 1716 3584 
Q 2034 3584 2315 3537 
Q 2597 3491 2834 3397 
z
" transform="scale(0.015625)"/>
       <path id="DejaVuSans-6f" d="M 1959 3097 
Q 1497 3097 1228 2736 
Q 959 2375 959 1747 
Q 959 1119 1226 758 
Q 1494 397 1959 397 
Q 2419 397 2687 759 
Q 2956 1122 2956 1747 
Q 2956 2369 2687 2733 
Q 2419 3097 1959 3097 
z
M 1959 3584 
Q 2709 3584 3137 3096 
Q 3566 2609 3566 1747 
Q 3566 888 3137 398 
Q 2709 -91 1959 -91 
Q 1206 -91 779 398 
Q 353 888 353 1747 
Q 353 2609 779 3096 
Q 1206 3584 1959 3584 
z
" transform="scale(0.015625)"/>
       <path id="DejaVuSans-66" d="M 2375 4863 
L 2375 4384 
L 1825 4384 
Q 1516 4384 1395 4259 
Q 1275 4134 1275 3809 
L 1275 3500 
L 2222 3500 
L 2222 3053 
L 1275 3053 
L 1275 0 
L 697 0 
L 697 3053 
L 147 3053 
L 147 3500 
L 697 3500 
L 697 3744 
Q 697 4328 969 4595 
Q 1241 4863 1831 4863 
L 2375 4863 
z
" transform="scale(0.015625)"/>
       <path id="DejaVuSans-68" d="M 3513 2113 
L 3513 0 
L 2938 0 
L 2938 2094 
Q 2938 2591 2744 2837 
Q 2550 3084 2163 3084 
Q 1697 3084 1428 2787 
Q 1159 2491 1159 1978 
L 1159 0 
L 581 0 
L 581 4863 
L 1159 4863 
L 1159 2956 
Q 1366 3272 1645 3428 
Q 1925 3584 2291 3584 
Q 2894 3584 3203 3211 
Q 3513 2838 3513 2113 
z
" transform="scale(0.015625)"/>
      </defs>
      <use xlink:href="#DejaVuSans-4d"/>
      <use xlink:href="#DejaVuSans-75" x="86.279297"/>
      <use xlink:href="#DejaVuSans-6c" x="149.658203"/>
      <use xlink:href="#DejaVuSans-74" x="177.441406"/>
      <use xlink:href="#DejaVuSans-69" x="216.650391"/>
      <use xlink:href="#DejaVuSans-70" x="244.433594"/>
      <use xlink:href="#DejaVuSans-6c" x="307.910156"/>
      <use xlink:href="#DejaVuSans-65" x="335.693359"/>
      <use xlink:href="#DejaVuSans-20" x="397.216797"/>
      <use xlink:href="#DejaVuSans-43" x="429.003906"/>
      <use xlink:href="#DejaVuSans-61" x="498.828125"/>
      <use xlink:href="#DejaVuSans-75" x="560.107422"/>
      <use xlink:href="#DejaVuSans-73" x="623.486328"/>
      <use xlink:href="#DejaVuSans-65" x="675.585938"/>
      <use xlink:href="#DejaVuSans-20" x="737.109375"/>
      <use xlink:href="#DejaVuSans-6f" x="768.896484"/>
      <use xlink:href="#DejaVuSans-66" x="830.078125"/>
      <use xlink:href="#DejaVuSans-20" x="865.283203"/>
      <use xlink:href="#DejaVuSans-64" x="897.070312"/>
      <use xlink:href="#DejaVuSans-65" x="960.546875"/>
      <use xlink:href="#DejaVuSans-61" x="1022.070312"/>
      <use xlink:href="#DejaVuSans-74" x="1083.349609"/>
      <use xlink:href="#DejaVuSans-68" x="1122.558594"/>
     </g>
    </g>
    <g id="line2d_27">
     <path d="M 59.14375 50.094687 
L 69.14375 50.094687 
L 79.14375 50.094687 
" style="fill: none; stroke: #1f77b4; stroke-width: 1.5; stroke-linecap: square"/>
    </g>
    <g id="text_19">
     <!-- Opium -->
     <g transform="translate(87.14375 53.594687) scale(0.1 -0.1)">
      <use xlink:href="#DejaVuSans-4f"/>
      <use xlink:href="#DejaVuSans-70" x="78.710938"/>
      <use xlink:href="#DejaVuSans-69" x="142.1875"/>
      <use xlink:href="#DejaVuSans-75" x="169.970703"/>
      <use xlink:href="#DejaVuSans-6d" x="233.349609"/>
     </g>
    </g>
    <g id="line2d_28">
     <path d="M 59.14375 64.772812 
L 69.14375 64.772812 
L 79.14375 64.772812 
" style="fill: none; stroke: #ff7f0e; stroke-width: 1.5; stroke-linecap: square"/>
    </g>
    <g id="text_20">
     <!-- Heroin -->
     <g transform="translate(87.14375 68.272812) scale(0.1 -0.1)">
      <defs>
       <path id="DejaVuSans-48" d="M 628 4666 
L 1259 4666 
L 1259 2753 
L 3553 2753 
L 3553 4666 
L 4184 4666 
L 4184 0 
L 3553 0 
L 3553 2222 
L 1259 2222 
L 1259 0 
L 628 0 
L 628 4666 
z
" transform="scale(0.015625)"/>
       <path id="DejaVuSans-6e" d="M 3513 2113 
L 3513 0 
L 2938 0 
L 2938 2094 
Q 2938 2591 2744 2837 
Q 2550 3084 2163 3084 
Q 1697 3084 1428 2787 
Q 1159 2491 1159 1978 
L 1159 0 
L 581 0 
L 581 3500 
L 1159 3500 
L 1159 2956 
Q 1366 3272 1645 3428 
Q 1925 3584 2291 3584 
Q 2894 3584 3203 3211 
Q 3513 2838 3513 2113 
z
" transform="scale(0.015625)"/>
      </defs>
      <use xlink:href="#DejaVuSans-48"/>
      <use xlink:href="#DejaVuSans-65" x="75.195312"/>
      <use xlink:href="#DejaVuSans-72" x="136.71875"/>
      <use xlink:href="#DejaVuSans-6f" x="175.582031"/>
      <use xlink:href="#DejaVuSans-69" x="236.763672"/>
      <use xlink:href="#DejaVuSans-6e" x="264.546875"/>
     </g>
    </g>
    <g id="line2d_29">
     <path d="M 59.14375 79.450937 
L 69.14375 79.450937 
L 79.14375 79.450937 
" style="fill: none; stroke: #2ca02c; stroke-width: 1.5; stroke-linecap: square"/>
    </g>
    <g id="text_21">
     <!-- Other opioids -->
     <g transform="translate(87.14375 82.950937) scale(0.1 -0.1)">
      <use xlink:href="#DejaVuSans-4f"/>
      <use xlink:href="#DejaVuSans-74" x="78.710938"/>
      <use xlink:href="#DejaVuSans-68" x="117.919922"/>
      <use xlink:href="#DejaVuSans-65" x="181.298828"/>
      <use xlink:href="#DejaVuSans-72" x="242.822266"/>
      <use xlink:href="#DejaVuSans-20" x="283.935547"/>
      <use xlink:href="#DejaVuSans-6f" x="315.722656"/>
      <use xlink:href="#DejaVuSans-70" x="376.904297"/>
      <use xlink:href="#DejaVuSans-69" x="440.380859"/>
      <use xlink:href="#DejaVuSans-6f" x="468.164062"/>
      <use xlink:href="#DejaVuSans-69" x="529.345703"/>
      <use xlink:href="#DejaVuSans-64" x="557.128906"/>
      <use xlink:href="#DejaVuSans-73" x="620.605469"/>
     </g>
    </g>
    <g id="line2d_30">
     <path d="M 59.14375 94.129062 
L 69.14375 94.129062 
L 79.14375 94.129062 
" style="fill: none; stroke: #d62728; stroke-width: 1.5; stroke-linecap: square"/>
    </g>
    <g id="text_22">
     <!-- Methadone -->
     <g transform="translate(87.14375 97.629062) scale(0.1 -0.1)">
      <use xlink:href="#DejaVuSans-4d"/>
      <use xlink:href="#DejaVuSans-65" x="86.279297"/>
      <use xlink:href="#DejaVuSans-74" x="147.802734"/>
      <use xlink:href="#DejaVuSans-68" x="187.011719"/>
      <use xlink:href="#DejaVuSans-61" x="250.390625"/>
      <use xlink:href="#DejaVuSans-64" x="311.669922"/>
      <use xlink:href="#DejaVuSans-6f" x="375.146484"/>
      <use xlink:href="#DejaVuSans-6e" x="436.328125"/>
      <use xlink:href="#DejaVuSans-65" x="499.707031"/>
     </g>
    </g>
    <g id="line2d_31">
     <path d="M 59.14375 108.807187 
L 69.14375 108.807187 
L 79.14375 108.807187 
" style="fill: none; stroke: #9467bd; stroke-width: 1.5; stroke-linecap: square"/>
    </g>
    <g id="text_23">
     <!-- Other synthetic narcotics -->
     <g transform="translate(87.14375 112.307187) scale(0.1 -0.1)">
      <defs>
       <path id="DejaVuSans-79" d="M 2059 -325 
Q 1816 -950 1584 -1140 
Q 1353 -1331 966 -1331 
L 506 -1331 
L 506 -850 
L 844 -850 
Q 1081 -850 1212 -737 
Q 1344 -625 1503 -206 
L 1606 56 
L 191 3500 
L 800 3500 
L 1894 763 
L 2988 3500 
L 3597 3500 
L 2059 -325 
z
" transform="scale(0.015625)"/>
       <path id="DejaVuSans-63" d="M 3122 3366 
L 3122 2828 
Q 2878 2963 2633 3030 
Q 2388 3097 2138 3097 
Q 1578 3097 1268 2742 
Q 959 2388 959 1747 
Q 959 1106 1268 751 
Q 1578 397 2138 397 
Q 2388 397 2633 464 
Q 2878 531 3122 666 
L 3122 134 
Q 2881 22 2623 -34 
Q 2366 -91 2075 -91 
Q 1284 -91 818 406 
Q 353 903 353 1747 
Q 353 2603 823 3093 
Q 1294 3584 2113 3584 
Q 2378 3584 2631 3529 
Q 2884 3475 3122 3366 
z
" transform="scale(0.015625)"/>
      </defs>
      <use xlink:href="#DejaVuSans-4f"/>
      <use xlink:href="#DejaVuSans-74" x="78.710938"/>
      <use xlink:href="#DejaVuSans-68" x="117.919922"/>
      <use xlink:href="#DejaVuSans-65" x="181.298828"/>
      <use xlink:href="#DejaVuSans-72" x="242.822266"/>
      <use xlink:href="#DejaVuSans-20" x="283.935547"/>
      <use xlink:href="#DejaVuSans-73" x="315.722656"/>
      <use xlink:href="#DejaVuSans-79" x="367.822266"/>
      <use xlink:href="#DejaVuSans-6e" x="427.001953"/>
      <use xlink:href="#DejaVuSans-74" x="490.380859"/>
      <use xlink:href="#DejaVuSans-68" x="529.589844"/>
      <use xlink:href="#DejaVuSans-65" x="592.96875"/>
      <use xlink:href="#DejaVuSans-74" x="654.492188"/>
      <use xlink:href="#DejaVuSans-69" x="693.701172"/>
      <use xlink:href="#DejaVuSans-63" x="721.484375"/>
      <use xlink:href="#DejaVuSans-20" x="776.464844"/>
      <use xlink:href="#DejaVuSans-6e" x="808.251953"/>
      <use xlink:href="#DejaVuSans-61" x="871.630859"/>
      <use xlink:href="#DejaVuSans-72" x="932.910156"/>
      <use xlink:href="#DejaVuSans-63" x="971.773438"/>
      <use xlink:href="#DejaVuSans-6f" x="1026.753906"/>
      <use xlink:href="#DejaVuSans-74" x="1087.935547"/>
      <use xlink:href="#DejaVuSans-69" x="1127.144531"/>
      <use xlink:href="#DejaVuSans-63" x="1154.927734"/>
      <use xlink:href="#DejaVuSans-73" x="1209.908203"/>
     </g>
    </g>
    <g id="line2d_32">
     <path d="M 59.14375 123.485312 
L 69.14375 123.485312 
L 79.14375 123.485312 
" style="fill: none; stroke: #8c564b; stroke-width: 1.5; stroke-linecap: square"/>
    </g>
    <g id="text_24">
     <!-- Other and unspecified narcotics -->
     <g transform="translate(87.14375 126.985312) scale(0.1 -0.1)">
      <use xlink:href="#DejaVuSans-4f"/>
      <use xlink:href="#DejaVuSans-74" x="78.710938"/>
      <use xlink:href="#DejaVuSans-68" x="117.919922"/>
      <use xlink:href="#DejaVuSans-65" x="181.298828"/>
      <use xlink:href="#DejaVuSans-72" x="242.822266"/>
      <use xlink:href="#DejaVuSans-20" x="283.935547"/>
      <use xlink:href="#DejaVuSans-61" x="315.722656"/>
      <use xlink:href="#DejaVuSans-6e" x="377.001953"/>
      <use xlink:href="#DejaVuSans-64" x="440.380859"/>
      <use xlink:href="#DejaVuSans-20" x="503.857422"/>
      <use xlink:href="#DejaVuSans-75" x="535.644531"/>
      <use xlink:href="#DejaVuSans-6e" x="599.023438"/>
      <use xlink:href="#DejaVuSans-73" x="662.402344"/>
      <use xlink:href="#DejaVuSans-70" x="714.501953"/>
      <use xlink:href="#DejaVuSans-65" x="777.978516"/>
      <use xlink:href="#DejaVuSans-63" x="839.501953"/>
      <use xlink:href="#DejaVuSans-69" x="894.482422"/>
      <use xlink:href="#DejaVuSans-66" x="922.265625"/>
      <use xlink:href="#DejaVuSans-69" x="957.470703"/>
      <use xlink:href="#DejaVuSans-65" x="985.253906"/>
      <use xlink:href="#DejaVuSans-64" x="1046.777344"/>
      <use xlink:href="#DejaVuSans-20" x="1110.253906"/>
      <use xlink:href="#DejaVuSans-6e" x="1142.041016"/>
      <use xlink:href="#DejaVuSans-61" x="1205.419922"/>
      <use xlink:href="#DejaVuSans-72" x="1266.699219"/>
      <use xlink:href="#DejaVuSans-63" x="1305.5625"/>
      <use xlink:href="#DejaVuSans-6f" x="1360.542969"/>
      <use xlink:href="#DejaVuSans-74" x="1421.724609"/>
      <use xlink:href="#DejaVuSans-69" x="1460.933594"/>
      <use xlink:href="#DejaVuSans-63" x="1488.716797"/>
      <use xlink:href="#DejaVuSans-73" x="1543.697266"/>
     </g>
    </g>
   </g>
  </g>
 </g>
 <defs>
  <clipPath id="p8f91c2b05a">
   <rect x="50.14375" y="22.318125" width="357.12" height="266.112"/>
  </clipPath>
 </defs>
</svg>
