<?xml version="1.0" encoding="utf-8" standalone="no"?>
<!DOCTYPE svg PUBLIC "-//W3C//DTD SVG 1.1//EN"
  "http://www.w3.org/Graphics/SVG/1.1/DTD/svg11.dtd">
<svg xmlns:xlink="http://www.w3.org/1999/xlink" width="404.923125pt" height="341.147585pt" viewBox="0 0 404.923125 341.147585" xmlns="http://www.w3.org/2000/svg" version="1.1">
 <metadata>
  <rdf:RDF xmlns:dc="http://purl.org/dc/elements/1.1/" xmlns:cc="http://creativecommons.org/ns#" xmlns:rdf="http://www.w3.org/1999/02/22-rdf-syntax-ns#">
   <cc:Work>
    <dc:type rdf:resource="http://purl.org/dc/dcmitype/StillImage"/>
    <dc:date>2023-10-20T08:55:30.182587</dc:date>
    <dc:format>image/svg+xml</dc:format>
    <dc:creator>
     <cc:Agent>
      <dc:title>Matplotlib v3.8.0, https://matplotlib.org/</dc:title>
     </cc:Agent>
    </dc:creator>
   </cc:Work>
  </rdf:RDF>
 </metadata>
 <defs>
  <style type="text/css">*{stroke-linejoin: round; stroke-linecap: butt}</style>
 </defs>
 <g id="figure_1">
  <g id="patch_1">
   <path d="M 0 341.147585 
L 404.923125 341.147585 
L 404.923125 0 
L 0 0 
z
" style="fill: #ffffff"/>
  </g>
  <g id="axes_1">
   <g id="patch_2">
    <path d="M 40.603125 288.430125 
L 397.723125 288.430125 
L 397.723125 22.318125 
L 40.603125 22.318125 
z
" style="fill: #ffffff"/>
   </g>
   <g id="PolyCollection_1">
    <path d="M 56.835852 274.872898 
L 56.835852 276.113613 
L 72.295593 275.274361 
L 87.755333 276.148587 
L 103.215073 275.911786 
L 118.674813 273.373132 
L 118.674813 210.440809 
L 118.674813 210.440809 
L 103.215073 275.298303 
L 87.755333 275.623308 
L 72.295593 275.158409 
L 56.835852 274.872898 
z
" clip-path="url(#pbe9afde043)" style="fill: #1f77b4; fill-opacity: 0.2; stroke: #1f77b4; stroke-opacity: 0.2"/>
    <path d="M 149.594294 274.504405 
L 149.594294 276.042263 
L 165.054034 276.108473 
L 180.513774 276.144468 
L 180.513774 275.762682 
L 180.513774 275.762682 
L 165.054034 275.817121 
L 149.594294 274.504405 
z
" clip-path="url(#pbe9afde043)" style="fill: #1f77b4; fill-opacity: 0.2; stroke: #1f77b4; stroke-opacity: 0.2"/>
    <path d="M 211.433255 258.566209 
L 211.433255 272.681261 
L 226.892995 275.406037 
L 257.812476 276.334125 
L 273.272216 276.183061 
L 273.272216 271.920008 
L 273.272216 271.920008 
L 257.812476 275.63612 
L 226.892995 261.060783 
L 211.433255 258.566209 
z
" clip-path="url(#pbe9afde043)" style="fill: #1f77b4; fill-opacity: 0.2; stroke: #1f77b4; stroke-opacity: 0.2"/>
    <path d="M 319.651437 275.237139 
L 319.651437 275.913027 
L 335.111177 275.640374 
L 350.570917 275.903974 
L 366.030657 275.677339 
L 381.490398 275.731623 
L 381.490398 173.267699 
L 381.490398 173.267699 
L 366.030657 262.374512 
L 350.570917 275.760617 
L 335.111177 275.328464 
L 319.651437 275.237139 
z
" clip-path="url(#pbe9afde043)" style="fill: #1f77b4; fill-opacity: 0.2; stroke: #1f77b4; stroke-opacity: 0.2"/>
   </g>
   <g id="PolyCollection_2">
    <defs>
     <path id="ma9bbfc13f5" d="M 56.835852 -127.932683 
L 56.835852 -100.189714 
L 72.295593 -103.055596 
L 87.755333 -88.512191 
L 103.215073 -93.320938 
L 118.674813 -96.590452 
L 134.134554 -100.246883 
L 149.594294 -98.414748 
L 165.054034 -92.409732 
L 180.513774 -102.739797 
L 195.973515 -100.138635 
L 211.433255 -107.120256 
L 226.892995 -102.952816 
L 242.352735 -117.535301 
L 257.812476 -117.13612 
L 273.272216 -129.94241 
L 288.731956 -137.942503 
L 304.191696 -147.737372 
L 319.651437 -161.487791 
L 335.111177 -165.494732 
L 350.570917 -157.785561 
L 366.030657 -154.897711 
L 381.490398 -155.691531 
L 381.490398 -179.633627 
L 381.490398 -179.633627 
L 366.030657 -175.037688 
L 350.570917 -177.822403 
L 335.111177 -184.63691 
L 319.651437 -183.044869 
L 304.191696 -167.75129 
L 288.731956 -158.256107 
L 273.272216 -148.885167 
L 257.812476 -140.602079 
L 242.352735 -140.442925 
L 226.892995 -122.713093 
L 211.433255 -130.749952 
L 195.973515 -123.053089 
L 180.513774 -126.455527 
L 165.054034 -111.798613 
L 149.594294 -121.854925 
L 134.134554 -127.621431 
L 118.674813 -122.843701 
L 103.215073 -118.125707 
L 87.755333 -105.983975 
L 72.295593 -139.011036 
L 56.835852 -127.932683 
z
" style="stroke: #ff7f0e; stroke-opacity: 0.2"/>
    </defs>
    <g clip-path="url(#pbe9afde043)">
     <use xlink:href="#ma9bbfc13f5" x="0" y="341.147585" style="fill: #ff7f0e; fill-opacity: 0.2; stroke: #ff7f0e; stroke-opacity: 0.2"/>
    </g>
   </g>
   <g id="PolyCollection_3">
    <defs>
     <path id="mdb2d28099f" d="M 56.835852 -143.118749 
L 56.835852 -106.849105 
L 72.295593 -106.079878 
L 87.755333 -104.273908 
L 103.215073 -112.854411 
L 118.674813 -120.865565 
L 134.134554 -121.701791 
L 149.594294 -124.22619 
L 165.054034 -125.192076 
L 180.513774 -125.562927 
L 195.973515 -139.860303 
L 211.433255 -130.992412 
L 226.892995 -130.653476 
L 242.352735 -136.289034 
L 257.812476 -144.185972 
L 273.272216 -134.733207 
L 288.731956 -143.448589 
L 304.191696 -144.208699 
L 319.651437 -145.974962 
L 335.111177 -147.731781 
L 350.570917 -142.755299 
L 366.030657 -136.996846 
L 381.490398 -148.361377 
L 381.490398 -165.595325 
L 381.490398 -165.595325 
L 366.030657 -155.962604 
L 350.570917 -161.853529 
L 335.111177 -168.291342 
L 319.651437 -175.874689 
L 304.191696 -164.382951 
L 288.731956 -166.621634 
L 273.272216 -154.678841 
L 257.812476 -179.372298 
L 242.352735 -156.172211 
L 226.892995 -146.905894 
L 211.433255 -154.280755 
L 195.973515 -171.657443 
L 180.513774 -151.635495 
L 165.054034 -154.071136 
L 149.594294 -161.638882 
L 134.134554 -157.233703 
L 118.674813 -156.245021 
L 103.215073 -136.656052 
L 87.755333 -129.439725 
L 72.295593 -139.094837 
L 56.835852 -143.118749 
z
" style="stroke: #2ca02c; stroke-opacity: 0.2"/>
    </defs>
    <g clip-path="url(#pbe9afde043)">
     <use xlink:href="#mdb2d28099f" x="0" y="341.147585" style="fill: #2ca02c; fill-opacity: 0.2; stroke: #2ca02c; stroke-opacity: 0.2"/>
    </g>
   </g>
   <g id="PolyCollection_4">
    <defs>
     <path id="m3b1517d5d0" d="M 56.835852 -112.792906 
L 56.835852 -80.872621 
L 72.295593 -85.427467 
L 87.755333 -93.109436 
L 103.215073 -100.971567 
L 118.674813 -111.746828 
L 134.134554 -116.869237 
L 149.594294 -118.210781 
L 165.054034 -120.408612 
L 180.513774 -118.895936 
L 195.973515 -117.938459 
L 211.433255 -115.377391 
L 226.892995 -115.604649 
L 242.352735 -116.074337 
L 257.812476 -109.457718 
L 273.272216 -104.578514 
L 288.731956 -101.498402 
L 304.191696 -105.677369 
L 319.651437 -99.315291 
L 335.111177 -102.125002 
L 350.570917 -98.533266 
L 366.030657 -97.477684 
L 381.490398 -103.909031 
L 381.490398 -123.540902 
L 381.490398 -123.540902 
L 366.030657 -114.055705 
L 350.570917 -114.819788 
L 335.111177 -120.652425 
L 319.651437 -115.522439 
L 304.191696 -130.701298 
L 288.731956 -126.461688 
L 273.272216 -125.305161 
L 257.812476 -126.991078 
L 242.352735 -137.153809 
L 226.892995 -135.940941 
L 211.433255 -133.946975 
L 195.973515 -142.494103 
L 180.513774 -145.840171 
L 165.054034 -152.253896 
L 149.594294 -144.453662 
L 134.134554 -146.276084 
L 118.674813 -148.601592 
L 103.215073 -129.643895 
L 87.755333 -118.624605 
L 72.295593 -111.294205 
L 56.835852 -112.792906 
z
" style="stroke: #d62728; stroke-opacity: 0.2"/>
    </defs>
    <g clip-path="url(#pbe9afde043)">
     <use xlink:href="#m3b1517d5d0" x="0" y="341.147585" style="fill: #d62728; fill-opacity: 0.2; stroke: #d62728; stroke-opacity: 0.2"/>
    </g>
   </g>
   <g id="PolyCollection_5">
    <defs>
     <path id="ma35d1934e6" d="M 56.835852 -108.240143 
L 56.835852 -84.120644 
L 72.295593 -79.89725 
L 87.755333 -81.595713 
L 103.215073 -85.992479 
L 118.674813 -88.560414 
L 134.134554 -96.351037 
L 149.594294 -93.159156 
L 165.054034 -100.585378 
L 180.513774 -93.804304 
L 195.973515 -112.749885 
L 211.433255 -107.149015 
L 226.892995 -96.29175 
L 242.352735 -101.998762 
L 257.812476 -102.889438 
L 273.272216 -95.534706 
L 288.731956 -103.978684 
L 304.191696 -118.568975 
L 319.651437 -164.575443 
L 335.111177 -184.099348 
L 350.570917 -199.20404 
L 366.030657 -211.03522 
L 381.490398 -265.95663 
L 381.490398 -306.73346 
L 381.490398 -306.73346 
L 366.030657 -241.185879 
L 350.570917 -224.143398 
L 335.111177 -206.454249 
L 319.651437 -183.882708 
L 304.191696 -134.535464 
L 288.731956 -117.837713 
L 273.272216 -111.396933 
L 257.812476 -130.336204 
L 242.352735 -137.00366 
L 226.892995 -111.326638 
L 211.433255 -127.776499 
L 195.973515 -167.886296 
L 180.513774 -120.43562 
L 165.054034 -128.306421 
L 149.594294 -119.724943 
L 134.134554 -148.474101 
L 118.674813 -110.987474 
L 103.215073 -111.180498 
L 87.755333 -116.908602 
L 72.295593 -101.394528 
L 56.835852 -108.240143 
z
" style="stroke: #9467bd; stroke-opacity: 0.2"/>
    </defs>
    <g clip-path="url(#pbe9afde043)">
     <use xlink:href="#ma35d1934e6" x="0" y="341.147585" style="fill: #9467bd; fill-opacity: 0.2; stroke: #9467bd; stroke-opacity: 0.2"/>
    </g>
   </g>
   <g id="PolyCollection_6">
    <defs>
     <path id="m9b55c503c5" d="M 56.835852 -161.352023 
L 56.835852 -126.493917 
L 72.295593 -101.773055 
L 87.755333 -110.24521 
L 103.215073 -111.794841 
L 118.674813 -113.841607 
L 134.134554 -105.302297 
L 149.594294 -108.846588 
L 165.054034 -105.66672 
L 180.513774 -105.031236 
L 195.973515 -101.446755 
L 211.433255 -109.551123 
L 226.892995 -92.775665 
L 242.352735 -105.717437 
L 257.812476 -107.199972 
L 273.272216 -98.573204 
L 288.731956 -101.855203 
L 304.191696 -106.590323 
L 319.651437 -100.269384 
L 335.111177 -100.072723 
L 350.570917 -97.208407 
L 366.030657 -94.032129 
L 381.490398 -102.141972 
L 381.490398 -129.7848 
L 381.490398 -129.7848 
L 366.030657 -111.324199 
L 350.570917 -116.11968 
L 335.111177 -119.23102 
L 319.651437 -118.546949 
L 304.191696 -131.914076 
L 288.731956 -123.83076 
L 273.272216 -115.843755 
L 257.812476 -132.791322 
L 242.352735 -126.060095 
L 226.892995 -112.720712 
L 211.433255 -136.69923 
L 195.973515 -124.356555 
L 180.513774 -131.093947 
L 165.054034 -130.77261 
L 149.594294 -142.476391 
L 134.134554 -133.844738 
L 118.674813 -150.851856 
L 103.215073 -143.055335 
L 87.755333 -141.422706 
L 72.295593 -123.997269 
L 56.835852 -161.352023 
z
" style="stroke: #8c564b; stroke-opacity: 0.2"/>
    </defs>
    <g clip-path="url(#pbe9afde043)">
     <use xlink:href="#m9b55c503c5" x="0" y="341.147585" style="fill: #8c564b; fill-opacity: 0.2; stroke: #8c564b; stroke-opacity: 0.2"/>
    </g>
   </g>
   <g id="matplotlib.axis_1">
    <g id="xtick_1">
     <g id="line2d_1">
      <defs>
       <path id="m81c38f4a04" d="M 0 0 
L 0 3.5 
" style="stroke: #000000; stroke-width: 0.8"/>
      </defs>
      <g>
       <use xlink:href="#m81c38f4a04" x="72.295593" y="288.430125" style="stroke: #000000; stroke-width: 0.8"/>
      </g>
     </g>
     <g id="text_1">
      <!-- 2000 -->
      <g transform="translate(65.248832 318.798899) rotate(-45) scale(0.1 -0.1)">
       <defs>
        <path id="DejaVuSans-32" d="M 1228 531 
L 3431 531 
L 3431 0 
L 469 0 
L 469 531 
Q 828 903 1448 1529 
Q 2069 2156 2228 2338 
Q 2531 2678 2651 2914 
Q 2772 3150 2772 3378 
Q 2772 3750 2511 3984 
Q 2250 4219 1831 4219 
Q 1534 4219 1204 4116 
Q 875 4013 500 3803 
L 500 4441 
Q 881 4594 1212 4672 
Q 1544 4750 1819 4750 
Q 2544 4750 2975 4387 
Q 3406 4025 3406 3419 
Q 3406 3131 3298 2873 
Q 3191 2616 2906 2266 
Q 2828 2175 2409 1742 
Q 1991 1309 1228 531 
z
" transform="scale(0.015625)"/>
        <path id="DejaVuSans-30" d="M 2034 4250 
Q 1547 4250 1301 3770 
Q 1056 3291 1056 2328 
Q 1056 1369 1301 889 
Q 1547 409 2034 409 
Q 2525 409 2770 889 
Q 3016 1369 3016 2328 
Q 3016 3291 2770 3770 
Q 2525 4250 2034 4250 
z
M 2034 4750 
Q 2819 4750 3233 4129 
Q 3647 3509 3647 2328 
Q 3647 1150 3233 529 
Q 2819 -91 2034 -91 
Q 1250 -91 836 529 
Q 422 1150 422 2328 
Q 422 3509 836 4129 
Q 1250 4750 2034 4750 
z
" transform="scale(0.015625)"/>
       </defs>
       <use xlink:href="#DejaVuSans-32"/>
       <use xlink:href="#DejaVuSans-30" x="63.623047"/>
       <use xlink:href="#DejaVuSans-30" x="127.246094"/>
       <use xlink:href="#DejaVuSans-30" x="190.869141"/>
      </g>
     </g>
    </g>
    <g id="xtick_2">
     <g id="line2d_2">
      <g>
       <use xlink:href="#m81c38f4a04" x="149.594294" y="288.430125" style="stroke: #000000; stroke-width: 0.8"/>
      </g>
     </g>
     <g id="text_2">
      <!-- 2005 -->
      <g transform="translate(142.547533 318.798899) rotate(-45) scale(0.1 -0.1)">
       <defs>
        <path id="DejaVuSans-35" d="M 691 4666 
L 3169 4666 
L 3169 4134 
L 1269 4134 
L 1269 2991 
Q 1406 3038 1543 3061 
Q 1681 3084 1819 3084 
Q 2600 3084 3056 2656 
Q 3513 2228 3513 1497 
Q 3513 744 3044 326 
Q 2575 -91 1722 -91 
Q 1428 -91 1123 -41 
Q 819 9 494 109 
L 494 744 
Q 775 591 1075 516 
Q 1375 441 1709 441 
Q 2250 441 2565 725 
Q 2881 1009 2881 1497 
Q 2881 1984 2565 2268 
Q 2250 2553 1709 2553 
Q 1456 2553 1204 2497 
Q 953 2441 691 2322 
L 691 4666 
z
" transform="scale(0.015625)"/>
       </defs>
       <use xlink:href="#DejaVuSans-32"/>
       <use xlink:href="#DejaVuSans-30" x="63.623047"/>
       <use xlink:href="#DejaVuSans-30" x="127.246094"/>
       <use xlink:href="#DejaVuSans-35" x="190.869141"/>
      </g>
     </g>
    </g>
    <g id="xtick_3">
     <g id="line2d_3">
      <g>
       <use xlink:href="#m81c38f4a04" x="226.892995" y="288.430125" style="stroke: #000000; stroke-width: 0.8"/>
      </g>
     </g>
     <g id="text_3">
      <!-- 2010 -->
      <g transform="translate(219.846234 318.798899) rotate(-45) scale(0.1 -0.1)">
       <defs>
        <path id="DejaVuSans-31" d="M 794 531 
L 1825 531 
L 1825 4091 
L 703 3866 
L 703 4441 
L 1819 4666 
L 2450 4666 
L 2450 531 
L 3481 531 
L 3481 0 
L 794 0 
L 794 531 
z
" transform="scale(0.015625)"/>
       </defs>
       <use xlink:href="#DejaVuSans-32"/>
       <use xlink:href="#DejaVuSans-30" x="63.623047"/>
       <use xlink:href="#DejaVuSans-31" x="127.246094"/>
       <use xlink:href="#DejaVuSans-30" x="190.869141"/>
      </g>
     </g>
    </g>
    <g id="xtick_4">
     <g id="line2d_4">
      <g>
       <use xlink:href="#m81c38f4a04" x="304.191696" y="288.430125" style="stroke: #000000; stroke-width: 0.8"/>
      </g>
     </g>
     <g id="text_4">
      <!-- 2015 -->
      <g transform="translate(297.144935 318.798899) rotate(-45) scale(0.1 -0.1)">
       <use xlink:href="#DejaVuSans-32"/>
       <use xlink:href="#DejaVuSans-30" x="63.623047"/>
       <use xlink:href="#DejaVuSans-31" x="127.246094"/>
       <use xlink:href="#DejaVuSans-35" x="190.869141"/>
      </g>
     </g>
    </g>
    <g id="xtick_5">
     <g id="line2d_5">
      <g>
       <use xlink:href="#m81c38f4a04" x="381.490398" y="288.430125" style="stroke: #000000; stroke-width: 0.8"/>
      </g>
     </g>
     <g id="text_5">
      <!-- 2020 -->
      <g transform="translate(374.443637 318.798899) rotate(-45) scale(0.1 -0.1)">
       <use xlink:href="#DejaVuSans-32"/>
       <use xlink:href="#DejaVuSans-30" x="63.623047"/>
       <use xlink:href="#DejaVuSans-32" x="127.246094"/>
       <use xlink:href="#DejaVuSans-30" x="190.869141"/>
      </g>
     </g>
    </g>
    <g id="text_6">
     <!-- Year -->
     <g transform="translate(208.575625 331.867898) scale(0.1 -0.1)">
      <defs>
       <path id="DejaVuSans-59" d="M -13 4666 
L 666 4666 
L 1959 2747 
L 3244 4666 
L 3922 4666 
L 2272 2222 
L 2272 0 
L 1638 0 
L 1638 2222 
L -13 4666 
z
" transform="scale(0.015625)"/>
       <path id="DejaVuSans-65" d="M 3597 1894 
L 3597 1613 
L 953 1613 
Q 991 1019 1311 708 
Q 1631 397 2203 397 
Q 2534 397 2845 478 
Q 3156 559 3463 722 
L 3463 178 
Q 3153 47 2828 -22 
Q 2503 -91 2169 -91 
Q 1331 -91 842 396 
Q 353 884 353 1716 
Q 353 2575 817 3079 
Q 1281 3584 2069 3584 
Q 2775 3584 3186 3129 
Q 3597 2675 3597 1894 
z
M 3022 2063 
Q 3016 2534 2758 2815 
Q 2500 3097 2075 3097 
Q 1594 3097 1305 2825 
Q 1016 2553 972 2059 
L 3022 2063 
z
" transform="scale(0.015625)"/>
       <path id="DejaVuSans-61" d="M 2194 1759 
Q 1497 1759 1228 1600 
Q 959 1441 959 1056 
Q 959 750 1161 570 
Q 1363 391 1709 391 
Q 2188 391 2477 730 
Q 2766 1069 2766 1631 
L 2766 1759 
L 2194 1759 
z
M 3341 1997 
L 3341 0 
L 2766 0 
L 2766 531 
Q 2569 213 2275 61 
Q 1981 -91 1556 -91 
Q 1019 -91 701 211 
Q 384 513 384 1019 
Q 384 1609 779 1909 
Q 1175 2209 1959 2209 
L 2766 2209 
L 2766 2266 
Q 2766 2663 2505 2880 
Q 2244 3097 1772 3097 
Q 1472 3097 1187 3025 
Q 903 2953 641 2809 
L 641 3341 
Q 956 3463 1253 3523 
Q 1550 3584 1831 3584 
Q 2591 3584 2966 3190 
Q 3341 2797 3341 1997 
z
" transform="scale(0.015625)"/>
       <path id="DejaVuSans-72" d="M 2631 2963 
Q 2534 3019 2420 3045 
Q 2306 3072 2169 3072 
Q 1681 3072 1420 2755 
Q 1159 2438 1159 1844 
L 1159 0 
L 581 0 
L 581 3500 
L 1159 3500 
L 1159 2956 
Q 1341 3275 1631 3429 
Q 1922 3584 2338 3584 
Q 2397 3584 2469 3576 
Q 2541 3569 2628 3553 
L 2631 2963 
z
" transform="scale(0.015625)"/>
      </defs>
      <use xlink:href="#DejaVuSans-59"/>
      <use xlink:href="#DejaVuSans-65" x="47.833984"/>
      <use xlink:href="#DejaVuSans-61" x="109.357422"/>
      <use xlink:href="#DejaVuSans-72" x="170.636719"/>
     </g>
    </g>
   </g>
   <g id="matplotlib.axis_2">
    <g id="ytick_1">
     <g id="line2d_6">
      <defs>
       <path id="m630a6c4050" d="M 0 0 
L -3.5 0 
" style="stroke: #000000; stroke-width: 0.8"/>
      </defs>
      <g>
       <use xlink:href="#m630a6c4050" x="40.603125" y="279.295941" style="stroke: #000000; stroke-width: 0.8"/>
      </g>
     </g>
     <g id="text_7">
      <!-- 0 -->
      <g transform="translate(27.240625 283.095159) scale(0.1 -0.1)">
       <use xlink:href="#DejaVuSans-30"/>
      </g>
     </g>
    </g>
    <g id="ytick_2">
     <g id="line2d_7">
      <g>
       <use xlink:href="#m630a6c4050" x="40.603125" y="220.726986" style="stroke: #000000; stroke-width: 0.8"/>
      </g>
     </g>
     <g id="text_8">
      <!-- 5 -->
      <g transform="translate(27.240625 224.526205) scale(0.1 -0.1)">
       <use xlink:href="#DejaVuSans-35"/>
      </g>
     </g>
    </g>
    <g id="ytick_3">
     <g id="line2d_8">
      <g>
       <use xlink:href="#m630a6c4050" x="40.603125" y="162.158031" style="stroke: #000000; stroke-width: 0.8"/>
      </g>
     </g>
     <g id="text_9">
      <!-- 10 -->
      <g transform="translate(20.878125 165.95725) scale(0.1 -0.1)">
       <use xlink:href="#DejaVuSans-31"/>
       <use xlink:href="#DejaVuSans-30" x="63.623047"/>
      </g>
     </g>
    </g>
    <g id="ytick_4">
     <g id="line2d_9">
      <g>
       <use xlink:href="#m630a6c4050" x="40.603125" y="103.589077" style="stroke: #000000; stroke-width: 0.8"/>
      </g>
     </g>
     <g id="text_10">
      <!-- 15 -->
      <g transform="translate(20.878125 107.388296) scale(0.1 -0.1)">
       <use xlink:href="#DejaVuSans-31"/>
       <use xlink:href="#DejaVuSans-35" x="63.623047"/>
      </g>
     </g>
    </g>
    <g id="ytick_5">
     <g id="line2d_10">
      <g>
       <use xlink:href="#m630a6c4050" x="40.603125" y="45.020122" style="stroke: #000000; stroke-width: 0.8"/>
      </g>
     </g>
     <g id="text_11">
      <!-- 20 -->
      <g transform="translate(20.878125 48.819341) scale(0.1 -0.1)">
       <use xlink:href="#DejaVuSans-32"/>
       <use xlink:href="#DejaVuSans-30" x="63.623047"/>
      </g>
     </g>
    </g>
    <g id="text_12">
     <!-- Crude Rate -->
     <g transform="translate(14.798438 183.392094) rotate(-90) scale(0.1 -0.1)">
      <defs>
       <path id="DejaVuSans-43" d="M 4122 4306 
L 4122 3641 
Q 3803 3938 3442 4084 
Q 3081 4231 2675 4231 
Q 1875 4231 1450 3742 
Q 1025 3253 1025 2328 
Q 1025 1406 1450 917 
Q 1875 428 2675 428 
Q 3081 428 3442 575 
Q 3803 722 4122 1019 
L 4122 359 
Q 3791 134 3420 21 
Q 3050 -91 2638 -91 
Q 1578 -91 968 557 
Q 359 1206 359 2328 
Q 359 3453 968 4101 
Q 1578 4750 2638 4750 
Q 3056 4750 3426 4639 
Q 3797 4528 4122 4306 
z
" transform="scale(0.015625)"/>
       <path id="DejaVuSans-75" d="M 544 1381 
L 544 3500 
L 1119 3500 
L 1119 1403 
Q 1119 906 1312 657 
Q 1506 409 1894 409 
Q 2359 409 2629 706 
Q 2900 1003 2900 1516 
L 2900 3500 
L 3475 3500 
L 3475 0 
L 2900 0 
L 2900 538 
Q 2691 219 2414 64 
Q 2138 -91 1772 -91 
Q 1169 -91 856 284 
Q 544 659 544 1381 
z
M 1991 3584 
L 1991 3584 
z
" transform="scale(0.015625)"/>
       <path id="DejaVuSans-64" d="M 2906 2969 
L 2906 4863 
L 3481 4863 
L 3481 0 
L 2906 0 
L 2906 525 
Q 2725 213 2448 61 
Q 2172 -91 1784 -91 
Q 1150 -91 751 415 
Q 353 922 353 1747 
Q 353 2572 751 3078 
Q 1150 3584 1784 3584 
Q 2172 3584 2448 3432 
Q 2725 3281 2906 2969 
z
M 947 1747 
Q 947 1113 1208 752 
Q 1469 391 1925 391 
Q 2381 391 2643 752 
Q 2906 1113 2906 1747 
Q 2906 2381 2643 2742 
Q 2381 3103 1925 3103 
Q 1469 3103 1208 2742 
Q 947 2381 947 1747 
z
" transform="scale(0.015625)"/>
       <path id="DejaVuSans-20" transform="scale(0.015625)"/>
       <path id="DejaVuSans-52" d="M 2841 2188 
Q 3044 2119 3236 1894 
Q 3428 1669 3622 1275 
L 4263 0 
L 3584 0 
L 2988 1197 
Q 2756 1666 2539 1819 
Q 2322 1972 1947 1972 
L 1259 1972 
L 1259 0 
L 628 0 
L 628 4666 
L 2053 4666 
Q 2853 4666 3247 4331 
Q 3641 3997 3641 3322 
Q 3641 2881 3436 2590 
Q 3231 2300 2841 2188 
z
M 1259 4147 
L 1259 2491 
L 2053 2491 
Q 2509 2491 2742 2702 
Q 2975 2913 2975 3322 
Q 2975 3731 2742 3939 
Q 2509 4147 2053 4147 
L 1259 4147 
z
" transform="scale(0.015625)"/>
       <path id="DejaVuSans-74" d="M 1172 4494 
L 1172 3500 
L 2356 3500 
L 2356 3053 
L 1172 3053 
L 1172 1153 
Q 1172 725 1289 603 
Q 1406 481 1766 481 
L 2356 481 
L 2356 0 
L 1766 0 
Q 1100 0 847 248 
Q 594 497 594 1153 
L 594 3053 
L 172 3053 
L 172 3500 
L 594 3500 
L 594 4494 
L 1172 4494 
z
" transform="scale(0.015625)"/>
      </defs>
      <use xlink:href="#DejaVuSans-43"/>
      <use xlink:href="#DejaVuSans-72" x="69.824219"/>
      <use xlink:href="#DejaVuSans-75" x="110.9375"/>
      <use xlink:href="#DejaVuSans-64" x="174.316406"/>
      <use xlink:href="#DejaVuSans-65" x="237.792969"/>
      <use xlink:href="#DejaVuSans-20" x="299.316406"/>
      <use xlink:href="#DejaVuSans-52" x="331.103516"/>
      <use xlink:href="#DejaVuSans-61" x="398.335938"/>
      <use xlink:href="#DejaVuSans-74" x="459.615234"/>
      <use xlink:href="#DejaVuSans-65" x="498.824219"/>
     </g>
    </g>
   </g>
   <g id="line2d_11">
    <path d="M 56.835852 275.683494 
L 72.295593 275.216385 
L 87.755333 275.872172 
L 103.215073 275.605044 
L 118.674813 249.592077 
L 134.134554 275.964792 
L 149.594294 275.273334 
L 165.054034 275.948792 
L 180.513774 275.980587 
L 195.973515 274.780846 
L 211.433255 265.623735 
L 226.892995 268.23341 
L 257.812476 275.985122 
L 273.272216 274.520906 
L 304.191696 275.522916 
L 319.651437 275.575083 
L 335.111177 275.473365 
L 350.570917 275.818882 
L 366.030657 271.023948 
L 381.490398 241.496802 
" clip-path="url(#pbe9afde043)" style="fill: none; stroke: #1f77b4; stroke-width: 1.5; stroke-linecap: square"/>
   </g>
   <g id="line2d_12">
    <path d="M 56.835852 227.714685 
L 72.295593 221.17474 
L 87.755333 244.002021 
L 103.215073 236.310364 
L 118.674813 232.772183 
L 134.134554 228.144185 
L 149.594294 231.906993 
L 165.054034 239.893074 
L 180.513774 227.005657 
L 195.973515 230.013782 
L 211.433255 222.334841 
L 226.892995 228.620737 
L 242.352735 212.703912 
L 257.812476 212.681501 
L 273.272216 202.110598 
L 288.731956 192.698906 
L 304.191696 184.029347 
L 319.651437 169.203089 
L 335.111177 166.536298 
L 350.570917 173.397386 
L 366.030657 176.152209 
L 381.490398 174.253491 
" clip-path="url(#pbe9afde043)" style="fill: none; stroke: #ff7f0e; stroke-width: 1.5; stroke-linecap: square"/>
   </g>
   <g id="line2d_13">
    <path d="M 56.835852 218.234351 
L 72.295593 219.946071 
L 87.755333 225.430836 
L 103.215073 216.378248 
L 118.674813 203.760258 
L 134.134554 203.050425 
L 149.594294 200.985012 
L 165.054034 202.513891 
L 180.513774 203.675945 
L 195.973515 187.580201 
L 211.433255 199.109704 
L 226.892995 202.108818 
L 242.352735 194.925637 
L 257.812476 181.799307 
L 273.272216 197.300134 
L 288.731956 186.940306 
L 304.191696 186.919041 
L 319.651437 181.710626 
L 335.111177 183.148659 
L 350.570917 189.368725 
L 366.030657 195.245068 
L 381.490398 184.497961 
" clip-path="url(#pbe9afde043)" style="fill: none; stroke: #2ca02c; stroke-width: 1.5; stroke-linecap: square"/>
   </g>
   <g id="line2d_14">
    <path d="M 56.835852 245.50761 
L 72.295593 243.656472 
L 87.755333 235.728892 
L 103.215073 227.018497 
L 118.674813 213.137151 
L 134.134554 210.309783 
L 149.594294 210.282134 
L 165.054034 206.245687 
L 180.513774 209.860211 
L 195.973515 211.20535 
L 211.433255 217.130452 
L 226.892995 215.606593 
L 242.352735 215.217852 
L 257.812476 223.129233 
L 273.272216 226.657842 
L 288.731956 228.410616 
L 304.191696 224.160577 
L 319.651437 233.956507 
L 335.111177 229.628126 
L 350.570917 234.895012 
L 366.030657 235.548713 
L 381.490398 227.962459 
" clip-path="url(#pbe9afde043)" style="fill: none; stroke: #d62728; stroke-width: 1.5; stroke-linecap: square"/>
   </g>
   <g id="line2d_15">
    <path d="M 56.835852 245.920362 
L 72.295593 251.752625 
L 87.755333 244.026875 
L 103.215073 244.082989 
L 118.674813 242.308115 
L 134.134554 222.299308 
L 149.594294 236.481783 
L 165.054034 227.576489 
L 180.513774 234.868284 
L 195.973515 204.829686 
L 211.433255 223.635072 
L 226.892995 238.03224 
L 242.352735 223.854041 
L 257.812476 225.627989 
L 273.272216 237.946629 
L 288.731956 230.765281 
L 304.191696 214.911993 
L 319.651437 167.304195 
L 335.111177 145.642219 
L 350.570917 129.07016 
L 366.030657 115.696339 
L 381.490398 56.006693 
" clip-path="url(#pbe9afde043)" style="fill: none; stroke: #9467bd; stroke-width: 1.5; stroke-linecap: square"/>
   </g>
   <g id="line2d_16">
    <path d="M 56.835852 197.506091 
L 72.295593 228.334597 
L 87.755333 216.819047 
L 103.215073 215.061924 
L 118.674813 210.934139 
L 134.134554 222.450367 
L 149.594294 217.094767 
L 165.054034 223.409253 
L 180.513774 225.29938 
L 195.973515 228.931967 
L 211.433255 218.441005 
L 226.892995 239.266661 
L 242.352735 225.153302 
L 257.812476 221.858621 
L 273.272216 234.336268 
L 288.731956 229.629002 
L 304.191696 222.057737 
L 319.651437 232.210044 
L 335.111177 231.793313 
L 350.570917 235.246851 
L 366.030657 238.587016 
L 381.490398 226.321081 
" clip-path="url(#pbe9afde043)" style="fill: none; stroke: #8c564b; stroke-width: 1.5; stroke-linecap: square"/>
   </g>
   <g id="line2d_17"/>
   <g id="line2d_18"/>
   <g id="line2d_19"/>
   <g id="line2d_20"/>
   <g id="line2d_21"/>
   <g id="line2d_22"/>
   <g id="patch_3">
    <path d="M 40.603125 288.430125 
L 40.603125 22.318125 
" style="fill: none; stroke: #000000; stroke-width: 0.8; stroke-linejoin: miter; stroke-linecap: square"/>
   </g>
   <g id="patch_4">
    <path d="M 397.723125 288.430125 
L 397.723125 22.318125 
" style="fill: none; stroke: #000000; stroke-width: 0.8; stroke-linejoin: miter; stroke-linecap: square"/>
   </g>
   <g id="patch_5">
    <path d="M 40.603125 288.430125 
L 397.723125 288.430125 
" style="fill: none; stroke: #000000; stroke-width: 0.8; stroke-linejoin: miter; stroke-linecap: square"/>
   </g>
   <g id="patch_6">
    <path d="M 40.603125 22.318125 
L 397.723125 22.318125 
" style="fill: none; stroke: #000000; stroke-width: 0.8; stroke-linejoin: miter; stroke-linecap: square"/>
   </g>
   <g id="text_13">
    <!-- Multiple COD Over Time -->
    <g transform="translate(146.963437 16.318125) scale(0.12 -0.12)">
     <defs>
      <path id="DejaVuSans-4d" d="M 628 4666 
L 1569 4666 
L 2759 1491 
L 3956 4666 
L 4897 4666 
L 4897 0 
L 4281 0 
L 4281 4097 
L 3078 897 
L 2444 897 
L 1241 4097 
L 1241 0 
L 628 0 
L 628 4666 
z
" transform="scale(0.015625)"/>
      <path id="DejaVuSans-6c" d="M 603 4863 
L 1178 4863 
L 1178 0 
L 603 0 
L 603 4863 
z
" transform="scale(0.015625)"/>
      <path id="DejaVuSans-69" d="M 603 3500 
L 1178 3500 
L 1178 0 
L 603 0 
L 603 3500 
z
M 603 4863 
L 1178 4863 
L 1178 4134 
L 603 4134 
L 603 4863 
z
" transform="scale(0.015625)"/>
      <path id="DejaVuSans-70" d="M 1159 525 
L 1159 -1331 
L 581 -1331 
L 581 3500 
L 1159 3500 
L 1159 2969 
Q 1341 3281 1617 3432 
Q 1894 3584 2278 3584 
Q 2916 3584 3314 3078 
Q 3713 2572 3713 1747 
Q 3713 922 3314 415 
Q 2916 -91 2278 -91 
Q 1894 -91 1617 61 
Q 1341 213 1159 525 
z
M 3116 1747 
Q 3116 2381 2855 2742 
Q 2594 3103 2138 3103 
Q 1681 3103 1420 2742 
Q 1159 2381 1159 1747 
Q 1159 1113 1420 752 
Q 1681 391 2138 391 
Q 2594 391 2855 752 
Q 3116 1113 3116 1747 
z
" transform="scale(0.015625)"/>
      <path id="DejaVuSans-4f" d="M 2522 4238 
Q 1834 4238 1429 3725 
Q 1025 3213 1025 2328 
Q 1025 1447 1429 934 
Q 1834 422 2522 422 
Q 3209 422 3611 934 
Q 4013 1447 4013 2328 
Q 4013 3213 3611 3725 
Q 3209 4238 2522 4238 
z
M 2522 4750 
Q 3503 4750 4090 4092 
Q 4678 3434 4678 2328 
Q 4678 1225 4090 567 
Q 3503 -91 2522 -91 
Q 1538 -91 948 565 
Q 359 1222 359 2328 
Q 359 3434 948 4092 
Q 1538 4750 2522 4750 
z
" transform="scale(0.015625)"/>
      <path id="DejaVuSans-44" d="M 1259 4147 
L 1259 519 
L 2022 519 
Q 2988 519 3436 956 
Q 3884 1394 3884 2338 
Q 3884 3275 3436 3711 
Q 2988 4147 2022 4147 
L 1259 4147 
z
M 628 4666 
L 1925 4666 
Q 3281 4666 3915 4102 
Q 4550 3538 4550 2338 
Q 4550 1131 3912 565 
Q 3275 0 1925 0 
L 628 0 
L 628 4666 
z
" transform="scale(0.015625)"/>
      <path id="DejaVuSans-76" d="M 191 3500 
L 800 3500 
L 1894 563 
L 2988 3500 
L 3597 3500 
L 2284 0 
L 1503 0 
L 191 3500 
z
" transform="scale(0.015625)"/>
      <path id="DejaVuSans-54" d="M -19 4666 
L 3928 4666 
L 3928 4134 
L 2272 4134 
L 2272 0 
L 1638 0 
L 1638 4134 
L -19 4134 
L -19 4666 
z
" transform="scale(0.015625)"/>
      <path id="DejaVuSans-6d" d="M 3328 2828 
Q 3544 3216 3844 3400 
Q 4144 3584 4550 3584 
Q 5097 3584 5394 3201 
Q 5691 2819 5691 2113 
L 5691 0 
L 5113 0 
L 5113 2094 
Q 5113 2597 4934 2840 
Q 4756 3084 4391 3084 
Q 3944 3084 3684 2787 
Q 3425 2491 3425 1978 
L 3425 0 
L 2847 0 
L 2847 2094 
Q 2847 2600 2669 2842 
Q 2491 3084 2119 3084 
Q 1678 3084 1418 2786 
Q 1159 2488 1159 1978 
L 1159 0 
L 581 0 
L 581 3500 
L 1159 3500 
L 1159 2956 
Q 1356 3278 1631 3431 
Q 1906 3584 2284 3584 
Q 2666 3584 2933 3390 
Q 3200 3197 3328 2828 
z
" transform="scale(0.015625)"/>
     </defs>
     <use xlink:href="#DejaVuSans-4d"/>
     <use xlink:href="#DejaVuSans-75" x="86.279297"/>
     <use xlink:href="#DejaVuSans-6c" x="149.658203"/>
     <use xlink:href="#DejaVuSans-74" x="177.441406"/>
     <use xlink:href="#DejaVuSans-69" x="216.650391"/>
     <use xlink:href="#DejaVuSans-70" x="244.433594"/>
     <use xlink:href="#DejaVuSans-6c" x="307.910156"/>
     <use xlink:href="#DejaVuSans-65" x="335.693359"/>
     <use xlink:href="#DejaVuSans-20" x="397.216797"/>
     <use xlink:href="#DejaVuSans-43" x="429.003906"/>
     <use xlink:href="#DejaVuSans-4f" x="498.828125"/>
     <use xlink:href="#DejaVuSans-44" x="577.539062"/>
     <use xlink:href="#DejaVuSans-20" x="654.541016"/>
     <use xlink:href="#DejaVuSans-4f" x="686.328125"/>
     <use xlink:href="#DejaVuSans-76" x="765.039062"/>
     <use xlink:href="#DejaVuSans-65" x="824.21875"/>
     <use xlink:href="#DejaVuSans-72" x="885.742188"/>
     <use xlink:href="#DejaVuSans-20" x="926.855469"/>
     <use xlink:href="#DejaVuSans-54" x="958.642578"/>
     <use xlink:href="#DejaVuSans-69" x="1016.601562"/>
     <use xlink:href="#DejaVuSans-6d" x="1044.384766"/>
     <use xlink:href="#DejaVuSans-65" x="1141.796875"/>
    </g>
   </g>
   <g id="legend_1">
    <g id="patch_7">
     <path d="M 47.603125 133.065 
L 239.182813 133.065 
Q 241.182813 133.065 241.182813 131.065 
L 241.182813 29.318125 
Q 241.182813 27.318125 239.182813 27.318125 
L 47.603125 27.318125 
Q 45.603125 27.318125 45.603125 29.318125 
L 45.603125 131.065 
Q 45.603125 133.065 47.603125 133.065 
z
" style="fill: #ffffff; opacity: 0.8; stroke: #cccccc; stroke-linejoin: miter"/>
    </g>
    <g id="text_14">
     <!-- Multiple Cause of death -->
     <g transform="translate(84.096094 38.916562) scale(0.1 -0.1)">
      <defs>
       <path id="DejaVuSans-73" d="M 2834 3397 
L 2834 2853 
Q 2591 2978 2328 3040 
Q 2066 3103 1784 3103 
Q 1356 3103 1142 2972 
Q 928 2841 928 2578 
Q 928 2378 1081 2264 
Q 1234 2150 1697 2047 
L 1894 2003 
Q 2506 1872 2764 1633 
Q 3022 1394 3022 966 
Q 3022 478 2636 193 
Q 2250 -91 1575 -91 
Q 1294 -91 989 -36 
Q 684 19 347 128 
L 347 722 
Q 666 556 975 473 
Q 1284 391 1588 391 
Q 1994 391 2212 530 
Q 2431 669 2431 922 
Q 2431 1156 2273 1281 
Q 2116 1406 1581 1522 
L 1381 1569 
Q 847 1681 609 1914 
Q 372 2147 372 2553 
Q 372 3047 722 3315 
Q 1072 3584 1716 3584 
Q 2034 3584 2315 3537 
Q 2597 3491 2834 3397 
z
" transform="scale(0.015625)"/>
       <path id="DejaVuSans-6f" d="M 1959 3097 
Q 1497 3097 1228 2736 
Q 959 2375 959 1747 
Q 959 1119 1226 758 
Q 1494 397 1959 397 
Q 2419 397 2687 759 
Q 2956 1122 2956 1747 
Q 2956 2369 2687 2733 
Q 2419 3097 1959 3097 
z
M 1959 3584 
Q 2709 3584 3137 3096 
Q 3566 2609 3566 1747 
Q 3566 888 3137 398 
Q 2709 -91 1959 -91 
Q 1206 -91 779 398 
Q 353 888 353 1747 
Q 353 2609 779 3096 
Q 1206 3584 1959 3584 
z
" transform="scale(0.015625)"/>
       <path id="DejaVuSans-66" d="M 2375 4863 
L 2375 4384 
L 1825 4384 
Q 1516 4384 1395 4259 
Q 1275 4134 1275 3809 
L 1275 3500 
L 2222 3500 
L 2222 3053 
L 1275 3053 
L 1275 0 
L 697 0 
L 697 3053 
L 147 3053 
L 147 3500 
L 697 3500 
L 697 3744 
Q 697 4328 969 4595 
Q 1241 4863 1831 4863 
L 2375 4863 
z
" transform="scale(0.015625)"/>
       <path id="DejaVuSans-68" d="M 3513 2113 
L 3513 0 
L 2938 0 
L 2938 2094 
Q 2938 2591 2744 2837 
Q 2550 3084 2163 3084 
Q 1697 3084 1428 2787 
Q 1159 2491 1159 1978 
L 1159 0 
L 581 0 
L 581 4863 
L 1159 4863 
L 1159 2956 
Q 1366 3272 1645 3428 
Q 1925 3584 2291 3584 
Q 2894 3584 3203 3211 
Q 3513 2838 3513 2113 
z
" transform="scale(0.015625)"/>
      </defs>
      <use xlink:href="#DejaVuSans-4d"/>
      <use xlink:href="#DejaVuSans-75" x="86.279297"/>
      <use xlink:href="#DejaVuSans-6c" x="149.658203"/>
      <use xlink:href="#DejaVuSans-74" x="177.441406"/>
      <use xlink:href="#DejaVuSans-69" x="216.650391"/>
      <use xlink:href="#DejaVuSans-70" x="244.433594"/>
      <use xlink:href="#DejaVuSans-6c" x="307.910156"/>
      <use xlink:href="#DejaVuSans-65" x="335.693359"/>
      <use xlink:href="#DejaVuSans-20" x="397.216797"/>
      <use xlink:href="#DejaVuSans-43" x="429.003906"/>
      <use xlink:href="#DejaVuSans-61" x="498.828125"/>
      <use xlink:href="#DejaVuSans-75" x="560.107422"/>
      <use xlink:href="#DejaVuSans-73" x="623.486328"/>
      <use xlink:href="#DejaVuSans-65" x="675.585938"/>
      <use xlink:href="#DejaVuSans-20" x="737.109375"/>
      <use xlink:href="#DejaVuSans-6f" x="768.896484"/>
      <use xlink:href="#DejaVuSans-66" x="830.078125"/>
      <use xlink:href="#DejaVuSans-20" x="865.283203"/>
      <use xlink:href="#DejaVuSans-64" x="897.070312"/>
      <use xlink:href="#DejaVuSans-65" x="960.546875"/>
      <use xlink:href="#DejaVuSans-61" x="1022.070312"/>
      <use xlink:href="#DejaVuSans-74" x="1083.349609"/>
      <use xlink:href="#DejaVuSans-68" x="1122.558594"/>
     </g>
    </g>
    <g id="line2d_23">
     <path d="M 49.603125 50.094687 
L 59.603125 50.094687 
L 69.603125 50.094687 
" style="fill: none; stroke: #1f77b4; stroke-width: 1.5; stroke-linecap: square"/>
    </g>
    <g id="text_15">
     <!-- Opium -->
     <g transform="translate(77.603125 53.594687) scale(0.1 -0.1)">
      <use xlink:href="#DejaVuSans-4f"/>
      <use xlink:href="#DejaVuSans-70" x="78.710938"/>
      <use xlink:href="#DejaVuSans-69" x="142.1875"/>
      <use xlink:href="#DejaVuSans-75" x="169.970703"/>
      <use xlink:href="#DejaVuSans-6d" x="233.349609"/>
     </g>
    </g>
    <g id="line2d_24">
     <path d="M 49.603125 64.772812 
L 59.603125 64.772812 
L 69.603125 64.772812 
" style="fill: none; stroke: #ff7f0e; stroke-width: 1.5; stroke-linecap: square"/>
    </g>
    <g id="text_16">
     <!-- Heroin -->
     <g transform="translate(77.603125 68.272812) scale(0.1 -0.1)">
      <defs>
       <path id="DejaVuSans-48" d="M 628 4666 
L 1259 4666 
L 1259 2753 
L 3553 2753 
L 3553 4666 
L 4184 4666 
L 4184 0 
L 3553 0 
L 3553 2222 
L 1259 2222 
L 1259 0 
L 628 0 
L 628 4666 
z
" transform="scale(0.015625)"/>
       <path id="DejaVuSans-6e" d="M 3513 2113 
L 3513 0 
L 2938 0 
L 2938 2094 
Q 2938 2591 2744 2837 
Q 2550 3084 2163 3084 
Q 1697 3084 1428 2787 
Q 1159 2491 1159 1978 
L 1159 0 
L 581 0 
L 581 3500 
L 1159 3500 
L 1159 2956 
Q 1366 3272 1645 3428 
Q 1925 3584 2291 3584 
Q 2894 3584 3203 3211 
Q 3513 2838 3513 2113 
z
" transform="scale(0.015625)"/>
      </defs>
      <use xlink:href="#DejaVuSans-48"/>
      <use xlink:href="#DejaVuSans-65" x="75.195312"/>
      <use xlink:href="#DejaVuSans-72" x="136.71875"/>
      <use xlink:href="#DejaVuSans-6f" x="175.582031"/>
      <use xlink:href="#DejaVuSans-69" x="236.763672"/>
      <use xlink:href="#DejaVuSans-6e" x="264.546875"/>
     </g>
    </g>
    <g id="line2d_25">
     <path d="M 49.603125 79.450937 
L 59.603125 79.450937 
L 69.603125 79.450937 
" style="fill: none; stroke: #2ca02c; stroke-width: 1.5; stroke-linecap: square"/>
    </g>
    <g id="text_17">
     <!-- Other opioids -->
     <g transform="translate(77.603125 82.950937) scale(0.1 -0.1)">
      <use xlink:href="#DejaVuSans-4f"/>
      <use xlink:href="#DejaVuSans-74" x="78.710938"/>
      <use xlink:href="#DejaVuSans-68" x="117.919922"/>
      <use xlink:href="#DejaVuSans-65" x="181.298828"/>
      <use xlink:href="#DejaVuSans-72" x="242.822266"/>
      <use xlink:href="#DejaVuSans-20" x="283.935547"/>
      <use xlink:href="#DejaVuSans-6f" x="315.722656"/>
      <use xlink:href="#DejaVuSans-70" x="376.904297"/>
      <use xlink:href="#DejaVuSans-69" x="440.380859"/>
      <use xlink:href="#DejaVuSans-6f" x="468.164062"/>
      <use xlink:href="#DejaVuSans-69" x="529.345703"/>
      <use xlink:href="#DejaVuSans-64" x="557.128906"/>
      <use xlink:href="#DejaVuSans-73" x="620.605469"/>
     </g>
    </g>
    <g id="line2d_26">
     <path d="M 49.603125 94.129062 
L 59.603125 94.129062 
L 69.603125 94.129062 
" style="fill: none; stroke: #d62728; stroke-width: 1.5; stroke-linecap: square"/>
    </g>
    <g id="text_18">
     <!-- Methadone -->
     <g transform="translate(77.603125 97.629062) scale(0.1 -0.1)">
      <use xlink:href="#DejaVuSans-4d"/>
      <use xlink:href="#DejaVuSans-65" x="86.279297"/>
      <use xlink:href="#DejaVuSans-74" x="147.802734"/>
      <use xlink:href="#DejaVuSans-68" x="187.011719"/>
      <use xlink:href="#DejaVuSans-61" x="250.390625"/>
      <use xlink:href="#DejaVuSans-64" x="311.669922"/>
      <use xlink:href="#DejaVuSans-6f" x="375.146484"/>
      <use xlink:href="#DejaVuSans-6e" x="436.328125"/>
      <use xlink:href="#DejaVuSans-65" x="499.707031"/>
     </g>
    </g>
    <g id="line2d_27">
     <path d="M 49.603125 108.807187 
L 59.603125 108.807187 
L 69.603125 108.807187 
" style="fill: none; stroke: #9467bd; stroke-width: 1.5; stroke-linecap: square"/>
    </g>
    <g id="text_19">
     <!-- Other synthetic narcotics -->
     <g transform="translate(77.603125 112.307187) scale(0.1 -0.1)">
      <defs>
       <path id="DejaVuSans-79" d="M 2059 -325 
Q 1816 -950 1584 -1140 
Q 1353 -1331 966 -1331 
L 506 -1331 
L 506 -850 
L 844 -850 
Q 1081 -850 1212 -737 
Q 1344 -625 1503 -206 
L 1606 56 
L 191 3500 
L 800 3500 
L 1894 763 
L 2988 3500 
L 3597 3500 
L 2059 -325 
z
" transform="scale(0.015625)"/>
       <path id="DejaVuSans-63" d="M 3122 3366 
L 3122 2828 
Q 2878 2963 2633 3030 
Q 2388 3097 2138 3097 
Q 1578 3097 1268 2742 
Q 959 2388 959 1747 
Q 959 1106 1268 751 
Q 1578 397 2138 397 
Q 2388 397 2633 464 
Q 2878 531 3122 666 
L 3122 134 
Q 2881 22 2623 -34 
Q 2366 -91 2075 -91 
Q 1284 -91 818 406 
Q 353 903 353 1747 
Q 353 2603 823 3093 
Q 1294 3584 2113 3584 
Q 2378 3584 2631 3529 
Q 2884 3475 3122 3366 
z
" transform="scale(0.015625)"/>
      </defs>
      <use xlink:href="#DejaVuSans-4f"/>
      <use xlink:href="#DejaVuSans-74" x="78.710938"/>
      <use xlink:href="#DejaVuSans-68" x="117.919922"/>
      <use xlink:href="#DejaVuSans-65" x="181.298828"/>
      <use xlink:href="#DejaVuSans-72" x="242.822266"/>
      <use xlink:href="#DejaVuSans-20" x="283.935547"/>
      <use xlink:href="#DejaVuSans-73" x="315.722656"/>
      <use xlink:href="#DejaVuSans-79" x="367.822266"/>
      <use xlink:href="#DejaVuSans-6e" x="427.001953"/>
      <use xlink:href="#DejaVuSans-74" x="490.380859"/>
      <use xlink:href="#DejaVuSans-68" x="529.589844"/>
      <use xlink:href="#DejaVuSans-65" x="592.96875"/>
      <use xlink:href="#DejaVuSans-74" x="654.492188"/>
      <use xlink:href="#DejaVuSans-69" x="693.701172"/>
      <use xlink:href="#DejaVuSans-63" x="721.484375"/>
      <use xlink:href="#DejaVuSans-20" x="776.464844"/>
      <use xlink:href="#DejaVuSans-6e" x="808.251953"/>
      <use xlink:href="#DejaVuSans-61" x="871.630859"/>
      <use xlink:href="#DejaVuSans-72" x="932.910156"/>
      <use xlink:href="#DejaVuSans-63" x="971.773438"/>
      <use xlink:href="#DejaVuSans-6f" x="1026.753906"/>
      <use xlink:href="#DejaVuSans-74" x="1087.935547"/>
      <use xlink:href="#DejaVuSans-69" x="1127.144531"/>
      <use xlink:href="#DejaVuSans-63" x="1154.927734"/>
      <use xlink:href="#DejaVuSans-73" x="1209.908203"/>
     </g>
    </g>
    <g id="line2d_28">
     <path d="M 49.603125 123.485312 
L 59.603125 123.485312 
L 69.603125 123.485312 
" style="fill: none; stroke: #8c564b; stroke-width: 1.5; stroke-linecap: square"/>
    </g>
    <g id="text_20">
     <!-- Other and unspecified narcotics -->
     <g transform="translate(77.603125 126.985312) scale(0.1 -0.1)">
      <use xlink:href="#DejaVuSans-4f"/>
      <use xlink:href="#DejaVuSans-74" x="78.710938"/>
      <use xlink:href="#DejaVuSans-68" x="117.919922"/>
      <use xlink:href="#DejaVuSans-65" x="181.298828"/>
      <use xlink:href="#DejaVuSans-72" x="242.822266"/>
      <use xlink:href="#DejaVuSans-20" x="283.935547"/>
      <use xlink:href="#DejaVuSans-61" x="315.722656"/>
      <use xlink:href="#DejaVuSans-6e" x="377.001953"/>
      <use xlink:href="#DejaVuSans-64" x="440.380859"/>
      <use xlink:href="#DejaVuSans-20" x="503.857422"/>
      <use xlink:href="#DejaVuSans-75" x="535.644531"/>
      <use xlink:href="#DejaVuSans-6e" x="599.023438"/>
      <use xlink:href="#DejaVuSans-73" x="662.402344"/>
      <use xlink:href="#DejaVuSans-70" x="714.501953"/>
      <use xlink:href="#DejaVuSans-65" x="777.978516"/>
      <use xlink:href="#DejaVuSans-63" x="839.501953"/>
      <use xlink:href="#DejaVuSans-69" x="894.482422"/>
      <use xlink:href="#DejaVuSans-66" x="922.265625"/>
      <use xlink:href="#DejaVuSans-69" x="957.470703"/>
      <use xlink:href="#DejaVuSans-65" x="985.253906"/>
      <use xlink:href="#DejaVuSans-64" x="1046.777344"/>
      <use xlink:href="#DejaVuSans-20" x="1110.253906"/>
      <use xlink:href="#DejaVuSans-6e" x="1142.041016"/>
      <use xlink:href="#DejaVuSans-61" x="1205.419922"/>
      <use xlink:href="#DejaVuSans-72" x="1266.699219"/>
      <use xlink:href="#DejaVuSans-63" x="1305.5625"/>
      <use xlink:href="#DejaVuSans-6f" x="1360.542969"/>
      <use xlink:href="#DejaVuSans-74" x="1421.724609"/>
      <use xlink:href="#DejaVuSans-69" x="1460.933594"/>
      <use xlink:href="#DejaVuSans-63" x="1488.716797"/>
      <use xlink:href="#DejaVuSans-73" x="1543.697266"/>
     </g>
    </g>
   </g>
  </g>
 </g>
 <defs>
  <clipPath id="pbe9afde043">
   <rect x="40.603125" y="22.318125" width="357.12" height="266.112"/>
  </clipPath>
 </defs>
</svg>
