<?xml version="1.0" encoding="utf-8" standalone="no"?>
<!DOCTYPE svg PUBLIC "-//W3C//DTD SVG 1.1//EN"
  "http://www.w3.org/Graphics/SVG/1.1/DTD/svg11.dtd">
<svg xmlns:xlink="http://www.w3.org/1999/xlink" width="404.923125pt" height="341.147585pt" viewBox="0 0 404.923125 341.147585" xmlns="http://www.w3.org/2000/svg" version="1.1">
 <metadata>
  <rdf:RDF xmlns:dc="http://purl.org/dc/elements/1.1/" xmlns:cc="http://creativecommons.org/ns#" xmlns:rdf="http://www.w3.org/1999/02/22-rdf-syntax-ns#">
   <cc:Work>
    <dc:type rdf:resource="http://purl.org/dc/dcmitype/StillImage"/>
    <dc:date>2023-10-19T21:09:05.957690</dc:date>
    <dc:format>image/svg+xml</dc:format>
    <dc:creator>
     <cc:Agent>
      <dc:title>Matplotlib v3.8.0, https://matplotlib.org/</dc:title>
     </cc:Agent>
    </dc:creator>
   </cc:Work>
  </rdf:RDF>
 </metadata>
 <defs>
  <style type="text/css">*{stroke-linejoin: round; stroke-linecap: butt}</style>
 </defs>
 <g id="figure_1">
  <g id="patch_1">
   <path d="M 0 341.147585 
L 404.923125 341.147585 
L 404.923125 0 
L 0 0 
z
" style="fill: #ffffff"/>
  </g>
  <g id="axes_1">
   <g id="patch_2">
    <path d="M 40.603125 288.430125 
L 397.723125 288.430125 
L 397.723125 22.318125 
L 40.603125 22.318125 
z
" style="fill: #ffffff"/>
   </g>
   <g id="PolyCollection_1">
    <path d="M 56.835852 276.33276 
L 56.835852 276.333842 
L 72.295593 276.332765 
L 87.755333 276.333893 
L 103.215073 276.333583 
L 118.674813 276.330449 
L 118.674813 276.246814 
L 118.674813 276.246814 
L 103.215073 276.332796 
L 87.755333 276.333203 
L 72.295593 276.332616 
L 56.835852 276.33276 
z
" clip-path="url(#p3827502f16)" style="fill: #1f77b4; fill-opacity: 0.2; stroke: #1f77b4; stroke-opacity: 0.2"/>
    <path d="M 149.594294 276.331777 
L 149.594294 276.333751 
L 165.054034 276.333835 
L 180.513774 276.334013 
L 180.513774 276.333392 
L 180.513774 276.333392 
L 165.054034 276.333462 
L 149.594294 276.331777 
z
" clip-path="url(#p3827502f16)" style="fill: #1f77b4; fill-opacity: 0.2; stroke: #1f77b4; stroke-opacity: 0.2"/>
    <path d="M 211.433255 276.311328 
L 211.433255 276.329438 
L 226.892995 276.332934 
L 257.812476 276.334125 
L 273.272216 276.334007 
L 273.272216 276.328461 
L 273.272216 276.328461 
L 257.812476 276.333229 
L 226.892995 276.314528 
L 211.433255 276.311328 
z
" clip-path="url(#p3827502f16)" style="fill: #1f77b4; fill-opacity: 0.2; stroke: #1f77b4; stroke-opacity: 0.2"/>
    <path d="M 319.651437 276.332717 
L 319.651437 276.333585 
L 335.111177 276.333234 
L 350.570917 276.333573 
L 366.030657 276.333282 
L 381.490398 276.333352 
L 381.490398 276.201884 
L 381.490398 276.201884 
L 366.030657 276.316214 
L 350.570917 276.333389 
L 335.111177 276.332821 
L 319.651437 276.332717 
z
" clip-path="url(#p3827502f16)" style="fill: #1f77b4; fill-opacity: 0.2; stroke: #1f77b4; stroke-opacity: 0.2"/>
   </g>
   <g id="PolyCollection_2">
    <defs>
     <path id="m8f64a651ed" d="M 56.835852 -76.117038 
L 56.835852 -69.78073 
L 72.295593 -69.691546 
L 87.755333 -69.833409 
L 103.215073 -70.036146 
L 118.674813 -69.64919 
L 134.134554 -69.080193 
L 149.594294 -69.876363 
L 165.054034 -69.935874 
L 180.513774 -70.169294 
L 195.973515 -72.834974 
L 211.433255 -72.962305 
L 226.892995 -72.070434 
L 242.352735 -75.20432 
L 257.812476 -79.596092 
L 273.272216 -88.821527 
L 288.731956 -96.036405 
L 304.191696 -103.356399 
L 319.651437 -118.039328 
L 335.111177 -117.867016 
L 350.570917 -120.648782 
L 366.030657 -117.309968 
L 381.490398 -110.378108 
L 381.490398 -130.232964 
L 381.490398 -130.232964 
L 366.030657 -137.805334 
L 350.570917 -140.733091 
L 335.111177 -141.580669 
L 319.651437 -140.248053 
L 304.191696 -120.15474 
L 288.731956 -110.977672 
L 273.272216 -101.842241 
L 257.812476 -89.409005 
L 242.352735 -82.97785 
L 226.892995 -77.666076 
L 211.433255 -79.525571 
L 195.973515 -79.269015 
L 180.513774 -75.549634 
L 165.054034 -74.255567 
L 149.594294 -75.546587 
L 134.134554 -73.48582 
L 118.674813 -74.030351 
L 103.215073 -75.054915 
L 87.755333 -75.505992 
L 72.295593 -74.965174 
L 56.835852 -76.117038 
z
" style="stroke: #ff7f0e; stroke-opacity: 0.2"/>
    </defs>
    <g clip-path="url(#p3827502f16)">
     <use xlink:href="#m8f64a651ed" x="0" y="341.147585" style="fill: #ff7f0e; fill-opacity: 0.2; stroke: #ff7f0e; stroke-opacity: 0.2"/>
    </g>
   </g>
   <g id="PolyCollection_3">
    <defs>
     <path id="m3b2f35743b" d="M 56.835852 -77.026005 
L 56.835852 -70.903165 
L 72.295593 -71.136645 
L 87.755333 -73.023748 
L 103.215073 -74.73852 
L 118.674813 -75.24661 
L 134.134554 -75.734436 
L 149.594294 -77.040345 
L 165.054034 -79.629803 
L 180.513774 -81.644879 
L 195.973515 -82.303385 
L 211.433255 -83.38493 
L 226.892995 -86.173423 
L 242.352735 -86.643226 
L 257.812476 -85.395577 
L 273.272216 -86.629009 
L 288.731956 -88.276965 
L 304.191696 -88.754809 
L 319.651437 -96.076502 
L 335.111177 -97.159422 
L 350.570917 -92.461534 
L 366.030657 -94.449596 
L 381.490398 -98.779316 
L 381.490398 -110.865299 
L 381.490398 -110.865299 
L 366.030657 -105.255491 
L 350.570917 -103.027592 
L 335.111177 -109.398475 
L 319.651437 -108.291345 
L 304.191696 -99.711989 
L 288.731956 -98.837034 
L 273.272216 -96.672813 
L 257.812476 -94.472966 
L 242.352735 -96.637703 
L 226.892995 -95.915696 
L 211.433255 -92.467394 
L 195.973515 -90.811042 
L 180.513774 -89.837995 
L 165.054034 -87.096199 
L 149.594294 -83.596981 
L 134.134554 -82.155737 
L 118.674813 -81.322286 
L 103.215073 -80.810116 
L 87.755333 -78.787277 
L 72.295593 -75.979596 
L 56.835852 -77.026005 
z
" style="stroke: #2ca02c; stroke-opacity: 0.2"/>
    </defs>
    <g clip-path="url(#p3827502f16)">
     <use xlink:href="#m3b2f35743b" x="0" y="341.147585" style="fill: #2ca02c; fill-opacity: 0.2; stroke: #2ca02c; stroke-opacity: 0.2"/>
    </g>
   </g>
   <g id="PolyCollection_4">
    <defs>
     <path id="m8a5519dfcb" d="M 56.835852 -67.323994 
L 56.835852 -65.459654 
L 72.295593 -66.002053 
L 87.755333 -67.715637 
L 103.215073 -71.330743 
L 118.674813 -73.391927 
L 134.134554 -74.749469 
L 149.594294 -75.68335 
L 165.054034 -77.263232 
L 180.513774 -77.487644 
L 195.973515 -75.842376 
L 211.433255 -75.300923 
L 226.892995 -75.15056 
L 242.352735 -74.961627 
L 257.812476 -73.632613 
L 273.272216 -73.240663 
L 288.731956 -72.963276 
L 304.191696 -72.481584 
L 319.651437 -72.435908 
L 335.111177 -71.778558 
L 350.570917 -71.723613 
L 366.030657 -70.653121 
L 381.490398 -72.900366 
L 381.490398 -77.060439 
L 381.490398 -77.060439 
L 366.030657 -73.964649 
L 350.570917 -75.341701 
L 335.111177 -75.445399 
L 319.651437 -75.936324 
L 304.191696 -76.251632 
L 288.731956 -76.926133 
L 273.272216 -77.442536 
L 257.812476 -78.315232 
L 242.352735 -80.372293 
L 226.892995 -80.463266 
L 211.433255 -80.458483 
L 195.973515 -81.488728 
L 180.513774 -84.319045 
L 165.054034 -83.577672 
L 149.594294 -81.291874 
L 134.134554 -80.355152 
L 118.674813 -77.997202 
L 103.215073 -75.527551 
L 87.755333 -70.812915 
L 72.295593 -68.41022 
L 56.835852 -67.323994 
z
" style="stroke: #d62728; stroke-opacity: 0.2"/>
    </defs>
    <g clip-path="url(#p3827502f16)">
     <use xlink:href="#m8a5519dfcb" x="0" y="341.147585" style="fill: #d62728; fill-opacity: 0.2; stroke: #d62728; stroke-opacity: 0.2"/>
    </g>
   </g>
   <g id="PolyCollection_5">
    <defs>
     <path id="m16bed3859d" d="M 56.835852 -66.03939 
L 56.835852 -64.971388 
L 72.295593 -64.997672 
L 87.755333 -65.335535 
L 103.215073 -66.856053 
L 118.674813 -67.385612 
L 134.134554 -68.751859 
L 149.594294 -68.252103 
L 165.054034 -72.80431 
L 180.513774 -70.020532 
L 195.973515 -70.041645 
L 211.433255 -71.559259 
L 226.892995 -72.062693 
L 242.352735 -70.652769 
L 257.812476 -70.961814 
L 273.272216 -71.935027 
L 288.731956 -77.024883 
L 304.191696 -88.324792 
L 319.651437 -126.872984 
L 335.111177 -154.108811 
L 350.570917 -170.187021 
L 366.030657 -184.383699 
L 381.490398 -251.866534 
L 381.490398 -306.73346 
L 381.490398 -306.73346 
L 366.030657 -222.607727 
L 350.570917 -205.397993 
L 335.111177 -183.768283 
L 319.651437 -149.619232 
L 304.191696 -99.639166 
L 288.731956 -83.117645 
L 273.272216 -75.492131 
L 257.812476 -74.393254 
L 242.352735 -74.057362 
L 226.892995 -76.051533 
L 211.433255 -75.346273 
L 195.973515 -73.284752 
L 180.513774 -73.474252 
L 165.054034 -80.203576 
L 149.594294 -71.149431 
L 134.134554 -72.092874 
L 118.674813 -69.902415 
L 103.215073 -69.092022 
L 87.755333 -66.859022 
L 72.295593 -66.326402 
L 56.835852 -66.03939 
z
" style="stroke: #9467bd; stroke-opacity: 0.2"/>
    </defs>
    <g clip-path="url(#p3827502f16)">
     <use xlink:href="#m16bed3859d" x="0" y="341.147585" style="fill: #9467bd; fill-opacity: 0.2; stroke: #9467bd; stroke-opacity: 0.2"/>
    </g>
   </g>
   <g id="PolyCollection_6">
    <defs>
     <path id="mb6552ee5d3" d="M 56.835852 -92.481685 
L 56.835852 -78.709111 
L 72.295593 -77.83713 
L 87.755333 -77.160328 
L 103.215073 -76.615982 
L 118.674813 -75.839876 
L 134.134554 -72.50307 
L 149.594294 -72.111115 
L 165.054034 -73.652804 
L 180.513774 -71.06931 
L 195.973515 -71.923633 
L 211.433255 -71.022453 
L 226.892995 -69.98344 
L 242.352735 -71.728361 
L 257.812476 -71.296614 
L 273.272216 -70.73862 
L 288.731956 -69.70401 
L 304.191696 -70.410164 
L 319.651437 -70.17474 
L 335.111177 -68.895369 
L 350.570917 -67.074817 
L 366.030657 -66.136992 
L 381.490398 -66.161665 
L 381.490398 -67.987173 
L 381.490398 -67.987173 
L 366.030657 -67.821891 
L 350.570917 -69.246921 
L 335.111177 -71.784167 
L 319.651437 -73.270074 
L 304.191696 -73.733772 
L 288.731956 -73.060486 
L 273.272216 -74.454532 
L 257.812476 -76.40758 
L 242.352735 -76.523882 
L 226.892995 -73.478439 
L 211.433255 -75.774301 
L 195.973515 -77.324785 
L 180.513774 -76.778954 
L 165.054034 -80.750157 
L 149.594294 -79.393381 
L 134.134554 -79.46604 
L 118.674813 -85.361442 
L 103.215073 -87.073477 
L 87.755333 -90.008385 
L 72.295593 -91.810476 
L 56.835852 -92.481685 
z
" style="stroke: #8c564b; stroke-opacity: 0.2"/>
    </defs>
    <g clip-path="url(#p3827502f16)">
     <use xlink:href="#mb6552ee5d3" x="0" y="341.147585" style="fill: #8c564b; fill-opacity: 0.2; stroke: #8c564b; stroke-opacity: 0.2"/>
    </g>
   </g>
   <g id="matplotlib.axis_1">
    <g id="xtick_1">
     <g id="line2d_1">
      <defs>
       <path id="m8e1a27c014" d="M 0 0 
L 0 3.5 
" style="stroke: #000000; stroke-width: 0.8"/>
      </defs>
      <g>
       <use xlink:href="#m8e1a27c014" x="72.295593" y="288.430125" style="stroke: #000000; stroke-width: 0.8"/>
      </g>
     </g>
     <g id="text_1">
      <!-- 2000 -->
      <g transform="translate(65.248832 318.798899) rotate(-45) scale(0.1 -0.1)">
       <defs>
        <path id="DejaVuSans-32" d="M 1228 531 
L 3431 531 
L 3431 0 
L 469 0 
L 469 531 
Q 828 903 1448 1529 
Q 2069 2156 2228 2338 
Q 2531 2678 2651 2914 
Q 2772 3150 2772 3378 
Q 2772 3750 2511 3984 
Q 2250 4219 1831 4219 
Q 1534 4219 1204 4116 
Q 875 4013 500 3803 
L 500 4441 
Q 881 4594 1212 4672 
Q 1544 4750 1819 4750 
Q 2544 4750 2975 4387 
Q 3406 4025 3406 3419 
Q 3406 3131 3298 2873 
Q 3191 2616 2906 2266 
Q 2828 2175 2409 1742 
Q 1991 1309 1228 531 
z
" transform="scale(0.015625)"/>
        <path id="DejaVuSans-30" d="M 2034 4250 
Q 1547 4250 1301 3770 
Q 1056 3291 1056 2328 
Q 1056 1369 1301 889 
Q 1547 409 2034 409 
Q 2525 409 2770 889 
Q 3016 1369 3016 2328 
Q 3016 3291 2770 3770 
Q 2525 4250 2034 4250 
z
M 2034 4750 
Q 2819 4750 3233 4129 
Q 3647 3509 3647 2328 
Q 3647 1150 3233 529 
Q 2819 -91 2034 -91 
Q 1250 -91 836 529 
Q 422 1150 422 2328 
Q 422 3509 836 4129 
Q 1250 4750 2034 4750 
z
" transform="scale(0.015625)"/>
       </defs>
       <use xlink:href="#DejaVuSans-32"/>
       <use xlink:href="#DejaVuSans-30" x="63.623047"/>
       <use xlink:href="#DejaVuSans-30" x="127.246094"/>
       <use xlink:href="#DejaVuSans-30" x="190.869141"/>
      </g>
     </g>
    </g>
    <g id="xtick_2">
     <g id="line2d_2">
      <g>
       <use xlink:href="#m8e1a27c014" x="149.594294" y="288.430125" style="stroke: #000000; stroke-width: 0.8"/>
      </g>
     </g>
     <g id="text_2">
      <!-- 2005 -->
      <g transform="translate(142.547533 318.798899) rotate(-45) scale(0.1 -0.1)">
       <defs>
        <path id="DejaVuSans-35" d="M 691 4666 
L 3169 4666 
L 3169 4134 
L 1269 4134 
L 1269 2991 
Q 1406 3038 1543 3061 
Q 1681 3084 1819 3084 
Q 2600 3084 3056 2656 
Q 3513 2228 3513 1497 
Q 3513 744 3044 326 
Q 2575 -91 1722 -91 
Q 1428 -91 1123 -41 
Q 819 9 494 109 
L 494 744 
Q 775 591 1075 516 
Q 1375 441 1709 441 
Q 2250 441 2565 725 
Q 2881 1009 2881 1497 
Q 2881 1984 2565 2268 
Q 2250 2553 1709 2553 
Q 1456 2553 1204 2497 
Q 953 2441 691 2322 
L 691 4666 
z
" transform="scale(0.015625)"/>
       </defs>
       <use xlink:href="#DejaVuSans-32"/>
       <use xlink:href="#DejaVuSans-30" x="63.623047"/>
       <use xlink:href="#DejaVuSans-30" x="127.246094"/>
       <use xlink:href="#DejaVuSans-35" x="190.869141"/>
      </g>
     </g>
    </g>
    <g id="xtick_3">
     <g id="line2d_3">
      <g>
       <use xlink:href="#m8e1a27c014" x="226.892995" y="288.430125" style="stroke: #000000; stroke-width: 0.8"/>
      </g>
     </g>
     <g id="text_3">
      <!-- 2010 -->
      <g transform="translate(219.846234 318.798899) rotate(-45) scale(0.1 -0.1)">
       <defs>
        <path id="DejaVuSans-31" d="M 794 531 
L 1825 531 
L 1825 4091 
L 703 3866 
L 703 4441 
L 1819 4666 
L 2450 4666 
L 2450 531 
L 3481 531 
L 3481 0 
L 794 0 
L 794 531 
z
" transform="scale(0.015625)"/>
       </defs>
       <use xlink:href="#DejaVuSans-32"/>
       <use xlink:href="#DejaVuSans-30" x="63.623047"/>
       <use xlink:href="#DejaVuSans-31" x="127.246094"/>
       <use xlink:href="#DejaVuSans-30" x="190.869141"/>
      </g>
     </g>
    </g>
    <g id="xtick_4">
     <g id="line2d_4">
      <g>
       <use xlink:href="#m8e1a27c014" x="304.191696" y="288.430125" style="stroke: #000000; stroke-width: 0.8"/>
      </g>
     </g>
     <g id="text_4">
      <!-- 2015 -->
      <g transform="translate(297.144935 318.798899) rotate(-45) scale(0.1 -0.1)">
       <use xlink:href="#DejaVuSans-32"/>
       <use xlink:href="#DejaVuSans-30" x="63.623047"/>
       <use xlink:href="#DejaVuSans-31" x="127.246094"/>
       <use xlink:href="#DejaVuSans-35" x="190.869141"/>
      </g>
     </g>
    </g>
    <g id="xtick_5">
     <g id="line2d_5">
      <g>
       <use xlink:href="#m8e1a27c014" x="381.490398" y="288.430125" style="stroke: #000000; stroke-width: 0.8"/>
      </g>
     </g>
     <g id="text_5">
      <!-- 2020 -->
      <g transform="translate(374.443637 318.798899) rotate(-45) scale(0.1 -0.1)">
       <use xlink:href="#DejaVuSans-32"/>
       <use xlink:href="#DejaVuSans-30" x="63.623047"/>
       <use xlink:href="#DejaVuSans-32" x="127.246094"/>
       <use xlink:href="#DejaVuSans-30" x="190.869141"/>
      </g>
     </g>
    </g>
    <g id="text_6">
     <!-- Year -->
     <g transform="translate(208.575625 331.867898) scale(0.1 -0.1)">
      <defs>
       <path id="DejaVuSans-59" d="M -13 4666 
L 666 4666 
L 1959 2747 
L 3244 4666 
L 3922 4666 
L 2272 2222 
L 2272 0 
L 1638 0 
L 1638 2222 
L -13 4666 
z
" transform="scale(0.015625)"/>
       <path id="DejaVuSans-65" d="M 3597 1894 
L 3597 1613 
L 953 1613 
Q 991 1019 1311 708 
Q 1631 397 2203 397 
Q 2534 397 2845 478 
Q 3156 559 3463 722 
L 3463 178 
Q 3153 47 2828 -22 
Q 2503 -91 2169 -91 
Q 1331 -91 842 396 
Q 353 884 353 1716 
Q 353 2575 817 3079 
Q 1281 3584 2069 3584 
Q 2775 3584 3186 3129 
Q 3597 2675 3597 1894 
z
M 3022 2063 
Q 3016 2534 2758 2815 
Q 2500 3097 2075 3097 
Q 1594 3097 1305 2825 
Q 1016 2553 972 2059 
L 3022 2063 
z
" transform="scale(0.015625)"/>
       <path id="DejaVuSans-61" d="M 2194 1759 
Q 1497 1759 1228 1600 
Q 959 1441 959 1056 
Q 959 750 1161 570 
Q 1363 391 1709 391 
Q 2188 391 2477 730 
Q 2766 1069 2766 1631 
L 2766 1759 
L 2194 1759 
z
M 3341 1997 
L 3341 0 
L 2766 0 
L 2766 531 
Q 2569 213 2275 61 
Q 1981 -91 1556 -91 
Q 1019 -91 701 211 
Q 384 513 384 1019 
Q 384 1609 779 1909 
Q 1175 2209 1959 2209 
L 2766 2209 
L 2766 2266 
Q 2766 2663 2505 2880 
Q 2244 3097 1772 3097 
Q 1472 3097 1187 3025 
Q 903 2953 641 2809 
L 641 3341 
Q 956 3463 1253 3523 
Q 1550 3584 1831 3584 
Q 2591 3584 2966 3190 
Q 3341 2797 3341 1997 
z
" transform="scale(0.015625)"/>
       <path id="DejaVuSans-72" d="M 2631 2963 
Q 2534 3019 2420 3045 
Q 2306 3072 2169 3072 
Q 1681 3072 1420 2755 
Q 1159 2438 1159 1844 
L 1159 0 
L 581 0 
L 581 3500 
L 1159 3500 
L 1159 2956 
Q 1341 3275 1631 3429 
Q 1922 3584 2338 3584 
Q 2397 3584 2469 3576 
Q 2541 3569 2628 3553 
L 2631 2963 
z
" transform="scale(0.015625)"/>
      </defs>
      <use xlink:href="#DejaVuSans-59"/>
      <use xlink:href="#DejaVuSans-65" x="47.833984"/>
      <use xlink:href="#DejaVuSans-61" x="109.357422"/>
      <use xlink:href="#DejaVuSans-72" x="170.636719"/>
     </g>
    </g>
   </g>
   <g id="matplotlib.axis_2">
    <g id="ytick_1">
     <g id="line2d_6">
      <defs>
       <path id="m7cbc500506" d="M 0 0 
L -3.5 0 
" style="stroke: #000000; stroke-width: 0.8"/>
      </defs>
      <g>
       <use xlink:href="#m7cbc500506" x="40.603125" y="276.337925" style="stroke: #000000; stroke-width: 0.8"/>
      </g>
     </g>
     <g id="text_7">
      <!-- 0 -->
      <g transform="translate(27.240625 280.137144) scale(0.1 -0.1)">
       <use xlink:href="#DejaVuSans-30"/>
      </g>
     </g>
    </g>
    <g id="ytick_2">
     <g id="line2d_7">
      <g>
       <use xlink:href="#m7cbc500506" x="40.603125" y="246.278898" style="stroke: #000000; stroke-width: 0.8"/>
      </g>
     </g>
     <g id="text_8">
      <!-- 2 -->
      <g transform="translate(27.240625 250.078116) scale(0.1 -0.1)">
       <use xlink:href="#DejaVuSans-32"/>
      </g>
     </g>
    </g>
    <g id="ytick_3">
     <g id="line2d_8">
      <g>
       <use xlink:href="#m7cbc500506" x="40.603125" y="216.21987" style="stroke: #000000; stroke-width: 0.8"/>
      </g>
     </g>
     <g id="text_9">
      <!-- 4 -->
      <g transform="translate(27.240625 220.019089) scale(0.1 -0.1)">
       <defs>
        <path id="DejaVuSans-34" d="M 2419 4116 
L 825 1625 
L 2419 1625 
L 2419 4116 
z
M 2253 4666 
L 3047 4666 
L 3047 1625 
L 3713 1625 
L 3713 1100 
L 3047 1100 
L 3047 0 
L 2419 0 
L 2419 1100 
L 313 1100 
L 313 1709 
L 2253 4666 
z
" transform="scale(0.015625)"/>
       </defs>
       <use xlink:href="#DejaVuSans-34"/>
      </g>
     </g>
    </g>
    <g id="ytick_4">
     <g id="line2d_9">
      <g>
       <use xlink:href="#m7cbc500506" x="40.603125" y="186.160843" style="stroke: #000000; stroke-width: 0.8"/>
      </g>
     </g>
     <g id="text_10">
      <!-- 6 -->
      <g transform="translate(27.240625 189.960061) scale(0.1 -0.1)">
       <defs>
        <path id="DejaVuSans-36" d="M 2113 2584 
Q 1688 2584 1439 2293 
Q 1191 2003 1191 1497 
Q 1191 994 1439 701 
Q 1688 409 2113 409 
Q 2538 409 2786 701 
Q 3034 994 3034 1497 
Q 3034 2003 2786 2293 
Q 2538 2584 2113 2584 
z
M 3366 4563 
L 3366 3988 
Q 3128 4100 2886 4159 
Q 2644 4219 2406 4219 
Q 1781 4219 1451 3797 
Q 1122 3375 1075 2522 
Q 1259 2794 1537 2939 
Q 1816 3084 2150 3084 
Q 2853 3084 3261 2657 
Q 3669 2231 3669 1497 
Q 3669 778 3244 343 
Q 2819 -91 2113 -91 
Q 1303 -91 875 529 
Q 447 1150 447 2328 
Q 447 3434 972 4092 
Q 1497 4750 2381 4750 
Q 2619 4750 2861 4703 
Q 3103 4656 3366 4563 
z
" transform="scale(0.015625)"/>
       </defs>
       <use xlink:href="#DejaVuSans-36"/>
      </g>
     </g>
    </g>
    <g id="ytick_5">
     <g id="line2d_10">
      <g>
       <use xlink:href="#m7cbc500506" x="40.603125" y="156.101815" style="stroke: #000000; stroke-width: 0.8"/>
      </g>
     </g>
     <g id="text_11">
      <!-- 8 -->
      <g transform="translate(27.240625 159.901034) scale(0.1 -0.1)">
       <defs>
        <path id="DejaVuSans-38" d="M 2034 2216 
Q 1584 2216 1326 1975 
Q 1069 1734 1069 1313 
Q 1069 891 1326 650 
Q 1584 409 2034 409 
Q 2484 409 2743 651 
Q 3003 894 3003 1313 
Q 3003 1734 2745 1975 
Q 2488 2216 2034 2216 
z
M 1403 2484 
Q 997 2584 770 2862 
Q 544 3141 544 3541 
Q 544 4100 942 4425 
Q 1341 4750 2034 4750 
Q 2731 4750 3128 4425 
Q 3525 4100 3525 3541 
Q 3525 3141 3298 2862 
Q 3072 2584 2669 2484 
Q 3125 2378 3379 2068 
Q 3634 1759 3634 1313 
Q 3634 634 3220 271 
Q 2806 -91 2034 -91 
Q 1263 -91 848 271 
Q 434 634 434 1313 
Q 434 1759 690 2068 
Q 947 2378 1403 2484 
z
M 1172 3481 
Q 1172 3119 1398 2916 
Q 1625 2713 2034 2713 
Q 2441 2713 2670 2916 
Q 2900 3119 2900 3481 
Q 2900 3844 2670 4047 
Q 2441 4250 2034 4250 
Q 1625 4250 1398 4047 
Q 1172 3844 1172 3481 
z
" transform="scale(0.015625)"/>
       </defs>
       <use xlink:href="#DejaVuSans-38"/>
      </g>
     </g>
    </g>
    <g id="ytick_6">
     <g id="line2d_11">
      <g>
       <use xlink:href="#m7cbc500506" x="40.603125" y="126.042788" style="stroke: #000000; stroke-width: 0.8"/>
      </g>
     </g>
     <g id="text_12">
      <!-- 10 -->
      <g transform="translate(20.878125 129.842006) scale(0.1 -0.1)">
       <use xlink:href="#DejaVuSans-31"/>
       <use xlink:href="#DejaVuSans-30" x="63.623047"/>
      </g>
     </g>
    </g>
    <g id="ytick_7">
     <g id="line2d_12">
      <g>
       <use xlink:href="#m7cbc500506" x="40.603125" y="95.98376" style="stroke: #000000; stroke-width: 0.8"/>
      </g>
     </g>
     <g id="text_13">
      <!-- 12 -->
      <g transform="translate(20.878125 99.782979) scale(0.1 -0.1)">
       <use xlink:href="#DejaVuSans-31"/>
       <use xlink:href="#DejaVuSans-32" x="63.623047"/>
      </g>
     </g>
    </g>
    <g id="ytick_8">
     <g id="line2d_13">
      <g>
       <use xlink:href="#m7cbc500506" x="40.603125" y="65.924733" style="stroke: #000000; stroke-width: 0.8"/>
      </g>
     </g>
     <g id="text_14">
      <!-- 14 -->
      <g transform="translate(20.878125 69.723952) scale(0.1 -0.1)">
       <use xlink:href="#DejaVuSans-31"/>
       <use xlink:href="#DejaVuSans-34" x="63.623047"/>
      </g>
     </g>
    </g>
    <g id="ytick_9">
     <g id="line2d_14">
      <g>
       <use xlink:href="#m7cbc500506" x="40.603125" y="35.865705" style="stroke: #000000; stroke-width: 0.8"/>
      </g>
     </g>
     <g id="text_15">
      <!-- 16 -->
      <g transform="translate(20.878125 39.664924) scale(0.1 -0.1)">
       <use xlink:href="#DejaVuSans-31"/>
       <use xlink:href="#DejaVuSans-36" x="63.623047"/>
      </g>
     </g>
    </g>
    <g id="text_16">
     <!-- Crude Rate -->
     <g transform="translate(14.798438 183.392094) rotate(-90) scale(0.1 -0.1)">
      <defs>
       <path id="DejaVuSans-43" d="M 4122 4306 
L 4122 3641 
Q 3803 3938 3442 4084 
Q 3081 4231 2675 4231 
Q 1875 4231 1450 3742 
Q 1025 3253 1025 2328 
Q 1025 1406 1450 917 
Q 1875 428 2675 428 
Q 3081 428 3442 575 
Q 3803 722 4122 1019 
L 4122 359 
Q 3791 134 3420 21 
Q 3050 -91 2638 -91 
Q 1578 -91 968 557 
Q 359 1206 359 2328 
Q 359 3453 968 4101 
Q 1578 4750 2638 4750 
Q 3056 4750 3426 4639 
Q 3797 4528 4122 4306 
z
" transform="scale(0.015625)"/>
       <path id="DejaVuSans-75" d="M 544 1381 
L 544 3500 
L 1119 3500 
L 1119 1403 
Q 1119 906 1312 657 
Q 1506 409 1894 409 
Q 2359 409 2629 706 
Q 2900 1003 2900 1516 
L 2900 3500 
L 3475 3500 
L 3475 0 
L 2900 0 
L 2900 538 
Q 2691 219 2414 64 
Q 2138 -91 1772 -91 
Q 1169 -91 856 284 
Q 544 659 544 1381 
z
M 1991 3584 
L 1991 3584 
z
" transform="scale(0.015625)"/>
       <path id="DejaVuSans-64" d="M 2906 2969 
L 2906 4863 
L 3481 4863 
L 3481 0 
L 2906 0 
L 2906 525 
Q 2725 213 2448 61 
Q 2172 -91 1784 -91 
Q 1150 -91 751 415 
Q 353 922 353 1747 
Q 353 2572 751 3078 
Q 1150 3584 1784 3584 
Q 2172 3584 2448 3432 
Q 2725 3281 2906 2969 
z
M 947 1747 
Q 947 1113 1208 752 
Q 1469 391 1925 391 
Q 2381 391 2643 752 
Q 2906 1113 2906 1747 
Q 2906 2381 2643 2742 
Q 2381 3103 1925 3103 
Q 1469 3103 1208 2742 
Q 947 2381 947 1747 
z
" transform="scale(0.015625)"/>
       <path id="DejaVuSans-20" transform="scale(0.015625)"/>
       <path id="DejaVuSans-52" d="M 2841 2188 
Q 3044 2119 3236 1894 
Q 3428 1669 3622 1275 
L 4263 0 
L 3584 0 
L 2988 1197 
Q 2756 1666 2539 1819 
Q 2322 1972 1947 1972 
L 1259 1972 
L 1259 0 
L 628 0 
L 628 4666 
L 2053 4666 
Q 2853 4666 3247 4331 
Q 3641 3997 3641 3322 
Q 3641 2881 3436 2590 
Q 3231 2300 2841 2188 
z
M 1259 4147 
L 1259 2491 
L 2053 2491 
Q 2509 2491 2742 2702 
Q 2975 2913 2975 3322 
Q 2975 3731 2742 3939 
Q 2509 4147 2053 4147 
L 1259 4147 
z
" transform="scale(0.015625)"/>
       <path id="DejaVuSans-74" d="M 1172 4494 
L 1172 3500 
L 2356 3500 
L 2356 3053 
L 1172 3053 
L 1172 1153 
Q 1172 725 1289 603 
Q 1406 481 1766 481 
L 2356 481 
L 2356 0 
L 1766 0 
Q 1100 0 847 248 
Q 594 497 594 1153 
L 594 3053 
L 172 3053 
L 172 3500 
L 594 3500 
L 594 4494 
L 1172 4494 
z
" transform="scale(0.015625)"/>
      </defs>
      <use xlink:href="#DejaVuSans-43"/>
      <use xlink:href="#DejaVuSans-72" x="69.824219"/>
      <use xlink:href="#DejaVuSans-75" x="110.9375"/>
      <use xlink:href="#DejaVuSans-64" x="174.316406"/>
      <use xlink:href="#DejaVuSans-65" x="237.792969"/>
      <use xlink:href="#DejaVuSans-20" x="299.316406"/>
      <use xlink:href="#DejaVuSans-52" x="331.103516"/>
      <use xlink:href="#DejaVuSans-61" x="398.335938"/>
      <use xlink:href="#DejaVuSans-74" x="459.615234"/>
      <use xlink:href="#DejaVuSans-65" x="498.824219"/>
     </g>
    </g>
   </g>
   <g id="line2d_15">
    <path d="M 56.835852 276.33329 
L 72.295593 276.332691 
L 87.755333 276.333532 
L 103.215073 276.33319 
L 118.674813 276.299813 
L 134.134554 276.333651 
L 149.594294 276.332764 
L 165.054034 276.333631 
L 180.513774 276.333671 
L 195.973515 276.332132 
L 211.433255 276.320383 
L 226.892995 276.323731 
L 257.812476 276.333677 
L 273.272216 276.331799 
L 304.191696 276.333084 
L 319.651437 276.333151 
L 335.111177 276.333021 
L 350.570917 276.333464 
L 366.030657 276.327312 
L 381.490398 276.289427 
" clip-path="url(#p3827502f16)" style="fill: none; stroke: #1f77b4; stroke-width: 1.5; stroke-linecap: square"/>
   </g>
   <g id="line2d_16">
    <path d="M 56.835852 268.401682 
L 72.295593 269.099109 
L 87.755333 268.781444 
L 103.215073 268.831066 
L 118.674813 269.418015 
L 134.134554 269.867838 
L 149.594294 268.646515 
L 165.054034 269.18492 
L 180.513774 268.345806 
L 195.973515 265.153734 
L 211.433255 265.065815 
L 226.892995 266.237337 
L 242.352735 262.179659 
L 257.812476 256.722772 
L 273.272216 246.027809 
L 288.731956 237.982029 
L 304.191696 230.095836 
L 319.651437 212.003226 
L 335.111177 211.22657 
L 350.570917 210.561118 
L 366.030657 213.883479 
L 381.490398 220.684819 
" clip-path="url(#p3827502f16)" style="fill: none; stroke: #ff7f0e; stroke-width: 1.5; stroke-linecap: square"/>
   </g>
   <g id="line2d_17">
    <path d="M 56.835852 267.434744 
L 72.295593 267.886348 
L 87.755333 265.371853 
L 103.215073 263.425788 
L 118.674813 262.977356 
L 134.134554 262.286487 
L 149.594294 261.033783 
L 165.054034 258.111516 
L 180.513774 255.4805 
L 195.973515 254.651924 
L 211.433255 253.232079 
L 226.892995 250.548194 
L 242.352735 249.511294 
L 257.812476 251.211133 
L 273.272216 249.709243 
L 288.731956 247.592789 
L 304.191696 246.961118 
L 319.651437 239.15603 
L 335.111177 238.133139 
L 350.570917 243.502848 
L 366.030657 241.282046 
L 381.490398 236.521354 
" clip-path="url(#p3827502f16)" style="fill: none; stroke: #2ca02c; stroke-width: 1.5; stroke-linecap: square"/>
   </g>
   <g id="line2d_18">
    <path d="M 56.835852 274.866838 
L 72.295593 274.082712 
L 87.755333 271.943274 
L 103.215073 267.774033 
L 118.674813 265.562831 
L 134.134554 263.653346 
L 149.594294 262.712315 
L 165.054034 260.690201 
L 180.513774 260.323896 
L 195.973515 262.454405 
L 211.433255 263.307605 
L 226.892995 263.411803 
L 242.352735 263.51424 
L 257.812476 265.195993 
L 273.272216 265.920653 
L 288.731956 266.187923 
L 304.191696 266.757167 
L 319.651437 267.013558 
L 335.111177 267.597937 
L 350.570917 267.746176 
L 366.030657 268.920842 
L 381.490398 266.317715 
" clip-path="url(#p3827502f16)" style="fill: none; stroke: #d62728; stroke-width: 1.5; stroke-linecap: square"/>
   </g>
   <g id="line2d_19">
    <path d="M 56.835852 275.750883 
L 72.295593 275.543623 
L 87.755333 275.124374 
L 103.215073 273.15112 
L 118.674813 272.563596 
L 134.134554 270.739811 
L 149.594294 271.430214 
L 165.054034 264.934023 
L 180.513774 269.415984 
L 195.973515 269.453517 
L 211.433255 267.686352 
L 226.892995 267.129596 
L 242.352735 268.848698 
L 257.812476 268.536807 
L 273.272216 267.535591 
L 288.731956 260.971957 
L 304.191696 247.123961 
L 319.651437 203.199715 
L 335.111177 171.94689 
L 350.570917 153.81213 
L 366.030657 138.021727 
L 381.490398 62.139339 
" clip-path="url(#p3827502f16)" style="fill: none; stroke: #9467bd; stroke-width: 1.5; stroke-linecap: square"/>
   </g>
   <g id="line2d_20">
    <path d="M 56.835852 255.93133 
L 72.295593 256.552157 
L 87.755333 257.917958 
L 103.215073 259.683329 
L 118.674813 260.726525 
L 134.134554 265.588445 
L 149.594294 265.738241 
L 165.054034 264.34331 
L 180.513774 267.40279 
L 195.973515 266.627682 
L 211.433255 267.973686 
L 226.892995 269.433361 
L 242.352735 267.118295 
L 257.812476 267.359712 
L 273.272216 268.668017 
L 288.731956 269.829466 
L 304.191696 269.18496 
L 319.651437 269.48928 
L 335.111177 270.811941 
L 350.570917 272.999213 
L 366.030657 274.211851 
L 381.490398 274.116358 
" clip-path="url(#p3827502f16)" style="fill: none; stroke: #8c564b; stroke-width: 1.5; stroke-linecap: square"/>
   </g>
   <g id="line2d_21"/>
   <g id="line2d_22"/>
   <g id="line2d_23"/>
   <g id="line2d_24"/>
   <g id="line2d_25"/>
   <g id="line2d_26"/>
   <g id="patch_3">
    <path d="M 40.603125 288.430125 
L 40.603125 22.318125 
" style="fill: none; stroke: #000000; stroke-width: 0.8; stroke-linejoin: miter; stroke-linecap: square"/>
   </g>
   <g id="patch_4">
    <path d="M 397.723125 288.430125 
L 397.723125 22.318125 
" style="fill: none; stroke: #000000; stroke-width: 0.8; stroke-linejoin: miter; stroke-linecap: square"/>
   </g>
   <g id="patch_5">
    <path d="M 40.603125 288.430125 
L 397.723125 288.430125 
" style="fill: none; stroke: #000000; stroke-width: 0.8; stroke-linejoin: miter; stroke-linecap: square"/>
   </g>
   <g id="patch_6">
    <path d="M 40.603125 22.318125 
L 397.723125 22.318125 
" style="fill: none; stroke: #000000; stroke-width: 0.8; stroke-linejoin: miter; stroke-linecap: square"/>
   </g>
   <g id="text_17">
    <!-- Multiple COD Over Time -->
    <g transform="translate(146.963437 16.318125) scale(0.12 -0.12)">
     <defs>
      <path id="DejaVuSans-4d" d="M 628 4666 
L 1569 4666 
L 2759 1491 
L 3956 4666 
L 4897 4666 
L 4897 0 
L 4281 0 
L 4281 4097 
L 3078 897 
L 2444 897 
L 1241 4097 
L 1241 0 
L 628 0 
L 628 4666 
z
" transform="scale(0.015625)"/>
      <path id="DejaVuSans-6c" d="M 603 4863 
L 1178 4863 
L 1178 0 
L 603 0 
L 603 4863 
z
" transform="scale(0.015625)"/>
      <path id="DejaVuSans-69" d="M 603 3500 
L 1178 3500 
L 1178 0 
L 603 0 
L 603 3500 
z
M 603 4863 
L 1178 4863 
L 1178 4134 
L 603 4134 
L 603 4863 
z
" transform="scale(0.015625)"/>
      <path id="DejaVuSans-70" d="M 1159 525 
L 1159 -1331 
L 581 -1331 
L 581 3500 
L 1159 3500 
L 1159 2969 
Q 1341 3281 1617 3432 
Q 1894 3584 2278 3584 
Q 2916 3584 3314 3078 
Q 3713 2572 3713 1747 
Q 3713 922 3314 415 
Q 2916 -91 2278 -91 
Q 1894 -91 1617 61 
Q 1341 213 1159 525 
z
M 3116 1747 
Q 3116 2381 2855 2742 
Q 2594 3103 2138 3103 
Q 1681 3103 1420 2742 
Q 1159 2381 1159 1747 
Q 1159 1113 1420 752 
Q 1681 391 2138 391 
Q 2594 391 2855 752 
Q 3116 1113 3116 1747 
z
" transform="scale(0.015625)"/>
      <path id="DejaVuSans-4f" d="M 2522 4238 
Q 1834 4238 1429 3725 
Q 1025 3213 1025 2328 
Q 1025 1447 1429 934 
Q 1834 422 2522 422 
Q 3209 422 3611 934 
Q 4013 1447 4013 2328 
Q 4013 3213 3611 3725 
Q 3209 4238 2522 4238 
z
M 2522 4750 
Q 3503 4750 4090 4092 
Q 4678 3434 4678 2328 
Q 4678 1225 4090 567 
Q 3503 -91 2522 -91 
Q 1538 -91 948 565 
Q 359 1222 359 2328 
Q 359 3434 948 4092 
Q 1538 4750 2522 4750 
z
" transform="scale(0.015625)"/>
      <path id="DejaVuSans-44" d="M 1259 4147 
L 1259 519 
L 2022 519 
Q 2988 519 3436 956 
Q 3884 1394 3884 2338 
Q 3884 3275 3436 3711 
Q 2988 4147 2022 4147 
L 1259 4147 
z
M 628 4666 
L 1925 4666 
Q 3281 4666 3915 4102 
Q 4550 3538 4550 2338 
Q 4550 1131 3912 565 
Q 3275 0 1925 0 
L 628 0 
L 628 4666 
z
" transform="scale(0.015625)"/>
      <path id="DejaVuSans-76" d="M 191 3500 
L 800 3500 
L 1894 563 
L 2988 3500 
L 3597 3500 
L 2284 0 
L 1503 0 
L 191 3500 
z
" transform="scale(0.015625)"/>
      <path id="DejaVuSans-54" d="M -19 4666 
L 3928 4666 
L 3928 4134 
L 2272 4134 
L 2272 0 
L 1638 0 
L 1638 4134 
L -19 4134 
L -19 4666 
z
" transform="scale(0.015625)"/>
      <path id="DejaVuSans-6d" d="M 3328 2828 
Q 3544 3216 3844 3400 
Q 4144 3584 4550 3584 
Q 5097 3584 5394 3201 
Q 5691 2819 5691 2113 
L 5691 0 
L 5113 0 
L 5113 2094 
Q 5113 2597 4934 2840 
Q 4756 3084 4391 3084 
Q 3944 3084 3684 2787 
Q 3425 2491 3425 1978 
L 3425 0 
L 2847 0 
L 2847 2094 
Q 2847 2600 2669 2842 
Q 2491 3084 2119 3084 
Q 1678 3084 1418 2786 
Q 1159 2488 1159 1978 
L 1159 0 
L 581 0 
L 581 3500 
L 1159 3500 
L 1159 2956 
Q 1356 3278 1631 3431 
Q 1906 3584 2284 3584 
Q 2666 3584 2933 3390 
Q 3200 3197 3328 2828 
z
" transform="scale(0.015625)"/>
     </defs>
     <use xlink:href="#DejaVuSans-4d"/>
     <use xlink:href="#DejaVuSans-75" x="86.279297"/>
     <use xlink:href="#DejaVuSans-6c" x="149.658203"/>
     <use xlink:href="#DejaVuSans-74" x="177.441406"/>
     <use xlink:href="#DejaVuSans-69" x="216.650391"/>
     <use xlink:href="#DejaVuSans-70" x="244.433594"/>
     <use xlink:href="#DejaVuSans-6c" x="307.910156"/>
     <use xlink:href="#DejaVuSans-65" x="335.693359"/>
     <use xlink:href="#DejaVuSans-20" x="397.216797"/>
     <use xlink:href="#DejaVuSans-43" x="429.003906"/>
     <use xlink:href="#DejaVuSans-4f" x="498.828125"/>
     <use xlink:href="#DejaVuSans-44" x="577.539062"/>
     <use xlink:href="#DejaVuSans-20" x="654.541016"/>
     <use xlink:href="#DejaVuSans-4f" x="686.328125"/>
     <use xlink:href="#DejaVuSans-76" x="765.039062"/>
     <use xlink:href="#DejaVuSans-65" x="824.21875"/>
     <use xlink:href="#DejaVuSans-72" x="885.742188"/>
     <use xlink:href="#DejaVuSans-20" x="926.855469"/>
     <use xlink:href="#DejaVuSans-54" x="958.642578"/>
     <use xlink:href="#DejaVuSans-69" x="1016.601562"/>
     <use xlink:href="#DejaVuSans-6d" x="1044.384766"/>
     <use xlink:href="#DejaVuSans-65" x="1141.796875"/>
    </g>
   </g>
   <g id="legend_1">
    <g id="patch_7">
     <path d="M 47.603125 133.065 
L 239.182813 133.065 
Q 241.182813 133.065 241.182813 131.065 
L 241.182813 29.318125 
Q 241.182813 27.318125 239.182813 27.318125 
L 47.603125 27.318125 
Q 45.603125 27.318125 45.603125 29.318125 
L 45.603125 131.065 
Q 45.603125 133.065 47.603125 133.065 
z
" style="fill: #ffffff; opacity: 0.8; stroke: #cccccc; stroke-linejoin: miter"/>
    </g>
    <g id="text_18">
     <!-- Multiple Cause of death -->
     <g transform="translate(84.096094 38.916562) scale(0.1 -0.1)">
      <defs>
       <path id="DejaVuSans-73" d="M 2834 3397 
L 2834 2853 
Q 2591 2978 2328 3040 
Q 2066 3103 1784 3103 
Q 1356 3103 1142 2972 
Q 928 2841 928 2578 
Q 928 2378 1081 2264 
Q 1234 2150 1697 2047 
L 1894 2003 
Q 2506 1872 2764 1633 
Q 3022 1394 3022 966 
Q 3022 478 2636 193 
Q 2250 -91 1575 -91 
Q 1294 -91 989 -36 
Q 684 19 347 128 
L 347 722 
Q 666 556 975 473 
Q 1284 391 1588 391 
Q 1994 391 2212 530 
Q 2431 669 2431 922 
Q 2431 1156 2273 1281 
Q 2116 1406 1581 1522 
L 1381 1569 
Q 847 1681 609 1914 
Q 372 2147 372 2553 
Q 372 3047 722 3315 
Q 1072 3584 1716 3584 
Q 2034 3584 2315 3537 
Q 2597 3491 2834 3397 
z
" transform="scale(0.015625)"/>
       <path id="DejaVuSans-6f" d="M 1959 3097 
Q 1497 3097 1228 2736 
Q 959 2375 959 1747 
Q 959 1119 1226 758 
Q 1494 397 1959 397 
Q 2419 397 2687 759 
Q 2956 1122 2956 1747 
Q 2956 2369 2687 2733 
Q 2419 3097 1959 3097 
z
M 1959 3584 
Q 2709 3584 3137 3096 
Q 3566 2609 3566 1747 
Q 3566 888 3137 398 
Q 2709 -91 1959 -91 
Q 1206 -91 779 398 
Q 353 888 353 1747 
Q 353 2609 779 3096 
Q 1206 3584 1959 3584 
z
" transform="scale(0.015625)"/>
       <path id="DejaVuSans-66" d="M 2375 4863 
L 2375 4384 
L 1825 4384 
Q 1516 4384 1395 4259 
Q 1275 4134 1275 3809 
L 1275 3500 
L 2222 3500 
L 2222 3053 
L 1275 3053 
L 1275 0 
L 697 0 
L 697 3053 
L 147 3053 
L 147 3500 
L 697 3500 
L 697 3744 
Q 697 4328 969 4595 
Q 1241 4863 1831 4863 
L 2375 4863 
z
" transform="scale(0.015625)"/>
       <path id="DejaVuSans-68" d="M 3513 2113 
L 3513 0 
L 2938 0 
L 2938 2094 
Q 2938 2591 2744 2837 
Q 2550 3084 2163 3084 
Q 1697 3084 1428 2787 
Q 1159 2491 1159 1978 
L 1159 0 
L 581 0 
L 581 4863 
L 1159 4863 
L 1159 2956 
Q 1366 3272 1645 3428 
Q 1925 3584 2291 3584 
Q 2894 3584 3203 3211 
Q 3513 2838 3513 2113 
z
" transform="scale(0.015625)"/>
      </defs>
      <use xlink:href="#DejaVuSans-4d"/>
      <use xlink:href="#DejaVuSans-75" x="86.279297"/>
      <use xlink:href="#DejaVuSans-6c" x="149.658203"/>
      <use xlink:href="#DejaVuSans-74" x="177.441406"/>
      <use xlink:href="#DejaVuSans-69" x="216.650391"/>
      <use xlink:href="#DejaVuSans-70" x="244.433594"/>
      <use xlink:href="#DejaVuSans-6c" x="307.910156"/>
      <use xlink:href="#DejaVuSans-65" x="335.693359"/>
      <use xlink:href="#DejaVuSans-20" x="397.216797"/>
      <use xlink:href="#DejaVuSans-43" x="429.003906"/>
      <use xlink:href="#DejaVuSans-61" x="498.828125"/>
      <use xlink:href="#DejaVuSans-75" x="560.107422"/>
      <use xlink:href="#DejaVuSans-73" x="623.486328"/>
      <use xlink:href="#DejaVuSans-65" x="675.585938"/>
      <use xlink:href="#DejaVuSans-20" x="737.109375"/>
      <use xlink:href="#DejaVuSans-6f" x="768.896484"/>
      <use xlink:href="#DejaVuSans-66" x="830.078125"/>
      <use xlink:href="#DejaVuSans-20" x="865.283203"/>
      <use xlink:href="#DejaVuSans-64" x="897.070312"/>
      <use xlink:href="#DejaVuSans-65" x="960.546875"/>
      <use xlink:href="#DejaVuSans-61" x="1022.070312"/>
      <use xlink:href="#DejaVuSans-74" x="1083.349609"/>
      <use xlink:href="#DejaVuSans-68" x="1122.558594"/>
     </g>
    </g>
    <g id="line2d_27">
     <path d="M 49.603125 50.094687 
L 59.603125 50.094687 
L 69.603125 50.094687 
" style="fill: none; stroke: #1f77b4; stroke-width: 1.5; stroke-linecap: square"/>
    </g>
    <g id="text_19">
     <!-- Opium -->
     <g transform="translate(77.603125 53.594687) scale(0.1 -0.1)">
      <use xlink:href="#DejaVuSans-4f"/>
      <use xlink:href="#DejaVuSans-70" x="78.710938"/>
      <use xlink:href="#DejaVuSans-69" x="142.1875"/>
      <use xlink:href="#DejaVuSans-75" x="169.970703"/>
      <use xlink:href="#DejaVuSans-6d" x="233.349609"/>
     </g>
    </g>
    <g id="line2d_28">
     <path d="M 49.603125 64.772812 
L 59.603125 64.772812 
L 69.603125 64.772812 
" style="fill: none; stroke: #ff7f0e; stroke-width: 1.5; stroke-linecap: square"/>
    </g>
    <g id="text_20">
     <!-- Heroin -->
     <g transform="translate(77.603125 68.272812) scale(0.1 -0.1)">
      <defs>
       <path id="DejaVuSans-48" d="M 628 4666 
L 1259 4666 
L 1259 2753 
L 3553 2753 
L 3553 4666 
L 4184 4666 
L 4184 0 
L 3553 0 
L 3553 2222 
L 1259 2222 
L 1259 0 
L 628 0 
L 628 4666 
z
" transform="scale(0.015625)"/>
       <path id="DejaVuSans-6e" d="M 3513 2113 
L 3513 0 
L 2938 0 
L 2938 2094 
Q 2938 2591 2744 2837 
Q 2550 3084 2163 3084 
Q 1697 3084 1428 2787 
Q 1159 2491 1159 1978 
L 1159 0 
L 581 0 
L 581 3500 
L 1159 3500 
L 1159 2956 
Q 1366 3272 1645 3428 
Q 1925 3584 2291 3584 
Q 2894 3584 3203 3211 
Q 3513 2838 3513 2113 
z
" transform="scale(0.015625)"/>
      </defs>
      <use xlink:href="#DejaVuSans-48"/>
      <use xlink:href="#DejaVuSans-65" x="75.195312"/>
      <use xlink:href="#DejaVuSans-72" x="136.71875"/>
      <use xlink:href="#DejaVuSans-6f" x="175.582031"/>
      <use xlink:href="#DejaVuSans-69" x="236.763672"/>
      <use xlink:href="#DejaVuSans-6e" x="264.546875"/>
     </g>
    </g>
    <g id="line2d_29">
     <path d="M 49.603125 79.450937 
L 59.603125 79.450937 
L 69.603125 79.450937 
" style="fill: none; stroke: #2ca02c; stroke-width: 1.5; stroke-linecap: square"/>
    </g>
    <g id="text_21">
     <!-- Other opioids -->
     <g transform="translate(77.603125 82.950937) scale(0.1 -0.1)">
      <use xlink:href="#DejaVuSans-4f"/>
      <use xlink:href="#DejaVuSans-74" x="78.710938"/>
      <use xlink:href="#DejaVuSans-68" x="117.919922"/>
      <use xlink:href="#DejaVuSans-65" x="181.298828"/>
      <use xlink:href="#DejaVuSans-72" x="242.822266"/>
      <use xlink:href="#DejaVuSans-20" x="283.935547"/>
      <use xlink:href="#DejaVuSans-6f" x="315.722656"/>
      <use xlink:href="#DejaVuSans-70" x="376.904297"/>
      <use xlink:href="#DejaVuSans-69" x="440.380859"/>
      <use xlink:href="#DejaVuSans-6f" x="468.164062"/>
      <use xlink:href="#DejaVuSans-69" x="529.345703"/>
      <use xlink:href="#DejaVuSans-64" x="557.128906"/>
      <use xlink:href="#DejaVuSans-73" x="620.605469"/>
     </g>
    </g>
    <g id="line2d_30">
     <path d="M 49.603125 94.129062 
L 59.603125 94.129062 
L 69.603125 94.129062 
" style="fill: none; stroke: #d62728; stroke-width: 1.5; stroke-linecap: square"/>
    </g>
    <g id="text_22">
     <!-- Methadone -->
     <g transform="translate(77.603125 97.629062) scale(0.1 -0.1)">
      <use xlink:href="#DejaVuSans-4d"/>
      <use xlink:href="#DejaVuSans-65" x="86.279297"/>
      <use xlink:href="#DejaVuSans-74" x="147.802734"/>
      <use xlink:href="#DejaVuSans-68" x="187.011719"/>
      <use xlink:href="#DejaVuSans-61" x="250.390625"/>
      <use xlink:href="#DejaVuSans-64" x="311.669922"/>
      <use xlink:href="#DejaVuSans-6f" x="375.146484"/>
      <use xlink:href="#DejaVuSans-6e" x="436.328125"/>
      <use xlink:href="#DejaVuSans-65" x="499.707031"/>
     </g>
    </g>
    <g id="line2d_31">
     <path d="M 49.603125 108.807187 
L 59.603125 108.807187 
L 69.603125 108.807187 
" style="fill: none; stroke: #9467bd; stroke-width: 1.5; stroke-linecap: square"/>
    </g>
    <g id="text_23">
     <!-- Other synthetic narcotics -->
     <g transform="translate(77.603125 112.307187) scale(0.1 -0.1)">
      <defs>
       <path id="DejaVuSans-79" d="M 2059 -325 
Q 1816 -950 1584 -1140 
Q 1353 -1331 966 -1331 
L 506 -1331 
L 506 -850 
L 844 -850 
Q 1081 -850 1212 -737 
Q 1344 -625 1503 -206 
L 1606 56 
L 191 3500 
L 800 3500 
L 1894 763 
L 2988 3500 
L 3597 3500 
L 2059 -325 
z
" transform="scale(0.015625)"/>
       <path id="DejaVuSans-63" d="M 3122 3366 
L 3122 2828 
Q 2878 2963 2633 3030 
Q 2388 3097 2138 3097 
Q 1578 3097 1268 2742 
Q 959 2388 959 1747 
Q 959 1106 1268 751 
Q 1578 397 2138 397 
Q 2388 397 2633 464 
Q 2878 531 3122 666 
L 3122 134 
Q 2881 22 2623 -34 
Q 2366 -91 2075 -91 
Q 1284 -91 818 406 
Q 353 903 353 1747 
Q 353 2603 823 3093 
Q 1294 3584 2113 3584 
Q 2378 3584 2631 3529 
Q 2884 3475 3122 3366 
z
" transform="scale(0.015625)"/>
      </defs>
      <use xlink:href="#DejaVuSans-4f"/>
      <use xlink:href="#DejaVuSans-74" x="78.710938"/>
      <use xlink:href="#DejaVuSans-68" x="117.919922"/>
      <use xlink:href="#DejaVuSans-65" x="181.298828"/>
      <use xlink:href="#DejaVuSans-72" x="242.822266"/>
      <use xlink:href="#DejaVuSans-20" x="283.935547"/>
      <use xlink:href="#DejaVuSans-73" x="315.722656"/>
      <use xlink:href="#DejaVuSans-79" x="367.822266"/>
      <use xlink:href="#DejaVuSans-6e" x="427.001953"/>
      <use xlink:href="#DejaVuSans-74" x="490.380859"/>
      <use xlink:href="#DejaVuSans-68" x="529.589844"/>
      <use xlink:href="#DejaVuSans-65" x="592.96875"/>
      <use xlink:href="#DejaVuSans-74" x="654.492188"/>
      <use xlink:href="#DejaVuSans-69" x="693.701172"/>
      <use xlink:href="#DejaVuSans-63" x="721.484375"/>
      <use xlink:href="#DejaVuSans-20" x="776.464844"/>
      <use xlink:href="#DejaVuSans-6e" x="808.251953"/>
      <use xlink:href="#DejaVuSans-61" x="871.630859"/>
      <use xlink:href="#DejaVuSans-72" x="932.910156"/>
      <use xlink:href="#DejaVuSans-63" x="971.773438"/>
      <use xlink:href="#DejaVuSans-6f" x="1026.753906"/>
      <use xlink:href="#DejaVuSans-74" x="1087.935547"/>
      <use xlink:href="#DejaVuSans-69" x="1127.144531"/>
      <use xlink:href="#DejaVuSans-63" x="1154.927734"/>
      <use xlink:href="#DejaVuSans-73" x="1209.908203"/>
     </g>
    </g>
    <g id="line2d_32">
     <path d="M 49.603125 123.485312 
L 59.603125 123.485312 
L 69.603125 123.485312 
" style="fill: none; stroke: #8c564b; stroke-width: 1.5; stroke-linecap: square"/>
    </g>
    <g id="text_24">
     <!-- Other and unspecified narcotics -->
     <g transform="translate(77.603125 126.985312) scale(0.1 -0.1)">
      <use xlink:href="#DejaVuSans-4f"/>
      <use xlink:href="#DejaVuSans-74" x="78.710938"/>
      <use xlink:href="#DejaVuSans-68" x="117.919922"/>
      <use xlink:href="#DejaVuSans-65" x="181.298828"/>
      <use xlink:href="#DejaVuSans-72" x="242.822266"/>
      <use xlink:href="#DejaVuSans-20" x="283.935547"/>
      <use xlink:href="#DejaVuSans-61" x="315.722656"/>
      <use xlink:href="#DejaVuSans-6e" x="377.001953"/>
      <use xlink:href="#DejaVuSans-64" x="440.380859"/>
      <use xlink:href="#DejaVuSans-20" x="503.857422"/>
      <use xlink:href="#DejaVuSans-75" x="535.644531"/>
      <use xlink:href="#DejaVuSans-6e" x="599.023438"/>
      <use xlink:href="#DejaVuSans-73" x="662.402344"/>
      <use xlink:href="#DejaVuSans-70" x="714.501953"/>
      <use xlink:href="#DejaVuSans-65" x="777.978516"/>
      <use xlink:href="#DejaVuSans-63" x="839.501953"/>
      <use xlink:href="#DejaVuSans-69" x="894.482422"/>
      <use xlink:href="#DejaVuSans-66" x="922.265625"/>
      <use xlink:href="#DejaVuSans-69" x="957.470703"/>
      <use xlink:href="#DejaVuSans-65" x="985.253906"/>
      <use xlink:href="#DejaVuSans-64" x="1046.777344"/>
      <use xlink:href="#DejaVuSans-20" x="1110.253906"/>
      <use xlink:href="#DejaVuSans-6e" x="1142.041016"/>
      <use xlink:href="#DejaVuSans-61" x="1205.419922"/>
      <use xlink:href="#DejaVuSans-72" x="1266.699219"/>
      <use xlink:href="#DejaVuSans-63" x="1305.5625"/>
      <use xlink:href="#DejaVuSans-6f" x="1360.542969"/>
      <use xlink:href="#DejaVuSans-74" x="1421.724609"/>
      <use xlink:href="#DejaVuSans-69" x="1460.933594"/>
      <use xlink:href="#DejaVuSans-63" x="1488.716797"/>
      <use xlink:href="#DejaVuSans-73" x="1543.697266"/>
     </g>
    </g>
   </g>
  </g>
 </g>
 <defs>
  <clipPath id="p3827502f16">
   <rect x="40.603125" y="22.318125" width="357.12" height="266.112"/>
  </clipPath>
 </defs>
</svg>
