<?xml version="1.0" encoding="utf-8" standalone="no"?>
<!DOCTYPE svg PUBLIC "-//W3C//DTD SVG 1.1//EN"
  "http://www.w3.org/Graphics/SVG/1.1/DTD/svg11.dtd">
<svg xmlns:xlink="http://www.w3.org/1999/xlink" width="404.923125pt" height="341.147585pt" viewBox="0 0 404.923125 341.147585" xmlns="http://www.w3.org/2000/svg" version="1.1">
 <metadata>
  <rdf:RDF xmlns:dc="http://purl.org/dc/elements/1.1/" xmlns:cc="http://creativecommons.org/ns#" xmlns:rdf="http://www.w3.org/1999/02/22-rdf-syntax-ns#">
   <cc:Work>
    <dc:type rdf:resource="http://purl.org/dc/dcmitype/StillImage"/>
    <dc:date>2023-10-20T07:57:45.587428</dc:date>
    <dc:format>image/svg+xml</dc:format>
    <dc:creator>
     <cc:Agent>
      <dc:title>Matplotlib v3.8.0, https://matplotlib.org/</dc:title>
     </cc:Agent>
    </dc:creator>
   </cc:Work>
  </rdf:RDF>
 </metadata>
 <defs>
  <style type="text/css">*{stroke-linejoin: round; stroke-linecap: butt}</style>
 </defs>
 <g id="figure_1">
  <g id="patch_1">
   <path d="M 0 341.147585 
L 404.923125 341.147585 
L 404.923125 0 
L 0 0 
z
" style="fill: #ffffff"/>
  </g>
  <g id="axes_1">
   <g id="patch_2">
    <path d="M 40.603125 288.430125 
L 397.723125 288.430125 
L 397.723125 22.318125 
L 40.603125 22.318125 
z
" style="fill: #ffffff"/>
   </g>
   <g id="PolyCollection_1">
    <path d="M 56.835852 274.868901 
L 56.835852 276.11301 
L 72.295593 275.271462 
L 87.755333 276.138556 
L 103.215073 275.910631 
L 118.674813 273.163753 
L 118.674813 210.01104 
L 118.674813 210.01104 
L 103.215073 275.295469 
L 87.755333 275.625996 
L 72.295593 275.155193 
L 56.835852 274.868901 
z
" clip-path="url(#p0606d41744)" style="fill: #1f77b4; fill-opacity: 0.2; stroke: #1f77b4; stroke-opacity: 0.2"/>
    <path d="M 149.594294 274.499399 
L 149.594294 276.041465 
L 165.054034 276.107856 
L 180.513774 276.246237 
L 180.513774 275.761119 
L 180.513774 275.761119 
L 165.054034 275.849489 
L 149.594294 274.499399 
z
" clip-path="url(#p0606d41744)" style="fill: #1f77b4; fill-opacity: 0.2; stroke: #1f77b4; stroke-opacity: 0.2"/>
    <path d="M 211.433255 258.517604 
L 211.433255 272.671268 
L 226.892995 275.403498 
L 257.812476 276.334125 
L 273.272216 276.182648 
L 273.272216 271.907933 
L 273.272216 271.907933 
L 257.812476 275.63421 
L 226.892995 261.019003 
L 211.433255 258.517604 
z
" clip-path="url(#p0606d41744)" style="fill: #1f77b4; fill-opacity: 0.2; stroke: #1f77b4; stroke-opacity: 0.2"/>
    <path d="M 319.651437 275.234138 
L 319.651437 275.911876 
L 335.111177 275.626551 
L 350.570917 275.902798 
L 366.030657 275.675542 
L 381.490398 275.729975 
L 381.490398 172.985758 
L 381.490398 172.985758 
L 366.030657 262.336325 
L 350.570917 275.759048 
L 335.111177 275.310281 
L 319.651437 275.234138 
z
" clip-path="url(#p0606d41744)" style="fill: #1f77b4; fill-opacity: 0.2; stroke: #1f77b4; stroke-opacity: 0.2"/>
   </g>
   <g id="PolyCollection_2">
    <defs>
     <path id="m1eff3bc4dc" d="M 56.835852 -127.619366 
L 56.835852 -101.252388 
L 72.295593 -103.224714 
L 87.755333 -89.019729 
L 103.215073 -92.404994 
L 118.674813 -96.617417 
L 134.134554 -101.010362 
L 149.594294 -98.749073 
L 165.054034 -92.063719 
L 180.513774 -102.729279 
L 195.973515 -100.5569 
L 211.433255 -107.752173 
L 226.892995 -103.356158 
L 242.352735 -117.222245 
L 257.812476 -117.877576 
L 273.272216 -130.11079 
L 288.731956 -139.262606 
L 304.191696 -148.057181 
L 319.651437 -161.821897 
L 335.111177 -165.058018 
L 350.570917 -158.780696 
L 366.030657 -154.948638 
L 381.490398 -155.589849 
L 381.490398 -179.246869 
L 381.490398 -179.246869 
L 366.030657 -175.110389 
L 350.570917 -178.489543 
L 335.111177 -184.082019 
L 319.651437 -183.506239 
L 304.191696 -166.703023 
L 288.731956 -159.064034 
L 273.272216 -148.751736 
L 257.812476 -140.412747 
L 242.352735 -140.207884 
L 226.892995 -123.760913 
L 211.433255 -130.607406 
L 195.973515 -122.791435 
L 180.513774 -126.736509 
L 165.054034 -111.272149 
L 149.594294 -121.143755 
L 134.134554 -127.146767 
L 118.674813 -122.732209 
L 103.215073 -118.627893 
L 87.755333 -106.514059 
L 72.295593 -140.207727 
L 56.835852 -127.619366 
z
" style="stroke: #ff7f0e; stroke-opacity: 0.2"/>
    </defs>
    <g clip-path="url(#p0606d41744)">
     <use xlink:href="#m1eff3bc4dc" x="0" y="341.147585" style="fill: #ff7f0e; fill-opacity: 0.2; stroke: #ff7f0e; stroke-opacity: 0.2"/>
    </g>
   </g>
   <g id="PolyCollection_3">
    <defs>
     <path id="m1a902b0894" d="M 56.835852 -142.870102 
L 56.835852 -106.971644 
L 72.295593 -105.77203 
L 87.755333 -103.933887 
L 103.215073 -112.603572 
L 118.674813 -121.703332 
L 134.134554 -122.771378 
L 149.594294 -124.661535 
L 165.054034 -125.938212 
L 180.513774 -125.686954 
L 195.973515 -139.399265 
L 211.433255 -131.675287 
L 226.892995 -130.798582 
L 242.352735 -136.935682 
L 257.812476 -143.890371 
L 273.272216 -134.82462 
L 288.731956 -143.738517 
L 304.191696 -144.039588 
L 319.651437 -146.188084 
L 335.111177 -148.594221 
L 350.570917 -142.886536 
L 366.030657 -137.137461 
L 381.490398 -148.264112 
L 381.490398 -165.22507 
L 381.490398 -165.22507 
L 366.030657 -156.674968 
L 350.570917 -162.710371 
L 335.111177 -169.01142 
L 319.651437 -176.349821 
L 304.191696 -165.379611 
L 288.731956 -166.430306 
L 273.272216 -154.235463 
L 257.812476 -176.217125 
L 242.352735 -156.514859 
L 226.892995 -147.694882 
L 211.433255 -153.621974 
L 195.973515 -171.261281 
L 180.513774 -151.287969 
L 165.054034 -153.212716 
L 149.594294 -158.781662 
L 134.134554 -156.799802 
L 118.674813 -156.740448 
L 103.215073 -137.500578 
L 87.755333 -129.411309 
L 72.295593 -140.501464 
L 56.835852 -142.870102 
z
" style="stroke: #2ca02c; stroke-opacity: 0.2"/>
    </defs>
    <g clip-path="url(#p0606d41744)">
     <use xlink:href="#m1a902b0894" x="0" y="341.147585" style="fill: #2ca02c; fill-opacity: 0.2; stroke: #2ca02c; stroke-opacity: 0.2"/>
    </g>
   </g>
   <g id="PolyCollection_4">
    <defs>
     <path id="m735fa85bc5" d="M 56.835852 -112.538565 
L 56.835852 -81.19563 
L 72.295593 -85.528088 
L 87.755333 -93.367016 
L 103.215073 -101.671178 
L 118.674813 -112.738659 
L 134.134554 -116.817521 
L 149.594294 -118.748213 
L 165.054034 -121.78615 
L 180.513774 -119.137156 
L 195.973515 -118.822119 
L 211.433255 -115.123575 
L 226.892995 -115.78484 
L 242.352735 -115.143728 
L 257.812476 -109.348147 
L 273.272216 -105.238915 
L 288.731956 -101.344114 
L 304.191696 -106.392366 
L 319.651437 -99.883745 
L 335.111177 -102.530993 
L 350.570917 -98.698143 
L 366.030657 -98.173975 
L 381.490398 -104.157193 
L 381.490398 -124.89675 
L 381.490398 -124.89675 
L 366.030657 -115.141984 
L 350.570917 -114.119575 
L 335.111177 -120.97264 
L 319.651437 -115.640298 
L 304.191696 -130.011571 
L 288.731956 -127.34735 
L 273.272216 -125.370908 
L 257.812476 -126.905158 
L 242.352735 -137.453355 
L 226.892995 -136.460918 
L 211.433255 -134.744445 
L 195.973515 -142.237866 
L 180.513774 -146.505884 
L 165.054034 -151.692972 
L 149.594294 -144.00491 
L 134.134554 -146.056634 
L 118.674813 -148.463893 
L 103.215073 -128.990205 
L 87.755333 -119.816693 
L 72.295593 -111.888402 
L 56.835852 -112.538565 
z
" style="stroke: #d62728; stroke-opacity: 0.2"/>
    </defs>
    <g clip-path="url(#p0606d41744)">
     <use xlink:href="#m735fa85bc5" x="0" y="341.147585" style="fill: #d62728; fill-opacity: 0.2; stroke: #d62728; stroke-opacity: 0.2"/>
    </g>
   </g>
   <g id="PolyCollection_5">
    <defs>
     <path id="me98cc8d4b8" d="M 56.835852 -107.152943 
L 56.835852 -84.483002 
L 72.295593 -78.729981 
L 87.755333 -81.576401 
L 103.215073 -86.382531 
L 118.674813 -88.853669 
L 134.134554 -97.464268 
L 149.594294 -93.344354 
L 165.054034 -101.328747 
L 180.513774 -94.392586 
L 195.973515 -111.832528 
L 211.433255 -107.145374 
L 226.892995 -95.932114 
L 242.352735 -102.282653 
L 257.812476 -103.451479 
L 273.272216 -96.317634 
L 288.731956 -103.620579 
L 304.191696 -118.876103 
L 319.651437 -163.900778 
L 335.111177 -185.153479 
L 350.570917 -200.969316 
L 366.030657 -211.921413 
L 381.490398 -266.071237 
L 381.490398 -306.73346 
L 381.490398 -306.73346 
L 366.030657 -240.425202 
L 350.570917 -225.043715 
L 335.111177 -206.925081 
L 319.651437 -184.990777 
L 304.191696 -134.526847 
L 288.731956 -118.265431 
L 273.272216 -110.520592 
L 257.812476 -131.850643 
L 242.352735 -140.699235 
L 226.892995 -111.894525 
L 211.433255 -128.404279 
L 195.973515 -167.134483 
L 180.513774 -121.486777 
L 165.054034 -128.330497 
L 149.594294 -119.804995 
L 134.134554 -145.250003 
L 118.674813 -110.54099 
L 103.215073 -109.99557 
L 87.755333 -119.351627 
L 72.295593 -101.420039 
L 56.835852 -107.152943 
z
" style="stroke: #9467bd; stroke-opacity: 0.2"/>
    </defs>
    <g clip-path="url(#p0606d41744)">
     <use xlink:href="#me98cc8d4b8" x="0" y="341.147585" style="fill: #9467bd; fill-opacity: 0.2; stroke: #9467bd; stroke-opacity: 0.2"/>
    </g>
   </g>
   <g id="PolyCollection_6">
    <defs>
     <path id="mdffb3a1cd8" d="M 56.835852 -161.473185 
L 56.835852 -125.760941 
L 72.295593 -102.631267 
L 87.755333 -109.813421 
L 103.215073 -112.659315 
L 118.674813 -113.507845 
L 134.134554 -106.124546 
L 149.594294 -109.285694 
L 165.054034 -106.508622 
L 180.513774 -104.707903 
L 195.973515 -101.044202 
L 211.433255 -109.363529 
L 226.892995 -92.399743 
L 242.352735 -106.334343 
L 257.812476 -106.901355 
L 273.272216 -98.791832 
L 288.731956 -101.371958 
L 304.191696 -107.313117 
L 319.651437 -100.315954 
L 335.111177 -100.419392 
L 350.570917 -96.621175 
L 366.030657 -94.212211 
L 381.490398 -102.566423 
L 381.490398 -130.121273 
L 381.490398 -130.121273 
L 366.030657 -112.727914 
L 350.570917 -115.920729 
L 335.111177 -119.513682 
L 319.651437 -119.281806 
L 304.191696 -132.108751 
L 288.731956 -122.758706 
L 273.272216 -115.89543 
L 257.812476 -132.806534 
L 242.352735 -127.484314 
L 226.892995 -113.655767 
L 211.433255 -137.762843 
L 195.973515 -126.093482 
L 180.513774 -129.115552 
L 165.054034 -131.097347 
L 149.594294 -142.211789 
L 134.134554 -135.722816 
L 118.674813 -150.393614 
L 103.215073 -141.115755 
L 87.755333 -140.651222 
L 72.295593 -124.928044 
L 56.835852 -161.473185 
z
" style="stroke: #8c564b; stroke-opacity: 0.2"/>
    </defs>
    <g clip-path="url(#p0606d41744)">
     <use xlink:href="#mdffb3a1cd8" x="0" y="341.147585" style="fill: #8c564b; fill-opacity: 0.2; stroke: #8c564b; stroke-opacity: 0.2"/>
    </g>
   </g>
   <g id="matplotlib.axis_1">
    <g id="xtick_1">
     <g id="line2d_1">
      <defs>
       <path id="mbbfef156ef" d="M 0 0 
L 0 3.5 
" style="stroke: #000000; stroke-width: 0.8"/>
      </defs>
      <g>
       <use xlink:href="#mbbfef156ef" x="72.295593" y="288.430125" style="stroke: #000000; stroke-width: 0.8"/>
      </g>
     </g>
     <g id="text_1">
      <!-- 2000 -->
      <g transform="translate(65.248832 318.798899) rotate(-45) scale(0.1 -0.1)">
       <defs>
        <path id="DejaVuSans-32" d="M 1228 531 
L 3431 531 
L 3431 0 
L 469 0 
L 469 531 
Q 828 903 1448 1529 
Q 2069 2156 2228 2338 
Q 2531 2678 2651 2914 
Q 2772 3150 2772 3378 
Q 2772 3750 2511 3984 
Q 2250 4219 1831 4219 
Q 1534 4219 1204 4116 
Q 875 4013 500 3803 
L 500 4441 
Q 881 4594 1212 4672 
Q 1544 4750 1819 4750 
Q 2544 4750 2975 4387 
Q 3406 4025 3406 3419 
Q 3406 3131 3298 2873 
Q 3191 2616 2906 2266 
Q 2828 2175 2409 1742 
Q 1991 1309 1228 531 
z
" transform="scale(0.015625)"/>
        <path id="DejaVuSans-30" d="M 2034 4250 
Q 1547 4250 1301 3770 
Q 1056 3291 1056 2328 
Q 1056 1369 1301 889 
Q 1547 409 2034 409 
Q 2525 409 2770 889 
Q 3016 1369 3016 2328 
Q 3016 3291 2770 3770 
Q 2525 4250 2034 4250 
z
M 2034 4750 
Q 2819 4750 3233 4129 
Q 3647 3509 3647 2328 
Q 3647 1150 3233 529 
Q 2819 -91 2034 -91 
Q 1250 -91 836 529 
Q 422 1150 422 2328 
Q 422 3509 836 4129 
Q 1250 4750 2034 4750 
z
" transform="scale(0.015625)"/>
       </defs>
       <use xlink:href="#DejaVuSans-32"/>
       <use xlink:href="#DejaVuSans-30" x="63.623047"/>
       <use xlink:href="#DejaVuSans-30" x="127.246094"/>
       <use xlink:href="#DejaVuSans-30" x="190.869141"/>
      </g>
     </g>
    </g>
    <g id="xtick_2">
     <g id="line2d_2">
      <g>
       <use xlink:href="#mbbfef156ef" x="149.594294" y="288.430125" style="stroke: #000000; stroke-width: 0.8"/>
      </g>
     </g>
     <g id="text_2">
      <!-- 2005 -->
      <g transform="translate(142.547533 318.798899) rotate(-45) scale(0.1 -0.1)">
       <defs>
        <path id="DejaVuSans-35" d="M 691 4666 
L 3169 4666 
L 3169 4134 
L 1269 4134 
L 1269 2991 
Q 1406 3038 1543 3061 
Q 1681 3084 1819 3084 
Q 2600 3084 3056 2656 
Q 3513 2228 3513 1497 
Q 3513 744 3044 326 
Q 2575 -91 1722 -91 
Q 1428 -91 1123 -41 
Q 819 9 494 109 
L 494 744 
Q 775 591 1075 516 
Q 1375 441 1709 441 
Q 2250 441 2565 725 
Q 2881 1009 2881 1497 
Q 2881 1984 2565 2268 
Q 2250 2553 1709 2553 
Q 1456 2553 1204 2497 
Q 953 2441 691 2322 
L 691 4666 
z
" transform="scale(0.015625)"/>
       </defs>
       <use xlink:href="#DejaVuSans-32"/>
       <use xlink:href="#DejaVuSans-30" x="63.623047"/>
       <use xlink:href="#DejaVuSans-30" x="127.246094"/>
       <use xlink:href="#DejaVuSans-35" x="190.869141"/>
      </g>
     </g>
    </g>
    <g id="xtick_3">
     <g id="line2d_3">
      <g>
       <use xlink:href="#mbbfef156ef" x="226.892995" y="288.430125" style="stroke: #000000; stroke-width: 0.8"/>
      </g>
     </g>
     <g id="text_3">
      <!-- 2010 -->
      <g transform="translate(219.846234 318.798899) rotate(-45) scale(0.1 -0.1)">
       <defs>
        <path id="DejaVuSans-31" d="M 794 531 
L 1825 531 
L 1825 4091 
L 703 3866 
L 703 4441 
L 1819 4666 
L 2450 4666 
L 2450 531 
L 3481 531 
L 3481 0 
L 794 0 
L 794 531 
z
" transform="scale(0.015625)"/>
       </defs>
       <use xlink:href="#DejaVuSans-32"/>
       <use xlink:href="#DejaVuSans-30" x="63.623047"/>
       <use xlink:href="#DejaVuSans-31" x="127.246094"/>
       <use xlink:href="#DejaVuSans-30" x="190.869141"/>
      </g>
     </g>
    </g>
    <g id="xtick_4">
     <g id="line2d_4">
      <g>
       <use xlink:href="#mbbfef156ef" x="304.191696" y="288.430125" style="stroke: #000000; stroke-width: 0.8"/>
      </g>
     </g>
     <g id="text_4">
      <!-- 2015 -->
      <g transform="translate(297.144935 318.798899) rotate(-45) scale(0.1 -0.1)">
       <use xlink:href="#DejaVuSans-32"/>
       <use xlink:href="#DejaVuSans-30" x="63.623047"/>
       <use xlink:href="#DejaVuSans-31" x="127.246094"/>
       <use xlink:href="#DejaVuSans-35" x="190.869141"/>
      </g>
     </g>
    </g>
    <g id="xtick_5">
     <g id="line2d_5">
      <g>
       <use xlink:href="#mbbfef156ef" x="381.490398" y="288.430125" style="stroke: #000000; stroke-width: 0.8"/>
      </g>
     </g>
     <g id="text_5">
      <!-- 2020 -->
      <g transform="translate(374.443637 318.798899) rotate(-45) scale(0.1 -0.1)">
       <use xlink:href="#DejaVuSans-32"/>
       <use xlink:href="#DejaVuSans-30" x="63.623047"/>
       <use xlink:href="#DejaVuSans-32" x="127.246094"/>
       <use xlink:href="#DejaVuSans-30" x="190.869141"/>
      </g>
     </g>
    </g>
    <g id="text_6">
     <!-- Year -->
     <g transform="translate(208.575625 331.867898) scale(0.1 -0.1)">
      <defs>
       <path id="DejaVuSans-59" d="M -13 4666 
L 666 4666 
L 1959 2747 
L 3244 4666 
L 3922 4666 
L 2272 2222 
L 2272 0 
L 1638 0 
L 1638 2222 
L -13 4666 
z
" transform="scale(0.015625)"/>
       <path id="DejaVuSans-65" d="M 3597 1894 
L 3597 1613 
L 953 1613 
Q 991 1019 1311 708 
Q 1631 397 2203 397 
Q 2534 397 2845 478 
Q 3156 559 3463 722 
L 3463 178 
Q 3153 47 2828 -22 
Q 2503 -91 2169 -91 
Q 1331 -91 842 396 
Q 353 884 353 1716 
Q 353 2575 817 3079 
Q 1281 3584 2069 3584 
Q 2775 3584 3186 3129 
Q 3597 2675 3597 1894 
z
M 3022 2063 
Q 3016 2534 2758 2815 
Q 2500 3097 2075 3097 
Q 1594 3097 1305 2825 
Q 1016 2553 972 2059 
L 3022 2063 
z
" transform="scale(0.015625)"/>
       <path id="DejaVuSans-61" d="M 2194 1759 
Q 1497 1759 1228 1600 
Q 959 1441 959 1056 
Q 959 750 1161 570 
Q 1363 391 1709 391 
Q 2188 391 2477 730 
Q 2766 1069 2766 1631 
L 2766 1759 
L 2194 1759 
z
M 3341 1997 
L 3341 0 
L 2766 0 
L 2766 531 
Q 2569 213 2275 61 
Q 1981 -91 1556 -91 
Q 1019 -91 701 211 
Q 384 513 384 1019 
Q 384 1609 779 1909 
Q 1175 2209 1959 2209 
L 2766 2209 
L 2766 2266 
Q 2766 2663 2505 2880 
Q 2244 3097 1772 3097 
Q 1472 3097 1187 3025 
Q 903 2953 641 2809 
L 641 3341 
Q 956 3463 1253 3523 
Q 1550 3584 1831 3584 
Q 2591 3584 2966 3190 
Q 3341 2797 3341 1997 
z
" transform="scale(0.015625)"/>
       <path id="DejaVuSans-72" d="M 2631 2963 
Q 2534 3019 2420 3045 
Q 2306 3072 2169 3072 
Q 1681 3072 1420 2755 
Q 1159 2438 1159 1844 
L 1159 0 
L 581 0 
L 581 3500 
L 1159 3500 
L 1159 2956 
Q 1341 3275 1631 3429 
Q 1922 3584 2338 3584 
Q 2397 3584 2469 3576 
Q 2541 3569 2628 3553 
L 2631 2963 
z
" transform="scale(0.015625)"/>
      </defs>
      <use xlink:href="#DejaVuSans-59"/>
      <use xlink:href="#DejaVuSans-65" x="47.833984"/>
      <use xlink:href="#DejaVuSans-61" x="109.357422"/>
      <use xlink:href="#DejaVuSans-72" x="170.636719"/>
     </g>
    </g>
   </g>
   <g id="matplotlib.axis_2">
    <g id="ytick_1">
     <g id="line2d_6">
      <defs>
       <path id="m101447aa7f" d="M 0 0 
L -3.5 0 
" style="stroke: #000000; stroke-width: 0.8"/>
      </defs>
      <g>
       <use xlink:href="#m101447aa7f" x="40.603125" y="279.304043" style="stroke: #000000; stroke-width: 0.8"/>
      </g>
     </g>
     <g id="text_7">
      <!-- 0 -->
      <g transform="translate(27.240625 283.103261) scale(0.1 -0.1)">
       <use xlink:href="#DejaVuSans-30"/>
      </g>
     </g>
    </g>
    <g id="ytick_2">
     <g id="line2d_7">
      <g>
       <use xlink:href="#m101447aa7f" x="40.603125" y="220.574871" style="stroke: #000000; stroke-width: 0.8"/>
      </g>
     </g>
     <g id="text_8">
      <!-- 5 -->
      <g transform="translate(27.240625 224.37409) scale(0.1 -0.1)">
       <use xlink:href="#DejaVuSans-35"/>
      </g>
     </g>
    </g>
    <g id="ytick_3">
     <g id="line2d_8">
      <g>
       <use xlink:href="#m101447aa7f" x="40.603125" y="161.845699" style="stroke: #000000; stroke-width: 0.8"/>
      </g>
     </g>
     <g id="text_9">
      <!-- 10 -->
      <g transform="translate(20.878125 165.644918) scale(0.1 -0.1)">
       <use xlink:href="#DejaVuSans-31"/>
       <use xlink:href="#DejaVuSans-30" x="63.623047"/>
      </g>
     </g>
    </g>
    <g id="ytick_4">
     <g id="line2d_9">
      <g>
       <use xlink:href="#m101447aa7f" x="40.603125" y="103.116527" style="stroke: #000000; stroke-width: 0.8"/>
      </g>
     </g>
     <g id="text_10">
      <!-- 15 -->
      <g transform="translate(20.878125 106.915746) scale(0.1 -0.1)">
       <use xlink:href="#DejaVuSans-31"/>
       <use xlink:href="#DejaVuSans-35" x="63.623047"/>
      </g>
     </g>
    </g>
    <g id="ytick_5">
     <g id="line2d_10">
      <g>
       <use xlink:href="#m101447aa7f" x="40.603125" y="44.387355" style="stroke: #000000; stroke-width: 0.8"/>
      </g>
     </g>
     <g id="text_11">
      <!-- 20 -->
      <g transform="translate(20.878125 48.186574) scale(0.1 -0.1)">
       <use xlink:href="#DejaVuSans-32"/>
       <use xlink:href="#DejaVuSans-30" x="63.623047"/>
      </g>
     </g>
    </g>
    <g id="text_12">
     <!-- Crude Rate -->
     <g transform="translate(14.798438 183.392094) rotate(-90) scale(0.1 -0.1)">
      <defs>
       <path id="DejaVuSans-43" d="M 4122 4306 
L 4122 3641 
Q 3803 3938 3442 4084 
Q 3081 4231 2675 4231 
Q 1875 4231 1450 3742 
Q 1025 3253 1025 2328 
Q 1025 1406 1450 917 
Q 1875 428 2675 428 
Q 3081 428 3442 575 
Q 3803 722 4122 1019 
L 4122 359 
Q 3791 134 3420 21 
Q 3050 -91 2638 -91 
Q 1578 -91 968 557 
Q 359 1206 359 2328 
Q 359 3453 968 4101 
Q 1578 4750 2638 4750 
Q 3056 4750 3426 4639 
Q 3797 4528 4122 4306 
z
" transform="scale(0.015625)"/>
       <path id="DejaVuSans-75" d="M 544 1381 
L 544 3500 
L 1119 3500 
L 1119 1403 
Q 1119 906 1312 657 
Q 1506 409 1894 409 
Q 2359 409 2629 706 
Q 2900 1003 2900 1516 
L 2900 3500 
L 3475 3500 
L 3475 0 
L 2900 0 
L 2900 538 
Q 2691 219 2414 64 
Q 2138 -91 1772 -91 
Q 1169 -91 856 284 
Q 544 659 544 1381 
z
M 1991 3584 
L 1991 3584 
z
" transform="scale(0.015625)"/>
       <path id="DejaVuSans-64" d="M 2906 2969 
L 2906 4863 
L 3481 4863 
L 3481 0 
L 2906 0 
L 2906 525 
Q 2725 213 2448 61 
Q 2172 -91 1784 -91 
Q 1150 -91 751 415 
Q 353 922 353 1747 
Q 353 2572 751 3078 
Q 1150 3584 1784 3584 
Q 2172 3584 2448 3432 
Q 2725 3281 2906 2969 
z
M 947 1747 
Q 947 1113 1208 752 
Q 1469 391 1925 391 
Q 2381 391 2643 752 
Q 2906 1113 2906 1747 
Q 2906 2381 2643 2742 
Q 2381 3103 1925 3103 
Q 1469 3103 1208 2742 
Q 947 2381 947 1747 
z
" transform="scale(0.015625)"/>
       <path id="DejaVuSans-20" transform="scale(0.015625)"/>
       <path id="DejaVuSans-52" d="M 2841 2188 
Q 3044 2119 3236 1894 
Q 3428 1669 3622 1275 
L 4263 0 
L 3584 0 
L 2988 1197 
Q 2756 1666 2539 1819 
Q 2322 1972 1947 1972 
L 1259 1972 
L 1259 0 
L 628 0 
L 628 4666 
L 2053 4666 
Q 2853 4666 3247 4331 
Q 3641 3997 3641 3322 
Q 3641 2881 3436 2590 
Q 3231 2300 2841 2188 
z
M 1259 4147 
L 1259 2491 
L 2053 2491 
Q 2509 2491 2742 2702 
Q 2975 2913 2975 3322 
Q 2975 3731 2742 3939 
Q 2509 4147 2053 4147 
L 1259 4147 
z
" transform="scale(0.015625)"/>
       <path id="DejaVuSans-74" d="M 1172 4494 
L 1172 3500 
L 2356 3500 
L 2356 3053 
L 1172 3053 
L 1172 1153 
Q 1172 725 1289 603 
Q 1406 481 1766 481 
L 2356 481 
L 2356 0 
L 1766 0 
Q 1100 0 847 248 
Q 594 497 594 1153 
L 594 3053 
L 172 3053 
L 172 3500 
L 594 3500 
L 594 4494 
L 1172 4494 
z
" transform="scale(0.015625)"/>
      </defs>
      <use xlink:href="#DejaVuSans-43"/>
      <use xlink:href="#DejaVuSans-72" x="69.824219"/>
      <use xlink:href="#DejaVuSans-75" x="110.9375"/>
      <use xlink:href="#DejaVuSans-64" x="174.316406"/>
      <use xlink:href="#DejaVuSans-65" x="237.792969"/>
      <use xlink:href="#DejaVuSans-20" x="299.316406"/>
      <use xlink:href="#DejaVuSans-52" x="331.103516"/>
      <use xlink:href="#DejaVuSans-61" x="398.335938"/>
      <use xlink:href="#DejaVuSans-74" x="459.615234"/>
      <use xlink:href="#DejaVuSans-65" x="498.824219"/>
     </g>
    </g>
   </g>
   <g id="line2d_11">
    <path d="M 56.835852 275.681715 
L 72.295593 275.213327 
L 87.755333 275.870908 
L 103.215073 275.60305 
L 118.674813 249.518924 
L 134.134554 275.963782 
L 149.594294 275.270432 
L 165.054034 275.947738 
L 180.513774 275.97962 
L 195.973515 274.776596 
L 211.433255 265.594436 
L 226.892995 268.21125 
L 257.812476 275.984168 
L 273.272216 274.515946 
L 304.191696 275.520697 
L 319.651437 275.573007 
L 335.111177 275.471011 
L 350.570917 275.817473 
L 366.030657 271.009421 
L 381.490398 241.401503 
" clip-path="url(#p0606d41744)" style="fill: none; stroke: #1f77b4; stroke-width: 1.5; stroke-linecap: square"/>
   </g>
   <g id="line2d_12">
    <path d="M 56.835852 227.581685 
L 72.295593 221.023849 
L 87.755333 243.913575 
L 103.215073 236.200878 
L 118.674813 232.653018 
L 134.134554 228.01236 
L 149.594294 231.785461 
L 165.054034 239.793388 
L 180.513774 226.870717 
L 195.973515 229.887071 
L 211.433255 222.187124 
L 226.892995 228.490216 
L 242.352735 212.529849 
L 257.812476 212.507377 
L 273.272216 201.907557 
L 288.731956 192.470119 
L 304.191696 183.776844 
L 319.651437 168.910028 
L 335.111177 166.235943 
L 350.570917 173.115799 
L 366.030657 175.878158 
L 381.490398 173.974246 
" clip-path="url(#p0606d41744)" style="fill: none; stroke: #ff7f0e; stroke-width: 1.5; stroke-linecap: square"/>
   </g>
   <g id="line2d_13">
    <path d="M 56.835852 218.075417 
L 72.295593 219.79182 
L 87.755333 225.291589 
L 103.215073 216.214236 
L 118.674813 203.56173 
L 134.134554 202.849955 
L 149.594294 200.778892 
L 165.054034 202.311954 
L 180.513774 203.477186 
L 195.973515 187.337412 
L 211.433255 198.898454 
L 226.892995 201.905773 
L 242.352735 194.702941 
L 257.812476 181.540704 
L 273.272216 197.083934 
L 288.731956 186.695766 
L 304.191696 186.674443 
L 319.651437 181.45178 
L 335.111177 182.893748 
L 350.570917 189.130828 
L 366.030657 195.023247 
L 381.490398 184.24674 
" clip-path="url(#p0606d41744)" style="fill: none; stroke: #2ca02c; stroke-width: 1.5; stroke-linecap: square"/>
   </g>
   <g id="line2d_14">
    <path d="M 56.835852 245.423283 
L 72.295593 243.567081 
L 87.755333 235.617815 
L 103.215073 226.883592 
L 118.674813 212.964274 
L 134.134554 210.129171 
L 149.594294 210.101446 
L 165.054034 206.053958 
L 180.513774 209.67837 
L 195.973515 211.027188 
L 211.433255 216.968499 
L 226.892995 215.440471 
L 242.352735 215.050666 
L 257.812476 222.98369 
L 273.272216 226.521951 
L 288.731956 228.279519 
L 304.191696 224.017855 
L 319.651437 233.840581 
L 335.111177 229.50036 
L 350.570917 234.781654 
L 366.030657 235.437143 
L 381.490398 227.830136 
" clip-path="url(#p0606d41744)" style="fill: none; stroke: #d62728; stroke-width: 1.5; stroke-linecap: square"/>
   </g>
   <g id="line2d_15">
    <path d="M 56.835852 245.837164 
L 72.295593 251.685382 
L 87.755333 243.938498 
L 103.215073 243.994765 
L 118.674813 242.215036 
L 134.134554 222.151494 
L 149.594294 236.372766 
L 165.054034 227.443111 
L 180.513774 234.754852 
L 195.973515 204.634083 
L 211.433255 223.490912 
L 226.892995 237.927464 
L 242.352735 223.71048 
L 257.812476 225.48928 
L 273.272216 237.841618 
L 288.731956 230.640626 
L 304.191696 214.743971 
L 319.651437 167.00594 
L 335.111177 145.284707 
L 350.570917 128.667315 
L 366.030657 115.256909 
L 381.490398 55.40398 
" clip-path="url(#p0606d41744)" style="fill: none; stroke: #9467bd; stroke-width: 1.5; stroke-linecap: square"/>
   </g>
   <g id="line2d_16">
    <path d="M 56.835852 197.290454 
L 72.295593 228.203293 
L 87.755333 216.656241 
L 103.215073 214.894312 
L 118.674813 210.755235 
L 134.134554 222.302966 
L 149.594294 216.932716 
L 165.054034 223.264475 
L 180.513774 225.159772 
L 195.973515 228.802296 
L 211.433255 218.282637 
L 226.892995 239.165261 
L 242.352735 225.013295 
L 257.812476 221.709602 
L 273.272216 234.221382 
L 288.731956 229.501239 
L 304.191696 221.909262 
L 319.651437 232.089342 
L 335.111177 231.67147 
L 350.570917 235.134456 
L 366.030657 238.483757 
L 381.490398 226.184269 
" clip-path="url(#p0606d41744)" style="fill: none; stroke: #8c564b; stroke-width: 1.5; stroke-linecap: square"/>
   </g>
   <g id="line2d_17"/>
   <g id="line2d_18"/>
   <g id="line2d_19"/>
   <g id="line2d_20"/>
   <g id="line2d_21"/>
   <g id="line2d_22"/>
   <g id="patch_3">
    <path d="M 40.603125 288.430125 
L 40.603125 22.318125 
" style="fill: none; stroke: #000000; stroke-width: 0.8; stroke-linejoin: miter; stroke-linecap: square"/>
   </g>
   <g id="patch_4">
    <path d="M 397.723125 288.430125 
L 397.723125 22.318125 
" style="fill: none; stroke: #000000; stroke-width: 0.8; stroke-linejoin: miter; stroke-linecap: square"/>
   </g>
   <g id="patch_5">
    <path d="M 40.603125 288.430125 
L 397.723125 288.430125 
" style="fill: none; stroke: #000000; stroke-width: 0.8; stroke-linejoin: miter; stroke-linecap: square"/>
   </g>
   <g id="patch_6">
    <path d="M 40.603125 22.318125 
L 397.723125 22.318125 
" style="fill: none; stroke: #000000; stroke-width: 0.8; stroke-linejoin: miter; stroke-linecap: square"/>
   </g>
   <g id="text_13">
    <!-- Multiple COD Over Time -->
    <g transform="translate(146.963437 16.318125) scale(0.12 -0.12)">
     <defs>
      <path id="DejaVuSans-4d" d="M 628 4666 
L 1569 4666 
L 2759 1491 
L 3956 4666 
L 4897 4666 
L 4897 0 
L 4281 0 
L 4281 4097 
L 3078 897 
L 2444 897 
L 1241 4097 
L 1241 0 
L 628 0 
L 628 4666 
z
" transform="scale(0.015625)"/>
      <path id="DejaVuSans-6c" d="M 603 4863 
L 1178 4863 
L 1178 0 
L 603 0 
L 603 4863 
z
" transform="scale(0.015625)"/>
      <path id="DejaVuSans-69" d="M 603 3500 
L 1178 3500 
L 1178 0 
L 603 0 
L 603 3500 
z
M 603 4863 
L 1178 4863 
L 1178 4134 
L 603 4134 
L 603 4863 
z
" transform="scale(0.015625)"/>
      <path id="DejaVuSans-70" d="M 1159 525 
L 1159 -1331 
L 581 -1331 
L 581 3500 
L 1159 3500 
L 1159 2969 
Q 1341 3281 1617 3432 
Q 1894 3584 2278 3584 
Q 2916 3584 3314 3078 
Q 3713 2572 3713 1747 
Q 3713 922 3314 415 
Q 2916 -91 2278 -91 
Q 1894 -91 1617 61 
Q 1341 213 1159 525 
z
M 3116 1747 
Q 3116 2381 2855 2742 
Q 2594 3103 2138 3103 
Q 1681 3103 1420 2742 
Q 1159 2381 1159 1747 
Q 1159 1113 1420 752 
Q 1681 391 2138 391 
Q 2594 391 2855 752 
Q 3116 1113 3116 1747 
z
" transform="scale(0.015625)"/>
      <path id="DejaVuSans-4f" d="M 2522 4238 
Q 1834 4238 1429 3725 
Q 1025 3213 1025 2328 
Q 1025 1447 1429 934 
Q 1834 422 2522 422 
Q 3209 422 3611 934 
Q 4013 1447 4013 2328 
Q 4013 3213 3611 3725 
Q 3209 4238 2522 4238 
z
M 2522 4750 
Q 3503 4750 4090 4092 
Q 4678 3434 4678 2328 
Q 4678 1225 4090 567 
Q 3503 -91 2522 -91 
Q 1538 -91 948 565 
Q 359 1222 359 2328 
Q 359 3434 948 4092 
Q 1538 4750 2522 4750 
z
" transform="scale(0.015625)"/>
      <path id="DejaVuSans-44" d="M 1259 4147 
L 1259 519 
L 2022 519 
Q 2988 519 3436 956 
Q 3884 1394 3884 2338 
Q 3884 3275 3436 3711 
Q 2988 4147 2022 4147 
L 1259 4147 
z
M 628 4666 
L 1925 4666 
Q 3281 4666 3915 4102 
Q 4550 3538 4550 2338 
Q 4550 1131 3912 565 
Q 3275 0 1925 0 
L 628 0 
L 628 4666 
z
" transform="scale(0.015625)"/>
      <path id="DejaVuSans-76" d="M 191 3500 
L 800 3500 
L 1894 563 
L 2988 3500 
L 3597 3500 
L 2284 0 
L 1503 0 
L 191 3500 
z
" transform="scale(0.015625)"/>
      <path id="DejaVuSans-54" d="M -19 4666 
L 3928 4666 
L 3928 4134 
L 2272 4134 
L 2272 0 
L 1638 0 
L 1638 4134 
L -19 4134 
L -19 4666 
z
" transform="scale(0.015625)"/>
      <path id="DejaVuSans-6d" d="M 3328 2828 
Q 3544 3216 3844 3400 
Q 4144 3584 4550 3584 
Q 5097 3584 5394 3201 
Q 5691 2819 5691 2113 
L 5691 0 
L 5113 0 
L 5113 2094 
Q 5113 2597 4934 2840 
Q 4756 3084 4391 3084 
Q 3944 3084 3684 2787 
Q 3425 2491 3425 1978 
L 3425 0 
L 2847 0 
L 2847 2094 
Q 2847 2600 2669 2842 
Q 2491 3084 2119 3084 
Q 1678 3084 1418 2786 
Q 1159 2488 1159 1978 
L 1159 0 
L 581 0 
L 581 3500 
L 1159 3500 
L 1159 2956 
Q 1356 3278 1631 3431 
Q 1906 3584 2284 3584 
Q 2666 3584 2933 3390 
Q 3200 3197 3328 2828 
z
" transform="scale(0.015625)"/>
     </defs>
     <use xlink:href="#DejaVuSans-4d"/>
     <use xlink:href="#DejaVuSans-75" x="86.279297"/>
     <use xlink:href="#DejaVuSans-6c" x="149.658203"/>
     <use xlink:href="#DejaVuSans-74" x="177.441406"/>
     <use xlink:href="#DejaVuSans-69" x="216.650391"/>
     <use xlink:href="#DejaVuSans-70" x="244.433594"/>
     <use xlink:href="#DejaVuSans-6c" x="307.910156"/>
     <use xlink:href="#DejaVuSans-65" x="335.693359"/>
     <use xlink:href="#DejaVuSans-20" x="397.216797"/>
     <use xlink:href="#DejaVuSans-43" x="429.003906"/>
     <use xlink:href="#DejaVuSans-4f" x="498.828125"/>
     <use xlink:href="#DejaVuSans-44" x="577.539062"/>
     <use xlink:href="#DejaVuSans-20" x="654.541016"/>
     <use xlink:href="#DejaVuSans-4f" x="686.328125"/>
     <use xlink:href="#DejaVuSans-76" x="765.039062"/>
     <use xlink:href="#DejaVuSans-65" x="824.21875"/>
     <use xlink:href="#DejaVuSans-72" x="885.742188"/>
     <use xlink:href="#DejaVuSans-20" x="926.855469"/>
     <use xlink:href="#DejaVuSans-54" x="958.642578"/>
     <use xlink:href="#DejaVuSans-69" x="1016.601562"/>
     <use xlink:href="#DejaVuSans-6d" x="1044.384766"/>
     <use xlink:href="#DejaVuSans-65" x="1141.796875"/>
    </g>
   </g>
   <g id="legend_1">
    <g id="patch_7">
     <path d="M 47.603125 133.065 
L 239.182813 133.065 
Q 241.182813 133.065 241.182813 131.065 
L 241.182813 29.318125 
Q 241.182813 27.318125 239.182813 27.318125 
L 47.603125 27.318125 
Q 45.603125 27.318125 45.603125 29.318125 
L 45.603125 131.065 
Q 45.603125 133.065 47.603125 133.065 
z
" style="fill: #ffffff; opacity: 0.8; stroke: #cccccc; stroke-linejoin: miter"/>
    </g>
    <g id="text_14">
     <!-- Multiple Cause of death -->
     <g transform="translate(84.096094 38.916562) scale(0.1 -0.1)">
      <defs>
       <path id="DejaVuSans-73" d="M 2834 3397 
L 2834 2853 
Q 2591 2978 2328 3040 
Q 2066 3103 1784 3103 
Q 1356 3103 1142 2972 
Q 928 2841 928 2578 
Q 928 2378 1081 2264 
Q 1234 2150 1697 2047 
L 1894 2003 
Q 2506 1872 2764 1633 
Q 3022 1394 3022 966 
Q 3022 478 2636 193 
Q 2250 -91 1575 -91 
Q 1294 -91 989 -36 
Q 684 19 347 128 
L 347 722 
Q 666 556 975 473 
Q 1284 391 1588 391 
Q 1994 391 2212 530 
Q 2431 669 2431 922 
Q 2431 1156 2273 1281 
Q 2116 1406 1581 1522 
L 1381 1569 
Q 847 1681 609 1914 
Q 372 2147 372 2553 
Q 372 3047 722 3315 
Q 1072 3584 1716 3584 
Q 2034 3584 2315 3537 
Q 2597 3491 2834 3397 
z
" transform="scale(0.015625)"/>
       <path id="DejaVuSans-6f" d="M 1959 3097 
Q 1497 3097 1228 2736 
Q 959 2375 959 1747 
Q 959 1119 1226 758 
Q 1494 397 1959 397 
Q 2419 397 2687 759 
Q 2956 1122 2956 1747 
Q 2956 2369 2687 2733 
Q 2419 3097 1959 3097 
z
M 1959 3584 
Q 2709 3584 3137 3096 
Q 3566 2609 3566 1747 
Q 3566 888 3137 398 
Q 2709 -91 1959 -91 
Q 1206 -91 779 398 
Q 353 888 353 1747 
Q 353 2609 779 3096 
Q 1206 3584 1959 3584 
z
" transform="scale(0.015625)"/>
       <path id="DejaVuSans-66" d="M 2375 4863 
L 2375 4384 
L 1825 4384 
Q 1516 4384 1395 4259 
Q 1275 4134 1275 3809 
L 1275 3500 
L 2222 3500 
L 2222 3053 
L 1275 3053 
L 1275 0 
L 697 0 
L 697 3053 
L 147 3053 
L 147 3500 
L 697 3500 
L 697 3744 
Q 697 4328 969 4595 
Q 1241 4863 1831 4863 
L 2375 4863 
z
" transform="scale(0.015625)"/>
       <path id="DejaVuSans-68" d="M 3513 2113 
L 3513 0 
L 2938 0 
L 2938 2094 
Q 2938 2591 2744 2837 
Q 2550 3084 2163 3084 
Q 1697 3084 1428 2787 
Q 1159 2491 1159 1978 
L 1159 0 
L 581 0 
L 581 4863 
L 1159 4863 
L 1159 2956 
Q 1366 3272 1645 3428 
Q 1925 3584 2291 3584 
Q 2894 3584 3203 3211 
Q 3513 2838 3513 2113 
z
" transform="scale(0.015625)"/>
      </defs>
      <use xlink:href="#DejaVuSans-4d"/>
      <use xlink:href="#DejaVuSans-75" x="86.279297"/>
      <use xlink:href="#DejaVuSans-6c" x="149.658203"/>
      <use xlink:href="#DejaVuSans-74" x="177.441406"/>
      <use xlink:href="#DejaVuSans-69" x="216.650391"/>
      <use xlink:href="#DejaVuSans-70" x="244.433594"/>
      <use xlink:href="#DejaVuSans-6c" x="307.910156"/>
      <use xlink:href="#DejaVuSans-65" x="335.693359"/>
      <use xlink:href="#DejaVuSans-20" x="397.216797"/>
      <use xlink:href="#DejaVuSans-43" x="429.003906"/>
      <use xlink:href="#DejaVuSans-61" x="498.828125"/>
      <use xlink:href="#DejaVuSans-75" x="560.107422"/>
      <use xlink:href="#DejaVuSans-73" x="623.486328"/>
      <use xlink:href="#DejaVuSans-65" x="675.585938"/>
      <use xlink:href="#DejaVuSans-20" x="737.109375"/>
      <use xlink:href="#DejaVuSans-6f" x="768.896484"/>
      <use xlink:href="#DejaVuSans-66" x="830.078125"/>
      <use xlink:href="#DejaVuSans-20" x="865.283203"/>
      <use xlink:href="#DejaVuSans-64" x="897.070312"/>
      <use xlink:href="#DejaVuSans-65" x="960.546875"/>
      <use xlink:href="#DejaVuSans-61" x="1022.070312"/>
      <use xlink:href="#DejaVuSans-74" x="1083.349609"/>
      <use xlink:href="#DejaVuSans-68" x="1122.558594"/>
     </g>
    </g>
    <g id="line2d_23">
     <path d="M 49.603125 50.094687 
L 59.603125 50.094687 
L 69.603125 50.094687 
" style="fill: none; stroke: #1f77b4; stroke-width: 1.5; stroke-linecap: square"/>
    </g>
    <g id="text_15">
     <!-- Opium -->
     <g transform="translate(77.603125 53.594687) scale(0.1 -0.1)">
      <use xlink:href="#DejaVuSans-4f"/>
      <use xlink:href="#DejaVuSans-70" x="78.710938"/>
      <use xlink:href="#DejaVuSans-69" x="142.1875"/>
      <use xlink:href="#DejaVuSans-75" x="169.970703"/>
      <use xlink:href="#DejaVuSans-6d" x="233.349609"/>
     </g>
    </g>
    <g id="line2d_24">
     <path d="M 49.603125 64.772812 
L 59.603125 64.772812 
L 69.603125 64.772812 
" style="fill: none; stroke: #ff7f0e; stroke-width: 1.5; stroke-linecap: square"/>
    </g>
    <g id="text_16">
     <!-- Heroin -->
     <g transform="translate(77.603125 68.272812) scale(0.1 -0.1)">
      <defs>
       <path id="DejaVuSans-48" d="M 628 4666 
L 1259 4666 
L 1259 2753 
L 3553 2753 
L 3553 4666 
L 4184 4666 
L 4184 0 
L 3553 0 
L 3553 2222 
L 1259 2222 
L 1259 0 
L 628 0 
L 628 4666 
z
" transform="scale(0.015625)"/>
       <path id="DejaVuSans-6e" d="M 3513 2113 
L 3513 0 
L 2938 0 
L 2938 2094 
Q 2938 2591 2744 2837 
Q 2550 3084 2163 3084 
Q 1697 3084 1428 2787 
Q 1159 2491 1159 1978 
L 1159 0 
L 581 0 
L 581 3500 
L 1159 3500 
L 1159 2956 
Q 1366 3272 1645 3428 
Q 1925 3584 2291 3584 
Q 2894 3584 3203 3211 
Q 3513 2838 3513 2113 
z
" transform="scale(0.015625)"/>
      </defs>
      <use xlink:href="#DejaVuSans-48"/>
      <use xlink:href="#DejaVuSans-65" x="75.195312"/>
      <use xlink:href="#DejaVuSans-72" x="136.71875"/>
      <use xlink:href="#DejaVuSans-6f" x="175.582031"/>
      <use xlink:href="#DejaVuSans-69" x="236.763672"/>
      <use xlink:href="#DejaVuSans-6e" x="264.546875"/>
     </g>
    </g>
    <g id="line2d_25">
     <path d="M 49.603125 79.450937 
L 59.603125 79.450937 
L 69.603125 79.450937 
" style="fill: none; stroke: #2ca02c; stroke-width: 1.5; stroke-linecap: square"/>
    </g>
    <g id="text_17">
     <!-- Other opioids -->
     <g transform="translate(77.603125 82.950937) scale(0.1 -0.1)">
      <use xlink:href="#DejaVuSans-4f"/>
      <use xlink:href="#DejaVuSans-74" x="78.710938"/>
      <use xlink:href="#DejaVuSans-68" x="117.919922"/>
      <use xlink:href="#DejaVuSans-65" x="181.298828"/>
      <use xlink:href="#DejaVuSans-72" x="242.822266"/>
      <use xlink:href="#DejaVuSans-20" x="283.935547"/>
      <use xlink:href="#DejaVuSans-6f" x="315.722656"/>
      <use xlink:href="#DejaVuSans-70" x="376.904297"/>
      <use xlink:href="#DejaVuSans-69" x="440.380859"/>
      <use xlink:href="#DejaVuSans-6f" x="468.164062"/>
      <use xlink:href="#DejaVuSans-69" x="529.345703"/>
      <use xlink:href="#DejaVuSans-64" x="557.128906"/>
      <use xlink:href="#DejaVuSans-73" x="620.605469"/>
     </g>
    </g>
    <g id="line2d_26">
     <path d="M 49.603125 94.129062 
L 59.603125 94.129062 
L 69.603125 94.129062 
" style="fill: none; stroke: #d62728; stroke-width: 1.5; stroke-linecap: square"/>
    </g>
    <g id="text_18">
     <!-- Methadone -->
     <g transform="translate(77.603125 97.629062) scale(0.1 -0.1)">
      <use xlink:href="#DejaVuSans-4d"/>
      <use xlink:href="#DejaVuSans-65" x="86.279297"/>
      <use xlink:href="#DejaVuSans-74" x="147.802734"/>
      <use xlink:href="#DejaVuSans-68" x="187.011719"/>
      <use xlink:href="#DejaVuSans-61" x="250.390625"/>
      <use xlink:href="#DejaVuSans-64" x="311.669922"/>
      <use xlink:href="#DejaVuSans-6f" x="375.146484"/>
      <use xlink:href="#DejaVuSans-6e" x="436.328125"/>
      <use xlink:href="#DejaVuSans-65" x="499.707031"/>
     </g>
    </g>
    <g id="line2d_27">
     <path d="M 49.603125 108.807187 
L 59.603125 108.807187 
L 69.603125 108.807187 
" style="fill: none; stroke: #9467bd; stroke-width: 1.5; stroke-linecap: square"/>
    </g>
    <g id="text_19">
     <!-- Other synthetic narcotics -->
     <g transform="translate(77.603125 112.307187) scale(0.1 -0.1)">
      <defs>
       <path id="DejaVuSans-79" d="M 2059 -325 
Q 1816 -950 1584 -1140 
Q 1353 -1331 966 -1331 
L 506 -1331 
L 506 -850 
L 844 -850 
Q 1081 -850 1212 -737 
Q 1344 -625 1503 -206 
L 1606 56 
L 191 3500 
L 800 3500 
L 1894 763 
L 2988 3500 
L 3597 3500 
L 2059 -325 
z
" transform="scale(0.015625)"/>
       <path id="DejaVuSans-63" d="M 3122 3366 
L 3122 2828 
Q 2878 2963 2633 3030 
Q 2388 3097 2138 3097 
Q 1578 3097 1268 2742 
Q 959 2388 959 1747 
Q 959 1106 1268 751 
Q 1578 397 2138 397 
Q 2388 397 2633 464 
Q 2878 531 3122 666 
L 3122 134 
Q 2881 22 2623 -34 
Q 2366 -91 2075 -91 
Q 1284 -91 818 406 
Q 353 903 353 1747 
Q 353 2603 823 3093 
Q 1294 3584 2113 3584 
Q 2378 3584 2631 3529 
Q 2884 3475 3122 3366 
z
" transform="scale(0.015625)"/>
      </defs>
      <use xlink:href="#DejaVuSans-4f"/>
      <use xlink:href="#DejaVuSans-74" x="78.710938"/>
      <use xlink:href="#DejaVuSans-68" x="117.919922"/>
      <use xlink:href="#DejaVuSans-65" x="181.298828"/>
      <use xlink:href="#DejaVuSans-72" x="242.822266"/>
      <use xlink:href="#DejaVuSans-20" x="283.935547"/>
      <use xlink:href="#DejaVuSans-73" x="315.722656"/>
      <use xlink:href="#DejaVuSans-79" x="367.822266"/>
      <use xlink:href="#DejaVuSans-6e" x="427.001953"/>
      <use xlink:href="#DejaVuSans-74" x="490.380859"/>
      <use xlink:href="#DejaVuSans-68" x="529.589844"/>
      <use xlink:href="#DejaVuSans-65" x="592.96875"/>
      <use xlink:href="#DejaVuSans-74" x="654.492188"/>
      <use xlink:href="#DejaVuSans-69" x="693.701172"/>
      <use xlink:href="#DejaVuSans-63" x="721.484375"/>
      <use xlink:href="#DejaVuSans-20" x="776.464844"/>
      <use xlink:href="#DejaVuSans-6e" x="808.251953"/>
      <use xlink:href="#DejaVuSans-61" x="871.630859"/>
      <use xlink:href="#DejaVuSans-72" x="932.910156"/>
      <use xlink:href="#DejaVuSans-63" x="971.773438"/>
      <use xlink:href="#DejaVuSans-6f" x="1026.753906"/>
      <use xlink:href="#DejaVuSans-74" x="1087.935547"/>
      <use xlink:href="#DejaVuSans-69" x="1127.144531"/>
      <use xlink:href="#DejaVuSans-63" x="1154.927734"/>
      <use xlink:href="#DejaVuSans-73" x="1209.908203"/>
     </g>
    </g>
    <g id="line2d_28">
     <path d="M 49.603125 123.485312 
L 59.603125 123.485312 
L 69.603125 123.485312 
" style="fill: none; stroke: #8c564b; stroke-width: 1.5; stroke-linecap: square"/>
    </g>
    <g id="text_20">
     <!-- Other and unspecified narcotics -->
     <g transform="translate(77.603125 126.985312) scale(0.1 -0.1)">
      <use xlink:href="#DejaVuSans-4f"/>
      <use xlink:href="#DejaVuSans-74" x="78.710938"/>
      <use xlink:href="#DejaVuSans-68" x="117.919922"/>
      <use xlink:href="#DejaVuSans-65" x="181.298828"/>
      <use xlink:href="#DejaVuSans-72" x="242.822266"/>
      <use xlink:href="#DejaVuSans-20" x="283.935547"/>
      <use xlink:href="#DejaVuSans-61" x="315.722656"/>
      <use xlink:href="#DejaVuSans-6e" x="377.001953"/>
      <use xlink:href="#DejaVuSans-64" x="440.380859"/>
      <use xlink:href="#DejaVuSans-20" x="503.857422"/>
      <use xlink:href="#DejaVuSans-75" x="535.644531"/>
      <use xlink:href="#DejaVuSans-6e" x="599.023438"/>
      <use xlink:href="#DejaVuSans-73" x="662.402344"/>
      <use xlink:href="#DejaVuSans-70" x="714.501953"/>
      <use xlink:href="#DejaVuSans-65" x="777.978516"/>
      <use xlink:href="#DejaVuSans-63" x="839.501953"/>
      <use xlink:href="#DejaVuSans-69" x="894.482422"/>
      <use xlink:href="#DejaVuSans-66" x="922.265625"/>
      <use xlink:href="#DejaVuSans-69" x="957.470703"/>
      <use xlink:href="#DejaVuSans-65" x="985.253906"/>
      <use xlink:href="#DejaVuSans-64" x="1046.777344"/>
      <use xlink:href="#DejaVuSans-20" x="1110.253906"/>
      <use xlink:href="#DejaVuSans-6e" x="1142.041016"/>
      <use xlink:href="#DejaVuSans-61" x="1205.419922"/>
      <use xlink:href="#DejaVuSans-72" x="1266.699219"/>
      <use xlink:href="#DejaVuSans-63" x="1305.5625"/>
      <use xlink:href="#DejaVuSans-6f" x="1360.542969"/>
      <use xlink:href="#DejaVuSans-74" x="1421.724609"/>
      <use xlink:href="#DejaVuSans-69" x="1460.933594"/>
      <use xlink:href="#DejaVuSans-63" x="1488.716797"/>
      <use xlink:href="#DejaVuSans-73" x="1543.697266"/>
     </g>
    </g>
   </g>
  </g>
 </g>
 <defs>
  <clipPath id="p0606d41744">
   <rect x="40.603125" y="22.318125" width="357.12" height="266.112"/>
  </clipPath>
 </defs>
</svg>
